<?xml version="1.0" encoding="utf-8"?><svg xmlns="http://www.w3.org/2000/svg" xmlns:xlink="http://www.w3.org/1999/xlink"><symbol fill="none" viewBox="0 0 12 16" id="icons--activate" xmlns="http://www.w3.org/2000/svg"><path d="M11.92 11.044L6.667.424a.734.734 0 0 0-1.332 0L.08 11.045c-.245.496.106 1.098.666 1.098h2.242c.42 0 .736.318.736.743v2.372c0 .424.315.743.736.743h3.08c.42 0 .736-.319.736-.743v-2.372c0-.425.315-.743.736-.743h2.242c.56-.036.91-.602.665-1.098z" fill="var(--main-color)"/></symbol><symbol fill="none" viewBox="0 0 21 21" id="icons--aim" xmlns="http://www.w3.org/2000/svg"><circle cx="10.5" cy="10.313" r="6.5" stroke="#48448C" stroke-opacity=".5" stroke-width="2" stroke-linecap="round"/><path stroke="#48448C" stroke-opacity=".5" stroke-width="2" stroke-linecap="round" d="M6.5 10H1m19 0h-5.5m-4.125-9v5.5m0 7.625v5.5"/></symbol><symbol fill="none" viewBox="0 0 17 14" id="icons--archive" xmlns="http://www.w3.org/2000/svg"><path d="M15.126 5.062c0-.432.011-.868 0-1.3v-.019a.173.173 0 0 0-.17-.17H1.757c-.178 0-.355-.004-.534 0H1.2a.173.173 0 0 0-.17.17v9.062c.003.322.133.635.366.86.223.214.519.332.829.335h11.719a1.21 1.21 0 0 0 1.182-1.195V5.062zm-4.035.906a.732.732 0 0 1-.218.506.74.74 0 0 1-.523.22H5.805a.746.746 0 0 1-.74-.707v-.073a.739.739 0 0 1 .739-.705h4.545c.39 0 .71.305.739.686l.001.037v.017a.064.064 0 0 1 .002.02zm5.059-3.505a.517.517 0 0 1-.486.52H1.333c-.264 0-.528.002-.79 0a.524.524 0 0 1-.541-.532c-.002-.325 0-.65 0-.977 0-.315-.004-.63 0-.945A.524.524 0 0 1 .546 0h14.97c.081 0 .163-.007.243.012.247.053.391.281.393.523 0 .127-.003.253-.003.38V2.12c-.002.115.003.228.001.342z" fill="var(--main-color)"/></symbol><symbol fill="none" viewBox="0 0 16 8" id="icons--arrow-long" xmlns="http://www.w3.org/2000/svg"><path d="M.646 3.646a.5.5 0 0 0 0 .708l3.182 3.182a.5.5 0 1 0 .708-.708L1.707 4l2.829-2.828a.5.5 0 1 0-.708-.708L.646 3.646zM16 3.5H1v1h15v-1z" fill="var(--main-color)"/></symbol><symbol fill="none" viewBox="0 0 12 7" id="icons--arrow-orange" xmlns="http://www.w3.org/2000/svg"><path d="M1 1l5 4.375L11 1" stroke="#F67660" stroke-width="2" stroke-linecap="round" stroke-linejoin="round"/></symbol><symbol fill="none" viewBox="0 0 10 17" id="icons--arrow-right-white" xmlns="http://www.w3.org/2000/svg"><path d="M1 1l8 7.5L1 16" stroke="#fff"/></symbol><symbol viewBox="0 0 73.47 85.47" id="icons--attach" xmlns="http://www.w3.org/2000/svg"><path d="M56.05 23.07a4.002 4.002 0 0 0-5.66-5.66l-30 30a12.5 12.5 0 0 0 0 17.66 12.78 12.78 0 0 0 17.66 0l30-30A21 21 0 0 0 38.39 5.41l-30 30a29.46 29.46 0 0 0 41.66 41.66l22-22a4.002 4.002 0 1 0-5.66-5.66l-22 22a21.454 21.454 0 0 1-30.34-30.34l30-30a13 13 0 0 1 18.34 18.34l-30 30a4.483 4.483 0 1 1-6.34-6.34z" fill="#48448C"/></symbol><symbol fill="none" viewBox="0 0 16 16" id="icons--block" xmlns="http://www.w3.org/2000/svg"><circle cx="8" cy="8" r="7" stroke-width="2" stroke="var(--main-color)"/><path stroke="var(--main-color)" d="M13.354 3.354l-10 10"/></symbol><symbol fill="none" viewBox="0 0 19 14" id="icons--calendar" xmlns="http://www.w3.org/2000/svg"><path d="M5 0h4v4H5zm0 5h4v4H5zm0 5h4v4H5zM0 5h4v4H0zm0 5h4v4H0zM15 0h4v4h-4zm0 5h4v4h-4zm-5-5h4v4h-4zm0 5h4v4h-4zm0 5h4v4h-4z" opacity=".7" fill="#F67660"/></symbol><symbol fill="none" viewBox="0 0 12 10" id="icons--check" xmlns="http://www.w3.org/2000/svg"><path d="M1 5l3 3 7-7" stroke="#6FCF97" stroke-width="2" stroke-linecap="round"/></symbol><symbol fill="none" viewBox="0 0 30 30" id="icons--check-circle" xmlns="http://www.w3.org/2000/svg"><circle cx="15" cy="15" r="14.5" stroke="#6FCF97"/><path d="M10 15.74L12.857 19 20 11" stroke="#6FCF97"/></symbol><symbol fill="none" viewBox="0 0 20 16" id="icons--check-step" xmlns="http://www.w3.org/2000/svg"><path d="M1 9l5 5.5L18.5 1" stroke="#fff" stroke-width="2"/></symbol><symbol fill="none" viewBox="0 0 12 9" id="icons--checkbox-check" xmlns="http://www.w3.org/2000/svg"><path d="M1 4l3.889 4L11 1" stroke="#48448C"/></symbol><symbol fill="none" viewBox="0 0 9 9" id="icons--close" xmlns="http://www.w3.org/2000/svg"><path stroke="#F67660" d="M.354.646l8 8m-7.708 0l8-8"/></symbol><symbol fill="none" viewBox="0 0 25 25" id="icons--close-red" xmlns="http://www.w3.org/2000/svg"><path d="M6.248 5.965l12 12M18.07 6.071l-12 12" stroke="var(--main-color)" stroke-width="2"/></symbol><symbol fill="none" viewBox="0 0 16 16" id="icons--cp-change" xmlns="http://www.w3.org/2000/svg"><path fill-rule="evenodd" clip-rule="evenodd" d="M4.248 14.746l-.278.349-3.761.835L0 15.721l.836-3.69.348-.349 3.064 3.064zM14.346 4.65l-3.064-3.065L12.396.47a1.64 1.64 0 0 1 2.298 0l.836.836c.627.557.627 1.602 0 2.228L14.346 4.65zm-8.984 9.053l-3.064-3.134 8.079-8.078 3.064 3.064-8.079 8.148z" fill="#555"/></symbol><symbol fill="none" viewBox="0 0 16 16" id="icons--cp-favorites" xmlns="http://www.w3.org/2000/svg"><path fill-rule="evenodd" clip-rule="evenodd" d="M10.551 4.831c7.168.946 6.81-.138 1.569 4.807 1.31 7.053 2.224 6.383-4.13 2.975-6.373 3.427-5.42 4.097-4.11-2.975-5.24-4.945-5.599-3.861 1.57-4.807 3.117-6.441 1.985-6.441 5.102 0z" fill="#555"/></symbol><symbol fill="none" viewBox="0 0 16 13" id="icons--cp-mail" xmlns="http://www.w3.org/2000/svg"><rect x="1" y="1" width="14" height="10.444" rx="1" stroke="#555" stroke-width="2"/><path d="M1.778 1.778l4.92 4.218a2 2 0 0 0 2.604 0l4.92-4.218" stroke="#555"/></symbol><symbol fill="none" viewBox="0 0 16 12" id="icons--cp-reviews" xmlns="http://www.w3.org/2000/svg"><path d="M2 1h12a1 1 0 0 1 1 1v8.324c0 .93-1.29 1.164-1.617.293a2.835 2.835 0 0 0-2.655-1.84H2a1 1 0 0 1-1-1V2a1 1 0 0 1 1-1z" stroke="#555" stroke-width="2"/><path stroke="#555" stroke-linecap="round" stroke-linejoin="round" d="M3.167 3.056h9.666M3.167 4.833h6.111"/></symbol><symbol fill="none" viewBox="0 0 23 34" id="icons--doc" xmlns="http://www.w3.org/2000/svg"><path d="M.177 33h22V9H15.51l.333-8H.177v32z" fill="#48448C"/><path fill-rule="evenodd" clip-rule="evenodd" d="M.5.823H0v32.354h22.657V7.918l-.13-.142L16.386.988l-.149-.165H.5zm.5 2.44v-1.44h14.192v7.435h6.465v22.919H1V3.263zm20.615 4.995l-5.423-5.994v5.994h5.423z" fill="#48448C"/></symbol><symbol fill="none" viewBox="0 0 78 78" id="icons--documents-input" xmlns="http://www.w3.org/2000/svg"><rect x=".5" y=".5" width="77" height="77" rx="7.5" stroke="#F67660"/><path fill="#ADB8CA" d="M16 16h31v4H16z"/><path fill="#8795AC" d="M16 24h43v3H16zm0 6h49v3H16zm0 6h43v3H16zm0 6h40v3H16zm0 6h45v3H16zm0 6h49v3H16zm0 6h43v3H16z"/></symbol><symbol fill="none" viewBox="0 0 6 13" id="icons--dropdown" xmlns="http://www.w3.org/2000/svg"><path d="M3 0l2.598 4.5H.402L3 0zm0 13L.402 8.5h5.196L3 13z" fill="#F67660"/></symbol><symbol fill="none" viewBox="0 0 31 21" id="icons--eye" xmlns="http://www.w3.org/2000/svg"><g clip-path="url(#awclip0)"><path d="M30.48.007a.452.452 0 0 0-.194.068L17.414 8.683a2.67 2.67 0 0 0-1.922-.806c-1.461 0-2.655 1.18-2.655 2.623 0 .383.084.75.235 1.08L.2 20.188a.44.44 0 0 0-.125.614.452.452 0 0 0 .622.124l6.914-4.618a19.795 19.795 0 0 0 7.881 1.626c6.077 0 11.548-2.757 15.375-7.146a.433.433 0 0 0 0-.574 21.162 21.162 0 0 0-6.553-5.07l6.47-4.33a.434.434 0 0 0 .154-.6.444.444 0 0 0-.458-.207zm-14.988 3.06c-6.077 0-11.548 2.757-15.375 7.147a.433.433 0 0 0 0 .573 21.495 21.495 0 0 0 3.747 3.402c.187.155.467.13.623-.056a.434.434 0 0 0-.111-.654 20.591 20.591 0 0 1-3.305-2.965c3.66-4.039 8.754-6.572 14.421-6.572a18.9 18.9 0 0 1 3.443.314.438.438 0 0 0 .166-.86 19.828 19.828 0 0 0-3.61-.328zm0 1.312c-3.34 0-6.074 2.617-6.194 5.89a.44.44 0 0 0 .421.457.441.441 0 0 0 .463-.417c.104-2.811 2.438-5.055 5.31-5.055.546 0 1.067.082 1.562.232a.444.444 0 0 0 .57-.254.436.436 0 0 0-.307-.58 6.244 6.244 0 0 0-1.825-.273zm7.978 1.325c2.435 1.13 4.618 2.772 6.443 4.783-3.66 4.038-8.754 6.572-14.421 6.572a18.85 18.85 0 0 1-6.997-1.353l2.13-1.42a6.221 6.221 0 0 0 4.866 2.336c3.416 0 6.195-2.746 6.195-6.122a6.003 6.003 0 0 0-.83-3.047l2.614-1.749zm-3.346 2.241c.428.756.677 1.625.677 2.555 0 2.903-2.372 5.247-5.31 5.247a5.317 5.317 0 0 1-4.12-1.954l2.199-1.475c.484.5 1.17.806 1.922.806 1.46 0 2.654-1.18 2.654-2.624 0-.383-.084-.75-.235-1.08l2.213-1.475zm-4.632.807c.447 0 .85.17 1.161.437l-2.82 1.885a1.728 1.728 0 0 1-.111-.574c0-.97.787-1.748 1.77-1.748zm1.659 1.174c.063.18.11.372.11.574 0 .971-.787 1.749-1.77 1.749-.447 0-.85-.17-1.16-.437l2.82-1.886z" fill="#000"/></g><defs><clipPath id="awclip0"><path fill="#fff" d="M0 0h31v21H0z"/></clipPath></defs></symbol><symbol fill="none" viewBox="0 0 35 35" id="icons--favorite" xmlns="http://www.w3.org/2000/svg"><circle opacity=".6" cx="17.5" cy="17.5" r="17" fill="var(--fill-color)" stroke="var(--main-color)"/><path d="M19.64 14.89l.24.472.526.066c1.363.17 2.548.287 3.481.38.507.05.939.092 1.285.132l.19.023-.097.085a80.65 80.65 0 0 1-.95.812c-.7.59-1.59 1.344-2.59 2.237l-.424.38.11.558c.245 1.251.493 2.352.688 3.216a72.414 72.414 0 0 1 .306 1.408 19.635 19.635 0 0 1-.288-.147 82.93 82.93 0 0 1-1.134-.607 123.01 123.01 0 0 0-3.042-1.607l-.453-.23-.454.23c-1.226.625-2.265 1.19-3.081 1.635-.432.235-.801.436-1.103.593-.093.049-.18.094-.26.134l.038-.19c.066-.312.153-.696.255-1.144.198-.872.451-1.988.706-3.291l.11-.559-.425-.379c-1-.893-1.89-1.646-2.589-2.237a80.86 80.86 0 0 1-1.047-.897l.19-.023c.346-.04.778-.082 1.285-.133.933-.092 2.118-.21 3.481-.38l.526-.065.24-.472a115.667 115.667 0 0 0 1.454-2.968c.213-.446.393-.824.539-1.116l.147-.289.147.289c.146.292.326.67.539 1.116.382.802.87 1.825 1.453 2.968zm2.87 10.629c0-.001 0-.013.004-.033-.001.024-.003.034-.004.033zm-4.6-15.665a.105.105 0 0 1-.02.02c.013-.015.02-.02.02-.02zm-.8.02a.105.105 0 0 1-.02-.02s.007.005.02.02z" stroke="var(--main-color)" stroke-width="2"/></symbol><symbol fill="none" viewBox="0 0 11 20" id="icons--fb" xmlns="http://www.w3.org/2000/svg"><path d="M10.586.004L7.947 0c-2.964 0-4.88 1.932-4.88 4.922v2.27H.416A.411.411 0 0 0 0 7.598v3.288c0 .226.186.408.415.408h2.653v8.297a.41.41 0 0 0 .415.408h3.46c.23 0 .416-.183.416-.408v-8.297h3.101a.41.41 0 0 0 .415-.408l.001-3.288a.405.405 0 0 0-.121-.288.419.419 0 0 0-.294-.12H7.36V5.268c0-.925.224-1.394 1.449-1.394l1.777-.001c.23 0 .415-.183.415-.408V.412a.411.411 0 0 0-.414-.408z" fill="#3C5999"/></symbol><symbol fill="none" viewBox="0 0 120 120" id="icons--find-job" xmlns="http://www.w3.org/2000/svg"><g clip-path="url(#azclip0)"><path d="M60 120c33.137 0 60-26.941 60-60.175C120 26.592 93.137-.349 60-.349S0 26.59 0 59.825 26.863 120 60 120z" fill="#00CF94"/><path d="M60 120a59.694 59.694 0 0 0 18.73-3.011v-.308l-.697-4.86-.195-1.46-.338-2.353-.932-6.278-.892-6.3H43.391l-.266 1.933-.236 1.654-.44 3.083-.144 1.027-1.916 13.564A59.816 59.816 0 0 0 60 120z" fill="#F9D8BC"/><path d="M77.46 108.008c-10.165 4.357-20.626 14.623-34.57-9.042l.235-1.655.267-1.932h32.284l.892 6.351.891 6.278zm4.559-45.788a5.196 5.196 0 0 1 3.821-2.816 5.578 5.578 0 0 1 4.775 1.028c1.537 1.48.779 3.73-.349 5.62-1.127 1.891-2.602 3.843-2.325 5.755.184 1.264 1.127 2.415.86 3.72-.266 1.305-1.967 2.569-3.852 2.825-1.885.257-3.76-.503-4.263-1.726l1.332-14.407zm-43.935 0a5.195 5.195 0 0 0-3.822-2.816 5.569 5.569 0 0 0-4.774 1.028c-1.547 1.48-.779 3.73.348 5.62 1.127 1.891 2.603 3.843 2.326 5.755-.184 1.264-1.137 2.415-.86 3.72.276 1.305 1.967 2.569 3.852 2.825 1.885.257 3.75-.503 4.262-1.726L38.084 62.22z" fill="#EFBA9E"/><path d="M69.252 105.84a15.398 15.398 0 0 1-18.442 0c-7.594-5.652-17.01-17.54-16.272-25.69a177.093 177.093 0 0 0-1.168-31.628 13.39 13.39 0 0 1 1.837-8.707 13.328 13.328 0 0 1 6.882-5.617 54.012 54.012 0 0 1 35.86 0 13.328 13.328 0 0 1 6.883 5.617 13.39 13.39 0 0 1 1.837 8.707 176.136 176.136 0 0 0-1.168 31.629c.748 8.148-8.658 20.037-16.25 25.689z" fill="#F9D8BC"/><path d="M34.57 80.264c-.666 8.107 8.709 19.935 16.28 25.576a15.398 15.398 0 0 0 18.443 0c7.551-5.641 16.906-17.469 16.24-25.576l-1.855 2.055c-2.612 2.97-6.342 12.218-10.256 12.218H46.424c-4.416 0-8.514-9.721-11.137-13.287l-.717-.986zm15.4-19.308a2.337 2.337 0 0 1-1.437 2.155A2.32 2.32 0 0 1 46 62.605a2.335 2.335 0 0 1 1.644-3.982 2.324 2.324 0 0 1 2.326 2.333zm24.825 0a2.348 2.348 0 0 1-1.435 2.171 2.33 2.33 0 0 1-2.55-.5 2.346 2.346 0 0 1 1.65-4.004c.617 0 1.21.245 1.647.683.438.437.685 1.03.688 1.65zm3.771-3.484a.787.787 0 0 1-.902-.657c-.277-1.747-2.5-2.713-4.447-2.734a20.51 20.51 0 0 0-2.592.185l-1.609.195a.788.788 0 0 1-.773-.734.793.793 0 0 1 .66-.838c.513 0 1.025-.092 1.548-.154.92-.123 1.848-.188 2.776-.195 2.664 0 5.574 1.438 5.994 4.11a.803.803 0 0 1-.656.822zm-38.136.75a.778.778 0 0 1-.778-.791c0-2.661 2.643-4.521 5.266-4.973a23.39 23.39 0 0 1 2.777-.247l1.383-.082a.776.776 0 0 1 .75.434.783.783 0 0 1-.648 1.128c-.47 0-.953.072-1.434.092-.865.021-1.727.097-2.582.226-1.926.34-3.965 1.644-3.965 3.422a.793.793 0 0 1-.779.791h.01z" fill="#48428E"/><path d="M60.287 71.93a3.893 3.893 0 0 1-2.91-1.243c-1.608-1.675-.697-3.597.37-5.827a16.55 16.55 0 0 0 2.048-7.295.782.782 0 0 1 .779-.781.778.778 0 0 1 .779.78c-.09 2.79-.839 5.52-2.183 7.964-1.096 2.312-1.434 3.258-.645 4.11.789.853 2.141.864 4.221.32a.756.756 0 0 1 .943.554.783.783 0 0 1-.554.956c-.926.272-1.883.427-2.848.462z" fill="#EFBA9E"/><path d="M50.42 80.274c.871 2.846 4.846 7.522 9.631 7.522s8.76-4.676 9.632-7.522H50.42z" fill="#fff"/><path d="M61.117 79.431a4.77 4.77 0 0 1-1.397 3.372 4.743 4.743 0 0 1-3.367 1.386c-2.613 0-11.886-3.083-11.886-3.083s7.172-6.432 11.886-6.432a4.73 4.73 0 0 1 3.367 1.386 4.757 4.757 0 0 1 1.397 3.371zM39.744 33.91S31.219 8.837 64.129 12.33c0 0 11.66 3.495 15.963.145 0 .02 15.553 28.32-40.348 21.435z" fill="#48428E"/><path d="M35.297 37.147S29.826 5.64 68.432 16.05c0 0 13.259 6.35 19.017 3.175 0 0 6.957 47.947-52.152 17.92zm29.928 62.949H54.877c1.885-3.597 2.654-6.525 2.592-8.837a2.576 2.576 0 0 1 .75-1.837 2.561 2.561 0 0 1 1.832-.753 2.557 2.557 0 0 1 2.391 1.596c.129.315.194.653.191.994-.061 2.312.697 5.24 2.592 8.837zm-22.52-21.63s1.188 6.103 13.648 5.723l-4.816-8.087s-5.543 2.61-7.039.37c-1.301-1.952.943-3.01.943-3.01s-3.77.677-2.736 5.004zm16.281.965c0 1.262.5 2.472 1.389 3.365a4.737 4.737 0 0 0 3.354 1.393c2.623 0 11.896-3.083 11.896-3.083s-7.172-6.432-11.896-6.432a4.737 4.737 0 0 0-3.354 1.393 4.765 4.765 0 0 0-1.39 3.364z" fill="#48428E"/><path d="M77.387 78.466S76.2 84.569 63.73 84.189l4.836-8.087s5.532 2.61 7.038.37c1.302-1.952-.952-3.01-.952-3.01s3.78.677 2.735 5.004z" fill="#48428E"/></g><defs><clipPath id="azclip0"><path fill="#fff" d="M0 0h120v120H0z"/></clipPath></defs></symbol><symbol fill="none" viewBox="0 0 120 121" id="icons--find-profi" xmlns="http://www.w3.org/2000/svg"><path d="M60 120.445c33.137 0 60-26.963 60-60.223S93.137 0 60 0 0 26.962 0 60.222c0 33.26 26.863 60.223 60 60.223z" fill="#37C8CC"/><path d="M95.932 56.047c-3.073-3.681-8.483-7.404-7.53-12.083C90.789 32.178 86.988 13.585 60 13.42c-20.195.597-35.164 19.077-39.795 31.346a63.793 63.793 0 0 0-3.699 30.173C18.893 91.845 35.973 105.852 60 105.852s43.484-13.842 43.484-30.913c0-6.459-2.777-13.112-7.552-18.892z" fill="#FF775F"/><path d="M75.922 88.554H43.76c.215.587.42 1.183.605 1.79a32.927 32.927 0 0 1 1.024 4.648c.062.35.103.7.154 1.028a28.957 28.957 0 0 1-5.328 21.041 59.791 59.791 0 0 0 39.303.083 27.096 27.096 0 0 1-3.883-7.107 28.808 28.808 0 0 1-1.526-6.52 32.458 32.458 0 0 1 .235-8.905 33.527 33.527 0 0 1 1.578-6.058z" fill="#F9D8BC"/><path d="M75.635 110.037c-11.578 0-22.408 3.713-30.071-13.986 0-.35-.093-.699-.154-1.028a32.924 32.924 0 0 0-1.025-4.648 33.394 33.394 0 0 0-.604-1.79h5.604a185.947 185.947 0 0 1 20.123 6.027h4.836a32.461 32.461 0 0 0-.235 8.926 28.77 28.77 0 0 0 1.526 6.499zM41.291 66.393a3.98 3.98 0 0 0-2.633-2.54 4.279 4.279 0 0 0-3.75.288c-1.322 1.028-.963 2.776-.297 4.329.666 1.553 1.598 3.198 1.198 4.628-.266.956-1.106 1.738-1.024 2.756a3.448 3.448 0 0 0 2.654 2.55c1.413.38 2.92 0 3.432-.884l.42-11.127z" fill="#EFBA9E"/><path d="M38.986 77.756a2.35 2.35 0 0 1-1.442 2.167 2.328 2.328 0 0 1-2.546-.509 2.347 2.347 0 0 1-.507-2.555 2.342 2.342 0 0 1 2.159-1.447c.62 0 1.213.247 1.651.686.438.44.685 1.037.685 1.658z" fill="#48428E"/><path d="M79.395 66.393a4.003 4.003 0 0 1 2.644-2.54 4.259 4.259 0 0 1 3.74.288c1.332 1.028 1.024 2.776.297 4.329-.728 1.553-1.598 3.198-1.199 4.628.267.956 1.107 1.738 1.025 2.756a3.5 3.5 0 0 1-.97 1.657 3.48 3.48 0 0 1-1.694.893c-1.404.38-2.91 0-3.422-.884l-.42-11.127z" fill="#EFBA9E"/><path d="M81.711 77.756a2.35 2.35 0 0 0 1.45 2.17 2.328 2.328 0 0 0 2.549-.523 2.348 2.348 0 0 0-.388-3.611 2.33 2.33 0 0 0-1.306-.38 2.321 2.321 0 0 0-1.635.694 2.339 2.339 0 0 0-.67 1.65z" fill="#48428E"/><path d="M75.584 38.41H45.082c-6.148 0-10.338 5.142-9.303 11.313a116.105 116.105 0 0 1 1.27 23.704c-.379 8.484 8.474 21.04 15.779 28.939a10.455 10.455 0 0 0 7.545 3.296 10.46 10.46 0 0 0 7.588-3.194c7.418-7.856 16.394-20.423 15.697-29.041a113.003 113.003 0 0 1 1.24-23.705c1.034-6.118-3.126-11.312-9.314-11.312z" fill="#F9D8BC"/><path d="M51.834 84.852c.768 2.839 4.283 4.988 8.525 4.988 4.241 0 7.756-2.15 8.524-4.988H51.834z" fill="#fff"/><path d="M49.375 65.889a2.341 2.341 0 0 1-1.436 2.157 2.318 2.318 0 0 1-2.534-.507 2.336 2.336 0 0 1-.505-2.544 2.333 2.333 0 0 1 2.15-1.44 2.32 2.32 0 0 1 1.644.683 2.34 2.34 0 0 1 .681 1.65zm26.598 0a2.33 2.33 0 0 1-1.436 2.14 2.308 2.308 0 0 1-2.52-.51 2.328 2.328 0 0 1 .355-3.574 2.31 2.31 0 0 1 3.428 1.051c.116.283.175.587.173.893zm-33.698-5.214a.777.777 0 0 1-.776-.722.794.794 0 0 1 .181-.574 7.019 7.019 0 0 1 4.6-2.2 22.844 22.844 0 0 1 2.777 0h1.896a.797.797 0 0 1 .775 1.053.772.772 0 0 1-.703.51h-2.05a21.468 21.468 0 0 0-2.581 0 5.524 5.524 0 0 0-3.566 1.655.758.758 0 0 1-.553.278zm35.317 0a.775.775 0 0 1-.594-.278 5.524 5.524 0 0 0-3.555-1.656 21.64 21.64 0 0 0-2.593 0h-2.049a.767.767 0 0 1-.748-.812.803.803 0 0 1 .81-.75h1.906a22.886 22.886 0 0 1 2.776 0 7.018 7.018 0 0 1 4.59 2.2.783.783 0 0 1-.543 1.296z" fill="#48428E"/><path d="M60.502 78.034a8.05 8.05 0 0 1-3.453-.905c-.912-.411-.594-1.316.093-3.322A30.95 30.95 0 0 0 59.19 63.74a.783.783 0 0 1 .778-.781.777.777 0 0 1 .779.781 32.456 32.456 0 0 1-2.162 10.583c-.184.565-.4 1.182-.502 1.563a5.729 5.729 0 0 0 4.098.298.777.777 0 0 1 .953.566.784.784 0 0 1-.563.956 8.254 8.254 0 0 1-2.07.329z" fill="#EFBA9E"/><path d="M48.77 38.184c.482-1.378.922-2.951.257-4.247a3.616 3.616 0 0 0-3.443-1.748 7.863 7.863 0 0 0-3.76 1.48c-4.334 2.88-7.357 7.446-9.222 12.341-1.198 3.034-7.172 21.02-2.336 21.874 5.79 1.028 11.168-12.65 12.982-16.331a114.04 114.04 0 0 0 5.522-13.369z" fill="#FF775F"/><path d="M45.543 34.07c.164 5.307 4.395 9.554 8.77 12.526a52.983 52.983 0 0 0 26.937 9.03c1.762.092 3.678 0 5.123-1.029 1.936-1.43 2.254-4.206 1.844-6.654-1.024-6.026-5.543-11.024-10.891-13.934-5.349-2.91-11.496-4.021-17.551-4.659l-14.232 4.72z" fill="#FF775F"/></symbol><symbol viewBox="0 0 194 40" fill="none" id="icons--logo" xmlns="http://www.w3.org/2000/svg"><path d="M35.202 28.498c-1.505-1.228-2.224-2.908-2.224-5.106V7.884h4.514v15.508c0 2.327 1.44 3.49 4.319 3.49s4.318-1.163 4.318-3.49V7.884h4.515v15.508c0 2.198-.72 3.878-2.225 5.106-1.505 1.227-3.73 1.873-6.608 1.873-2.88 0-5.17-.646-6.609-1.873zm30.622-12.86l-1.047 3.425a4.61 4.61 0 0 0-1.243-.646c-.392-.13-.916-.194-1.505-.194-1.374 0-2.42.905-3.01 2.779v8.917h-4.122V19.71c0-.581-.13-1.034-.327-1.357-.196-.388-.589-.775-1.178-1.163l2.748-2.391c.72.388 1.309.775 1.702 1.228.392.387.72.904.916 1.486a4.512 4.512 0 0 1 1.7-1.939c.72-.517 1.571-.71 2.553-.71 1.112-.065 2.028.194 2.813.775zm6.151 12.86v1.421h-4.122V11.31c0-.582-.131-1.034-.328-1.357-.196-.388-.654-.776-1.177-1.164l2.748-2.39c1.112.516 1.832 1.163 2.29 1.873.392.711.654 1.68.654 2.973V16.8c1.113-1.292 2.617-1.938 4.646-1.938 1.374 0 2.617.323 3.599.969.981.646 1.7 1.55 2.224 2.65.524 1.098.72 2.326.72 3.618v1.034c0 1.293-.262 2.52-.72 3.619a5.896 5.896 0 0 1-2.224 2.65c-.982.646-2.16.969-3.6.969-2.093-.065-3.663-.647-4.71-1.874zm6.085-2.52c.589-.776.916-1.745.916-2.909v-1.034c0-1.163-.327-2.132-.916-2.907-.589-.776-1.505-1.228-2.683-1.228-1.766 0-2.944.84-3.402 2.585v4.07c.458 1.745 1.636 2.585 3.402 2.585 1.178.065 2.094-.387 2.683-1.163zm21.069.775c.196.387.654.775 1.178 1.163l-2.748 2.39c-1.244-.58-2.029-1.356-2.487-2.325a5.137 5.137 0 0 1-1.897 1.615c-.785.452-1.832.646-3.01.646-1.505 0-2.683-.387-3.599-1.163-.916-.775-1.309-1.874-1.309-3.23 0-1.229.328-2.263.982-2.909a5.054 5.054 0 0 1 2.29-1.422c.85-.258 1.832-.452 2.879-.516l1.505-.13c.589-.064 1.047-.194 1.309-.323.261-.129.392-.387.392-.71-.065-.647-.262-1.164-.654-1.616-.393-.452-1.047-.646-2.094-.646-.654 0-1.243.129-1.767.387-.523.259-1.047.647-1.57 1.228l-2.814-1.938a5.482 5.482 0 0 1 2.356-1.81c.916-.452 2.225-.646 3.86-.646 4.58 0 6.87 1.81 6.87 5.493v5.105c0 .581.066 1.034.328 1.357zm-5.366-.13c.59-.516.917-1.163.917-1.938v-1.293c-.328.13-.982.259-1.963.324l-.982.064c-.72.065-1.308.194-1.832.517-.458.259-.72.776-.72 1.486 0 .517.197.97.524 1.228.392.323.85.453 1.44.453 1.177-.065 2.028-.323 2.616-.84zm21.266-10.533c.85.905 1.308 2.133 1.308 3.748V29.92h-4.122v-9.693c0-.71-.196-1.292-.589-1.68a2.18 2.18 0 0 0-1.57-.646c-1.374 0-2.421.84-3.01 2.455v9.564h-4.122V19.71c0-.581-.131-1.034-.327-1.357-.197-.388-.655-.775-1.178-1.163l2.748-2.391c.654.323 1.243.71 1.636 1.099.393.387.72.84.916 1.292a5.246 5.246 0 0 1 1.832-1.745c.785-.452 1.701-.646 2.814-.646 1.505 0 2.748.388 3.664 1.292zm14.133 12.02c-1.636-1.357-2.421-3.36-2.421-6.01v-6.72c0-2.65.785-4.653 2.421-6.01 1.636-1.357 3.926-2.003 6.936-2.003 2.159 0 3.991.323 5.365 1.034a7.915 7.915 0 0 1 3.272 3.101l-3.403 2.327c-.654-1.034-1.374-1.81-2.093-2.262-.72-.452-1.767-.71-3.141-.71-1.701 0-2.945.387-3.73 1.162-.785.776-1.178 1.874-1.178 3.425v6.72c0 1.487.393 2.65 1.178 3.426.785.775 2.029 1.163 3.73 1.163 1.505 0 2.617-.259 3.402-.711.785-.517 1.178-1.228 1.178-2.133v-.969c0-1.292-.589-1.938-1.832-1.938h-3.664v-3.49h4.907c1.701 0 2.945.388 3.73 1.163.785.776 1.243 2.003 1.243 3.619v1.939c0 1.874-.785 3.36-2.421 4.458-1.636 1.099-3.795 1.616-6.543 1.616-3.01-.194-5.366-.84-6.936-2.197zm32.912-1.616c.196.388.654.776 1.178 1.163l-2.748 2.391c-.72-.387-1.243-.71-1.636-1.163-.393-.452-.72-.84-.916-1.421-.982 1.744-2.486 2.584-4.58 2.584-1.701 0-2.945-.452-3.861-1.292-.916-.905-1.374-2.132-1.374-3.748v-10.08h4.122v9.692c0 .711.197 1.293.589 1.68.393.453.982.647 1.701.647 1.375 0 2.421-.905 3.01-2.714v-9.306h4.123v10.146c0 .646.13 1.098.392 1.421zm14.919-11.05l-1.047 3.425a4.61 4.61 0 0 0-1.244-.646c-.392-.13-.916-.194-1.504-.194-1.374 0-2.421.905-3.01 2.779v8.917h-4.122v-10.21c0-.581-.131-1.034-.328-1.357-.196-.387-.589-.775-1.177-1.163l2.748-2.39c.719.387 1.308.775 1.701 1.227.458.388.72.905.916 1.486a4.514 4.514 0 0 1 1.701-1.938c.72-.517 1.571-.711 2.552-.711 1.112-.065 2.094.194 2.814.775zm15.769 11.05c.196.388.654.776 1.177 1.163l-2.748 2.391c-.719-.387-1.243-.71-1.636-1.163-.392-.387-.719-.84-.916-1.421-.981 1.744-2.486 2.584-4.58 2.584-1.701 0-2.944-.452-3.86-1.292-.916-.905-1.374-2.132-1.374-3.748v-10.08h4.122v9.692c0 .711.196 1.293.589 1.68.392.453.981.647 1.701.647 1.374 0 2.421-.905 3.01-2.714v-9.306h4.122v10.146c.065.646.131 1.098.393 1.421z" fill="#48448C"/><path d="M15.573 35.541c-.262-.452-.393-.97-.393-1.68v-6.333h-5.038v6.462c0 1.551.262 2.714.785 3.554.524.84 1.57 1.939 3.01 2.456l3.075-3.037c-.72-.517-1.178-1.034-1.44-1.422z" fill="#F67660"/><path d="M12.694 0C5.693 0 0 5.622 0 12.536c0 6.85 5.693 12.472 12.694 12.472 7 0 12.628-5.622 12.628-12.472C25.322 5.622 19.63 0 12.694 0zm-.066 20.032c-4.187 0-7.59-3.36-7.59-7.496 0-4.135 3.403-7.496 7.59-7.496 4.188 0 7.59 3.36 7.59 7.496 0 4.136-3.402 7.496-7.59 7.496z" fill="#48448C"/></symbol><symbol fill="none" viewBox="0 0 171 43" id="icons--logo-mobile" xmlns="http://www.w3.org/2000/svg"><path d="M15.387 37.757c-.279-.48-.418-1.03-.418-1.785v-6.728H9.596v6.865c0 1.648.28 2.884.838 3.776.558.893 1.674 2.06 3.209 2.61l3.279-3.227c-.767-.55-1.256-1.099-1.535-1.51z" fill="#F67660"/><path d="M13.535 0C6.07 0 0 5.973 0 13.318c0 7.277 6.07 13.25 13.535 13.25S27 20.594 27 13.317C27 5.973 20.93 0 13.535 0zm-.07 21.281c-4.465 0-8.093-3.57-8.093-7.963 0-4.394 3.628-7.963 8.093-7.963s8.093 3.57 8.093 7.963c0 4.394-3.628 7.963-8.093 7.963zm21.442 9.562C33.617 29.725 33 28.194 33 26.193V12.068h3.87v14.125c0 2.12 1.235 3.178 3.703 3.178s3.703-1.059 3.703-3.178V12.068h3.87v14.125c0 2.001-.617 3.532-1.907 4.65-1.29 1.118-3.197 1.707-5.666 1.707-2.468 0-4.431-.589-5.666-1.707zM61.161 19.13l-.898 3.12a3.877 3.877 0 0 0-1.065-.589c-.337-.118-.786-.176-1.29-.176-1.179 0-2.076.824-2.581 2.53v8.123h-3.534v-9.3c0-.53-.112-.941-.28-1.236-.17-.353-.506-.706-1.01-1.06l2.355-2.177c.618.353 1.123.707 1.46 1.119.336.353.616.823.785 1.353a4.041 4.041 0 0 1 1.458-1.765c.617-.471 1.346-.648 2.188-.648.953-.059 1.739.177 2.412.706zm5.273 11.713v1.295H62.9v-16.95c0-.53-.112-.942-.28-1.236-.169-.353-.561-.706-1.01-1.06l2.356-2.177c.953.47 1.57 1.06 1.963 1.707.337.647.561 1.53.561 2.707v5.061c.954-1.177 2.244-1.765 3.983-1.765 1.178 0 2.244.294 3.085.883.842.588 1.46 1.412 1.908 2.413.449 1 .617 2.118.617 3.296v.941a9.03 9.03 0 0 1-.617 3.296 5.303 5.303 0 0 1-1.907 2.413c-.842.588-1.852.883-3.086.883-1.795-.059-3.141-.589-4.039-1.707zm5.217-2.295c.505-.706.786-1.59.786-2.649v-.941c0-1.06-.28-1.943-.786-2.649-.505-.706-1.29-1.118-2.3-1.118-1.514 0-2.524.765-2.917 2.354v3.708c.393 1.589 1.403 2.354 2.917 2.354 1.01.059 1.795-.353 2.3-1.06zm18.064.706c.168.353.56.706 1.01 1.06l-2.357 2.177c-1.066-.53-1.739-1.236-2.131-2.119a4.489 4.489 0 0 1-1.627 1.472c-.673.412-1.57.588-2.58.588-1.29 0-2.3-.353-3.086-1.06-.785-.705-1.122-1.706-1.122-2.942 0-1.118.28-2.06.841-2.649a4.301 4.301 0 0 1 1.964-1.294 10.27 10.27 0 0 1 2.468-.471l1.29-.118c.505-.059.898-.177 1.122-.294.225-.118.337-.354.337-.648-.056-.588-.224-1.06-.561-1.471-.337-.412-.898-.589-1.795-.589-.561 0-1.066.118-1.515.353-.448.236-.897.589-1.346 1.119l-2.412-1.766c.505-.707 1.178-1.295 2.02-1.648.785-.412 1.906-.589 3.309-.589 3.927 0 5.89 1.648 5.89 5.003v4.65c0 .53.056.942.28 1.236zm-4.6-.118c.505-.47.785-1.06.785-1.765v-1.178c-.28.118-.841.236-1.683.295l-.841.059c-.617.058-1.122.176-1.571.47-.393.236-.617.707-.617 1.354 0 .471.168.883.449 1.118.336.295.729.412 1.234.412 1.01-.058 1.739-.294 2.244-.765zm18.231-9.594c.73.824 1.122 1.943 1.122 3.414v9.182h-3.534v-8.829c0-.647-.168-1.177-.505-1.53a1.815 1.815 0 0 0-1.346-.589c-1.178 0-2.076.765-2.58 2.237v8.71h-3.535v-9.299c0-.53-.112-.941-.28-1.236-.168-.353-.561-.706-1.01-1.06l2.356-2.177c.561.295 1.066.648 1.403 1 .336.354.617.766.785 1.178a4.628 4.628 0 0 1 1.57-1.59c.674-.411 1.46-.588 2.413-.588 1.29 0 2.356.353 3.141 1.177zm12.117 10.947c-1.402-1.236-2.075-3.06-2.075-5.474v-6.121c0-2.413.673-4.238 2.075-5.474 1.403-1.236 3.366-1.825 5.947-1.825 1.851 0 3.422.295 4.6.942a6.984 6.984 0 0 1 2.805 2.825l-2.917 2.12c-.561-.942-1.178-1.649-1.796-2.06-.617-.413-1.514-.648-2.692-.648-1.459 0-2.525.353-3.198 1.06-.673.706-1.01 1.706-1.01 3.119v6.12c0 1.355.337 2.414 1.01 3.12.673.707 1.739 1.06 3.198 1.06 1.29 0 2.244-.236 2.917-.648.673-.47 1.01-1.118 1.01-1.942v-.883c0-1.177-.505-1.765-1.571-1.765h-3.142v-3.179h4.208c1.458 0 2.524.353 3.197 1.06.673.706 1.066 1.824 1.066 3.296v1.765c0 1.707-.673 3.061-2.075 4.061-1.403 1.001-3.254 1.472-5.61 1.472-2.581-.177-4.6-.765-5.947-2.001zm28.217-1.47c.169.353.561.706 1.01 1.06l-2.356 2.177c-.617-.353-1.066-.648-1.402-1.06-.337-.412-.617-.765-.786-1.295-.841 1.59-2.131 2.355-3.927 2.355-1.458 0-2.524-.412-3.309-1.177-.786-.824-1.178-1.943-1.178-3.414v-9.182h3.534v8.829c0 .647.168 1.177.505 1.53.336.412.841.589 1.458.589 1.178 0 2.076-.824 2.581-2.472v-8.476h3.534v9.24c0 .59.112 1.001.336 1.296zm12.791-10.064l-.898 3.12a3.86 3.86 0 0 0-1.066-.589c-.336-.118-.785-.177-1.29-.177-1.178 0-2.075.825-2.58 2.531v8.122h-3.535v-9.299c0-.53-.112-.942-.28-1.236-.168-.353-.505-.706-1.01-1.06l2.356-2.177c.617.353 1.122.706 1.459 1.118.393.354.617.824.785 1.354a4.046 4.046 0 0 1 1.459-1.765c.617-.471 1.346-.648 2.188-.648.953-.059 1.795.177 2.412.706zm13.519 10.064c.169.353.561.706 1.01 1.06l-2.356 2.177c-.617-.353-1.066-.648-1.402-1.06a3.281 3.281 0 0 1-.786-1.295c-.841 1.59-2.132 2.355-3.927 2.355-1.458 0-2.524-.412-3.309-1.177-.786-.824-1.178-1.943-1.178-3.414v-9.182h3.534v8.829c0 .647.168 1.177.505 1.53.336.412.841.589 1.458.589 1.178 0 2.076-.824 2.581-2.472v-8.476h3.534v9.24c.056.59.112 1.001.336 1.296z" fill="#48448C"/></symbol><symbol fill="none" viewBox="0 0 15 15" id="icons--magnifier" xmlns="http://www.w3.org/2000/svg"><circle cx="6" cy="6" r="5.5" stroke="#48448C"/><path d="M10.464 10.964L14 14.5" stroke="#48448C" stroke-linecap="round" stroke-linejoin="round"/></symbol><symbol fill="none" viewBox="0 0 18 18" id="icons--magnifier-orange" xmlns="http://www.w3.org/2000/svg"><path d="M17.89 17.36l-5.477-5.477a7.088 7.088 0 0 0 1.837-4.758A7.133 7.133 0 0 0 7.125 0 7.133 7.133 0 0 0 0 7.125a7.133 7.133 0 0 0 7.125 7.125c1.83 0 3.495-.7 4.758-1.837l5.477 5.477a.374.374 0 0 0 .53 0 .375.375 0 0 0 0-.53zM7.125 13.5A6.382 6.382 0 0 1 .75 7.125 6.382 6.382 0 0 1 7.125.75 6.382 6.382 0 0 1 13.5 7.125 6.382 6.382 0 0 1 7.125 13.5z" fill="#F67660"/></symbol><symbol fill="none" viewBox="0 0 182 180" id="icons--no-favorites" xmlns="http://www.w3.org/2000/svg"><circle cx="90" cy="90" r="90" fill="#DFE3E9"/><g filter="url(#bffilter0_d)"><rect x="5.461" y="32" width="168.077" height="115" rx="4" fill="#FFF"/></g><path d="M6.725 36.264a3 3 0 0 1 3-3h159.55a3 3 0 0 1 3 3v4.582H6.725v-4.582z" fill="#E6EBF1"/><circle cx="168.483" cy="37.055" r="1.264" fill="#48448C"/><circle cx="164.692" cy="37.055" r="1.264" fill="#48448C"/><circle cx="160.901" cy="37.055" r="1.264" fill="#48448C"/><rect x="33.264" y="53.483" width="44.231" height="5.055" rx="2" fill="#ADB8CA"/><rect x="62.33" y="63.593" width="84.67" height="42.967" rx="3" fill="#E1E1E1" fill-opacity=".6"/><rect x="85.077" y="69.912" width="29.066" height="3.791" rx="1.896" fill="#ADB8CA"/><rect x="85.077" y="76.231" width="46.758" height="3.791" rx="1.896" fill="#ADB8CA"/><rect x="85.077" y="83.813" width="7.582" height="3.791" rx="1.896" fill="#ADB8CA"/><rect x="85.077" y="90.132" width="7.582" height="3.791" rx="1.896" fill="#ADB8CA"/><rect x="85.077" y="96.451" width="7.582" height="3.791" rx="1.896" fill="#ADB8CA"/><path d="M62.33 113.352a3 3 0 0 1 3-3H144a3 3 0 0 1 3 3V147H62.33v-33.648z" fill="#E1E1E1" fill-opacity=".6"/><rect x="95.186" y="83.813" width="25.275" height="3.791" rx="1.896" fill="#C8C8C9"/><rect x="95.186" y="90.132" width="36.648" height="3.791" rx="1.896" fill="#C8C8C9"/><rect x="95.186" y="96.451" width="30.33" height="3.791" rx="1.896" fill="#C8C8C9"/><rect x="85.077" y="116.67" width="29.066" height="3.791" rx="1.896" fill="#ADB8CA"/><rect x="85.077" y="122.989" width="46.758" height="3.791" rx="1.896" fill="#ADB8CA"/><rect x="85.077" y="130.571" width="7.582" height="3.791" rx="1.896" fill="#ADB8CA"/><rect x="85.077" y="136.89" width="7.582" height="3.791" rx="1.896" fill="#ADB8CA"/><rect x="85.077" y="143.209" width="7.582" height="3.791" rx="1.896" fill="#ADB8CA"/><rect x="95.186" y="130.571" width="25.275" height="3.791" rx="1.896" fill="#C8C8C9"/><rect x="95.186" y="136.89" width="36.648" height="3.791" rx="1.896" fill="#C8C8C9"/><rect x="95.186" y="143.209" width="30.33" height="3.791" rx="1.896" fill="#C8C8C9"/><rect x="33.264" y="63.593" width="25.275" height="31.593" rx="2" fill="#EDEDED"/><rect x="33.264" y="97.714" width="25.275" height="25.275" rx="2" fill="#EDEDED"/><path d="M33.264 128.78a2 2 0 0 1 2-2h21.274a2 2 0 0 1 2 2V147H33.264v-18.22z" fill="#EDEDED"/><rect x="67.384" y="68.648" width="12.637" height="12.637" rx="5" fill="#C4CDDB"/><rect x="68.648" y="115.407" width="12.637" height="12.637" rx="5" fill="#F2C94C" fill-opacity=".8"/><path d="M35.791 68.648c0-.698.566-1.263 1.264-1.263h17.692a1.264 1.264 0 0 1 0 2.527H37.055a1.264 1.264 0 0 1-1.264-1.264z" fill="#ADB8CA"/><path d="M35.791 73.703c0-.698.566-1.263 1.264-1.263h12.637a1.264 1.264 0 1 1 0 2.527H37.055a1.264 1.264 0 0 1-1.264-1.264zm0 5.055c0-.698.566-1.263 1.264-1.263H52.22a1.264 1.264 0 0 1 0 2.527H37.055a1.264 1.264 0 0 1-1.264-1.264zm0 5.055c0-.698.566-1.264 1.264-1.264h12.637a1.264 1.264 0 1 1 0 2.528H37.055a1.264 1.264 0 0 1-1.264-1.264zm0 6.319c0-.698.566-1.264 1.264-1.264h12.637a1.264 1.264 0 1 1 0 2.528H37.055a1.264 1.264 0 0 1-1.264-1.264zm0 17.692c0-.698.566-1.264 1.264-1.264h12.637a1.264 1.264 0 0 1 0 2.528H37.055a1.264 1.264 0 0 1-1.264-1.264zm0 5.055c0-.698.566-1.264 1.264-1.264H52.22a1.264 1.264 0 0 1 0 2.528H37.055a1.264 1.264 0 0 1-1.264-1.264zm0 5.055c0-.698.566-1.264 1.264-1.264h12.637a1.264 1.264 0 0 1 0 2.528H37.055a1.264 1.264 0 0 1-1.264-1.264zm0 17.692c0-.698.566-1.263 1.264-1.263h12.637a1.263 1.263 0 1 1 0 2.527H37.055a1.264 1.264 0 0 1-1.264-1.264zm0 5.055c0-.698.566-1.263 1.264-1.263H52.22a1.263 1.263 0 1 1 0 2.527H37.055a1.264 1.264 0 0 1-1.264-1.264zm0 5.055c0-.698.566-1.263 1.264-1.263h12.637a1.263 1.263 0 1 1 0 2.527H37.055a1.264 1.264 0 0 1-1.264-1.264z" fill="#C8C8C9"/><path d="M35.791 102.769c0-.698.566-1.264 1.264-1.264h17.692a1.264 1.264 0 0 1 0 2.528H37.055a1.264 1.264 0 0 1-1.264-1.264zm0 27.802c0-.697.566-1.263 1.264-1.263h17.692a1.264 1.264 0 0 1 0 2.527H37.055a1.264 1.264 0 0 1-1.264-1.264z" fill="#ADB8CA"/><circle opacity=".9" cx="157" cy="36" r="25" fill="#F2C94C"/><path fill-rule="evenodd" clip-rule="evenodd" d="M161.167 32.034c10.304 1.377 9.79-.2 2.255 6.998 1.884 10.267 3.197 9.292-5.936 4.33-9.162 4.991-7.792 5.966-5.908-4.33-7.535-7.199-8.049-5.621 2.255-6.998 4.48-9.379 2.854-9.379 7.334 0z" fill="#fff"/><defs><filter id="bffilter0_d" x="3.461" y="30" width="172.077" height="119" filterUnits="userSpaceOnUse" color-interpolation-filters="sRGB"><feFlood flood-opacity="0" result="BackgroundImageFix"/><feColorMatrix in="SourceAlpha" values="0 0 0 0 0 0 0 0 0 0 0 0 0 0 0 0 0 0 127 0"/><feOffset/><feGaussianBlur stdDeviation="1"/><feColorMatrix values="0 0 0 0 0 0 0 0 0 0 0 0 0 0 0 0 0 0 0.16 0"/><feBlend in2="BackgroundImageFix" result="effect1_dropShadow"/><feBlend in="SourceGraphic" in2="effect1_dropShadow" result="shape"/></filter></defs></symbol><symbol fill="none" viewBox="0 0 13 21" id="icons--ok" xmlns="http://www.w3.org/2000/svg"><g clip-path="url(#bgclip0)" fill="#FF9800"><path d="M6.5 11.364c3.111 0 5.633-2.544 5.633-5.682C12.133 2.544 9.611 0 6.5 0S.867 2.544.867 5.682C.87 8.82 3.39 11.36 6.5 11.364zm0-8.741c1.675 0 3.033 1.37 3.033 3.06 0 1.689-1.358 3.059-3.033 3.059-1.675 0-3.033-1.37-3.033-3.06s1.358-3.06 3.033-3.06z"/><path d="M12.018 14.057A2.206 2.206 0 0 0 13 12.22a1.587 1.587 0 0 0-.882-1.447 1.635 1.635 0 0 0-1.733.165 6.549 6.549 0 0 1-7.77 0 1.643 1.643 0 0 0-1.733-.165A1.59 1.59 0 0 0 0 12.22c.001.74.37 1.429.982 1.836a9.94 9.94 0 0 0 2.54 1.224c.152.048.31.092.472.133l-2.62 2.583a1.76 1.76 0 0 0-.036 2.472 1.723 1.723 0 0 0 2.493-.005l2.67-2.787 2.674 2.792a1.723 1.723 0 0 0 2.45.04 1.76 1.76 0 0 0-.003-2.516l-2.615-2.58c.163-.042.32-.087.474-.134a9.932 9.932 0 0 0 2.537-1.221z"/></g><defs><clipPath id="bgclip0"><path fill="#fff" d="M0 0h13v21H0z"/></clipPath></defs></symbol><symbol fill="none" viewBox="0 0 13 14" id="icons--order-asc" xmlns="http://www.w3.org/2000/svg"><path fill="#000" d="M0 0h5v2H0zm0 6h9v2H0zm0 6h13v2H0z"/></symbol><symbol fill="none" viewBox="0 0 13 14" id="icons--order-desc" xmlns="http://www.w3.org/2000/svg"><path fill="#000" d="M0 0h13v2H0zm0 6h9v2H0zm0 6h5v2H0z"/></symbol><symbol fill="none" viewBox="0 0 13 14" id="icons--order-none" xmlns="http://www.w3.org/2000/svg"><path fill="#000" d="M0 0h13v2H0zm0 6h13v2H0zm0 6h13v2H0z"/></symbol><symbol fill="none" viewBox="0 0 6 12" id="icons--pagination-left" xmlns="http://www.w3.org/2000/svg"><path d="M5 1L1 6l4 5" stroke="var(--main-color)"/></symbol><symbol fill="none" viewBox="0 0 10 6" id="icons--person-arrow" xmlns="http://www.w3.org/2000/svg"><path d="M1 1l4 3.5L9 1" stroke="#F67660" stroke-width="2" stroke-linecap="round" stroke-linejoin="round"/></symbol><symbol fill="none" viewBox="0 0 20 16" id="icons--person-mail" xmlns="http://www.w3.org/2000/svg"><rect x="1" y="1" width="18" height="13.556" rx="1" stroke="#F67660" stroke-width="2"/><path stroke="#F67660" stroke-linecap="round" stroke-linejoin="round" d="M9.389 3.944h6.778m-12.334 0h3.445M3.833 8.389h3.445m-3.334 0V3.833m3.334 4.556V3.833m2.111 2.334h6.778M9.389 8.389h6.778M3.833 10.611h12.334"/></symbol><symbol fill="none" viewBox="0 0 20 16" id="icons--person-menu-applications" xmlns="http://www.w3.org/2000/svg"><rect x="1" y="1" width="18" height="13.556" rx="1" stroke="#F67660" stroke-width="2"/><path stroke="#F67660" stroke-linecap="round" stroke-linejoin="round" d="M9.389 3.944h6.777m-12.332 0h3.444M3.834 8.389h3.444m-3.333 0V3.833m3.333 4.556V3.833m2.111 2.334h6.777M9.389 8.389h6.777M3.834 10.611h12.333"/></symbol><symbol fill="none" viewBox="0 0 22 19" id="icons--person-menu-change" xmlns="http://www.w3.org/2000/svg"><path d="M3.825 6.974l1.954-.89h0a.56.56 0 0 1 .735.272l-.136.065c.1.208.013.457-.195.557l-2.358-.004zm0 0c1.156-3.005 4.036-4.991 7.337-4.991 3.584 0 6.717 2.394 7.62 5.82h0c.079.301.39.482.69.403M3.826 6.974L1.952 4.54l.81 2.024m0 0C4.09 3.123 7.39.85 11.162.85c4.097 0 7.68 2.743 8.713 6.665.08.3-.102.611-.402.69M2.762 6.566l.082.207C4.111 3.302 7.397 1 11.162 1c4.03 0 7.552 2.698 8.568 6.553m-.257.653l-.039-.145m.039.145s0 0 0 0l-.039-.145m0 0a.417.417 0 0 0 .296-.508m-.296.508a.417.417 0 0 1-.508-.296l.804-.212m1.046 7.73a.565.565 0 0 0 .34-.723m-.34.723l-.051-.14m.051.14s0 0 0 0l-.051-.14m.051.14a.565.565 0 0 1-.724-.337m1.064-.386l-.391.582m.391-.582v-.004l-.01-.027-1.328-3.33h0a.564.564 0 0 0-.318-.318m1.656 3.68l-1.656-3.68m1.265 4.261a.415.415 0 0 1-.533-.25l-.14.056v-.002m0 0l-.81-2.026m.81 2.026l-.81-2.026m0 0c-1.332 3.442-4.629 5.716-8.4 5.716-4.098 0-7.684-2.739-8.714-6.665a.567.567 0 0 1 .403-.691l16.71 1.64zm.218-2.039s0 0 0 0l-.055.14.054-.14s0 0 0 0zm0 0a.58.58 0 0 0-.444.01h0l-.002.002-3.249 1.476m3.695-1.488l-3.695 1.489m0 0a.568.568 0 0 0 .437 1.046h0l.01-.005.013-.006.01-.005 1.95-.888c-1.163 3.005-4.047 4.99-7.344 4.99-3.584 0-6.717-2.394-7.619-5.82h0a.567.567 0 0 0-.691-.402l13.234 1.09z" fill="#727272" stroke="#727272" stroke-width=".3"/></symbol><symbol fill="none" viewBox="0 0 20 20" id="icons--person-menu-edit" xmlns="http://www.w3.org/2000/svg"><path fill-rule="evenodd" clip-rule="evenodd" d="M5.31 18.433l-.348.435-4.7 1.045L0 19.652l1.045-4.614.435-.435 3.83 3.83zM17.933 5.811l-3.83-3.83L15.494.587a2.05 2.05 0 0 1 2.873 0l1.044 1.044c.784.697.784 2.002 0 2.786l-1.48 1.393zM6.703 17.127l-3.83-3.917L12.97 3.112l3.83 3.83L6.703 17.127z" fill="#F67660"/></symbol><symbol fill="none" viewBox="0 0 20 19" id="icons--person-menu-fav" xmlns="http://www.w3.org/2000/svg"><path d="M12.293 6.346l.237.48.531.068c1.435.185 2.682.313 3.663.413.534.054.99.1 1.354.144.136.016.26.032.371.047l-.252.231c-.268.242-.607.538-1.003.884-.735.641-1.67 1.457-2.722 2.427l-.408.376.103.546c.259 1.359.518 2.547.723 3.482.114.522.21.965.28 1.315.028.138.051.263.072.375-.118-.06-.249-.128-.395-.206a86.27 86.27 0 0 1-1.195-.66 131.828 131.828 0 0 0-3.2-1.745l-.465-.243-.465.244c-1.29.678-2.382 1.292-3.24 1.773-.456.256-.845.474-1.163.646a20.39 20.39 0 0 1-.367.194c.02-.11.043-.23.07-.361.069-.342.161-.76.269-1.249.208-.945.474-2.15.742-3.566l.103-.545-.408-.376a127.012 127.012 0 0 0-2.722-2.427c-.396-.346-.735-.642-1.003-.884L1.55 7.5c.112-.016.235-.032.37-.048.366-.043.821-.09 1.355-.144.981-.1 2.228-.228 3.663-.413l.53-.068.238-.48C8.322 5.104 8.832 4 9.234 3.13c.223-.485.414-.897.57-1.219.071-.148.137-.28.196-.395.06.116.125.247.197.395.155.322.346.734.57 1.22.401.869.911 1.973 1.526 3.215zM10.405.856a.103.103 0 0 1-.02.02l.02-.02zm-.79.02a.103.103 0 0 1-.02-.02l.02.02z" stroke="#F67660" stroke-width="2"/></symbol><symbol fill="none" viewBox="0 0 20 16" id="icons--person-menu-mail" xmlns="http://www.w3.org/2000/svg"><rect x="1" y="1" width="18" height="13.556" rx="1" stroke="#F67660" stroke-width="2"/><path d="M2.222 2.222L8.7 7.773a2 2 0 0 0 2.603 0l6.476-5.55" stroke="#F67660"/></symbol><symbol fill="none" viewBox="0 0 21 32" id="icons--person-menu-reviews" xmlns="http://www.w3.org/2000/svg"><path d="M1 2a1 1 0 0 1 1-1h17a1 1 0 0 1 1 1v16.973c0 1.144-1.61 1.391-1.954.3l-.902-2.869a3 3 0 0 0-2.862-2.1H2a1 1 0 0 1-1-1V2z" stroke="#F67660" stroke-width="2"/><path stroke="#F67660" stroke-linecap="round" stroke-linejoin="round" d="M4.5 6.288h12m-12 2.909h8"/></symbol><symbol fill="none" viewBox="0 0 20 16" id="icons--person-message" xmlns="http://www.w3.org/2000/svg"><rect x="1" y="1" width="18" height="13.556" rx="1" stroke="#F67660" stroke-width="2"/><path d="M2 2l6.698 5.768a2 2 0 0 0 2.607.003l6.473-5.549" stroke="#F67660"/></symbol><symbol fill="none" viewBox="0 0 20 26" id="icons--person-reviews" xmlns="http://www.w3.org/2000/svg"><path d="M1 2a1 1 0 0 1 1-1h16a1 1 0 0 1 1 1v12.526c0 1.114-1.545 1.394-1.936.351l-.641-1.708a3 3 0 0 0-2.809-1.947H2a1 1 0 0 1-1-1V2z" stroke="#F67660" stroke-width="2"/><path stroke="#F67660" stroke-linecap="round" stroke-linejoin="round" d="M3.833 3.944h12.334M3.833 6.167h7.889"/></symbol><symbol fill="none" viewBox="0 0 78 78" id="icons--photos-input" xmlns="http://www.w3.org/2000/svg"><rect x=".5" y=".5" width="77" height="77" rx="7.5" stroke="#F67660"/><path d="M67.945 60.633H11.883L28.03 38.695l9.75 13.102 13.711-21.938 16.453 30.774z" fill="#F67660"/><circle cx="27.422" cy="23.766" r="6.094" fill="#F67660"/></symbol><symbol fill="none" viewBox="0 0 14 16" id="icons--play" xmlns="http://www.w3.org/2000/svg"><path d="M13.4 8L.8 15.275V.725L13.4 8z" fill="#fff"/></symbol><symbol fill="none" viewBox="0 0 22 22" id="icons--plus" xmlns="http://www.w3.org/2000/svg"><path d="M.373 12.272v-1.904h9.688V.68h1.904v9.688h9.688v1.904h-9.688v9.688h-1.904v-9.688H.373z" fill="#F67660"/></symbol><symbol fill="none" viewBox="0 0 29 29" id="icons--popup-close" xmlns="http://www.w3.org/2000/svg"><path d="M7.921 7.863l12.571 12.883m-12.856-.158l12.883-12.57" opacity=".5" stroke="#48448C" stroke-width="2" stroke-linecap="round"/></symbol><symbol fill="none" viewBox="0 0 16 13" id="icons--pp-list" xmlns="http://www.w3.org/2000/svg"><rect x="1" y="1" width="14" height="10.444" rx="1" stroke="var(--main-color)" stroke-width="2"/><path d="M1.778 1.778l4.92 4.218a2 2 0 0 0 2.604 0l4.92-4.218" stroke="var(--main-color)"/></symbol><symbol fill="none" viewBox="0 0 60 14" id="icons--pro" xmlns="http://www.w3.org/2000/svg"><path d="M12 3a3 3 0 0 1 3-3h30a3 3 0 0 1 3 3v11H12V3zm0 11V2s0 4.286-3.857 7.714C3.429 14 0 14 0 14h12zm36 0V2s0 4.286 3.857 7.714C56.571 14 60 14 60 14H48z" fill="#fff"/><path d="M21.245 8.53V11h-1.28V4.18h2.55c.646 0 1.18.2 1.6.6.42.4.63.923.63 1.57s-.21 1.173-.63 1.58c-.42.4-.957.6-1.61.6h-1.26zm0-3.14v1.94h1.2c.32 0 .57-.093.75-.28.18-.187.27-.42.27-.7 0-.28-.09-.51-.27-.69-.18-.18-.43-.27-.75-.27h-1.2zm7.27 2.3V7.2h.78c.354 0 .638-.09.85-.27.22-.187.33-.407.33-.66 0-.26-.09-.473-.27-.64a.913.913 0 0 0-.66-.25h-1.32V11h-1.28V4.18h2.58c.688 0 1.228.193 1.62.58.4.393.6.897.6 1.51 0 .44-.122.83-.37 1.17-.246.333-.59.567-1.03.7l1.99 2.86h-1.55l-2.27-3.31zm6.64 2.38a3.41 3.41 0 0 1-1.02-2.49c0-.973.34-1.8 1.02-2.48a3.397 3.397 0 0 1 2.48-1.02c.967 0 1.79.34 2.47 1.02.687.68 1.03 1.507 1.03 2.48 0 .973-.343 1.803-1.03 2.49a3.348 3.348 0 0 1-2.47 1.03 3.38 3.38 0 0 1-2.48-1.03zm.25-2.49c0 .62.217 1.163.65 1.63.44.46.967.69 1.58.69.613 0 1.137-.23 1.57-.69.44-.46.66-1.003.66-1.63 0-.62-.22-1.157-.66-1.61a2.093 2.093 0 0 0-1.57-.68c-.613 0-1.14.227-1.58.68-.433.453-.65.99-.65 1.61z" fill="#FF9800"/></symbol><symbol fill="none" viewBox="0 0 96 23" id="icons--pro-big" xmlns="http://www.w3.org/2000/svg"><path d="M19.2 5a5 5 0 0 1 5-5h47.6a5 5 0 0 1 5 5v17.4H19.2V5zm0 17.4V3.2s0 6.857-6.171 12.343C5.486 22.4 0 22.4 0 22.4h19.2zm57.6 0V3.2s0 6.857 6.171 12.343C90.514 22.4 96 22.4 96 22.4H76.8z" fill="#fff"/><path d="M35.942 12.342V15.8H34.15V6.252h3.57c.906 0 1.652.28 2.24.84.588.56.882 1.293.882 2.198s-.294 1.643-.882 2.212c-.588.56-1.339.84-2.254.84h-1.764zm0-4.396v2.716h1.68c.448 0 .798-.13 1.05-.392.252-.261.378-.588.378-.98s-.126-.714-.378-.966-.602-.378-1.05-.378h-1.68zm10.18 3.22v-.686h1.092c.495 0 .892-.126 1.19-.378.308-.261.462-.57.462-.924 0-.364-.126-.663-.378-.896-.242-.233-.55-.35-.924-.35h-1.848V15.8h-1.792V6.252h3.612c.962 0 1.718.27 2.268.812.56.55.84 1.255.84 2.114 0 .616-.172 1.162-.518 1.638-.345.467-.826.793-1.442.98L51.47 15.8H49.3l-3.178-4.634zm9.295 3.332c-.952-.961-1.428-2.123-1.428-3.486s.476-2.52 1.428-3.472c.961-.952 2.118-1.428 3.472-1.428 1.353 0 2.506.476 3.458 1.428.961.952 1.442 2.11 1.442 3.472 0 1.363-.48 2.525-1.442 3.486-.952.961-2.105 1.442-3.458 1.442-1.354 0-2.51-.48-3.472-1.442zm.35-3.486c0 .868.303 1.629.91 2.282.616.644 1.353.966 2.212.966.858 0 1.591-.322 2.198-.966.616-.644.924-1.405.924-2.282 0-.868-.308-1.62-.924-2.254-.607-.635-1.34-.952-2.198-.952-.859 0-1.596.317-2.212.952a3.153 3.153 0 0 0-.91 2.254z" fill="#FF9800"/></symbol><symbol fill="none" viewBox="0 0 41 10" id="icons--pro-mobile" xmlns="http://www.w3.org/2000/svg"><path d="M8.2 3.337a3 3 0 0 1 3-3h18.6a3 3 0 0 1 3 3v6.4H8.2v-6.4zm0 6.4V1.68s0 2.878-2.636 5.18C2.343 9.737 0 9.737 0 9.737h8.2zm24.6 0V1.68s0 2.878 2.636 5.18C38.657 9.737 41 9.737 41 9.737h-8.2z" fill="#fff"/><path d="M14.196 5.581v1.976h-1.024V2.101h2.04c.517 0 .944.16 1.28.48.336.32.504.739.504 1.256 0 .518-.168.939-.504 1.264-.336.32-.766.48-1.288.48h-1.008zm0-2.512v1.552h.96c.256 0 .456-.074.6-.224a.775.775 0 0 0 .216-.56.748.748 0 0 0-.216-.552c-.144-.144-.344-.216-.6-.216h-.96zm5.817 1.84v-.392h.624c.282 0 .51-.072.68-.216.176-.15.264-.325.264-.528a.667.667 0 0 0-.216-.512.73.73 0 0 0-.528-.2H19.78v4.496h-1.024V2.101h2.064c.55 0 .981.155 1.296.464.32.315.48.718.48 1.208 0 .352-.099.664-.296.936a1.549 1.549 0 0 1-.824.56l1.592 2.288h-1.24L20.013 4.91zm5.311 1.904a2.727 2.727 0 0 1-.816-1.992 2.7 2.7 0 0 1 .816-1.984 2.718 2.718 0 0 1 1.984-.816c.773 0 1.432.272 1.976.816.55.544.824 1.206.824 1.984 0 .779-.275 1.443-.824 1.992a2.678 2.678 0 0 1-1.976.824 2.704 2.704 0 0 1-1.984-.824zm.2-1.992c0 .496.173.93.52 1.304.352.368.773.552 1.264.552.49 0 .91-.184 1.256-.552.352-.368.528-.802.528-1.304 0-.496-.176-.925-.528-1.288a1.674 1.674 0 0 0-1.256-.544 1.7 1.7 0 0 0-1.264.544 1.8 1.8 0 0 0-.52 1.288z" fill="#FF9800"/></symbol><symbol fill="none" viewBox="0 0 190 180" id="icons--request-created" xmlns="http://www.w3.org/2000/svg"><circle cx="90" cy="90" r="90" fill="#DFE3E9"/><g filter="url(#cdfilter0_d)"><rect x="5.553" y="32" width="167.894" height="114.875" rx="4" fill="#fff"/></g><path d="M6.815 36.262a3 3 0 0 1 3-3h159.37a3 3 0 0 1 3 3v4.574H6.815v-4.574z" fill="#E6EBF1"/><circle cx="168.398" cy="37.05" r="1.262" fill="#48448C"/><circle cx="164.611" cy="37.05" r="1.262" fill="#48448C"/><circle cx="160.823" cy="37.05" r="1.262" fill="#48448C"/><rect x="32.063" y="53.46" width="44.183" height="5.049" rx="2" fill="#ADB8CA"/><rect x="32.063" y="121.628" width="44.183" height="10.099" rx="5.049" fill="#48448C"/><rect x="49.736" y="63.559" width="82.054" height="3.787" rx="1.894" fill="#ADB8CA"/><rect x="49.736" y="69.871" width="46.707" height="3.787" rx="1.894" fill="#ADB8CA"/><rect x="49.736" y="82.495" width="82.054" height="3.787" rx="1.894" fill="#ADB8CA"/><rect x="49.736" y="88.806" width="46.707" height="3.787" rx="1.894" fill="#ADB8CA"/><rect x="49.736" y="100.168" width="82.054" height="3.787" rx="1.894" fill="#ADB8CA"/><rect x="49.736" y="106.479" width="46.707" height="3.787" rx="1.894" fill="#ADB8CA"/><rect x="85.082" y="121.628" width="35.346" height="3.787" rx="1.894" fill="#E1E1E1"/><rect x="85.082" y="127.939" width="20.198" height="3.787" rx="1.894" fill="#E1E1E1"/><rect opacity=".5" x="140.626" y="53.46" width="5.049" height="5.049" rx="2" fill="#ADB8CA"/><rect opacity=".5" x="131.789" y="53.46" width="5.049" height="5.049" rx="2" fill="#ADB8CA"/><rect x="122.953" y="53.46" width="5.049" height="5.049" rx="2" fill="#ADB8CA"/><path fill="#D9DCE2" d="M32.063 63.559h12.624v12.624H32.063zm0 18.936h12.624v12.624H32.063zm0 17.673h12.624v12.624H32.063z"/><path fill="#F67660" d="M34.587 66.084h7.574v7.574h-7.574z"/><path fill="#27AE60" d="M34.587 85.019h7.574v7.574h-7.574z"/><path fill="#fff" d="M34.587 102.692h7.574v7.574h-7.574z"/><rect opacity=".8" x="42.162" y="125.415" width="22.723" height="2.525" rx="1.262" fill="#fff"/><circle opacity=".9" cx="165" cy="40" r="25" fill="#6FCF97"/><path d="M158 40l5 5.5L175.5 32" stroke="#fff" stroke-width="2"/><defs><filter id="cdfilter0_d" x="3.553" y="30" width="171.894" height="118.875" filterUnits="userSpaceOnUse" color-interpolation-filters="sRGB"><feFlood flood-opacity="0" result="BackgroundImageFix"/><feColorMatrix in="SourceAlpha" values="0 0 0 0 0 0 0 0 0 0 0 0 0 0 0 0 0 0 127 0"/><feOffset/><feGaussianBlur stdDeviation="1"/><feColorMatrix values="0 0 0 0 0 0 0 0 0 0 0 0 0 0 0 0 0 0 0.16 0"/><feBlend in2="BackgroundImageFix" result="effect1_dropShadow"/><feBlend in="SourceGraphic" in2="effect1_dropShadow" result="shape"/></filter></defs></symbol><symbol fill="none" viewBox="0 0 24 24" id="icons--send-message" xmlns="http://www.w3.org/2000/svg"><g clip-path="url(#ceclip0)"><path d="M12.436 12.402l-9.798.949L.06 21.596a1.278 1.278 0 0 0 1.78 1.534l21.473-10.398a1.222 1.222 0 0 0 0-2.196L1.855.13a1.278 1.278 0 0 0-1.78 1.533L2.653 9.91l9.78.948a.772.772 0 0 1 0 1.537l.003.007z" fill="#F67660"/></g><defs><clipPath id="ceclip0"><path fill="#fff" d="M0 0h24v23.259H0z"/></clipPath></defs></symbol><symbol fill="none" viewBox="0 0 15 18" id="icons--share" xmlns="http://www.w3.org/2000/svg"><g clip-path="url(#cfclip0)"><path d="M12.274 0c-1.501 0-2.728 1.278-2.728 2.842 0 .372.066.732.192 1.058L4.553 6.898a2.653 2.653 0 0 0-1.825-.74C1.228 6.158.001 7.436.001 9s1.226 2.842 2.727 2.842a2.65 2.65 0 0 0 1.833-.74l5.184 2.997a2.906 2.906 0 0 0-.199 1.059c0 1.564 1.227 2.842 2.728 2.842 1.5 0 2.727-1.278 2.727-2.842s-1.227-2.842-2.727-2.842c-.818 0-1.552.379-2.053.977l-5.093-2.946c.21-.401.327-.86.327-1.347a2.88 2.88 0 0 0-.327-1.347l5.093-2.946a2.674 2.674 0 0 0 2.052.977c1.501 0 2.728-1.278 2.728-2.842S13.774 0 12.274 0z" fill="#F67660"/></g><defs><clipPath id="cfclip0"><path fill="#fff" d="M0 0h15v18H0z"/></clipPath></defs></symbol><symbol fill="none" viewBox="0 0 25 25" id="icons--sidebar-close" xmlns="http://www.w3.org/2000/svg"><rect width="33.58" height="1.732" rx=".866" transform="rotate(-44.93 28.677 11.858)" fill="#48448C"/><rect width="33.58" height="1.732" rx=".866" transform="rotate(45.07 .612 1.474)" fill="#48448C"/></symbol><symbol fill="none" viewBox="0 0 30 30" id="icons--sign-in" xmlns="http://www.w3.org/2000/svg"><path d="M1.903 15.672h17.865l-4.607 4.691c-.35.35-.35.96 0 1.31a.916.916 0 0 0 .633.283.88.88 0 0 0 .633-.252l5.739-5.732a.89.89 0 0 0 0-1.262l-.273-.272a.888.888 0 0 0-.23-.228l-5.235-5.236a.895.895 0 0 0-1.266 0c-.35.35-.35.831 0 1.181l3.811 3.726H1.903a.896.896 0 0 0 0 1.79z" fill="#F67660"/><path d="M28.992 26.544V4.272c0-2.146-1.75-4.272-3.916-4.272H13.434C11.31 0 9.29 2.049 9.29 4.272v5.302a.896.896 0 0 0 1.791 0V4.272c0-1.23 1.218-2.481 2.352-2.481h11.642c1.185 0 2.125 1.315 2.125 2.481v22.272c0 1.192-.986 1.665-2.125 1.665H13.434c-1.06 0-2.352-.397-2.352-1.665v-5.329a.896.896 0 0 0-1.791 0v5.329c0 2.101 1.872 3.456 4.143 3.456h11.642c2.322 0 3.916-1.422 3.916-3.456z" fill="#F67660"/></symbol><symbol fill="none" viewBox="0 0 545 456" id="icons--slider" xmlns="http://www.w3.org/2000/svg"><path d="M482.269 140.37c40.525 68.098 4.178 217.802-85.644 279.633-89.823 61.97-233.121 36.068-314.03-32.865-80.91-68.934-99.432-180.759-68.377-235.906 31.194-55.147 111.965-53.475 211.117-59.463 99.014-5.85 216.549-19.497 256.934 48.601z" fill="#AED7DB"/><g clip-path="url(#ciclip0)" fill-rule="evenodd" clip-rule="evenodd"><path d="M108.262 49.49c-4.608-5.409-7.726-12.037-7.205-19.465 1.501-21.4 31.292-16.692 37.086-5.891 5.795 10.801 5.107 38.199-2.383 40.13-2.986.77-9.349-1.116-15.825-5.02L124 88h-24l8.262-38.51z" fill="#B28B67"/><path d="M112.999 14.787c12.056-4.177 27.702.704 25.608 10.494-1.344 6.286-8.625 9.426-15.788 12.786-1.054-1.83-3.065-3.067-5.372-3.067-3.401 0-6.157 2.686-6.157 6 0 1.194.358 2.306.974 3.24-2.409 2.096-4.11 4.62-4.521 7.892-3.884 0-10.16-11.403-8.088-22.222-.544.06-1.096.09-1.655.09-8.284 0-15-6.716-15-15 0-8.284 6.716-15 15-15 8.213 0 14.884 6.6 14.999 14.787z" fill="#191847"/><path d="M92 171l37.631 123.024 18.229 104.624h14.293L142.891 171H92z" fill="#997659"/><path d="M78.538 171c2.556 67.547-.452 102.389-1.024 108.526-.572 6.137-8.406 45.929-26.95 121.182l15.23-5.23c29.308-69.019 39.295-104.889 42.656-113.952 3.362-9.063 12.289-45.905 26.783-110.526H78.538z" fill="#B28B67"/><path d="M50.678 395.402C49.56 398.388 49 400.623 49 402.106c0 1.803.3 4.434.901 7.894h56.402c1.466-4.846.62-7.461-2.538-7.848a312.564 312.564 0 0 1-7.87-1.046L69.68 389.419a1 1 0 0 0-1.32.506l-.012.026-1.685 4.088c-2.923 1.364-5.299 2.046-7.126 2.046-1.485 0-3.536-.6-6.152-1.8a2 2 0 0 0-2.707 1.117zm94 0c-1.119 2.986-1.678 5.221-1.678 6.704 0 1.803.3 4.434.901 7.894h56.402c1.466-4.846.62-7.461-2.538-7.848a312.752 312.752 0 0 1-7.87-1.046l-26.215-11.687a1 1 0 0 0-1.321.506l-.011.026-1.685 4.088c-2.923 1.364-5.299 2.046-7.126 2.046-1.485 0-3.536-.6-6.153-1.8a2 2 0 0 0-2.706 1.117z" fill="#E4E4E4"/><path d="M87 171l16 62.68h48.87L144.584 171H87z" fill="#69A1AC"/><path d="M78 171c-5.264 15.781-6.264 36.674-3 62.68h49.87L138.584 171H78z" fill="#89C5CC"/><path d="M178 131.311l39.483-5.386c7.898-4.393 15.164-7.367 21.798-8.922 1.867-.055 4.836.624.412 4.312s-8.913 7.768-8.124 9.736c.788 1.969 4.902 1.236 5.584 4.264.454 2.018-6.223 2.346-20.032.984L185.084 149 178 131.311zM53.97 140.45l21.897.082c-24.01 54.034-36.53 82.325-37.559 84.874-2.314 5.734 2.583 14.468 4.677 19.161-6.82 3.052-6.094-8.25-14.697-4.248-7.853 3.654-13.826 10.273-22.899 4.675-1.115-.688-2.338-3.279.616-5.304 7.357-5.045 17.96-13.875 19.393-16.782 1.954-3.963 11.478-31.449 28.572-82.458z" fill="#997659"/><path d="M113.949 71l17.145 1.142c4.223 38.201 27.222 62.331 78.717 54.162l6.841 49.195c-48.129 6.22-90.339-13.049-98.99-65.221-2.239-13.505-4.007-27.56-3.713-39.278z" fill="#DD6A56"/><path d="M105.491 66.016l25.977 5.95C131.468 116.643 145.7 145.15 153 178H82.844c-.989 11.351-1.595 23.018-1.912 35h-52.53c11.903-63.336 37.028-112.336 75.374-147h1.701l.014.016z" fill="#F67660"/><path d="M93.913 114.259c-1.808 27.842-.745 49.088 3.19 63.741h-14.26c1.959-22.486 5.413-43.733 11.07-63.741z" fill="#000" fill-opacity=".1"/></g><path fill-rule="evenodd" clip-rule="evenodd" d="M421.738 62.49c4.608-5.409 7.726-12.037 7.205-19.465-1.501-21.4-31.292-16.692-37.086-5.891-5.795 10.801-5.107 38.199 2.383 40.13 2.986.77 9.349-1.117 15.825-5.02L406 101h24l-8.262-38.51z" fill="#B28B67"/><path fill-rule="evenodd" clip-rule="evenodd" d="M439.407 35.902c.775-.769 1.198-1.865 1.563-2.906.38-1.082.749-2.174 1.002-3.3.503-2.25.508-4.836-1.096-6.582-1.287-1.4-3.218-2.03-5-2.166a9.187 9.187 0 0 0-3.545.45c-1.129.37-2.102 1.11-3.197 1.57-.042-2.424-.457-4.96-1.687-7.03-1.183-1.991-3.069-3.109-5.218-3.404-2.205-.304-4.383.212-6.357 1.28-.494.267-.984.547-1.453.864-.392.266-.8.586-1.26.694-.514.12-.768-.176-1.101-.55a8.425 8.425 0 0 0-1.298-1.17c-2.062-1.515-4.767-2.138-7.156-1.23-1.1.42-2.171 1.13-2.917 2.11-.666.872-1.141 2.257-2.059 2.866-.39.258-.665-.084-1.02-.337-.533-.38-1.042-.8-1.581-1.169-.758-.52-1.579-.907-2.457-1.11-1.287-.298-3.064-.229-3.432 1.456-.138.633-.032 1.31.012 1.948.061.875.125 1.75.201 2.625.058.663.131 1.305.256 1.956.067.348.276.996.127 1.344-.186.434-1.045.187-1.413.202-.725.03-1.453.158-2.124.467-.519.24-1.066.594-1.285 1.19-.135.365-.099.741-.036 1.118.077.451-.011.691-.068 1.147-.974-.48-4.349-1.545-4.773.2-.142.581.18 1.238.426 1.728.431.86.996 1.646 1.573 2.395 1.205 1.563 2.643 2.912 4.19 4.065-1.813.806-2.286 3.183-.717 4.6.693.625 1.625.764 2.499.724.32-.015.781-.138 1.033-.082.136.03.281.145.468.157 1.234.085 2.627-.212 3.833-.486 2.148-.488 4.183-1.506 5.844-3.056.426-.398.778-.627 1.352-.621.502.005.996.143 1.498.155 1.328.034 2.526-.615 3.76-1.047.076 1.666.551 3.502 1.232 5.002.556 1.222 1.717 1.4 2.858 1.508 3.649.343 7.31-.04 10.964-.035-3.537.8-7.191 1.129-10.696 2.07-1.584.424-.374 1.492.303 2.232 1.115 1.22 1.945 2.73 2.52 4.32 1.73-2.254 4.788-3.74 7.497-3.047 2.993.765 5.101 4.813 3.187 7.723-1.112 1.689-3.118 2.341-4.788 3.067 1.302 1.354 1.618 3.354 2.402 5.04.386.83.929 1.77 1.794 2.06.32.106.695.115.947.376.313.323.387.684.787.962 1.593 1.107 4.082 1.022 5.494-.424 1.277-1.307.945-3.376-.122-4.701 1.698-.708 4.791-1.618 4.116-4.263 3.679-.244 12.611-6.21 7.674-10.57 2.71-1.532 5.199-5.275 3.459-8.574-1.341-2.54-4.458-3.677-7.015-3.811z" fill="#191847"/><path fill-rule="evenodd" clip-rule="evenodd" d="M438 184l-48.082 127.227L356.217 405H337l46.326-221H438z" fill="#1F28CF"/><path fill-rule="evenodd" clip-rule="evenodd" d="M449.883 184c.523 43.654.145 102.427 1.363 105.149.812 1.814 26.063 22.483 75.754 62.008L517.095 368c-58.994-38.044-90-59.601-93.016-64.669C419.555 295.728 396.826 225.763 385 184h64.883z" fill="#2B44FF"/><path fill-rule="evenodd" clip-rule="evenodd" d="M544.426 362.491l-16.73-12.732-13.498 16.087c-1.039 12.127-5.054 25.728-12.046 40.803l3.064 2.571 24.426-29.11 6.824-11.244 1.532 1.286 6.428-7.661zM358 423l-1-21h-21c-9.958 7-22.958 12.667-39 17v4h38l13-2v2h10z" fill="#191847"/><path fill-rule="evenodd" clip-rule="evenodd" d="M385.362 121.7l-34.709-19.01c-5.772-6.855-11.46-12.178-17.062-15.97-1.711-.715-4.705-1.147-1.905 3.822 2.799 4.968 5.52 10.321 4.094 11.852-1.426 1.53-4.983-.608-6.684 1.935-1.135 1.696 4.941 4.375 18.228 8.036l25.221 23.093 12.817-13.758zM331 137.74l-15.246-8.376c-2.139-8.14-4.697-12.236-7.672-12.287-2.286-1.063 1.695 9.223-2.638 8.331-4.333-.892-14.908-8.757-16.73-7.16-2.696 2.362-.292 9.616 2.54 13.225 5.293 6.745 9.676 9.051 20.508 12.071 5.664 1.579 11.787 4.745 18.37 9.496l.868-15.3z" fill="#997659"/><path fill-rule="evenodd" clip-rule="evenodd" d="M402.266 117.465c-12.158-.128-28.37-2.696-45.668-13.676l-6.794 15.15c11.932 11.841 28.71 21.571 43.38 21.159 11.561-.325 17.469-14.309 9.082-22.633z" fill="#2026A2"/><path fill-rule="evenodd" clip-rule="evenodd" d="M385.896 141.761c-12.907 3.219-34.551-.577-64.932-11.388-7.535 15.591-11.019 26.705-10.45 33.344 26.062 13.614 48.4 19.684 66.803 20.085-.585 10.919.744 21.31 5.209 30.804 9.18 19.518 62.929 1.442 81.001 5 11.318-36.755-10.565-51.692-10.582-75.209C452.925 118.642 432.246 79 429.203 79h-27.747c-1.53 19.669-9.236 41.346-15.56 62.761z" fill="#1F28CF"/><defs><clipPath id="ciclip0"><path fill="#fff" transform="translate(4)" d="M0 0h238v410H0z"/></clipPath></defs></symbol><symbol fill="none" viewBox="0 0 24 24" id="icons--smile" xmlns="http://www.w3.org/2000/svg"><g clip-path="url(#cjclip0)"><path d="M12 0C5.382 0 0 5.382 0 12s5.382 12 12 12 12-5.382 12-12S18.618 0 12 0zm0 1.565A10.423 10.423 0 0 1 22.435 12 10.423 10.423 0 0 1 12 22.435 10.423 10.423 0 0 1 1.565 12 10.423 10.423 0 0 1 12 1.565zM7.565 7.043a1.826 1.826 0 1 0 0 3.652 1.826 1.826 0 0 0 0-3.652zm8.87 0a1.826 1.826 0 1 0 0 3.652 1.826 1.826 0 0 0 0-3.652zM6.179 14.348a.754.754 0 0 0-.62.407.792.792 0 0 0 .05.807c1.399 2.093 3.743 3.481 6.391 3.481 2.649 0 4.992-1.388 6.392-3.48.228-.342.129-.857-.212-1.085-.342-.228-.864-.13-1.093.212-1.13 1.69-2.982 2.788-5.087 2.788-2.104 0-3.957-1.098-5.087-2.788-.212-.248-.482-.357-.734-.342z" fill="#48448C"/></g><defs><clipPath id="cjclip0"><path fill="#fff" d="M0 0h24v24H0z"/></clipPath></defs></symbol><symbol fill="none" viewBox="0 0 26 24" id="icons--star" xmlns="http://www.w3.org/2000/svg"><path d="M13 1.13l3.372 6.833.117.235.26.038 7.54 1.096-5.456 5.319-.188.183.044.26 1.288 7.51-6.744-3.547-.233-.122-.233.122-6.744 3.546 1.288-7.51.044-.259-.188-.183-5.456-5.32 7.54-1.095.26-.038.117-.235L13 1.13z" fill="var(--fill-color)" stroke="var(--stroke-color)"/></symbol><symbol fill="none" viewBox="0 0 137 95" id="icons--step1" xmlns="http://www.w3.org/2000/svg"><g filter="url(#clfilter0_d)"><rect x="2" y="2" width="133" height="91" rx="4" fill="#fff"/></g><path d="M3 6a3 3 0 0 1 3-3h125a3 3 0 0 1 3 3v3H3V6z" fill="#E6EBF1"/><circle cx="131" cy="6" r="1" fill="#48448C"/><circle cx="128" cy="6" r="1" fill="#48448C"/><circle cx="125" cy="6" r="1" fill="#48448C"/><rect x="23" y="19" width="35" height="4" rx="2" fill="#ADB8CA"/><rect x="23" y="73" width="35" height="8" rx="4" fill="#48448C"/><rect x="37" y="27" width="65" height="3" rx="1.5" fill="#ADB8CA"/><rect x="37" y="32" width="37" height="3" rx="1.5" fill="#ADB8CA"/><rect x="37" y="42" width="65" height="3" rx="1.5" fill="#ADB8CA"/><rect x="37" y="47" width="37" height="3" rx="1.5" fill="#ADB8CA"/><rect x="37" y="56" width="65" height="3" rx="1.5" fill="#ADB8CA"/><rect x="37" y="61" width="37" height="3" rx="1.5" fill="#ADB8CA"/><rect x="65" y="73" width="28" height="3" rx="1.5" fill="#E1E1E1"/><rect x="65" y="78" width="16" height="3" rx="1.5" fill="#E1E1E1"/><rect opacity=".5" x="109" y="19" width="4" height="4" rx="2" fill="#ADB8CA"/><rect opacity=".5" x="102" y="19" width="4" height="4" rx="2" fill="#ADB8CA"/><rect x="95" y="19" width="4" height="4" rx="2" fill="#ADB8CA"/><path fill="#D9DCE2" d="M23 27h10v10H23zm0 15h10v10H23zm0 14h10v10H23z"/><path fill="#F67660" d="M25 29h6v6h-6z"/><path fill="#27AE60" d="M25 44h6v6h-6z"/><path fill="#fff" d="M25 58h6v6h-6z"/><rect opacity=".8" x="31" y="76" width="18" height="2" rx="1" fill="#fff"/><defs><filter id="clfilter0_d" x="0" y="0" width="137" height="95" filterUnits="userSpaceOnUse" color-interpolation-filters="sRGB"><feFlood flood-opacity="0" result="BackgroundImageFix"/><feColorMatrix in="SourceAlpha" values="0 0 0 0 0 0 0 0 0 0 0 0 0 0 0 0 0 0 127 0"/><feOffset/><feGaussianBlur stdDeviation="1"/><feColorMatrix values="0 0 0 0 0 0 0 0 0 0 0 0 0 0 0 0 0 0 0.16 0"/><feBlend in2="BackgroundImageFix" result="effect1_dropShadow"/><feBlend in="SourceGraphic" in2="effect1_dropShadow" result="shape"/></filter></defs></symbol><symbol fill="none" viewBox="0 0 137 95" id="icons--step2" xmlns="http://www.w3.org/2000/svg"><g filter="url(#cmfilter0_d)"><rect x="2" y="2" width="133" height="91" rx="4" fill="#fff"/></g><path d="M3 6a3 3 0 0 1 3-3h125a3 3 0 0 1 3 3v3H3V6z" fill="#E6EBF1"/><circle cx="131" cy="6" r="1" fill="#48448C"/><circle cx="128" cy="6" r="1" fill="#48448C"/><circle cx="125" cy="6" r="1" fill="#48448C"/><rect x="24" y="19" width="35" height="4" rx="2" fill="#ADB8CA"/><rect x="47" y="27" width="67" height="34" rx="3" fill="#E1E1E1" fill-opacity=".6"/><rect x="65" y="32" width="23" height="3" rx="1.5" fill="#ADB8CA"/><rect x="65" y="37" width="37" height="3" rx="1.5" fill="#ADB8CA"/><rect x="65" y="43" width="6" height="3" rx="1.5" fill="#ADB8CA"/><rect x="65" y="48" width="6" height="3" rx="1.5" fill="#ADB8CA"/><rect x="65" y="53" width="6" height="3" rx="1.5" fill="#ADB8CA"/><path d="M47 67a3 3 0 0 1 3-3h61a3 3 0 0 1 3 3v26H47V67z" fill="#E1E1E1" fill-opacity=".6"/><rect x="73" y="43" width="20" height="3" rx="1.5" fill="#C8C8C9"/><rect x="73" y="48" width="29" height="3" rx="1.5" fill="#C8C8C9"/><rect x="73" y="53" width="24" height="3" rx="1.5" fill="#C8C8C9"/><rect x="65" y="69" width="23" height="3" rx="1.5" fill="#ADB8CA"/><rect x="65" y="74" width="37" height="3" rx="1.5" fill="#ADB8CA"/><rect x="65" y="80" width="6" height="3" rx="1.5" fill="#ADB8CA"/><rect x="65" y="85" width="6" height="3" rx="1.5" fill="#ADB8CA"/><rect x="65" y="90" width="6" height="3" rx="1.5" fill="#ADB8CA"/><rect x="73" y="80" width="20" height="3" rx="1.5" fill="#C8C8C9"/><rect x="73" y="85" width="29" height="3" rx="1.5" fill="#C8C8C9"/><rect x="73" y="90" width="24" height="3" rx="1.5" fill="#C8C8C9"/><rect x="24" y="27" width="20" height="25" rx="2" fill="#EDEDED"/><rect x="24" y="54" width="20" height="20" rx="2" fill="#EDEDED"/><path d="M24 79a2 2 0 0 1 2-2h16a2 2 0 0 1 2 2v14H24V79z" fill="#EDEDED"/><rect x="51" y="31" width="10" height="10" rx="5" fill="#C4CDDB"/><rect x="52" y="68" width="10" height="10" rx="5" fill="#F2C94C" fill-opacity=".8"/><path d="M26 31a1 1 0 0 1 1-1h14a1 1 0 1 1 0 2H27a1 1 0 0 1-1-1z" fill="#ADB8CA"/><path d="M26 35a1 1 0 0 1 1-1h10a1 1 0 1 1 0 2H27a1 1 0 0 1-1-1zm0 4a1 1 0 0 1 1-1h12a1 1 0 1 1 0 2H27a1 1 0 0 1-1-1zm0 4a1 1 0 0 1 1-1h10a1 1 0 1 1 0 2H27a1 1 0 0 1-1-1zm0 5a1 1 0 0 1 1-1h10a1 1 0 1 1 0 2H27a1 1 0 0 1-1-1zm0 14a1 1 0 0 1 1-1h10a1 1 0 1 1 0 2H27a1 1 0 0 1-1-1zm0 4a1 1 0 0 1 1-1h12a1 1 0 1 1 0 2H27a1 1 0 0 1-1-1zm0 4a1 1 0 0 1 1-1h10a1 1 0 1 1 0 2H27a1 1 0 0 1-1-1zm0 14a1 1 0 0 1 1-1h10a1 1 0 1 1 0 2H27a1 1 0 0 1-1-1zm0 4a1 1 0 0 1 1-1h12a1 1 0 1 1 0 2H27a1 1 0 0 1-1-1zm0 4a1 1 0 0 1 1-1h10a1 1 0 1 1 0 2H27a1 1 0 0 1-1-1z" fill="#C8C8C9"/><path d="M26 58a1 1 0 0 1 1-1h14a1 1 0 1 1 0 2H27a1 1 0 0 1-1-1zm0 22a1 1 0 0 1 1-1h14a1 1 0 1 1 0 2H27a1 1 0 0 1-1-1z" fill="#ADB8CA"/><defs><filter id="cmfilter0_d" x="0" y="0" width="137" height="95" filterUnits="userSpaceOnUse" color-interpolation-filters="sRGB"><feFlood flood-opacity="0" result="BackgroundImageFix"/><feColorMatrix in="SourceAlpha" values="0 0 0 0 0 0 0 0 0 0 0 0 0 0 0 0 0 0 127 0"/><feOffset/><feGaussianBlur stdDeviation="1"/><feColorMatrix values="0 0 0 0 0 0 0 0 0 0 0 0 0 0 0 0 0 0 0.16 0"/><feBlend in2="BackgroundImageFix" result="effect1_dropShadow"/><feBlend in="SourceGraphic" in2="effect1_dropShadow" result="shape"/></filter></defs></symbol><symbol fill="none" viewBox="0 0 137 95" id="icons--step3" xmlns="http://www.w3.org/2000/svg"><g filter="url(#cnfilter0_d)"><rect x="2" y="2" width="133" height="91" rx="4" fill="#fff"/></g><path d="M3 6a3 3 0 0 1 3-3h125a3 3 0 0 1 3 3v3H3V6z" fill="#E6EBF1"/><circle cx="131" cy="6" r="1" fill="#48448C"/><circle cx="128" cy="6" r="1" fill="#48448C"/><circle cx="125" cy="6" r="1" fill="#48448C"/><rect x="24" y="27" width="90" height="56" rx="2" fill="#EDEDED"/><rect x="26" y="29" width="6" height="6" rx="3" fill="#C4CDDB"/><rect x="34" y="31" width="8" height="2" rx="1" fill="#ADB8CA"/><rect x="34" y="42" width="8" height="2" rx="1" fill="#ADB8CA"/><rect x="34" y="53" width="8" height="2" rx="1" fill="#ADB8CA"/><rect opacity=".8" x="26" y="40" width="6" height="6" rx="3" fill="#2D9CDB"/><rect opacity=".8" x="26" y="51" width="6" height="6" rx="3" fill="#BB6BD9"/><path d="M44 31a2 2 0 0 1 2-2h64a2 2 0 0 1 2 2v48a2 2 0 0 1-2 2H46a2 2 0 0 1-2-2V31z" fill="#fff"/><rect x="24" y="19" width="35" height="4" rx="2" fill="#ADB8CA"/><path d="M46 75a2 2 0 0 1 2-2h60a2 2 0 0 1 2 2v2a2 2 0 0 1-2 2H48a2 2 0 0 1-2-2v-2z" fill="#EDEDED"/><rect x="102" y="75" width="6" height="2" rx="1" fill="#48448C"/><path d="M54 61a2 2 0 0 1 2-2h51a2 2 0 0 1 2 2v5H56a2 2 0 0 1-2-2v-3zm50.5 5h4.5v3h-1.5a3 3 0 0 1-3-3z" fill="#6FCF97"/><path d="M49 47a2 2 0 0 1 2-2h52a2 2 0 0 1 2 2v3a2 2 0 0 1-2 2H49v-5zm0 5h4.5a3 3 0 0 1-3 3H49v-3z" fill="#E0E0E0"/><path stroke="#fff" stroke-linecap="round" d="M20.5 37.5h21m-21 11h21"/><defs><filter id="cnfilter0_d" x="0" y="0" width="137" height="95" filterUnits="userSpaceOnUse" color-interpolation-filters="sRGB"><feFlood flood-opacity="0" result="BackgroundImageFix"/><feColorMatrix in="SourceAlpha" values="0 0 0 0 0 0 0 0 0 0 0 0 0 0 0 0 0 0 127 0"/><feOffset/><feGaussianBlur stdDeviation="1"/><feColorMatrix values="0 0 0 0 0 0 0 0 0 0 0 0 0 0 0 0 0 0 0.16 0"/><feBlend in2="BackgroundImageFix" result="effect1_dropShadow"/><feBlend in="SourceGraphic" in2="effect1_dropShadow" result="shape"/></filter></defs></symbol><symbol fill="none" viewBox="0 0 7 5" id="icons--threelines" xmlns="http://www.w3.org/2000/svg"><path stroke="#D0D0D0" stroke-opacity=".5" d="M3.54.2v4.6M.78.2v4.6M6.3.2v4.6"/></symbol><symbol fill="none" viewBox="0 0 14 16" id="icons--trash" xmlns="http://www.w3.org/2000/svg"><path d="M9.987 13.423a.47.47 0 0 1-.471.472.482.482 0 0 1-.472-.472V4.581H7.411v8.842a.47.47 0 0 1-.472.472.482.482 0 0 1-.472-.472V4.581H4.851v8.842a.47.47 0 0 1-.472.472.482.482 0 0 1-.472-.472V4.581H1.701v9.364c0 1.129.926 2.055 2.055 2.055h6.366a2.063 2.063 0 0 0 2.055-2.055V4.581h-2.19v8.842zM13.17 2.257H9.786V.707A.712.712 0 0 0 9.078 0H4.8a.712.712 0 0 0-.707.707v1.55H.707A.712.712 0 0 0 0 2.964c0 .388.32.708.707.708H13.17c.388 0 .708-.32.708-.708a.7.7 0 0 0-.707-.707zm-7.663-.825h2.847v.842H5.507v-.842z" fill="var(--main-color)"/></symbol><symbol viewBox="0 0 20 11" fill="none" id="icons--vk" xmlns="http://www.w3.org/2000/svg"><g clip-path="url(#cqclip0)"><path d="M19.894 9.935a1.317 1.317 0 0 0-.068-.126c-.347-.602-1.01-1.342-1.989-2.219l-.02-.02-.01-.01-.011-.01h-.01c-.445-.408-.726-.682-.844-.823-.216-.267-.264-.538-.146-.813.083-.207.396-.646.937-1.315.285-.355.51-.639.677-.853 1.2-1.54 1.722-2.523 1.562-2.951l-.062-.1c-.042-.06-.15-.116-.323-.166-.174-.05-.396-.059-.666-.025l-3 .02a.403.403 0 0 0-.208.005l-.135.03-.052.025-.042.03a.457.457 0 0 0-.114.106.682.682 0 0 0-.104.175c-.327.81-.698 1.563-1.114 2.259-.257.415-.493.775-.709 1.08a5.218 5.218 0 0 1-.541.672 3.74 3.74 0 0 1-.396.346c-.118.087-.208.124-.27.11a8 8 0 0 1-.178-.04.678.678 0 0 1-.234-.246 1.073 1.073 0 0 1-.12-.391 4.166 4.166 0 0 1-.036-.407 8.09 8.09 0 0 1 .005-.482c.007-.207.01-.348.01-.421 0-.255.006-.53.016-.829l.026-.707c.007-.174.01-.358.01-.552A2.24 2.24 0 0 0 11.7.83a1.522 1.522 0 0 0-.109-.321.547.547 0 0 0-.213-.241 1.229 1.229 0 0 0-.35-.136c-.367-.08-.836-.123-1.405-.13C8.33-.012 7.5.069 7.133.242a1.396 1.396 0 0 0-.396.302c-.125.147-.142.228-.052.24.417.06.712.205.885.432l.063.12c.049.088.097.242.146.463.048.22.08.465.093.732a7.46 7.46 0 0 1 0 1.255c-.034.348-.067.62-.099.813a1.584 1.584 0 0 1-.14.472 1.97 1.97 0 0 1-.125.22.176.176 0 0 1-.052.05.806.806 0 0 1-.281.051c-.098 0-.216-.047-.354-.14a2.466 2.466 0 0 1-.432-.387 5.173 5.173 0 0 1-.506-.688A11.866 11.866 0 0 1 5.3 3.134l-.166-.292c-.104-.187-.247-.46-.427-.818a16.37 16.37 0 0 1-.48-1.039.665.665 0 0 0-.249-.32L3.926.633a.722.722 0 0 0-.167-.085 1.137 1.137 0 0 0-.24-.066L.668.503c-.292 0-.49.064-.594.191l-.042.06A.315.315 0 0 0 0 .915c0 .074.02.164.063.271.416.944.869 1.854 1.358 2.73.49.877.915 1.583 1.276 2.118.36.536.729 1.041 1.104 1.516.375.475.623.78.744.914.122.134.217.234.287.3l.26.242c.167.16.411.353.734.577.323.224.68.445 1.073.662.392.218.848.395 1.37.532.52.138 1.026.193 1.52.166h1.197c.243-.02.427-.094.552-.22l.041-.051a.649.649 0 0 0 .078-.186.984.984 0 0 0 .037-.276 3.195 3.195 0 0 1 .067-.777 1.96 1.96 0 0 1 .178-.522 1.284 1.284 0 0 1 .4-.442.697.697 0 0 1 .084-.035c.166-.054.362-.002.588.156.226.157.438.351.636.582a18 18 0 0 0 .713.778c.277.288.52.501.729.642l.208.12c.139.081.32.155.541.222.222.066.417.083.584.05l2.665-.04c.264 0 .469-.043.614-.126.146-.084.233-.176.26-.276a.75.75 0 0 0 .006-.341 1.219 1.219 0 0 0-.073-.266z" fill="#4D75A3"/></g><defs><clipPath id="cqclip0"><path fill="#fff" d="M0 0h20v11H0z"/></clipPath></defs></symbol><symbol fill="none" viewBox="0 0 26 23" id="icons--warning" xmlns="http://www.w3.org/2000/svg"><g clip-path="url(#crclip0)" fill="#000"><path d="M14.676.981A1.931 1.931 0 0 0 13 0c-.693 0-1.329.375-1.676.981L.26 20.085a1.927 1.927 0 0 0 0 1.934c.347.606.982.981 1.676.981h22.1a1.93 1.93 0 0 0 1.675-.981 1.927 1.927 0 0 0 0-1.934L14.676.981zm10.053 20.49a.778.778 0 0 1-.693.404H1.964a.778.778 0 0 1-.693-.404c-.144-.26-.144-.549 0-.78L12.307 1.558A.778.778 0 0 1 13 1.154c.289 0 .549.145.693.404l11.065 19.133a.833.833 0 0 1-.03.78z"/><path d="M13 8.34a6.01 6.01 0 0 0-4.391 1.876.557.557 0 0 0 .029.808c.23.202.606.202.809-.029A4.852 4.852 0 0 1 13 9.465a4.904 4.904 0 0 1 4.911 4.906c0 .866-.231 1.703-.636 2.425-.144.288-.057.634.203.779a.558.558 0 0 0 .289.086.56.56 0 0 0 .49-.288c.52-.924.81-1.963.81-3.002 0-3.318-2.716-6.031-6.067-6.031zm3.467 9.523A4.904 4.904 0 0 1 8.089 14.4c0-.808.173-1.558.549-2.28a.594.594 0 0 0-.231-.779.595.595 0 0 0-.78.231 5.908 5.908 0 0 0-.693 2.8A6.063 6.063 0 0 0 13 20.431a6.058 6.058 0 0 0 4.305-1.79.558.558 0 0 0 0-.808.622.622 0 0 0-.838.03z"/><path d="M13 16.767a.58.58 0 0 0 .577-.578v-5.338a.58.58 0 0 0-.577-.577.58.58 0 0 0-.578.577v5.338c0 .318.26.578.578.578zm0 1.703a.577.577 0 1 0 0-1.156.577.577 0 0 0 0 1.155z"/></g><defs><clipPath id="crclip0"><path fill="#fff" d="M0 0h26v23H0z"/></clipPath></defs></symbol><symbol fill="none" viewBox="0 0 21 21" id="icons--web" xmlns="http://www.w3.org/2000/svg"><path fill-rule="evenodd" clip-rule="evenodd" d="M10.504 0C4.705 0 0 4.713 0 10.5 0 16.296 4.706 21 10.504 21 16.294 21 21 16.297 21 10.5 21 4.712 16.295 0 10.504 0zM8.77 1.465c-.97 1.245-1.62 2.88-2.012 4.68H2.394a9.18 9.18 0 0 1 6.376-4.68zm3.436 0a9.198 9.198 0 0 1 6.4 4.68h-4.38c-.393-1.801-1.051-3.436-2.02-4.68zm-1.718.057c1.07.983 1.884 2.66 2.37 4.623H8.125c.485-1.964 1.291-3.64 2.362-4.623zM1.816 7.456h4.698a21.7 21.7 0 0 0-.203 3.06c0 1.02.07 2.046.211 3.036H1.816a9.22 9.22 0 0 1-.513-3.052c0-1.067.18-2.092.513-3.044zm6.042 0h5.268c.163.989.253 2.022.252 3.06 0 1.03-.091 2.056-.252 3.036H7.858a19.022 19.022 0 0 1 0-6.096zm6.612 0h4.714c.334.952.513 1.977.513 3.044a9.205 9.205 0 0 1-.513 3.052H14.47c.14-.99.211-2.016.211-3.036 0-1.03-.068-2.059-.211-3.06zM2.386 14.855H6.75c.39 1.802 1.046 3.439 2.012 4.68a9.17 9.17 0 0 1-6.376-4.68zm5.74 0h4.74c-.486 1.975-1.304 3.655-2.378 4.631-1.07-.976-1.877-2.658-2.362-4.631zm6.107 0h4.381a9.19 9.19 0 0 1-6.392 4.68c.967-1.241 1.622-2.878 2.011-4.68z" fill="#2F80ED"/></symbol><symbol fill="none" viewBox="0 0 10 20" id="icons--ya" xmlns="http://www.w3.org/2000/svg"><g clip-path="url(#ctclip0)"><path d="M9.118 0H6.33C3.508 0 .659 2.126.659 6.875c0 2.46 1.022 4.376 2.897 5.466L.125 18.673c-.163.3-.167.638-.012.907.152.263.43.42.743.42H2.59c.395 0 .702-.194.85-.535l3.216-6.415h.235v6.15c0 .434.359.8.783.8H9.19c.476 0 .809-.339.809-.824V.876C10 .36 9.637 0 9.118 0zM6.892 10.2h-.414c-1.606 0-2.565-1.336-2.565-3.575 0-2.783 1.211-3.775 2.345-3.775h.634v7.35z" fill="#D7143A"/></g><defs><clipPath id="ctclip0"><path fill="#fff" d="M0 0h10v20H0z"/></clipPath></defs></symbol><symbol fill="none" viewBox="0 0 258 258" id="noPhoto" xmlns="http://www.w3.org/2000/svg"><rect x=".5" y=".5" width="257" height="257" rx="7.5" fill="#FAFAFA" stroke="#E1E1E1"/><path d="M93.352 193.904l-.976.112L92.2 192h-7.136l-.16 1.904-.992.112v-3.072h.864c.427-.267.768-.667 1.024-1.2.267-.533.48-1.285.64-2.256.16-.971.314-2.32.464-4.048l.16-1.696h4.928l-.048 7.056.016 2.144h1.392v2.96zm-2.576-4.992l-.048-6.16h-2.624l-.08.912c-.128 1.493-.272 2.709-.432 3.648-.16.939-.358 1.696-.592 2.272-.235.576-.534 1.029-.896 1.36h4.624l.048-2.032zm7.239-4.368c.992 0 1.76.325 2.304.976.555.64.832 1.547.832 2.72 0 1.237-.288 2.197-.864 2.88-.576.672-1.398 1.008-2.464 1.008-1.003 0-1.781-.32-2.336-.96-.544-.651-.816-1.563-.816-2.736 0-1.237.288-2.192.864-2.864.587-.683 1.413-1.024 2.48-1.024zm-.08.896c-.672 0-1.184.229-1.536.688-.352.459-.528 1.131-.528 2.016 0 1.024.17 1.792.512 2.304.352.512.859.768 1.52.768.672 0 1.184-.224 1.536-.672.352-.448.528-1.12.528-2.016 0-1.013-.176-1.781-.528-2.304-.341-.523-.843-.784-1.504-.784zm8.326-.592c.949 0 1.669.293 2.16.88.491.587.736 1.451.736 2.592 0 1.237-.283 2.181-.848 2.832-.555.651-1.365.976-2.432.976-1.099 0-1.893-.389-2.384-1.168-.491-.789-.736-2.059-.736-3.808 0-1.024.08-1.861.24-2.512.171-.651.443-1.173.816-1.568.373-.405.885-.725 1.536-.96l1.504-.544a6.78 6.78 0 0 0 .912-.4c.256-.139.528-.32.816-.544l.144.064.096 1.024c-.459.32-1.04.603-1.744.848l-1.488.48c-.565.181-.981.517-1.248 1.008s-.4 1.168-.4 2.032v.176l.08.016c.629-.736 1.376-1.211 2.24-1.424zm-.288 6.384c.661 0 1.163-.224 1.504-.672.341-.459.512-1.131.512-2.016 0-.853-.155-1.499-.464-1.936-.299-.448-.747-.672-1.344-.672-.779 0-1.525.469-2.24 1.408.011 1.397.171 2.395.48 2.992.309.597.827.896 1.552.896zm7.488-6.688c.693 0 1.237.171 1.632.512.405.341.608.811.608 1.408 0 .181-.032.837-.096 1.968a61.976 61.976 0 0 0-.096 1.984c0 .235.037.4.112.496.075.085.203.128.384.128.16 0 .341-.032.544-.096l.128.112-.128.72a2.29 2.29 0 0 1-.912.32c-.331-.032-.597-.149-.8-.352-.192-.203-.293-.48-.304-.832h-.112c-.576.587-1.147.987-1.712 1.2-.715 0-1.275-.176-1.68-.528-.395-.363-.592-.853-.592-1.472 0-.469.123-.843.368-1.12.256-.277.629-.475 1.12-.592l2.592-.608.016-1.04c0-.416-.112-.736-.336-.96-.213-.224-.523-.336-.928-.336-.363 0-.725.085-1.088.256-.363.171-.752.437-1.168.8l-.128-.064-.16-.912c.885-.661 1.797-.992 2.736-.992zm-1.28 4.624c-.213.064-.368.155-.464.272-.096.107-.144.272-.144.496 0 .352.096.629.288.832.203.192.469.288.8.288.587 0 1.184-.379 1.792-1.136l.048-1.312-2.32.56zm9.892-.992c1.088.235 1.632.816 1.632 1.744 0 1.419-1.109 2.128-3.328 2.128-.64 0-1.344-.016-2.112-.048l.064-3.104-.048-4.224 2.544-.016c.811 0 1.435.155 1.872.464.437.299.656.736.656 1.312 0 .395-.112.741-.336 1.04-.213.299-.528.533-.944.704zm.112-1.6c0-.747-.576-1.12-1.728-1.12-.427 0-.763.005-1.008.016l-.016 2.384 1.472.048c.427-.075.747-.224.96-.448.213-.235.32-.528.32-.88zm-1.696 4.688c.661 0 1.168-.117 1.52-.352.352-.235.528-.576.528-1.024 0-.715-.485-1.125-1.456-1.232l-1.664.016v.112l.032 2.432c.341.032.688.048 1.04.048zm5.106-2.368l-.064-4.192 1.232-.064-.032 5.552h.096l3.312-5.52h1.248l-.048 4.096.048 3.232h-1.232l.048-3.024V186.4h-.096l-3.36 5.6h-1.216l.064-3.104zm12.729-4.144l-.096.848-1.344-.032h-.896l-.032 3.216.048 3.216h-1.248l.048-3.104-.032-3.328h-.896l-1.36.032-.08-.112.08-.816h5.712l.096.08zm4.15 2.864c.778 0 1.365.171 1.76.512.405.331.608.816.608 1.456 0 .768-.278 1.365-.832 1.792-.555.416-1.334.624-2.336.624h-2.096l.064-3.104-.048-4.224h1.232l-.032 2.944h1.68zm-.384 3.568c.512-.053.901-.203 1.168-.448.266-.256.4-.597.4-1.024 0-.416-.134-.741-.4-.976-.267-.235-.646-.347-1.136-.336l-1.344.016v.368l.032 2.368 1.28.032zm14.717-2.912c0 1.163-.309 2.069-.928 2.72-.619.651-1.536 1.024-2.752 1.12l.016 2.848h-1.216l.016-2.832c-1.205-.085-2.123-.437-2.752-1.056-.619-.629-.928-1.52-.928-2.672 0-1.152.309-2.053.928-2.704.619-.651 1.536-1.024 2.752-1.12l-.016-2.752 1.232-.112-.016 2.848c1.205.075 2.117.427 2.736 1.056.619.629.928 1.515.928 2.656zm-3.68 2.96c.853-.085 1.483-.373 1.888-.864.416-.491.624-1.184.624-2.08 0-.875-.208-1.541-.624-2-.405-.459-1.035-.725-1.888-.8l-.016 3.28.016 2.464zm-3.696-2.88c0 .885.208 1.568.624 2.048.416.48 1.045.757 1.888.832l.016-2.336-.016-3.408c-.853.085-1.488.368-1.904.848-.405.469-.608 1.141-.608 2.016zm11.896-3.808c.992 0 1.76.325 2.304.976.555.64.832 1.547.832 2.72 0 1.237-.288 2.197-.864 2.88-.576.672-1.397 1.008-2.464 1.008-1.002 0-1.781-.32-2.336-.96-.544-.651-.816-1.563-.816-2.736 0-1.237.288-2.192.864-2.864.587-.683 1.414-1.024 2.48-1.024zm-.08.896c-.672 0-1.184.229-1.536.688-.352.459-.528 1.131-.528 2.016 0 1.024.171 1.792.512 2.304.352.512.859.768 1.52.768.672 0 1.184-.224 1.536-.672.352-.448.528-1.12.528-2.016 0-1.013-.176-1.781-.528-2.304-.341-.523-.842-.784-1.504-.784zm9.546-.688l-.096.848-1.344-.032h-.896l-.032 3.216.048 3.216h-1.248l.048-3.104-.032-3.328h-.896l-1.36.032-.08-.112.08-.816h5.712l.096.08zm3.753-.208c.992 0 1.76.325 2.304.976.555.64.832 1.547.832 2.72 0 1.237-.288 2.197-.864 2.88-.576.672-1.397 1.008-2.464 1.008-1.003 0-1.781-.32-2.336-.96-.544-.651-.816-1.563-.816-2.736 0-1.237.288-2.192.864-2.864.587-.683 1.413-1.024 2.48-1.024zm-.08.896c-.672 0-1.184.229-1.536.688-.352.459-.528 1.131-.528 2.016 0 1.024.171 1.792.512 2.304.352.512.859.768 1.52.768.672 0 1.184-.224 1.536-.672.352-.448.528-1.12.528-2.016 0-1.013-.176-1.781-.528-2.304-.341-.523-.843-.784-1.504-.784zm-37.968-30.029c-.695-1.176-1.042-2.519-1.042-4.367v-16.46h-13.372v16.796c0 4.031.695 7.054 2.084 9.238 1.39 2.183 4.168 5.038 7.988 6.382l8.162-7.894c-1.91-1.344-3.126-2.687-3.82-3.695zM128.586 63c-18.485 0-33.515 14.574-33.515 32.5 0 17.757 15.03 32.331 33.515 32.331s33.343-14.574 33.343-32.332c0-17.925-15.03-32.499-33.343-32.499zm-.172 51.932c-11.057 0-20.04-8.711-20.04-19.433 0-10.721 8.983-19.432 20.04-19.432 11.056 0 20.039 8.71 20.039 19.432 0 10.722-8.983 19.433-20.039 19.433z" fill="#DFE3E9"/></symbol></svg>