<svg width="258" height="258" viewBox="0 0 258 258" fill="none" xmlns="http://www.w3.org/2000/svg"><rect x=".5" y=".5" width="257" height="257" rx="7.5" fill="#FAFAFA" stroke="#E1E1E1"/><path d="M93.352 193.904l-.976.112L92.2 192h-7.136l-.16 1.904-.992.112v-3.072h.864c.427-.267.768-.667 1.024-1.2.267-.533.48-1.285.64-2.256.16-.971.314-2.32.464-4.048l.16-1.696h4.928l-.048 7.056.016 2.144h1.392v2.96zm-2.576-4.992l-.048-6.16h-2.624l-.08.912c-.128 1.493-.272 2.709-.432 3.648-.16.939-.358 1.696-.592 2.272-.235.576-.534 1.029-.896 1.36h4.624l.048-2.032zm7.239-4.368c.992 0 1.76.325 2.304.976.555.64.832 1.547.832 2.72 0 1.237-.288 2.197-.864 2.88-.576.672-1.398 1.008-2.464 1.008-1.003 0-1.781-.32-2.336-.96-.544-.651-.816-1.563-.816-2.736 0-1.237.288-2.192.864-2.864.587-.683 1.413-1.024 2.48-1.024zm-.08.896c-.672 0-1.184.229-1.536.688-.352.459-.528 1.131-.528 2.016 0 1.024.17 1.792.512 2.304.352.512.859.768 1.52.768.672 0 1.184-.224 1.536-.672.352-.448.528-1.12.528-2.016 0-1.013-.176-1.781-.528-2.304-.341-.523-.843-.784-1.504-.784zm8.326-.592c.949 0 1.669.293 2.16.88.491.587.736 1.451.736 2.592 0 1.237-.283 2.181-.848 2.832-.555.651-1.365.976-2.432.976-1.099 0-1.893-.389-2.384-1.168-.491-.789-.736-2.059-.736-3.808 0-1.024.08-1.861.24-2.512.171-.651.443-1.173.816-1.568.373-.405.885-.725 1.536-.96l1.504-.544a6.78 6.78 0 0 0 .912-.4c.256-.139.528-.32.816-.544l.144.064.096 1.024c-.459.32-1.04.603-1.744.848l-1.488.48c-.565.181-.981.517-1.248 1.008s-.4 1.168-.4 2.032v.176l.08.016c.629-.736 1.376-1.211 2.24-1.424zm-.288 6.384c.661 0 1.163-.224 1.504-.672.341-.459.512-1.131.512-2.016 0-.853-.155-1.499-.464-1.936-.299-.448-.747-.672-1.344-.672-.779 0-1.525.469-2.24 1.408.011 1.397.171 2.395.48 2.992.309.597.827.896 1.552.896zm7.488-6.688c.693 0 1.237.171 1.632.512.405.341.608.811.608 1.408 0 .181-.032.837-.096 1.968a61.976 61.976 0 0 0-.096 1.984c0 .235.037.4.112.496.075.085.203.128.384.128.16 0 .341-.032.544-.096l.128.112-.128.72a2.29 2.29 0 0 1-.912.32c-.331-.032-.597-.149-.8-.352-.192-.203-.293-.48-.304-.832h-.112c-.576.587-1.147.987-1.712 1.2-.715 0-1.275-.176-1.68-.528-.395-.363-.592-.853-.592-1.472 0-.469.123-.843.368-1.12.256-.277.629-.475 1.12-.592l2.592-.608.016-1.04c0-.416-.112-.736-.336-.96-.213-.224-.523-.336-.928-.336-.363 0-.725.085-1.088.256-.363.171-.752.437-1.168.8l-.128-.064-.16-.912c.885-.661 1.797-.992 2.736-.992zm-1.28 4.624c-.213.064-.368.155-.464.272-.096.107-.144.272-.144.496 0 .352.096.629.288.832.203.192.469.288.8.288.587 0 1.184-.379 1.792-1.136l.048-1.312-2.32.56zm9.892-.992c1.088.235 1.632.816 1.632 1.744 0 1.419-1.109 2.128-3.328 2.128-.64 0-1.344-.016-2.112-.048l.064-3.104-.048-4.224 2.544-.016c.811 0 1.435.155 1.872.464.437.299.656.736.656 1.312 0 .395-.112.741-.336 1.04-.213.299-.528.533-.944.704zm.112-1.6c0-.747-.576-1.12-1.728-1.12-.427 0-.763.005-1.008.016l-.016 2.384 1.472.048c.427-.075.747-.224.96-.448.213-.235.32-.528.32-.88zm-1.696 4.688c.661 0 1.168-.117 1.52-.352.352-.235.528-.576.528-1.024 0-.715-.485-1.125-1.456-1.232l-1.664.016v.112l.032 2.432c.341.032.688.048 1.04.048zm5.106-2.368l-.064-4.192 1.232-.064-.032 5.552h.096l3.312-5.52h1.248l-.048 4.096.048 3.232h-1.232l.048-3.024V186.4h-.096l-3.36 5.6h-1.216l.064-3.104zm12.729-4.144l-.096.848-1.344-.032h-.896l-.032 3.216.048 3.216h-1.248l.048-3.104-.032-3.328h-.896l-1.36.032-.08-.112.08-.816h5.712l.096.08zm4.15 2.864c.778 0 1.365.171 1.76.512.405.331.608.816.608 1.456 0 .768-.278 1.365-.832 1.792-.555.416-1.334.624-2.336.624h-2.096l.064-3.104-.048-4.224h1.232l-.032 2.944h1.68zm-.384 3.568c.512-.053.901-.203 1.168-.448.266-.256.4-.597.4-1.024 0-.416-.134-.741-.4-.976-.267-.235-.646-.347-1.136-.336l-1.344.016v.368l.032 2.368 1.28.032zm14.717-2.912c0 1.163-.309 2.069-.928 2.72-.619.651-1.536 1.024-2.752 1.12l.016 2.848h-1.216l.016-2.832c-1.205-.085-2.123-.437-2.752-1.056-.619-.629-.928-1.52-.928-2.672 0-1.152.309-2.053.928-2.704.619-.651 1.536-1.024 2.752-1.12l-.016-2.752 1.232-.112-.016 2.848c1.205.075 2.117.427 2.736 1.056.619.629.928 1.515.928 2.656zm-3.68 2.96c.853-.085 1.483-.373 1.888-.864.416-.491.624-1.184.624-2.08 0-.875-.208-1.541-.624-2-.405-.459-1.035-.725-1.888-.8l-.016 3.28.016 2.464zm-3.696-2.88c0 .885.208 1.568.624 2.048.416.48 1.045.757 1.888.832l.016-2.336-.016-3.408c-.853.085-1.488.368-1.904.848-.405.469-.608 1.141-.608 2.016zm11.896-3.808c.992 0 1.76.325 2.304.976.555.64.832 1.547.832 2.72 0 1.237-.288 2.197-.864 2.88-.576.672-1.397 1.008-2.464 1.008-1.002 0-1.781-.32-2.336-.96-.544-.651-.816-1.563-.816-2.736 0-1.237.288-2.192.864-2.864.587-.683 1.414-1.024 2.48-1.024zm-.08.896c-.672 0-1.184.229-1.536.688-.352.459-.528 1.131-.528 2.016 0 1.024.171 1.792.512 2.304.352.512.859.768 1.52.768.672 0 1.184-.224 1.536-.672.352-.448.528-1.12.528-2.016 0-1.013-.176-1.781-.528-2.304-.341-.523-.842-.784-1.504-.784zm9.546-.688l-.096.848-1.344-.032h-.896l-.032 3.216.048 3.216h-1.248l.048-3.104-.032-3.328h-.896l-1.36.032-.08-.112.08-.816h5.712l.096.08zm3.753-.208c.992 0 1.76.325 2.304.976.555.64.832 1.547.832 2.72 0 1.237-.288 2.197-.864 2.88-.576.672-1.397 1.008-2.464 1.008-1.003 0-1.781-.32-2.336-.96-.544-.651-.816-1.563-.816-2.736 0-1.237.288-2.192.864-2.864.587-.683 1.413-1.024 2.48-1.024zm-.08.896c-.672 0-1.184.229-1.536.688-.352.459-.528 1.131-.528 2.016 0 1.024.171 1.792.512 2.304.352.512.859.768 1.52.768.672 0 1.184-.224 1.536-.672.352-.448.528-1.12.528-2.016 0-1.013-.176-1.781-.528-2.304-.341-.523-.843-.784-1.504-.784zm-37.968-30.029c-.695-1.176-1.042-2.519-1.042-4.367v-16.46h-13.372v16.796c0 4.031.695 7.054 2.084 9.238 1.39 2.183 4.168 5.038 7.988 6.382l8.162-7.894c-1.91-1.344-3.126-2.687-3.82-3.695zM128.586 63c-18.485 0-33.515 14.574-33.515 32.5 0 17.757 15.03 32.331 33.515 32.331s33.343-14.574 33.343-32.332c0-17.925-15.03-32.499-33.343-32.499zm-.172 51.932c-11.057 0-20.04-8.711-20.04-19.433 0-10.721 8.983-19.432 20.04-19.432 11.056 0 20.039 8.71 20.039 19.432 0 10.722-8.983 19.433-20.039 19.433z" fill="#DFE3E9"/></svg>