<svg width="17" height="14" viewBox="0 0 17 14" fill="none" xmlns="http://www.w3.org/2000/svg"><path d="M15.126 5.062c0-.432.011-.868 0-1.3v-.019a.173.173 0 0 0-.17-.17H1.757c-.178 0-.355-.004-.534 0H1.2a.173.173 0 0 0-.17.17v9.062c.003.322.133.635.366.86.223.214.519.332.829.335h11.719a1.21 1.21 0 0 0 1.182-1.195V5.062zm-4.035.906a.732.732 0 0 1-.218.506.74.74 0 0 1-.523.22H5.805a.746.746 0 0 1-.74-.707v-.073a.739.739 0 0 1 .739-.705h4.545c.39 0 .71.305.739.686l.001.037v.017a.064.064 0 0 1 .002.02zm5.059-3.505a.517.517 0 0 1-.486.52H1.333c-.264 0-.528.002-.79 0a.524.524 0 0 1-.541-.532c-.002-.325 0-.65 0-.977 0-.315-.004-.63 0-.945A.524.524 0 0 1 .546 0h14.97c.081 0 .163-.007.243.012.247.053.391.281.393.523 0 .127-.003.253-.003.38V2.12c-.002.115.003.228.001.342z" fill="var(--main-color)"/></svg>