<svg width="31" height="21" viewBox="0 0 31 21" fill="none" xmlns="http://www.w3.org/2000/svg"><g clip-path="url(#clip0)"><path d="M30.48.007a.452.452 0 0 0-.194.068L17.414 8.683a2.67 2.67 0 0 0-1.922-.806c-1.461 0-2.655 1.18-2.655 2.623 0 .383.084.75.235 1.08L.2 20.188a.44.44 0 0 0-.125.614.452.452 0 0 0 .622.124l6.914-4.618a19.795 19.795 0 0 0 7.881 1.626c6.077 0 11.548-2.757 15.375-7.146a.433.433 0 0 0 0-.574 21.162 21.162 0 0 0-6.553-5.07l6.47-4.33a.434.434 0 0 0 .154-.6.444.444 0 0 0-.458-.207zm-14.988 3.06c-6.077 0-11.548 2.757-15.375 7.147a.433.433 0 0 0 0 .573 21.495 21.495 0 0 0 3.747 3.402c.187.155.467.13.623-.056a.434.434 0 0 0-.111-.654 20.591 20.591 0 0 1-3.305-2.965c3.66-4.039 8.754-6.572 14.421-6.572a18.9 18.9 0 0 1 3.443.314.438.438 0 0 0 .166-.86 19.828 19.828 0 0 0-3.61-.328zm0 1.312c-3.34 0-6.074 2.617-6.194 5.89a.44.44 0 0 0 .421.457.441.441 0 0 0 .463-.417c.104-2.811 2.438-5.055 5.31-5.055.546 0 1.067.082 1.562.232a.444.444 0 0 0 .57-.254.436.436 0 0 0-.307-.58 6.244 6.244 0 0 0-1.825-.273zm7.978 1.325c2.435 1.13 4.618 2.772 6.443 4.783-3.66 4.038-8.754 6.572-14.421 6.572a18.85 18.85 0 0 1-6.997-1.353l2.13-1.42a6.221 6.221 0 0 0 4.866 2.336c3.416 0 6.195-2.746 6.195-6.122a6.003 6.003 0 0 0-.83-3.047l2.614-1.749zm-3.346 2.241c.428.756.677 1.625.677 2.555 0 2.903-2.372 5.247-5.31 5.247a5.317 5.317 0 0 1-4.12-1.954l2.199-1.475c.484.5 1.17.806 1.922.806 1.46 0 2.654-1.18 2.654-2.624 0-.383-.084-.75-.235-1.08l2.213-1.475zm-4.632.807c.447 0 .85.17 1.161.437l-2.82 1.885a1.728 1.728 0 0 1-.111-.574c0-.97.787-1.748 1.77-1.748zm1.659 1.174c.063.18.11.372.11.574 0 .971-.787 1.749-1.77 1.749-.447 0-.85-.17-1.16-.437l2.82-1.886z" fill="#000"/></g><defs><clipPath id="clip0"><path fill="#fff" d="M0 0h31v21H0z"/></clipPath></defs></svg>