<svg width="35" height="35" viewBox="0 0 35 35" fill="none" xmlns="http://www.w3.org/2000/svg"><circle opacity=".6" cx="17.5" cy="17.5" r="17" fill="var(--fill-color)" stroke="var(--main-color)"/><path d="M19.64 14.89l.24.472.526.066c1.363.17 2.548.287 3.481.38.507.05.939.092 1.285.132l.19.023-.097.085a80.65 80.65 0 0 1-.95.812c-.7.59-1.59 1.344-2.59 2.237l-.424.38.11.558c.245 1.251.493 2.352.688 3.216a72.414 72.414 0 0 1 .306 1.408 19.635 19.635 0 0 1-.288-.147 82.93 82.93 0 0 1-1.134-.607 123.01 123.01 0 0 0-3.042-1.607l-.453-.23-.454.23c-1.226.625-2.265 1.19-3.081 1.635-.432.235-.801.436-1.103.593-.093.049-.18.094-.26.134l.038-.19c.066-.312.153-.696.255-1.144.198-.872.451-1.988.706-3.291l.11-.559-.425-.379c-1-.893-1.89-1.646-2.589-2.237a80.86 80.86 0 0 1-1.047-.897l.19-.023c.346-.04.778-.082 1.285-.133.933-.092 2.118-.21 3.481-.38l.526-.065.24-.472a115.667 115.667 0 0 0 1.454-2.968c.213-.446.393-.824.539-1.116l.147-.289.147.289c.146.292.326.67.539 1.116.382.802.87 1.825 1.453 2.968zm2.87 10.629c0-.001 0-.013.004-.033-.001.024-.003.034-.004.033zm-4.6-15.665a.105.105 0 0 1-.02.02c.013-.015.02-.02.02-.02zm-.8.02a.105.105 0 0 1-.02-.02s.007.005.02.02z" stroke="var(--main-color)" stroke-width="2"/></svg>