<svg width="120" height="121" viewBox="0 0 120 121" fill="none" xmlns="http://www.w3.org/2000/svg"><path d="M60 120.445c33.137 0 60-26.963 60-60.223S93.137 0 60 0 0 26.962 0 60.222c0 33.26 26.863 60.223 60 60.223z" fill="#37C8CC"/><path d="M95.932 56.047c-3.073-3.681-8.483-7.404-7.53-12.083C90.789 32.178 86.988 13.585 60 13.42c-20.195.597-35.164 19.077-39.795 31.346a63.793 63.793 0 0 0-3.699 30.173C18.893 91.845 35.973 105.852 60 105.852s43.484-13.842 43.484-30.913c0-6.459-2.777-13.112-7.552-18.892z" fill="#FF775F"/><path d="M75.922 88.554H43.76c.215.587.42 1.183.605 1.79a32.927 32.927 0 0 1 1.024 4.648c.062.35.103.7.154 1.028a28.957 28.957 0 0 1-5.328 21.041 59.791 59.791 0 0 0 39.303.083 27.096 27.096 0 0 1-3.883-7.107 28.808 28.808 0 0 1-1.526-6.52 32.458 32.458 0 0 1 .235-8.905 33.527 33.527 0 0 1 1.578-6.058z" fill="#F9D8BC"/><path d="M75.635 110.037c-11.578 0-22.408 3.713-30.071-13.986 0-.35-.093-.699-.154-1.028a32.924 32.924 0 0 0-1.025-4.648 33.394 33.394 0 0 0-.604-1.79h5.604a185.947 185.947 0 0 1 20.123 6.027h4.836a32.461 32.461 0 0 0-.235 8.926 28.77 28.77 0 0 0 1.526 6.499zM41.291 66.393a3.98 3.98 0 0 0-2.633-2.54 4.279 4.279 0 0 0-3.75.288c-1.322 1.028-.963 2.776-.297 4.329.666 1.553 1.598 3.198 1.198 4.628-.266.956-1.106 1.738-1.024 2.756a3.448 3.448 0 0 0 2.654 2.55c1.413.38 2.92 0 3.432-.884l.42-11.127z" fill="#EFBA9E"/><path d="M38.986 77.756a2.35 2.35 0 0 1-1.442 2.167 2.328 2.328 0 0 1-2.546-.509 2.347 2.347 0 0 1-.507-2.555 2.342 2.342 0 0 1 2.159-1.447c.62 0 1.213.247 1.651.686.438.44.685 1.037.685 1.658z" fill="#48428E"/><path d="M79.395 66.393a4.003 4.003 0 0 1 2.644-2.54 4.259 4.259 0 0 1 3.74.288c1.332 1.028 1.024 2.776.297 4.329-.728 1.553-1.598 3.198-1.199 4.628.267.956 1.107 1.738 1.025 2.756a3.5 3.5 0 0 1-.97 1.657 3.48 3.48 0 0 1-1.694.893c-1.404.38-2.91 0-3.422-.884l-.42-11.127z" fill="#EFBA9E"/><path d="M81.711 77.756a2.35 2.35 0 0 0 1.45 2.17 2.328 2.328 0 0 0 2.549-.523 2.348 2.348 0 0 0-.388-3.611 2.33 2.33 0 0 0-1.306-.38 2.321 2.321 0 0 0-1.635.694 2.339 2.339 0 0 0-.67 1.65z" fill="#48428E"/><path d="M75.584 38.41H45.082c-6.148 0-10.338 5.142-9.303 11.313a116.105 116.105 0 0 1 1.27 23.704c-.379 8.484 8.474 21.04 15.779 28.939a10.455 10.455 0 0 0 7.545 3.296 10.46 10.46 0 0 0 7.588-3.194c7.418-7.856 16.394-20.423 15.697-29.041a113.003 113.003 0 0 1 1.24-23.705c1.034-6.118-3.126-11.312-9.314-11.312z" fill="#F9D8BC"/><path d="M51.834 84.852c.768 2.839 4.283 4.988 8.525 4.988 4.241 0 7.756-2.15 8.524-4.988H51.834z" fill="#fff"/><path d="M49.375 65.889a2.341 2.341 0 0 1-1.436 2.157 2.318 2.318 0 0 1-2.534-.507 2.336 2.336 0 0 1-.505-2.544 2.333 2.333 0 0 1 2.15-1.44 2.32 2.32 0 0 1 1.644.683 2.34 2.34 0 0 1 .681 1.65zm26.598 0a2.33 2.33 0 0 1-1.436 2.14 2.308 2.308 0 0 1-2.52-.51 2.328 2.328 0 0 1 .355-3.574 2.31 2.31 0 0 1 3.428 1.051c.116.283.175.587.173.893zm-33.698-5.214a.777.777 0 0 1-.776-.722.794.794 0 0 1 .181-.574 7.019 7.019 0 0 1 4.6-2.2 22.844 22.844 0 0 1 2.777 0h1.896a.797.797 0 0 1 .775 1.053.772.772 0 0 1-.703.51h-2.05a21.468 21.468 0 0 0-2.581 0 5.524 5.524 0 0 0-3.566 1.655.758.758 0 0 1-.553.278zm35.317 0a.775.775 0 0 1-.594-.278 5.524 5.524 0 0 0-3.555-1.656 21.64 21.64 0 0 0-2.593 0h-2.049a.767.767 0 0 1-.748-.812.803.803 0 0 1 .81-.75h1.906a22.886 22.886 0 0 1 2.776 0 7.018 7.018 0 0 1 4.59 2.2.783.783 0 0 1-.543 1.296z" fill="#48428E"/><path d="M60.502 78.034a8.05 8.05 0 0 1-3.453-.905c-.912-.411-.594-1.316.093-3.322A30.95 30.95 0 0 0 59.19 63.74a.783.783 0 0 1 .778-.781.777.777 0 0 1 .779.781 32.456 32.456 0 0 1-2.162 10.583c-.184.565-.4 1.182-.502 1.563a5.729 5.729 0 0 0 4.098.298.777.777 0 0 1 .953.566.784.784 0 0 1-.563.956 8.254 8.254 0 0 1-2.07.329z" fill="#EFBA9E"/><path d="M48.77 38.184c.482-1.378.922-2.951.257-4.247a3.616 3.616 0 0 0-3.443-1.748 7.863 7.863 0 0 0-3.76 1.48c-4.334 2.88-7.357 7.446-9.222 12.341-1.198 3.034-7.172 21.02-2.336 21.874 5.79 1.028 11.168-12.65 12.982-16.331a114.04 114.04 0 0 0 5.522-13.369z" fill="#FF775F"/><path d="M45.543 34.07c.164 5.307 4.395 9.554 8.77 12.526a52.983 52.983 0 0 0 26.937 9.03c1.762.092 3.678 0 5.123-1.029 1.936-1.43 2.254-4.206 1.844-6.654-1.024-6.026-5.543-11.024-10.891-13.934-5.349-2.91-11.496-4.021-17.551-4.659l-14.232 4.72z" fill="#FF775F"/></svg>