<svg width="120" height="120" viewBox="0 0 120 120" fill="none" xmlns="http://www.w3.org/2000/svg"><g clip-path="url(#clip0)"><path d="M60 120c33.137 0 60-26.941 60-60.175C120 26.592 93.137-.349 60-.349S0 26.59 0 59.825 26.863 120 60 120z" fill="#00CF94"/><path d="M60 120a59.694 59.694 0 0 0 18.73-3.011v-.308l-.697-4.86-.195-1.46-.338-2.353-.932-6.278-.892-6.3H43.391l-.266 1.933-.236 1.654-.44 3.083-.144 1.027-1.916 13.564A59.816 59.816 0 0 0 60 120z" fill="#F9D8BC"/><path d="M77.46 108.008c-10.165 4.357-20.626 14.623-34.57-9.042l.235-1.655.267-1.932h32.284l.892 6.351.891 6.278zm4.559-45.788a5.196 5.196 0 0 1 3.821-2.816 5.578 5.578 0 0 1 4.775 1.028c1.537 1.48.779 3.73-.349 5.62-1.127 1.891-2.602 3.843-2.325 5.755.184 1.264 1.127 2.415.86 3.72-.266 1.305-1.967 2.569-3.852 2.825-1.885.257-3.76-.503-4.263-1.726l1.332-14.407zm-43.935 0a5.195 5.195 0 0 0-3.822-2.816 5.569 5.569 0 0 0-4.774 1.028c-1.547 1.48-.779 3.73.348 5.62 1.127 1.891 2.603 3.843 2.326 5.755-.184 1.264-1.137 2.415-.86 3.72.276 1.305 1.967 2.569 3.852 2.825 1.885.257 3.75-.503 4.262-1.726L38.084 62.22z" fill="#EFBA9E"/><path d="M69.252 105.84a15.398 15.398 0 0 1-18.442 0c-7.594-5.652-17.01-17.54-16.272-25.69a177.093 177.093 0 0 0-1.168-31.628 13.39 13.39 0 0 1 1.837-8.707 13.328 13.328 0 0 1 6.882-5.617 54.012 54.012 0 0 1 35.86 0 13.328 13.328 0 0 1 6.883 5.617 13.39 13.39 0 0 1 1.837 8.707 176.136 176.136 0 0 0-1.168 31.629c.748 8.148-8.658 20.037-16.25 25.689z" fill="#F9D8BC"/><path d="M34.57 80.264c-.666 8.107 8.709 19.935 16.28 25.576a15.398 15.398 0 0 0 18.443 0c7.551-5.641 16.906-17.469 16.24-25.576l-1.855 2.055c-2.612 2.97-6.342 12.218-10.256 12.218H46.424c-4.416 0-8.514-9.721-11.137-13.287l-.717-.986zm15.4-19.308a2.337 2.337 0 0 1-1.437 2.155A2.32 2.32 0 0 1 46 62.605a2.335 2.335 0 0 1 1.644-3.982 2.324 2.324 0 0 1 2.326 2.333zm24.825 0a2.348 2.348 0 0 1-1.435 2.171 2.33 2.33 0 0 1-2.55-.5 2.346 2.346 0 0 1 1.65-4.004c.617 0 1.21.245 1.647.683.438.437.685 1.03.688 1.65zm3.771-3.484a.787.787 0 0 1-.902-.657c-.277-1.747-2.5-2.713-4.447-2.734a20.51 20.51 0 0 0-2.592.185l-1.609.195a.788.788 0 0 1-.773-.734.793.793 0 0 1 .66-.838c.513 0 1.025-.092 1.548-.154.92-.123 1.848-.188 2.776-.195 2.664 0 5.574 1.438 5.994 4.11a.803.803 0 0 1-.656.822zm-38.136.75a.778.778 0 0 1-.778-.791c0-2.661 2.643-4.521 5.266-4.973a23.39 23.39 0 0 1 2.777-.247l1.383-.082a.776.776 0 0 1 .75.434.783.783 0 0 1-.648 1.128c-.47 0-.953.072-1.434.092-.865.021-1.727.097-2.582.226-1.926.34-3.965 1.644-3.965 3.422a.793.793 0 0 1-.779.791h.01z" fill="#48428E"/><path d="M60.287 71.93a3.893 3.893 0 0 1-2.91-1.243c-1.608-1.675-.697-3.597.37-5.827a16.55 16.55 0 0 0 2.048-7.295.782.782 0 0 1 .779-.781.778.778 0 0 1 .779.78c-.09 2.79-.839 5.52-2.183 7.964-1.096 2.312-1.434 3.258-.645 4.11.789.853 2.141.864 4.221.32a.756.756 0 0 1 .943.554.783.783 0 0 1-.554.956c-.926.272-1.883.427-2.848.462z" fill="#EFBA9E"/><path d="M50.42 80.274c.871 2.846 4.846 7.522 9.631 7.522s8.76-4.676 9.632-7.522H50.42z" fill="#fff"/><path d="M61.117 79.431a4.77 4.77 0 0 1-1.397 3.372 4.743 4.743 0 0 1-3.367 1.386c-2.613 0-11.886-3.083-11.886-3.083s7.172-6.432 11.886-6.432a4.73 4.73 0 0 1 3.367 1.386 4.757 4.757 0 0 1 1.397 3.371zM39.744 33.91S31.219 8.837 64.129 12.33c0 0 11.66 3.495 15.963.145 0 .02 15.553 28.32-40.348 21.435z" fill="#48428E"/><path d="M35.297 37.147S29.826 5.64 68.432 16.05c0 0 13.259 6.35 19.017 3.175 0 0 6.957 47.947-52.152 17.92zm29.928 62.949H54.877c1.885-3.597 2.654-6.525 2.592-8.837a2.576 2.576 0 0 1 .75-1.837 2.561 2.561 0 0 1 1.832-.753 2.557 2.557 0 0 1 2.391 1.596c.129.315.194.653.191.994-.061 2.312.697 5.24 2.592 8.837zm-22.52-21.63s1.188 6.103 13.648 5.723l-4.816-8.087s-5.543 2.61-7.039.37c-1.301-1.952.943-3.01.943-3.01s-3.77.677-2.736 5.004zm16.281.965c0 1.262.5 2.472 1.389 3.365a4.737 4.737 0 0 0 3.354 1.393c2.623 0 11.896-3.083 11.896-3.083s-7.172-6.432-11.896-6.432a4.737 4.737 0 0 0-3.354 1.393 4.765 4.765 0 0 0-1.39 3.364z" fill="#48428E"/><path d="M77.387 78.466S76.2 84.569 63.73 84.189l4.836-8.087s5.532 2.61 7.038.37c1.302-1.952-.952-3.01-.952-3.01s3.78.677 2.735 5.004z" fill="#48428E"/></g><defs><clipPath id="clip0"><path fill="#fff" d="M0 0h120v120H0z"/></clipPath></defs></svg>