<svg width="171" height="43" viewBox="0 0 171 43" fill="none" xmlns="http://www.w3.org/2000/svg"><path d="M15.387 37.757c-.279-.48-.418-1.03-.418-1.785v-6.728H9.596v6.865c0 1.648.28 2.884.838 3.776.558.893 1.674 2.06 3.209 2.61l3.279-3.227c-.767-.55-1.256-1.099-1.535-1.51z" fill="#F67660"/><path d="M13.535 0C6.07 0 0 5.973 0 13.318c0 7.277 6.07 13.25 13.535 13.25S27 20.594 27 13.317C27 5.973 20.93 0 13.535 0zm-.07 21.281c-4.465 0-8.093-3.57-8.093-7.963 0-4.394 3.628-7.963 8.093-7.963s8.093 3.57 8.093 7.963c0 4.394-3.628 7.963-8.093 7.963zm21.442 9.562C33.617 29.725 33 28.194 33 26.193V12.068h3.87v14.125c0 2.12 1.235 3.178 3.703 3.178s3.703-1.059 3.703-3.178V12.068h3.87v14.125c0 2.001-.617 3.532-1.907 4.65-1.29 1.118-3.197 1.707-5.666 1.707-2.468 0-4.431-.589-5.666-1.707zM61.161 19.13l-.898 3.12a3.877 3.877 0 0 0-1.065-.589c-.337-.118-.786-.176-1.29-.176-1.179 0-2.076.824-2.581 2.53v8.123h-3.534v-9.3c0-.53-.112-.941-.28-1.236-.17-.353-.506-.706-1.01-1.06l2.355-2.177c.618.353 1.123.707 1.46 1.119.336.353.616.823.785 1.353a4.041 4.041 0 0 1 1.458-1.765c.617-.471 1.346-.648 2.188-.648.953-.059 1.739.177 2.412.706zm5.273 11.713v1.295H62.9v-16.95c0-.53-.112-.942-.28-1.236-.169-.353-.561-.706-1.01-1.06l2.356-2.177c.953.47 1.57 1.06 1.963 1.707.337.647.561 1.53.561 2.707v5.061c.954-1.177 2.244-1.765 3.983-1.765 1.178 0 2.244.294 3.085.883.842.588 1.46 1.412 1.908 2.413.449 1 .617 2.118.617 3.296v.941a9.03 9.03 0 0 1-.617 3.296 5.303 5.303 0 0 1-1.907 2.413c-.842.588-1.852.883-3.086.883-1.795-.059-3.141-.589-4.039-1.707zm5.217-2.295c.505-.706.786-1.59.786-2.649v-.941c0-1.06-.28-1.943-.786-2.649-.505-.706-1.29-1.118-2.3-1.118-1.514 0-2.524.765-2.917 2.354v3.708c.393 1.589 1.403 2.354 2.917 2.354 1.01.059 1.795-.353 2.3-1.06zm18.064.706c.168.353.56.706 1.01 1.06l-2.357 2.177c-1.066-.53-1.739-1.236-2.131-2.119a4.489 4.489 0 0 1-1.627 1.472c-.673.412-1.57.588-2.58.588-1.29 0-2.3-.353-3.086-1.06-.785-.705-1.122-1.706-1.122-2.942 0-1.118.28-2.06.841-2.649a4.301 4.301 0 0 1 1.964-1.294 10.27 10.27 0 0 1 2.468-.471l1.29-.118c.505-.059.898-.177 1.122-.294.225-.118.337-.354.337-.648-.056-.588-.224-1.06-.561-1.471-.337-.412-.898-.589-1.795-.589-.561 0-1.066.118-1.515.353-.448.236-.897.589-1.346 1.119l-2.412-1.766c.505-.707 1.178-1.295 2.02-1.648.785-.412 1.906-.589 3.309-.589 3.927 0 5.89 1.648 5.89 5.003v4.65c0 .53.056.942.28 1.236zm-4.6-.118c.505-.47.785-1.06.785-1.765v-1.178c-.28.118-.841.236-1.683.295l-.841.059c-.617.058-1.122.176-1.571.47-.393.236-.617.707-.617 1.354 0 .471.168.883.449 1.118.336.295.729.412 1.234.412 1.01-.058 1.739-.294 2.244-.765zm18.231-9.594c.73.824 1.122 1.943 1.122 3.414v9.182h-3.534v-8.829c0-.647-.168-1.177-.505-1.53a1.815 1.815 0 0 0-1.346-.589c-1.178 0-2.076.765-2.58 2.237v8.71h-3.535v-9.299c0-.53-.112-.941-.28-1.236-.168-.353-.561-.706-1.01-1.06l2.356-2.177c.561.295 1.066.648 1.403 1 .336.354.617.766.785 1.178a4.628 4.628 0 0 1 1.57-1.59c.674-.411 1.46-.588 2.413-.588 1.29 0 2.356.353 3.141 1.177zm12.117 10.947c-1.402-1.236-2.075-3.06-2.075-5.474v-6.121c0-2.413.673-4.238 2.075-5.474 1.403-1.236 3.366-1.825 5.947-1.825 1.851 0 3.422.295 4.6.942a6.984 6.984 0 0 1 2.805 2.825l-2.917 2.12c-.561-.942-1.178-1.649-1.796-2.06-.617-.413-1.514-.648-2.692-.648-1.459 0-2.525.353-3.198 1.06-.673.706-1.01 1.706-1.01 3.119v6.12c0 1.355.337 2.414 1.01 3.12.673.707 1.739 1.06 3.198 1.06 1.29 0 2.244-.236 2.917-.648.673-.47 1.01-1.118 1.01-1.942v-.883c0-1.177-.505-1.765-1.571-1.765h-3.142v-3.179h4.208c1.458 0 2.524.353 3.197 1.06.673.706 1.066 1.824 1.066 3.296v1.765c0 1.707-.673 3.061-2.075 4.061-1.403 1.001-3.254 1.472-5.61 1.472-2.581-.177-4.6-.765-5.947-2.001zm28.217-1.47c.169.353.561.706 1.01 1.06l-2.356 2.177c-.617-.353-1.066-.648-1.402-1.06-.337-.412-.617-.765-.786-1.295-.841 1.59-2.131 2.355-3.927 2.355-1.458 0-2.524-.412-3.309-1.177-.786-.824-1.178-1.943-1.178-3.414v-9.182h3.534v8.829c0 .647.168 1.177.505 1.53.336.412.841.589 1.458.589 1.178 0 2.076-.824 2.581-2.472v-8.476h3.534v9.24c0 .59.112 1.001.336 1.296zm12.791-10.064l-.898 3.12a3.86 3.86 0 0 0-1.066-.589c-.336-.118-.785-.177-1.29-.177-1.178 0-2.075.825-2.58 2.531v8.122h-3.535v-9.299c0-.53-.112-.942-.28-1.236-.168-.353-.505-.706-1.01-1.06l2.356-2.177c.617.353 1.122.706 1.459 1.118.393.354.617.824.785 1.354a4.046 4.046 0 0 1 1.459-1.765c.617-.471 1.346-.648 2.188-.648.953-.059 1.795.177 2.412.706zm13.519 10.064c.169.353.561.706 1.01 1.06l-2.356 2.177c-.617-.353-1.066-.648-1.402-1.06a3.281 3.281 0 0 1-.786-1.295c-.841 1.59-2.132 2.355-3.927 2.355-1.458 0-2.524-.412-3.309-1.177-.786-.824-1.178-1.943-1.178-3.414v-9.182h3.534v8.829c0 .647.168 1.177.505 1.53.336.412.841.589 1.458.589 1.178 0 2.076-.824 2.581-2.472v-8.476h3.534v9.24c.056.59.112 1.001.336 1.296z" fill="#48448C"/></svg>