<svg viewBox="0 0 194 40" fill="none" xmlns="http://www.w3.org/2000/svg"><path d="M35.202 28.498c-1.505-1.228-2.224-2.908-2.224-5.106V7.884h4.514v15.508c0 2.327 1.44 3.49 4.319 3.49s4.318-1.163 4.318-3.49V7.884h4.515v15.508c0 2.198-.72 3.878-2.225 5.106-1.505 1.227-3.73 1.873-6.608 1.873-2.88 0-5.17-.646-6.609-1.873zm30.622-12.86l-1.047 3.425a4.61 4.61 0 0 0-1.243-.646c-.392-.13-.916-.194-1.505-.194-1.374 0-2.42.905-3.01 2.779v8.917h-4.122V19.71c0-.581-.13-1.034-.327-1.357-.196-.388-.589-.775-1.178-1.163l2.748-2.391c.72.388 1.309.775 1.702 1.228.392.387.72.904.916 1.486a4.512 4.512 0 0 1 1.7-1.939c.72-.517 1.571-.71 2.553-.71 1.112-.065 2.028.194 2.813.775zm6.151 12.86v1.421h-4.122V11.31c0-.582-.131-1.034-.328-1.357-.196-.388-.654-.776-1.177-1.164l2.748-2.39c1.112.516 1.832 1.163 2.29 1.873.392.711.654 1.68.654 2.973V16.8c1.113-1.292 2.617-1.938 4.646-1.938 1.374 0 2.617.323 3.599.969.981.646 1.7 1.55 2.224 2.65.524 1.098.72 2.326.72 3.618v1.034c0 1.293-.262 2.52-.72 3.619a5.896 5.896 0 0 1-2.224 2.65c-.982.646-2.16.969-3.6.969-2.093-.065-3.663-.647-4.71-1.874zm6.085-2.52c.589-.776.916-1.745.916-2.909v-1.034c0-1.163-.327-2.132-.916-2.907-.589-.776-1.505-1.228-2.683-1.228-1.766 0-2.944.84-3.402 2.585v4.07c.458 1.745 1.636 2.585 3.402 2.585 1.178.065 2.094-.387 2.683-1.163zm21.069.775c.196.387.654.775 1.178 1.163l-2.748 2.39c-1.244-.58-2.029-1.356-2.487-2.325a5.137 5.137 0 0 1-1.897 1.615c-.785.452-1.832.646-3.01.646-1.505 0-2.683-.387-3.599-1.163-.916-.775-1.309-1.874-1.309-3.23 0-1.229.328-2.263.982-2.909a5.054 5.054 0 0 1 2.29-1.422c.85-.258 1.832-.452 2.879-.516l1.505-.13c.589-.064 1.047-.194 1.309-.323.261-.129.392-.387.392-.71-.065-.647-.262-1.164-.654-1.616-.393-.452-1.047-.646-2.094-.646-.654 0-1.243.129-1.767.387-.523.259-1.047.647-1.57 1.228l-2.814-1.938a5.482 5.482 0 0 1 2.356-1.81c.916-.452 2.225-.646 3.86-.646 4.58 0 6.87 1.81 6.87 5.493v5.105c0 .581.066 1.034.328 1.357zm-5.366-.13c.59-.516.917-1.163.917-1.938v-1.293c-.328.13-.982.259-1.963.324l-.982.064c-.72.065-1.308.194-1.832.517-.458.259-.72.776-.72 1.486 0 .517.197.97.524 1.228.392.323.85.453 1.44.453 1.177-.065 2.028-.323 2.616-.84zm21.266-10.533c.85.905 1.308 2.133 1.308 3.748V29.92h-4.122v-9.693c0-.71-.196-1.292-.589-1.68a2.18 2.18 0 0 0-1.57-.646c-1.374 0-2.421.84-3.01 2.455v9.564h-4.122V19.71c0-.581-.131-1.034-.327-1.357-.197-.388-.655-.775-1.178-1.163l2.748-2.391c.654.323 1.243.71 1.636 1.099.393.387.72.84.916 1.292a5.246 5.246 0 0 1 1.832-1.745c.785-.452 1.701-.646 2.814-.646 1.505 0 2.748.388 3.664 1.292zm14.133 12.02c-1.636-1.357-2.421-3.36-2.421-6.01v-6.72c0-2.65.785-4.653 2.421-6.01 1.636-1.357 3.926-2.003 6.936-2.003 2.159 0 3.991.323 5.365 1.034a7.915 7.915 0 0 1 3.272 3.101l-3.403 2.327c-.654-1.034-1.374-1.81-2.093-2.262-.72-.452-1.767-.71-3.141-.71-1.701 0-2.945.387-3.73 1.162-.785.776-1.178 1.874-1.178 3.425v6.72c0 1.487.393 2.65 1.178 3.426.785.775 2.029 1.163 3.73 1.163 1.505 0 2.617-.259 3.402-.711.785-.517 1.178-1.228 1.178-2.133v-.969c0-1.292-.589-1.938-1.832-1.938h-3.664v-3.49h4.907c1.701 0 2.945.388 3.73 1.163.785.776 1.243 2.003 1.243 3.619v1.939c0 1.874-.785 3.36-2.421 4.458-1.636 1.099-3.795 1.616-6.543 1.616-3.01-.194-5.366-.84-6.936-2.197zm32.912-1.616c.196.388.654.776 1.178 1.163l-2.748 2.391c-.72-.387-1.243-.71-1.636-1.163-.393-.452-.72-.84-.916-1.421-.982 1.744-2.486 2.584-4.58 2.584-1.701 0-2.945-.452-3.861-1.292-.916-.905-1.374-2.132-1.374-3.748v-10.08h4.122v9.692c0 .711.197 1.293.589 1.68.393.453.982.647 1.701.647 1.375 0 2.421-.905 3.01-2.714v-9.306h4.123v10.146c0 .646.13 1.098.392 1.421zm14.919-11.05l-1.047 3.425a4.61 4.61 0 0 0-1.244-.646c-.392-.13-.916-.194-1.504-.194-1.374 0-2.421.905-3.01 2.779v8.917h-4.122v-10.21c0-.581-.131-1.034-.328-1.357-.196-.387-.589-.775-1.177-1.163l2.748-2.39c.719.387 1.308.775 1.701 1.227.458.388.72.905.916 1.486a4.514 4.514 0 0 1 1.701-1.938c.72-.517 1.571-.711 2.552-.711 1.112-.065 2.094.194 2.814.775zm15.769 11.05c.196.388.654.776 1.177 1.163l-2.748 2.391c-.719-.387-1.243-.71-1.636-1.163-.392-.387-.719-.84-.916-1.421-.981 1.744-2.486 2.584-4.58 2.584-1.701 0-2.944-.452-3.86-1.292-.916-.905-1.374-2.132-1.374-3.748v-10.08h4.122v9.692c0 .711.196 1.293.589 1.68.392.453.981.647 1.701.647 1.374 0 2.421-.905 3.01-2.714v-9.306h4.122v10.146c.065.646.131 1.098.393 1.421z" fill="#48448C"/><path d="M15.573 35.541c-.262-.452-.393-.97-.393-1.68v-6.333h-5.038v6.462c0 1.551.262 2.714.785 3.554.524.84 1.57 1.939 3.01 2.456l3.075-3.037c-.72-.517-1.178-1.034-1.44-1.422z" fill="#F67660"/><path d="M12.694 0C5.693 0 0 5.622 0 12.536c0 6.85 5.693 12.472 12.694 12.472 7 0 12.628-5.622 12.628-12.472C25.322 5.622 19.63 0 12.694 0zm-.066 20.032c-4.187 0-7.59-3.36-7.59-7.496 0-4.135 3.403-7.496 7.59-7.496 4.188 0 7.59 3.36 7.59 7.496 0 4.136-3.402 7.496-7.59 7.496z" fill="#48448C"/></svg>