<svg width="182" height="180" viewBox="0 0 182 180" fill="none" xmlns="http://www.w3.org/2000/svg"><circle cx="90" cy="90" r="90" fill="#DFE3E9"/><g filter="url(#filter0_d)"><rect x="5.461" y="32" width="168.077" height="115" rx="4" fill="#FFF"/></g><path d="M6.725 36.264a3 3 0 0 1 3-3h159.55a3 3 0 0 1 3 3v4.582H6.725v-4.582z" fill="#E6EBF1"/><circle cx="168.483" cy="37.055" r="1.264" fill="#48448C"/><circle cx="164.692" cy="37.055" r="1.264" fill="#48448C"/><circle cx="160.901" cy="37.055" r="1.264" fill="#48448C"/><rect x="33.264" y="53.483" width="44.231" height="5.055" rx="2" fill="#ADB8CA"/><rect x="62.33" y="63.593" width="84.67" height="42.967" rx="3" fill="#E1E1E1" fill-opacity=".6"/><rect x="85.077" y="69.912" width="29.066" height="3.791" rx="1.896" fill="#ADB8CA"/><rect x="85.077" y="76.231" width="46.758" height="3.791" rx="1.896" fill="#ADB8CA"/><rect x="85.077" y="83.813" width="7.582" height="3.791" rx="1.896" fill="#ADB8CA"/><rect x="85.077" y="90.132" width="7.582" height="3.791" rx="1.896" fill="#ADB8CA"/><rect x="85.077" y="96.451" width="7.582" height="3.791" rx="1.896" fill="#ADB8CA"/><path d="M62.33 113.352a3 3 0 0 1 3-3H144a3 3 0 0 1 3 3V147H62.33v-33.648z" fill="#E1E1E1" fill-opacity=".6"/><rect x="95.186" y="83.813" width="25.275" height="3.791" rx="1.896" fill="#C8C8C9"/><rect x="95.186" y="90.132" width="36.648" height="3.791" rx="1.896" fill="#C8C8C9"/><rect x="95.186" y="96.451" width="30.33" height="3.791" rx="1.896" fill="#C8C8C9"/><rect x="85.077" y="116.67" width="29.066" height="3.791" rx="1.896" fill="#ADB8CA"/><rect x="85.077" y="122.989" width="46.758" height="3.791" rx="1.896" fill="#ADB8CA"/><rect x="85.077" y="130.571" width="7.582" height="3.791" rx="1.896" fill="#ADB8CA"/><rect x="85.077" y="136.89" width="7.582" height="3.791" rx="1.896" fill="#ADB8CA"/><rect x="85.077" y="143.209" width="7.582" height="3.791" rx="1.896" fill="#ADB8CA"/><rect x="95.186" y="130.571" width="25.275" height="3.791" rx="1.896" fill="#C8C8C9"/><rect x="95.186" y="136.89" width="36.648" height="3.791" rx="1.896" fill="#C8C8C9"/><rect x="95.186" y="143.209" width="30.33" height="3.791" rx="1.896" fill="#C8C8C9"/><rect x="33.264" y="63.593" width="25.275" height="31.593" rx="2" fill="#EDEDED"/><rect x="33.264" y="97.714" width="25.275" height="25.275" rx="2" fill="#EDEDED"/><path d="M33.264 128.78a2 2 0 0 1 2-2h21.274a2 2 0 0 1 2 2V147H33.264v-18.22z" fill="#EDEDED"/><rect x="67.384" y="68.648" width="12.637" height="12.637" rx="5" fill="#C4CDDB"/><rect x="68.648" y="115.407" width="12.637" height="12.637" rx="5" fill="#F2C94C" fill-opacity=".8"/><path d="M35.791 68.648c0-.698.566-1.263 1.264-1.263h17.692a1.264 1.264 0 0 1 0 2.527H37.055a1.264 1.264 0 0 1-1.264-1.264z" fill="#ADB8CA"/><path d="M35.791 73.703c0-.698.566-1.263 1.264-1.263h12.637a1.264 1.264 0 1 1 0 2.527H37.055a1.264 1.264 0 0 1-1.264-1.264zm0 5.055c0-.698.566-1.263 1.264-1.263H52.22a1.264 1.264 0 0 1 0 2.527H37.055a1.264 1.264 0 0 1-1.264-1.264zm0 5.055c0-.698.566-1.264 1.264-1.264h12.637a1.264 1.264 0 1 1 0 2.528H37.055a1.264 1.264 0 0 1-1.264-1.264zm0 6.319c0-.698.566-1.264 1.264-1.264h12.637a1.264 1.264 0 1 1 0 2.528H37.055a1.264 1.264 0 0 1-1.264-1.264zm0 17.692c0-.698.566-1.264 1.264-1.264h12.637a1.264 1.264 0 0 1 0 2.528H37.055a1.264 1.264 0 0 1-1.264-1.264zm0 5.055c0-.698.566-1.264 1.264-1.264H52.22a1.264 1.264 0 0 1 0 2.528H37.055a1.264 1.264 0 0 1-1.264-1.264zm0 5.055c0-.698.566-1.264 1.264-1.264h12.637a1.264 1.264 0 0 1 0 2.528H37.055a1.264 1.264 0 0 1-1.264-1.264zm0 17.692c0-.698.566-1.263 1.264-1.263h12.637a1.263 1.263 0 1 1 0 2.527H37.055a1.264 1.264 0 0 1-1.264-1.264zm0 5.055c0-.698.566-1.263 1.264-1.263H52.22a1.263 1.263 0 1 1 0 2.527H37.055a1.264 1.264 0 0 1-1.264-1.264zm0 5.055c0-.698.566-1.263 1.264-1.263h12.637a1.263 1.263 0 1 1 0 2.527H37.055a1.264 1.264 0 0 1-1.264-1.264z" fill="#C8C8C9"/><path d="M35.791 102.769c0-.698.566-1.264 1.264-1.264h17.692a1.264 1.264 0 0 1 0 2.528H37.055a1.264 1.264 0 0 1-1.264-1.264zm0 27.802c0-.697.566-1.263 1.264-1.263h17.692a1.264 1.264 0 0 1 0 2.527H37.055a1.264 1.264 0 0 1-1.264-1.264z" fill="#ADB8CA"/><circle opacity=".9" cx="157" cy="36" r="25" fill="#F2C94C"/><path fill-rule="evenodd" clip-rule="evenodd" d="M161.167 32.034c10.304 1.377 9.79-.2 2.255 6.998 1.884 10.267 3.197 9.292-5.936 4.33-9.162 4.991-7.792 5.966-5.908-4.33-7.535-7.199-8.049-5.621 2.255-6.998 4.48-9.379 2.854-9.379 7.334 0z" fill="#fff"/><defs><filter id="filter0_d" x="3.461" y="30" width="172.077" height="119" filterUnits="userSpaceOnUse" color-interpolation-filters="sRGB"><feFlood flood-opacity="0" result="BackgroundImageFix"/><feColorMatrix in="SourceAlpha" values="0 0 0 0 0 0 0 0 0 0 0 0 0 0 0 0 0 0 127 0"/><feOffset/><feGaussianBlur stdDeviation="1"/><feColorMatrix values="0 0 0 0 0 0 0 0 0 0 0 0 0 0 0 0 0 0 0.16 0"/><feBlend in2="BackgroundImageFix" result="effect1_dropShadow"/><feBlend in="SourceGraphic" in2="effect1_dropShadow" result="shape"/></filter></defs></svg>