<svg width="13" height="21" viewBox="0 0 13 21" fill="none" xmlns="http://www.w3.org/2000/svg"><g clip-path="url(#clip0)" fill="#FF9800"><path d="M6.5 11.364c3.111 0 5.633-2.544 5.633-5.682C12.133 2.544 9.611 0 6.5 0S.867 2.544.867 5.682C.87 8.82 3.39 11.36 6.5 11.364zm0-8.741c1.675 0 3.033 1.37 3.033 3.06 0 1.689-1.358 3.059-3.033 3.059-1.675 0-3.033-1.37-3.033-3.06s1.358-3.06 3.033-3.06z"/><path d="M12.018 14.057A2.206 2.206 0 0 0 13 12.22a1.587 1.587 0 0 0-.882-1.447 1.635 1.635 0 0 0-1.733.165 6.549 6.549 0 0 1-7.77 0 1.643 1.643 0 0 0-1.733-.165A1.59 1.59 0 0 0 0 12.22c.001.74.37 1.429.982 1.836a9.94 9.94 0 0 0 2.54 1.224c.152.048.31.092.472.133l-2.62 2.583a1.76 1.76 0 0 0-.036 2.472 1.723 1.723 0 0 0 2.493-.005l2.67-2.787 2.674 2.792a1.723 1.723 0 0 0 2.45.04 1.76 1.76 0 0 0-.003-2.516l-2.615-2.58c.163-.042.32-.087.474-.134a9.932 9.932 0 0 0 2.537-1.221z"/></g><defs><clipPath id="clip0"><path fill="#fff" d="M0 0h13v21H0z"/></clipPath></defs></svg>