<svg width="22" height="19" viewBox="0 0 22 19" fill="none" xmlns="http://www.w3.org/2000/svg"><path d="M3.825 6.974l1.954-.89h0a.56.56 0 0 1 .735.272l-.136.065c.1.208.013.457-.195.557l-2.358-.004zm0 0c1.156-3.005 4.036-4.991 7.337-4.991 3.584 0 6.717 2.394 7.62 5.82h0c.079.301.39.482.69.403M3.826 6.974L1.952 4.54l.81 2.024m0 0C4.09 3.123 7.39.85 11.162.85c4.097 0 7.68 2.743 8.713 6.665.08.3-.102.611-.402.69M2.762 6.566l.082.207C4.111 3.302 7.397 1 11.162 1c4.03 0 7.552 2.698 8.568 6.553m-.257.653l-.039-.145m.039.145s0 0 0 0l-.039-.145m0 0a.417.417 0 0 0 .296-.508m-.296.508a.417.417 0 0 1-.508-.296l.804-.212m1.046 7.73a.565.565 0 0 0 .34-.723m-.34.723l-.051-.14m.051.14s0 0 0 0l-.051-.14m.051.14a.565.565 0 0 1-.724-.337m1.064-.386l-.391.582m.391-.582v-.004l-.01-.027-1.328-3.33h0a.564.564 0 0 0-.318-.318m1.656 3.68l-1.656-3.68m1.265 4.261a.415.415 0 0 1-.533-.25l-.14.056v-.002m0 0l-.81-2.026m.81 2.026l-.81-2.026m0 0c-1.332 3.442-4.629 5.716-8.4 5.716-4.098 0-7.684-2.739-8.714-6.665a.567.567 0 0 1 .403-.691l16.71 1.64zm.218-2.039s0 0 0 0l-.055.14.054-.14s0 0 0 0zm0 0a.58.58 0 0 0-.444.01h0l-.002.002-3.249 1.476m3.695-1.488l-3.695 1.489m0 0a.568.568 0 0 0 .437 1.046h0l.01-.005.013-.006.01-.005 1.95-.888c-1.163 3.005-4.047 4.99-7.344 4.99-3.584 0-6.717-2.394-7.619-5.82h0a.567.567 0 0 0-.691-.402l13.234 1.09z" fill="#727272" stroke="#727272" stroke-width=".3"/></svg>