<svg width="20" height="19" viewBox="0 0 20 19" fill="none" xmlns="http://www.w3.org/2000/svg"><path d="M12.293 6.346l.237.48.531.068c1.435.185 2.682.313 3.663.413.534.054.99.1 1.354.144.136.016.26.032.371.047l-.252.231c-.268.242-.607.538-1.003.884-.735.641-1.67 1.457-2.722 2.427l-.408.376.103.546c.259 1.359.518 2.547.723 3.482.114.522.21.965.28 1.315.028.138.051.263.072.375-.118-.06-.249-.128-.395-.206a86.27 86.27 0 0 1-1.195-.66 131.828 131.828 0 0 0-3.2-1.745l-.465-.243-.465.244c-1.29.678-2.382 1.292-3.24 1.773-.456.256-.845.474-1.163.646a20.39 20.39 0 0 1-.367.194c.02-.11.043-.23.07-.361.069-.342.161-.76.269-1.249.208-.945.474-2.15.742-3.566l.103-.545-.408-.376a127.012 127.012 0 0 0-2.722-2.427c-.396-.346-.735-.642-1.003-.884L1.55 7.5c.112-.016.235-.032.37-.048.366-.043.821-.09 1.355-.144.981-.1 2.228-.228 3.663-.413l.53-.068.238-.48C8.322 5.104 8.832 4 9.234 3.13c.223-.485.414-.897.57-1.219.071-.148.137-.28.196-.395.06.116.125.247.197.395.155.322.346.734.57 1.22.401.869.911 1.973 1.526 3.215zM10.405.856a.103.103 0 0 1-.02.02l.02-.02zm-.79.02a.103.103 0 0 1-.02-.02l.02.02z" stroke="#F67660" stroke-width="2"/></svg>