<svg width="96" height="23" viewBox="0 0 96 23" fill="none" xmlns="http://www.w3.org/2000/svg"><path d="M19.2 5a5 5 0 0 1 5-5h47.6a5 5 0 0 1 5 5v17.4H19.2V5zm0 17.4V3.2s0 6.857-6.171 12.343C5.486 22.4 0 22.4 0 22.4h19.2zm57.6 0V3.2s0 6.857 6.171 12.343C90.514 22.4 96 22.4 96 22.4H76.8z" fill="#fff"/><path d="M35.942 12.342V15.8H34.15V6.252h3.57c.906 0 1.652.28 2.24.84.588.56.882 1.293.882 2.198s-.294 1.643-.882 2.212c-.588.56-1.339.84-2.254.84h-1.764zm0-4.396v2.716h1.68c.448 0 .798-.13 1.05-.392.252-.261.378-.588.378-.98s-.126-.714-.378-.966-.602-.378-1.05-.378h-1.68zm10.18 3.22v-.686h1.092c.495 0 .892-.126 1.19-.378.308-.261.462-.57.462-.924 0-.364-.126-.663-.378-.896-.242-.233-.55-.35-.924-.35h-1.848V15.8h-1.792V6.252h3.612c.962 0 1.718.27 2.268.812.56.55.84 1.255.84 2.114 0 .616-.172 1.162-.518 1.638-.345.467-.826.793-1.442.98L51.47 15.8H49.3l-3.178-4.634zm9.295 3.332c-.952-.961-1.428-2.123-1.428-3.486s.476-2.52 1.428-3.472c.961-.952 2.118-1.428 3.472-1.428 1.353 0 2.506.476 3.458 1.428.961.952 1.442 2.11 1.442 3.472 0 1.363-.48 2.525-1.442 3.486-.952.961-2.105 1.442-3.458 1.442-1.354 0-2.51-.48-3.472-1.442zm.35-3.486c0 .868.303 1.629.91 2.282.616.644 1.353.966 2.212.966.858 0 1.591-.322 2.198-.966.616-.644.924-1.405.924-2.282 0-.868-.308-1.62-.924-2.254-.607-.635-1.34-.952-2.198-.952-.859 0-1.596.317-2.212.952a3.153 3.153 0 0 0-.91 2.254z" fill="#FF9800"/></svg>