<svg width="41" height="10" viewBox="0 0 41 10" fill="none" xmlns="http://www.w3.org/2000/svg"><path d="M8.2 3.337a3 3 0 0 1 3-3h18.6a3 3 0 0 1 3 3v6.4H8.2v-6.4zm0 6.4V1.68s0 2.878-2.636 5.18C2.343 9.737 0 9.737 0 9.737h8.2zm24.6 0V1.68s0 2.878 2.636 5.18C38.657 9.737 41 9.737 41 9.737h-8.2z" fill="#fff"/><path d="M14.196 5.581v1.976h-1.024V2.101h2.04c.517 0 .944.16 1.28.48.336.32.504.739.504 1.256 0 .518-.168.939-.504 1.264-.336.32-.766.48-1.288.48h-1.008zm0-2.512v1.552h.96c.256 0 .456-.074.6-.224a.775.775 0 0 0 .216-.56.748.748 0 0 0-.216-.552c-.144-.144-.344-.216-.6-.216h-.96zm5.817 1.84v-.392h.624c.282 0 .51-.072.68-.216.176-.15.264-.325.264-.528a.667.667 0 0 0-.216-.512.73.73 0 0 0-.528-.2H19.78v4.496h-1.024V2.101h2.064c.55 0 .981.155 1.296.464.32.315.48.718.48 1.208 0 .352-.099.664-.296.936a1.549 1.549 0 0 1-.824.56l1.592 2.288h-1.24L20.013 4.91zm5.311 1.904a2.727 2.727 0 0 1-.816-1.992 2.7 2.7 0 0 1 .816-1.984 2.718 2.718 0 0 1 1.984-.816c.773 0 1.432.272 1.976.816.55.544.824 1.206.824 1.984 0 .779-.275 1.443-.824 1.992a2.678 2.678 0 0 1-1.976.824 2.704 2.704 0 0 1-1.984-.824zm.2-1.992c0 .496.173.93.52 1.304.352.368.773.552 1.264.552.49 0 .91-.184 1.256-.552.352-.368.528-.802.528-1.304 0-.496-.176-.925-.528-1.288a1.674 1.674 0 0 0-1.256-.544 1.7 1.7 0 0 0-1.264.544 1.8 1.8 0 0 0-.52 1.288z" fill="#FF9800"/></svg>