<svg width="60" height="14" viewBox="0 0 60 14" fill="none" xmlns="http://www.w3.org/2000/svg"><path d="M12 3a3 3 0 0 1 3-3h30a3 3 0 0 1 3 3v11H12V3zm0 11V2s0 4.286-3.857 7.714C3.429 14 0 14 0 14h12zm36 0V2s0 4.286 3.857 7.714C56.571 14 60 14 60 14H48z" fill="#fff"/><path d="M21.245 8.53V11h-1.28V4.18h2.55c.646 0 1.18.2 1.6.6.42.4.63.923.63 1.57s-.21 1.173-.63 1.58c-.42.4-.957.6-1.61.6h-1.26zm0-3.14v1.94h1.2c.32 0 .57-.093.75-.28.18-.187.27-.42.27-.7 0-.28-.09-.51-.27-.69-.18-.18-.43-.27-.75-.27h-1.2zm7.27 2.3V7.2h.78c.354 0 .638-.09.85-.27.22-.187.33-.407.33-.66 0-.26-.09-.473-.27-.64a.913.913 0 0 0-.66-.25h-1.32V11h-1.28V4.18h2.58c.688 0 1.228.193 1.62.58.4.393.6.897.6 1.51 0 .44-.122.83-.37 1.17-.246.333-.59.567-1.03.7l1.99 2.86h-1.55l-2.27-3.31zm6.64 2.38a3.41 3.41 0 0 1-1.02-2.49c0-.973.34-1.8 1.02-2.48a3.397 3.397 0 0 1 2.48-1.02c.967 0 1.79.34 2.47 1.02.687.68 1.03 1.507 1.03 2.48 0 .973-.343 1.803-1.03 2.49a3.348 3.348 0 0 1-2.47 1.03 3.38 3.38 0 0 1-2.48-1.03zm.25-2.49c0 .62.217 1.163.65 1.63.44.46.967.69 1.58.69.613 0 1.137-.23 1.57-.69.44-.46.66-1.003.66-1.63 0-.62-.22-1.157-.66-1.61a2.093 2.093 0 0 0-1.57-.68c-.613 0-1.14.227-1.58.68-.433.453-.65.99-.65 1.61z" fill="#FF9800"/></svg>