<svg width="190" height="180" viewBox="0 0 190 180" fill="none" xmlns="http://www.w3.org/2000/svg"><circle cx="90" cy="90" r="90" fill="#DFE3E9"/><g filter="url(#filter0_d)"><rect x="5.553" y="32" width="167.894" height="114.875" rx="4" fill="#fff"/></g><path d="M6.815 36.262a3 3 0 0 1 3-3h159.37a3 3 0 0 1 3 3v4.574H6.815v-4.574z" fill="#E6EBF1"/><circle cx="168.398" cy="37.05" r="1.262" fill="#48448C"/><circle cx="164.611" cy="37.05" r="1.262" fill="#48448C"/><circle cx="160.823" cy="37.05" r="1.262" fill="#48448C"/><rect x="32.063" y="53.46" width="44.183" height="5.049" rx="2" fill="#ADB8CA"/><rect x="32.063" y="121.628" width="44.183" height="10.099" rx="5.049" fill="#48448C"/><rect x="49.736" y="63.559" width="82.054" height="3.787" rx="1.894" fill="#ADB8CA"/><rect x="49.736" y="69.871" width="46.707" height="3.787" rx="1.894" fill="#ADB8CA"/><rect x="49.736" y="82.495" width="82.054" height="3.787" rx="1.894" fill="#ADB8CA"/><rect x="49.736" y="88.806" width="46.707" height="3.787" rx="1.894" fill="#ADB8CA"/><rect x="49.736" y="100.168" width="82.054" height="3.787" rx="1.894" fill="#ADB8CA"/><rect x="49.736" y="106.479" width="46.707" height="3.787" rx="1.894" fill="#ADB8CA"/><rect x="85.082" y="121.628" width="35.346" height="3.787" rx="1.894" fill="#E1E1E1"/><rect x="85.082" y="127.939" width="20.198" height="3.787" rx="1.894" fill="#E1E1E1"/><rect opacity=".5" x="140.626" y="53.46" width="5.049" height="5.049" rx="2" fill="#ADB8CA"/><rect opacity=".5" x="131.789" y="53.46" width="5.049" height="5.049" rx="2" fill="#ADB8CA"/><rect x="122.953" y="53.46" width="5.049" height="5.049" rx="2" fill="#ADB8CA"/><path fill="#D9DCE2" d="M32.063 63.559h12.624v12.624H32.063zm0 18.936h12.624v12.624H32.063zm0 17.673h12.624v12.624H32.063z"/><path fill="#F67660" d="M34.587 66.084h7.574v7.574h-7.574z"/><path fill="#27AE60" d="M34.587 85.019h7.574v7.574h-7.574z"/><path fill="#fff" d="M34.587 102.692h7.574v7.574h-7.574z"/><rect opacity=".8" x="42.162" y="125.415" width="22.723" height="2.525" rx="1.262" fill="#fff"/><circle opacity=".9" cx="165" cy="40" r="25" fill="#6FCF97"/><path d="M158 40l5 5.5L175.5 32" stroke="#fff" stroke-width="2"/><defs><filter id="filter0_d" x="3.553" y="30" width="171.894" height="118.875" filterUnits="userSpaceOnUse" color-interpolation-filters="sRGB"><feFlood flood-opacity="0" result="BackgroundImageFix"/><feColorMatrix in="SourceAlpha" values="0 0 0 0 0 0 0 0 0 0 0 0 0 0 0 0 0 0 127 0"/><feOffset/><feGaussianBlur stdDeviation="1"/><feColorMatrix values="0 0 0 0 0 0 0 0 0 0 0 0 0 0 0 0 0 0 0.16 0"/><feBlend in2="BackgroundImageFix" result="effect1_dropShadow"/><feBlend in="SourceGraphic" in2="effect1_dropShadow" result="shape"/></filter></defs></svg>