<svg width="30" height="30" viewBox="0 0 30 30" fill="none" xmlns="http://www.w3.org/2000/svg"><path d="M1.903 15.672h17.865l-4.607 4.691c-.35.35-.35.96 0 1.31a.916.916 0 0 0 .633.283.88.88 0 0 0 .633-.252l5.739-5.732a.89.89 0 0 0 0-1.262l-.273-.272a.888.888 0 0 0-.23-.228l-5.235-5.236a.895.895 0 0 0-1.266 0c-.35.35-.35.831 0 1.181l3.811 3.726H1.903a.896.896 0 0 0 0 1.79z" fill="#F67660"/><path d="M28.992 26.544V4.272c0-2.146-1.75-4.272-3.916-4.272H13.434C11.31 0 9.29 2.049 9.29 4.272v5.302a.896.896 0 0 0 1.791 0V4.272c0-1.23 1.218-2.481 2.352-2.481h11.642c1.185 0 2.125 1.315 2.125 2.481v22.272c0 1.192-.986 1.665-2.125 1.665H13.434c-1.06 0-2.352-.397-2.352-1.665v-5.329a.896.896 0 0 0-1.791 0v5.329c0 2.101 1.872 3.456 4.143 3.456h11.642c2.322 0 3.916-1.422 3.916-3.456z" fill="#F67660"/></svg>