<svg width="545" height="456" viewBox="0 0 545 456" fill="none" xmlns="http://www.w3.org/2000/svg"><path d="M482.269 140.37c40.525 68.098 4.178 217.802-85.644 279.633-89.823 61.97-233.121 36.068-314.03-32.865-80.91-68.934-99.432-180.759-68.377-235.906 31.194-55.147 111.965-53.475 211.117-59.463 99.014-5.85 216.549-19.497 256.934 48.601z" fill="#AED7DB"/><g clip-path="url(#clip0)" fill-rule="evenodd" clip-rule="evenodd"><path d="M108.262 49.49c-4.608-5.409-7.726-12.037-7.205-19.465 1.501-21.4 31.292-16.692 37.086-5.891 5.795 10.801 5.107 38.199-2.383 40.13-2.986.77-9.349-1.116-15.825-5.02L124 88h-24l8.262-38.51z" fill="#B28B67"/><path d="M112.999 14.787c12.056-4.177 27.702.704 25.608 10.494-1.344 6.286-8.625 9.426-15.788 12.786-1.054-1.83-3.065-3.067-5.372-3.067-3.401 0-6.157 2.686-6.157 6 0 1.194.358 2.306.974 3.24-2.409 2.096-4.11 4.62-4.521 7.892-3.884 0-10.16-11.403-8.088-22.222-.544.06-1.096.09-1.655.09-8.284 0-15-6.716-15-15 0-8.284 6.716-15 15-15 8.213 0 14.884 6.6 14.999 14.787z" fill="#191847"/><path d="M92 171l37.631 123.024 18.229 104.624h14.293L142.891 171H92z" fill="#997659"/><path d="M78.538 171c2.556 67.547-.452 102.389-1.024 108.526-.572 6.137-8.406 45.929-26.95 121.182l15.23-5.23c29.308-69.019 39.295-104.889 42.656-113.952 3.362-9.063 12.289-45.905 26.783-110.526H78.538z" fill="#B28B67"/><path d="M50.678 395.402C49.56 398.388 49 400.623 49 402.106c0 1.803.3 4.434.901 7.894h56.402c1.466-4.846.62-7.461-2.538-7.848a312.564 312.564 0 0 1-7.87-1.046L69.68 389.419a1 1 0 0 0-1.32.506l-.012.026-1.685 4.088c-2.923 1.364-5.299 2.046-7.126 2.046-1.485 0-3.536-.6-6.152-1.8a2 2 0 0 0-2.707 1.117zm94 0c-1.119 2.986-1.678 5.221-1.678 6.704 0 1.803.3 4.434.901 7.894h56.402c1.466-4.846.62-7.461-2.538-7.848a312.752 312.752 0 0 1-7.87-1.046l-26.215-11.687a1 1 0 0 0-1.321.506l-.011.026-1.685 4.088c-2.923 1.364-5.299 2.046-7.126 2.046-1.485 0-3.536-.6-6.153-1.8a2 2 0 0 0-2.706 1.117z" fill="#E4E4E4"/><path d="M87 171l16 62.68h48.87L144.584 171H87z" fill="#69A1AC"/><path d="M78 171c-5.264 15.781-6.264 36.674-3 62.68h49.87L138.584 171H78z" fill="#89C5CC"/><path d="M178 131.311l39.483-5.386c7.898-4.393 15.164-7.367 21.798-8.922 1.867-.055 4.836.624.412 4.312s-8.913 7.768-8.124 9.736c.788 1.969 4.902 1.236 5.584 4.264.454 2.018-6.223 2.346-20.032.984L185.084 149 178 131.311zM53.97 140.45l21.897.082c-24.01 54.034-36.53 82.325-37.559 84.874-2.314 5.734 2.583 14.468 4.677 19.161-6.82 3.052-6.094-8.25-14.697-4.248-7.853 3.654-13.826 10.273-22.899 4.675-1.115-.688-2.338-3.279.616-5.304 7.357-5.045 17.96-13.875 19.393-16.782 1.954-3.963 11.478-31.449 28.572-82.458z" fill="#997659"/><path d="M113.949 71l17.145 1.142c4.223 38.201 27.222 62.331 78.717 54.162l6.841 49.195c-48.129 6.22-90.339-13.049-98.99-65.221-2.239-13.505-4.007-27.56-3.713-39.278z" fill="#DD6A56"/><path d="M105.491 66.016l25.977 5.95C131.468 116.643 145.7 145.15 153 178H82.844c-.989 11.351-1.595 23.018-1.912 35h-52.53c11.903-63.336 37.028-112.336 75.374-147h1.701l.014.016z" fill="#F67660"/><path d="M93.913 114.259c-1.808 27.842-.745 49.088 3.19 63.741h-14.26c1.959-22.486 5.413-43.733 11.07-63.741z" fill="#000" fill-opacity=".1"/></g><path fill-rule="evenodd" clip-rule="evenodd" d="M421.738 62.49c4.608-5.409 7.726-12.037 7.205-19.465-1.501-21.4-31.292-16.692-37.086-5.891-5.795 10.801-5.107 38.199 2.383 40.13 2.986.77 9.349-1.117 15.825-5.02L406 101h24l-8.262-38.51z" fill="#B28B67"/><path fill-rule="evenodd" clip-rule="evenodd" d="M439.407 35.902c.775-.769 1.198-1.865 1.563-2.906.38-1.082.749-2.174 1.002-3.3.503-2.25.508-4.836-1.096-6.582-1.287-1.4-3.218-2.03-5-2.166a9.187 9.187 0 0 0-3.545.45c-1.129.37-2.102 1.11-3.197 1.57-.042-2.424-.457-4.96-1.687-7.03-1.183-1.991-3.069-3.109-5.218-3.404-2.205-.304-4.383.212-6.357 1.28-.494.267-.984.547-1.453.864-.392.266-.8.586-1.26.694-.514.12-.768-.176-1.101-.55a8.425 8.425 0 0 0-1.298-1.17c-2.062-1.515-4.767-2.138-7.156-1.23-1.1.42-2.171 1.13-2.917 2.11-.666.872-1.141 2.257-2.059 2.866-.39.258-.665-.084-1.02-.337-.533-.38-1.042-.8-1.581-1.169-.758-.52-1.579-.907-2.457-1.11-1.287-.298-3.064-.229-3.432 1.456-.138.633-.032 1.31.012 1.948.061.875.125 1.75.201 2.625.058.663.131 1.305.256 1.956.067.348.276.996.127 1.344-.186.434-1.045.187-1.413.202-.725.03-1.453.158-2.124.467-.519.24-1.066.594-1.285 1.19-.135.365-.099.741-.036 1.118.077.451-.011.691-.068 1.147-.974-.48-4.349-1.545-4.773.2-.142.581.18 1.238.426 1.728.431.86.996 1.646 1.573 2.395 1.205 1.563 2.643 2.912 4.19 4.065-1.813.806-2.286 3.183-.717 4.6.693.625 1.625.764 2.499.724.32-.015.781-.138 1.033-.082.136.03.281.145.468.157 1.234.085 2.627-.212 3.833-.486 2.148-.488 4.183-1.506 5.844-3.056.426-.398.778-.627 1.352-.621.502.005.996.143 1.498.155 1.328.034 2.526-.615 3.76-1.047.076 1.666.551 3.502 1.232 5.002.556 1.222 1.717 1.4 2.858 1.508 3.649.343 7.31-.04 10.964-.035-3.537.8-7.191 1.129-10.696 2.07-1.584.424-.374 1.492.303 2.232 1.115 1.22 1.945 2.73 2.52 4.32 1.73-2.254 4.788-3.74 7.497-3.047 2.993.765 5.101 4.813 3.187 7.723-1.112 1.689-3.118 2.341-4.788 3.067 1.302 1.354 1.618 3.354 2.402 5.04.386.83.929 1.77 1.794 2.06.32.106.695.115.947.376.313.323.387.684.787.962 1.593 1.107 4.082 1.022 5.494-.424 1.277-1.307.945-3.376-.122-4.701 1.698-.708 4.791-1.618 4.116-4.263 3.679-.244 12.611-6.21 7.674-10.57 2.71-1.532 5.199-5.275 3.459-8.574-1.341-2.54-4.458-3.677-7.015-3.811z" fill="#191847"/><path fill-rule="evenodd" clip-rule="evenodd" d="M438 184l-48.082 127.227L356.217 405H337l46.326-221H438z" fill="#1F28CF"/><path fill-rule="evenodd" clip-rule="evenodd" d="M449.883 184c.523 43.654.145 102.427 1.363 105.149.812 1.814 26.063 22.483 75.754 62.008L517.095 368c-58.994-38.044-90-59.601-93.016-64.669C419.555 295.728 396.826 225.763 385 184h64.883z" fill="#2B44FF"/><path fill-rule="evenodd" clip-rule="evenodd" d="M544.426 362.491l-16.73-12.732-13.498 16.087c-1.039 12.127-5.054 25.728-12.046 40.803l3.064 2.571 24.426-29.11 6.824-11.244 1.532 1.286 6.428-7.661zM358 423l-1-21h-21c-9.958 7-22.958 12.667-39 17v4h38l13-2v2h10z" fill="#191847"/><path fill-rule="evenodd" clip-rule="evenodd" d="M385.362 121.7l-34.709-19.01c-5.772-6.855-11.46-12.178-17.062-15.97-1.711-.715-4.705-1.147-1.905 3.822 2.799 4.968 5.52 10.321 4.094 11.852-1.426 1.53-4.983-.608-6.684 1.935-1.135 1.696 4.941 4.375 18.228 8.036l25.221 23.093 12.817-13.758zM331 137.74l-15.246-8.376c-2.139-8.14-4.697-12.236-7.672-12.287-2.286-1.063 1.695 9.223-2.638 8.331-4.333-.892-14.908-8.757-16.73-7.16-2.696 2.362-.292 9.616 2.54 13.225 5.293 6.745 9.676 9.051 20.508 12.071 5.664 1.579 11.787 4.745 18.37 9.496l.868-15.3z" fill="#997659"/><path fill-rule="evenodd" clip-rule="evenodd" d="M402.266 117.465c-12.158-.128-28.37-2.696-45.668-13.676l-6.794 15.15c11.932 11.841 28.71 21.571 43.38 21.159 11.561-.325 17.469-14.309 9.082-22.633z" fill="#2026A2"/><path fill-rule="evenodd" clip-rule="evenodd" d="M385.896 141.761c-12.907 3.219-34.551-.577-64.932-11.388-7.535 15.591-11.019 26.705-10.45 33.344 26.062 13.614 48.4 19.684 66.803 20.085-.585 10.919.744 21.31 5.209 30.804 9.18 19.518 62.929 1.442 81.001 5 11.318-36.755-10.565-51.692-10.582-75.209C452.925 118.642 432.246 79 429.203 79h-27.747c-1.53 19.669-9.236 41.346-15.56 62.761z" fill="#1F28CF"/><defs><clipPath id="clip0"><path fill="#fff" transform="translate(4)" d="M0 0h238v410H0z"/></clipPath></defs></svg>