<svg width="24" height="24" viewBox="0 0 24 24" fill="none" xmlns="http://www.w3.org/2000/svg"><g clip-path="url(#clip0)"><path d="M12 0C5.382 0 0 5.382 0 12s5.382 12 12 12 12-5.382 12-12S18.618 0 12 0zm0 1.565A10.423 10.423 0 0 1 22.435 12 10.423 10.423 0 0 1 12 22.435 10.423 10.423 0 0 1 1.565 12 10.423 10.423 0 0 1 12 1.565zM7.565 7.043a1.826 1.826 0 1 0 0 3.652 1.826 1.826 0 0 0 0-3.652zm8.87 0a1.826 1.826 0 1 0 0 3.652 1.826 1.826 0 0 0 0-3.652zM6.179 14.348a.754.754 0 0 0-.62.407.792.792 0 0 0 .05.807c1.399 2.093 3.743 3.481 6.391 3.481 2.649 0 4.992-1.388 6.392-3.48.228-.342.129-.857-.212-1.085-.342-.228-.864-.13-1.093.212-1.13 1.69-2.982 2.788-5.087 2.788-2.104 0-3.957-1.098-5.087-2.788-.212-.248-.482-.357-.734-.342z" fill="#48448C"/></g><defs><clipPath id="clip0"><path fill="#fff" d="M0 0h24v24H0z"/></clipPath></defs></svg>