<svg width="137" height="95" viewBox="0 0 137 95" fill="none" xmlns="http://www.w3.org/2000/svg"><g filter="url(#filter0_d)"><rect x="2" y="2" width="133" height="91" rx="4" fill="#fff"/></g><path d="M3 6a3 3 0 0 1 3-3h125a3 3 0 0 1 3 3v3H3V6z" fill="#E6EBF1"/><circle cx="131" cy="6" r="1" fill="#48448C"/><circle cx="128" cy="6" r="1" fill="#48448C"/><circle cx="125" cy="6" r="1" fill="#48448C"/><rect x="23" y="19" width="35" height="4" rx="2" fill="#ADB8CA"/><rect x="23" y="73" width="35" height="8" rx="4" fill="#48448C"/><rect x="37" y="27" width="65" height="3" rx="1.5" fill="#ADB8CA"/><rect x="37" y="32" width="37" height="3" rx="1.5" fill="#ADB8CA"/><rect x="37" y="42" width="65" height="3" rx="1.5" fill="#ADB8CA"/><rect x="37" y="47" width="37" height="3" rx="1.5" fill="#ADB8CA"/><rect x="37" y="56" width="65" height="3" rx="1.5" fill="#ADB8CA"/><rect x="37" y="61" width="37" height="3" rx="1.5" fill="#ADB8CA"/><rect x="65" y="73" width="28" height="3" rx="1.5" fill="#E1E1E1"/><rect x="65" y="78" width="16" height="3" rx="1.5" fill="#E1E1E1"/><rect opacity=".5" x="109" y="19" width="4" height="4" rx="2" fill="#ADB8CA"/><rect opacity=".5" x="102" y="19" width="4" height="4" rx="2" fill="#ADB8CA"/><rect x="95" y="19" width="4" height="4" rx="2" fill="#ADB8CA"/><path fill="#D9DCE2" d="M23 27h10v10H23zm0 15h10v10H23zm0 14h10v10H23z"/><path fill="#F67660" d="M25 29h6v6h-6z"/><path fill="#27AE60" d="M25 44h6v6h-6z"/><path fill="#fff" d="M25 58h6v6h-6z"/><rect opacity=".8" x="31" y="76" width="18" height="2" rx="1" fill="#fff"/><defs><filter id="filter0_d" x="0" y="0" width="137" height="95" filterUnits="userSpaceOnUse" color-interpolation-filters="sRGB"><feFlood flood-opacity="0" result="BackgroundImageFix"/><feColorMatrix in="SourceAlpha" values="0 0 0 0 0 0 0 0 0 0 0 0 0 0 0 0 0 0 127 0"/><feOffset/><feGaussianBlur stdDeviation="1"/><feColorMatrix values="0 0 0 0 0 0 0 0 0 0 0 0 0 0 0 0 0 0 0.16 0"/><feBlend in2="BackgroundImageFix" result="effect1_dropShadow"/><feBlend in="SourceGraphic" in2="effect1_dropShadow" result="shape"/></filter></defs></svg>