<svg width="137" height="95" viewBox="0 0 137 95" fill="none" xmlns="http://www.w3.org/2000/svg"><g filter="url(#filter0_d)"><rect x="2" y="2" width="133" height="91" rx="4" fill="#fff"/></g><path d="M3 6a3 3 0 0 1 3-3h125a3 3 0 0 1 3 3v3H3V6z" fill="#E6EBF1"/><circle cx="131" cy="6" r="1" fill="#48448C"/><circle cx="128" cy="6" r="1" fill="#48448C"/><circle cx="125" cy="6" r="1" fill="#48448C"/><rect x="24" y="19" width="35" height="4" rx="2" fill="#ADB8CA"/><rect x="47" y="27" width="67" height="34" rx="3" fill="#E1E1E1" fill-opacity=".6"/><rect x="65" y="32" width="23" height="3" rx="1.5" fill="#ADB8CA"/><rect x="65" y="37" width="37" height="3" rx="1.5" fill="#ADB8CA"/><rect x="65" y="43" width="6" height="3" rx="1.5" fill="#ADB8CA"/><rect x="65" y="48" width="6" height="3" rx="1.5" fill="#ADB8CA"/><rect x="65" y="53" width="6" height="3" rx="1.5" fill="#ADB8CA"/><path d="M47 67a3 3 0 0 1 3-3h61a3 3 0 0 1 3 3v26H47V67z" fill="#E1E1E1" fill-opacity=".6"/><rect x="73" y="43" width="20" height="3" rx="1.5" fill="#C8C8C9"/><rect x="73" y="48" width="29" height="3" rx="1.5" fill="#C8C8C9"/><rect x="73" y="53" width="24" height="3" rx="1.5" fill="#C8C8C9"/><rect x="65" y="69" width="23" height="3" rx="1.5" fill="#ADB8CA"/><rect x="65" y="74" width="37" height="3" rx="1.5" fill="#ADB8CA"/><rect x="65" y="80" width="6" height="3" rx="1.5" fill="#ADB8CA"/><rect x="65" y="85" width="6" height="3" rx="1.5" fill="#ADB8CA"/><rect x="65" y="90" width="6" height="3" rx="1.5" fill="#ADB8CA"/><rect x="73" y="80" width="20" height="3" rx="1.5" fill="#C8C8C9"/><rect x="73" y="85" width="29" height="3" rx="1.5" fill="#C8C8C9"/><rect x="73" y="90" width="24" height="3" rx="1.5" fill="#C8C8C9"/><rect x="24" y="27" width="20" height="25" rx="2" fill="#EDEDED"/><rect x="24" y="54" width="20" height="20" rx="2" fill="#EDEDED"/><path d="M24 79a2 2 0 0 1 2-2h16a2 2 0 0 1 2 2v14H24V79z" fill="#EDEDED"/><rect x="51" y="31" width="10" height="10" rx="5" fill="#C4CDDB"/><rect x="52" y="68" width="10" height="10" rx="5" fill="#F2C94C" fill-opacity=".8"/><path d="M26 31a1 1 0 0 1 1-1h14a1 1 0 1 1 0 2H27a1 1 0 0 1-1-1z" fill="#ADB8CA"/><path d="M26 35a1 1 0 0 1 1-1h10a1 1 0 1 1 0 2H27a1 1 0 0 1-1-1zm0 4a1 1 0 0 1 1-1h12a1 1 0 1 1 0 2H27a1 1 0 0 1-1-1zm0 4a1 1 0 0 1 1-1h10a1 1 0 1 1 0 2H27a1 1 0 0 1-1-1zm0 5a1 1 0 0 1 1-1h10a1 1 0 1 1 0 2H27a1 1 0 0 1-1-1zm0 14a1 1 0 0 1 1-1h10a1 1 0 1 1 0 2H27a1 1 0 0 1-1-1zm0 4a1 1 0 0 1 1-1h12a1 1 0 1 1 0 2H27a1 1 0 0 1-1-1zm0 4a1 1 0 0 1 1-1h10a1 1 0 1 1 0 2H27a1 1 0 0 1-1-1zm0 14a1 1 0 0 1 1-1h10a1 1 0 1 1 0 2H27a1 1 0 0 1-1-1zm0 4a1 1 0 0 1 1-1h12a1 1 0 1 1 0 2H27a1 1 0 0 1-1-1zm0 4a1 1 0 0 1 1-1h10a1 1 0 1 1 0 2H27a1 1 0 0 1-1-1z" fill="#C8C8C9"/><path d="M26 58a1 1 0 0 1 1-1h14a1 1 0 1 1 0 2H27a1 1 0 0 1-1-1zm0 22a1 1 0 0 1 1-1h14a1 1 0 1 1 0 2H27a1 1 0 0 1-1-1z" fill="#ADB8CA"/><defs><filter id="filter0_d" x="0" y="0" width="137" height="95" filterUnits="userSpaceOnUse" color-interpolation-filters="sRGB"><feFlood flood-opacity="0" result="BackgroundImageFix"/><feColorMatrix in="SourceAlpha" values="0 0 0 0 0 0 0 0 0 0 0 0 0 0 0 0 0 0 127 0"/><feOffset/><feGaussianBlur stdDeviation="1"/><feColorMatrix values="0 0 0 0 0 0 0 0 0 0 0 0 0 0 0 0 0 0 0.16 0"/><feBlend in2="BackgroundImageFix" result="effect1_dropShadow"/><feBlend in="SourceGraphic" in2="effect1_dropShadow" result="shape"/></filter></defs></svg>