<svg width="137" height="95" viewBox="0 0 137 95" fill="none" xmlns="http://www.w3.org/2000/svg"><g filter="url(#filter0_d)"><rect x="2" y="2" width="133" height="91" rx="4" fill="#fff"/></g><path d="M3 6a3 3 0 0 1 3-3h125a3 3 0 0 1 3 3v3H3V6z" fill="#E6EBF1"/><circle cx="131" cy="6" r="1" fill="#48448C"/><circle cx="128" cy="6" r="1" fill="#48448C"/><circle cx="125" cy="6" r="1" fill="#48448C"/><rect x="24" y="27" width="90" height="56" rx="2" fill="#EDEDED"/><rect x="26" y="29" width="6" height="6" rx="3" fill="#C4CDDB"/><rect x="34" y="31" width="8" height="2" rx="1" fill="#ADB8CA"/><rect x="34" y="42" width="8" height="2" rx="1" fill="#ADB8CA"/><rect x="34" y="53" width="8" height="2" rx="1" fill="#ADB8CA"/><rect opacity=".8" x="26" y="40" width="6" height="6" rx="3" fill="#2D9CDB"/><rect opacity=".8" x="26" y="51" width="6" height="6" rx="3" fill="#BB6BD9"/><path d="M44 31a2 2 0 0 1 2-2h64a2 2 0 0 1 2 2v48a2 2 0 0 1-2 2H46a2 2 0 0 1-2-2V31z" fill="#fff"/><rect x="24" y="19" width="35" height="4" rx="2" fill="#ADB8CA"/><path d="M46 75a2 2 0 0 1 2-2h60a2 2 0 0 1 2 2v2a2 2 0 0 1-2 2H48a2 2 0 0 1-2-2v-2z" fill="#EDEDED"/><rect x="102" y="75" width="6" height="2" rx="1" fill="#48448C"/><path d="M54 61a2 2 0 0 1 2-2h51a2 2 0 0 1 2 2v5H56a2 2 0 0 1-2-2v-3zm50.5 5h4.5v3h-1.5a3 3 0 0 1-3-3z" fill="#6FCF97"/><path d="M49 47a2 2 0 0 1 2-2h52a2 2 0 0 1 2 2v3a2 2 0 0 1-2 2H49v-5zm0 5h4.5a3 3 0 0 1-3 3H49v-3z" fill="#E0E0E0"/><path stroke="#fff" stroke-linecap="round" d="M20.5 37.5h21m-21 11h21"/><defs><filter id="filter0_d" x="0" y="0" width="137" height="95" filterUnits="userSpaceOnUse" color-interpolation-filters="sRGB"><feFlood flood-opacity="0" result="BackgroundImageFix"/><feColorMatrix in="SourceAlpha" values="0 0 0 0 0 0 0 0 0 0 0 0 0 0 0 0 0 0 127 0"/><feOffset/><feGaussianBlur stdDeviation="1"/><feColorMatrix values="0 0 0 0 0 0 0 0 0 0 0 0 0 0 0 0 0 0 0.16 0"/><feBlend in2="BackgroundImageFix" result="effect1_dropShadow"/><feBlend in="SourceGraphic" in2="effect1_dropShadow" result="shape"/></filter></defs></svg>