<svg width="14" height="16" viewBox="0 0 14 16" fill="none" xmlns="http://www.w3.org/2000/svg"><path d="M9.987 13.423a.47.47 0 0 1-.471.472.482.482 0 0 1-.472-.472V4.581H7.411v8.842a.47.47 0 0 1-.472.472.482.482 0 0 1-.472-.472V4.581H4.851v8.842a.47.47 0 0 1-.472.472.482.482 0 0 1-.472-.472V4.581H1.701v9.364c0 1.129.926 2.055 2.055 2.055h6.366a2.063 2.063 0 0 0 2.055-2.055V4.581h-2.19v8.842zM13.17 2.257H9.786V.707A.712.712 0 0 0 9.078 0H4.8a.712.712 0 0 0-.707.707v1.55H.707A.712.712 0 0 0 0 2.964c0 .388.32.708.707.708H13.17c.388 0 .708-.32.708-.708a.7.7 0 0 0-.707-.707zm-7.663-.825h2.847v.842H5.507v-.842z" fill="var(--main-color)"/></svg>