<svg viewBox="0 0 20 11" fill="none" xmlns="http://www.w3.org/2000/svg"><g clip-path="url(#clip0)"><path d="M19.894 9.935a1.317 1.317 0 0 0-.068-.126c-.347-.602-1.01-1.342-1.989-2.219l-.02-.02-.01-.01-.011-.01h-.01c-.445-.408-.726-.682-.844-.823-.216-.267-.264-.538-.146-.813.083-.207.396-.646.937-1.315.285-.355.51-.639.677-.853 1.2-1.54 1.722-2.523 1.562-2.951l-.062-.1c-.042-.06-.15-.116-.323-.166-.174-.05-.396-.059-.666-.025l-3 .02a.403.403 0 0 0-.208.005l-.135.03-.052.025-.042.03a.457.457 0 0 0-.114.106.682.682 0 0 0-.104.175c-.327.81-.698 1.563-1.114 2.259-.257.415-.493.775-.709 1.08a5.218 5.218 0 0 1-.541.672 3.74 3.74 0 0 1-.396.346c-.118.087-.208.124-.27.11a8 8 0 0 1-.178-.04.678.678 0 0 1-.234-.246 1.073 1.073 0 0 1-.12-.391 4.166 4.166 0 0 1-.036-.407 8.09 8.09 0 0 1 .005-.482c.007-.207.01-.348.01-.421 0-.255.006-.53.016-.829l.026-.707c.007-.174.01-.358.01-.552A2.24 2.24 0 0 0 11.7.83a1.522 1.522 0 0 0-.109-.321.547.547 0 0 0-.213-.241 1.229 1.229 0 0 0-.35-.136c-.367-.08-.836-.123-1.405-.13C8.33-.012 7.5.069 7.133.242a1.396 1.396 0 0 0-.396.302c-.125.147-.142.228-.052.24.417.06.712.205.885.432l.063.12c.049.088.097.242.146.463.048.22.08.465.093.732a7.46 7.46 0 0 1 0 1.255c-.034.348-.067.62-.099.813a1.584 1.584 0 0 1-.14.472 1.97 1.97 0 0 1-.125.22.176.176 0 0 1-.052.05.806.806 0 0 1-.281.051c-.098 0-.216-.047-.354-.14a2.466 2.466 0 0 1-.432-.387 5.173 5.173 0 0 1-.506-.688A11.866 11.866 0 0 1 5.3 3.134l-.166-.292c-.104-.187-.247-.46-.427-.818a16.37 16.37 0 0 1-.48-1.039.665.665 0 0 0-.249-.32L3.926.633a.722.722 0 0 0-.167-.085 1.137 1.137 0 0 0-.24-.066L.668.503c-.292 0-.49.064-.594.191l-.042.06A.315.315 0 0 0 0 .915c0 .074.02.164.063.271.416.944.869 1.854 1.358 2.73.49.877.915 1.583 1.276 2.118.36.536.729 1.041 1.104 1.516.375.475.623.78.744.914.122.134.217.234.287.3l.26.242c.167.16.411.353.734.577.323.224.68.445 1.073.662.392.218.848.395 1.37.532.52.138 1.026.193 1.52.166h1.197c.243-.02.427-.094.552-.22l.041-.051a.649.649 0 0 0 .078-.186.984.984 0 0 0 .037-.276 3.195 3.195 0 0 1 .067-.777 1.96 1.96 0 0 1 .178-.522 1.284 1.284 0 0 1 .4-.442.697.697 0 0 1 .084-.035c.166-.054.362-.002.588.156.226.157.438.351.636.582a18 18 0 0 0 .713.778c.277.288.52.501.729.642l.208.12c.139.081.32.155.541.222.222.066.417.083.584.05l2.665-.04c.264 0 .469-.043.614-.126.146-.084.233-.176.26-.276a.75.75 0 0 0 .006-.341 1.219 1.219 0 0 0-.073-.266z" fill="#4D75A3"/></g><defs><clipPath id="clip0"><path fill="#fff" d="M0 0h20v11H0z"/></clipPath></defs></svg>