<svg width="26" height="23" viewBox="0 0 26 23" fill="none" xmlns="http://www.w3.org/2000/svg"><g clip-path="url(#clip0)" fill="#000"><path d="M14.676.981A1.931 1.931 0 0 0 13 0c-.693 0-1.329.375-1.676.981L.26 20.085a1.927 1.927 0 0 0 0 1.934c.347.606.982.981 1.676.981h22.1a1.93 1.93 0 0 0 1.675-.981 1.927 1.927 0 0 0 0-1.934L14.676.981zm10.053 20.49a.778.778 0 0 1-.693.404H1.964a.778.778 0 0 1-.693-.404c-.144-.26-.144-.549 0-.78L12.307 1.558A.778.778 0 0 1 13 1.154c.289 0 .549.145.693.404l11.065 19.133a.833.833 0 0 1-.03.78z"/><path d="M13 8.34a6.01 6.01 0 0 0-4.391 1.876.557.557 0 0 0 .029.808c.23.202.606.202.809-.029A4.852 4.852 0 0 1 13 9.465a4.904 4.904 0 0 1 4.911 4.906c0 .866-.231 1.703-.636 2.425-.144.288-.057.634.203.779a.558.558 0 0 0 .289.086.56.56 0 0 0 .49-.288c.52-.924.81-1.963.81-3.002 0-3.318-2.716-6.031-6.067-6.031zm3.467 9.523A4.904 4.904 0 0 1 8.089 14.4c0-.808.173-1.558.549-2.28a.594.594 0 0 0-.231-.779.595.595 0 0 0-.78.231 5.908 5.908 0 0 0-.693 2.8A6.063 6.063 0 0 0 13 20.431a6.058 6.058 0 0 0 4.305-1.79.558.558 0 0 0 0-.808.622.622 0 0 0-.838.03z"/><path d="M13 16.767a.58.58 0 0 0 .577-.578v-5.338a.58.58 0 0 0-.577-.577.58.58 0 0 0-.578.577v5.338c0 .318.26.578.578.578zm0 1.703a.577.577 0 1 0 0-1.156.577.577 0 0 0 0 1.155z"/></g><defs><clipPath id="clip0"><path fill="#fff" d="M0 0h26v23H0z"/></clipPath></defs></svg>