<svg width="21" height="21" viewBox="0 0 21 21" fill="none" xmlns="http://www.w3.org/2000/svg"><path fill-rule="evenodd" clip-rule="evenodd" d="M10.504 0C4.705 0 0 4.713 0 10.5 0 16.296 4.706 21 10.504 21 16.294 21 21 16.297 21 10.5 21 4.712 16.295 0 10.504 0zM8.77 1.465c-.97 1.245-1.62 2.88-2.012 4.68H2.394a9.18 9.18 0 0 1 6.376-4.68zm3.436 0a9.198 9.198 0 0 1 6.4 4.68h-4.38c-.393-1.801-1.051-3.436-2.02-4.68zm-1.718.057c1.07.983 1.884 2.66 2.37 4.623H8.125c.485-1.964 1.291-3.64 2.362-4.623zM1.816 7.456h4.698a21.7 21.7 0 0 0-.203 3.06c0 1.02.07 2.046.211 3.036H1.816a9.22 9.22 0 0 1-.513-3.052c0-1.067.18-2.092.513-3.044zm6.042 0h5.268c.163.989.253 2.022.252 3.06 0 1.03-.091 2.056-.252 3.036H7.858a19.022 19.022 0 0 1 0-6.096zm6.612 0h4.714c.334.952.513 1.977.513 3.044a9.205 9.205 0 0 1-.513 3.052H14.47c.14-.99.211-2.016.211-3.036 0-1.03-.068-2.059-.211-3.06zM2.386 14.855H6.75c.39 1.802 1.046 3.439 2.012 4.68a9.17 9.17 0 0 1-6.376-4.68zm5.74 0h4.74c-.486 1.975-1.304 3.655-2.378 4.631-1.07-.976-1.877-2.658-2.362-4.631zm6.107 0h4.381a9.19 9.19 0 0 1-6.392 4.68c.967-1.241 1.622-2.878 2.011-4.68z" fill="#2F80ED"/></svg>