<svg width="10" height="20" viewBox="0 0 10 20" fill="none" xmlns="http://www.w3.org/2000/svg"><g clip-path="url(#clip0)"><path d="M9.118 0H6.33C3.508 0 .659 2.126.659 6.875c0 2.46 1.022 4.376 2.897 5.466L.125 18.673c-.163.3-.167.638-.012.907.152.263.43.42.743.42H2.59c.395 0 .702-.194.85-.535l3.216-6.415h.235v6.15c0 .434.359.8.783.8H9.19c.476 0 .809-.339.809-.824V.876C10 .36 9.637 0 9.118 0zM6.892 10.2h-.414c-1.606 0-2.565-1.336-2.565-3.575 0-2.783 1.211-3.775 2.345-3.775h.634v7.35z" fill="#D7143A"/></g><defs><clipPath id="clip0"><path fill="#fff" d="M0 0h10v20H0z"/></clipPath></defs></svg>