<svg width="258" height="258" viewBox="0 0 258 258" fill="none" xmlns="http://www.w3.org/2000/svg">
<rect x="0.5" y="0.5" width="257" height="257" rx="7.5" fill="#FAFAFA" stroke="#E1E1E1"/>
<path d="M93.3519 193.904L92.3759 194.016L92.1999 192H85.0639L84.9039 193.904L83.9119 194.016V190.944H84.7759C85.2025 190.677 85.5439 190.277 85.7999 189.744C86.0665 189.211 86.2799 188.459 86.4399 187.488C86.5999 186.517 86.7545 185.168 86.9039 183.44L87.0639 181.744H91.9919L91.9439 188.8L91.9599 190.944H93.3519V193.904ZM90.7759 188.912L90.7279 182.752H88.1039L88.0239 183.664C87.8959 185.157 87.7519 186.373 87.5919 187.312C87.4319 188.251 87.2345 189.008 86.9999 189.584C86.7652 190.16 86.4665 190.613 86.1039 190.944H90.7279L90.7759 188.912ZM98.0149 184.544C99.0069 184.544 99.7749 184.869 100.319 185.52C100.874 186.16 101.151 187.067 101.151 188.24C101.151 189.477 100.863 190.437 100.287 191.12C99.7109 191.792 98.8895 192.128 97.8229 192.128C96.8202 192.128 96.0415 191.808 95.4869 191.168C94.9429 190.517 94.6709 189.605 94.6709 188.432C94.6709 187.195 94.9589 186.24 95.5349 185.568C96.1215 184.885 96.9482 184.544 98.0149 184.544ZM97.9349 185.44C97.2629 185.44 96.7509 185.669 96.3989 186.128C96.0469 186.587 95.8709 187.259 95.8709 188.144C95.8709 189.168 96.0415 189.936 96.3829 190.448C96.7349 190.96 97.2415 191.216 97.9029 191.216C98.5749 191.216 99.0869 190.992 99.4389 190.544C99.7909 190.096 99.9669 189.424 99.9669 188.528C99.9669 187.515 99.7909 186.747 99.4389 186.224C99.0975 185.701 98.5962 185.44 97.9349 185.44ZM106.261 184.848C107.21 184.848 107.93 185.141 108.421 185.728C108.912 186.315 109.157 187.179 109.157 188.32C109.157 189.557 108.874 190.501 108.309 191.152C107.754 191.803 106.944 192.128 105.877 192.128C104.778 192.128 103.984 191.739 103.493 190.96C103.002 190.171 102.757 188.901 102.757 187.152C102.757 186.128 102.837 185.291 102.997 184.64C103.168 183.989 103.44 183.467 103.813 183.072C104.186 182.667 104.698 182.347 105.349 182.112L106.853 181.568C107.205 181.44 107.509 181.307 107.765 181.168C108.021 181.029 108.293 180.848 108.581 180.624L108.725 180.688L108.821 181.712C108.362 182.032 107.781 182.315 107.077 182.56L105.589 183.04C105.024 183.221 104.608 183.557 104.341 184.048C104.074 184.539 103.941 185.216 103.941 186.08V186.256L104.021 186.272C104.65 185.536 105.397 185.061 106.261 184.848ZM105.973 191.232C106.634 191.232 107.136 191.008 107.477 190.56C107.818 190.101 107.989 189.429 107.989 188.544C107.989 187.691 107.834 187.045 107.525 186.608C107.226 186.16 106.778 185.936 106.181 185.936C105.402 185.936 104.656 186.405 103.941 187.344C103.952 188.741 104.112 189.739 104.421 190.336C104.73 190.933 105.248 191.232 105.973 191.232ZM113.461 184.544C114.154 184.544 114.698 184.715 115.093 185.056C115.498 185.397 115.701 185.867 115.701 186.464C115.701 186.645 115.669 187.301 115.605 188.432C115.541 189.563 115.509 190.224 115.509 190.416C115.509 190.651 115.546 190.816 115.621 190.912C115.696 190.997 115.824 191.04 116.005 191.04C116.165 191.04 116.346 191.008 116.549 190.944L116.677 191.056L116.549 191.776C116.24 191.957 115.936 192.064 115.637 192.096C115.306 192.064 115.04 191.947 114.837 191.744C114.645 191.541 114.544 191.264 114.533 190.912H114.421C113.845 191.499 113.274 191.899 112.709 192.112C111.994 192.112 111.434 191.936 111.029 191.584C110.634 191.221 110.437 190.731 110.437 190.112C110.437 189.643 110.56 189.269 110.805 188.992C111.061 188.715 111.434 188.517 111.925 188.4L114.517 187.792L114.533 186.752C114.533 186.336 114.421 186.016 114.197 185.792C113.984 185.568 113.674 185.456 113.269 185.456C112.906 185.456 112.544 185.541 112.181 185.712C111.818 185.883 111.429 186.149 111.013 186.512L110.885 186.448L110.725 185.536C111.61 184.875 112.522 184.544 113.461 184.544ZM112.181 189.168C111.968 189.232 111.813 189.323 111.717 189.44C111.621 189.547 111.573 189.712 111.573 189.936C111.573 190.288 111.669 190.565 111.861 190.768C112.064 190.96 112.33 191.056 112.661 191.056C113.248 191.056 113.845 190.677 114.453 189.92L114.501 188.608L112.181 189.168ZM122.073 188.176C123.161 188.411 123.705 188.992 123.705 189.92C123.705 191.339 122.596 192.048 120.377 192.048C119.737 192.048 119.033 192.032 118.265 192L118.329 188.896L118.281 184.672L120.825 184.656C121.636 184.656 122.26 184.811 122.697 185.12C123.134 185.419 123.353 185.856 123.353 186.432C123.353 186.827 123.241 187.173 123.017 187.472C122.804 187.771 122.489 188.005 122.073 188.176ZM122.185 186.576C122.185 185.829 121.609 185.456 120.457 185.456C120.03 185.456 119.694 185.461 119.449 185.472L119.433 187.856L120.905 187.904C121.332 187.829 121.652 187.68 121.865 187.456C122.078 187.221 122.185 186.928 122.185 186.576ZM120.489 191.264C121.15 191.264 121.657 191.147 122.009 190.912C122.361 190.677 122.537 190.336 122.537 189.888C122.537 189.173 122.052 188.763 121.081 188.656L119.417 188.672V188.784L119.449 191.216C119.79 191.248 120.137 191.264 120.489 191.264ZM125.595 188.896L125.531 184.704L126.763 184.64L126.731 190.192H126.827L130.139 184.672H131.387L131.339 188.768L131.387 192H130.155L130.203 188.976V186.4H130.107L126.747 192H125.531L125.595 188.896ZM138.324 184.752L138.228 185.6L136.884 185.568H135.988L135.956 188.784L136.004 192H134.756L134.804 188.896L134.772 185.568H133.876L132.516 185.6L132.436 185.488L132.516 184.672H138.228L138.324 184.752ZM142.474 187.616C143.252 187.616 143.839 187.787 144.234 188.128C144.639 188.459 144.842 188.944 144.842 189.584C144.842 190.352 144.564 190.949 144.01 191.376C143.455 191.792 142.676 192 141.674 192H139.578L139.642 188.896L139.594 184.672H140.826L140.794 187.616H142.474ZM142.09 191.184C142.602 191.131 142.991 190.981 143.258 190.736C143.524 190.48 143.658 190.139 143.658 189.712C143.658 189.296 143.524 188.971 143.258 188.736C142.991 188.501 142.612 188.389 142.122 188.4L140.778 188.416V188.784L140.81 191.152L142.09 191.184ZM156.807 188.272C156.807 189.435 156.498 190.341 155.879 190.992C155.26 191.643 154.343 192.016 153.127 192.112L153.143 194.96H151.927L151.943 192.128C150.738 192.043 149.82 191.691 149.191 191.072C148.572 190.443 148.263 189.552 148.263 188.4C148.263 187.248 148.572 186.347 149.191 185.696C149.81 185.045 150.727 184.672 151.943 184.576L151.927 181.824L153.159 181.712L153.143 184.56C154.348 184.635 155.26 184.987 155.879 185.616C156.498 186.245 156.807 187.131 156.807 188.272ZM153.127 191.232C153.98 191.147 154.61 190.859 155.015 190.368C155.431 189.877 155.639 189.184 155.639 188.288C155.639 187.413 155.431 186.747 155.015 186.288C154.61 185.829 153.98 185.563 153.127 185.488L153.111 188.768L153.127 191.232ZM149.431 188.352C149.431 189.237 149.639 189.92 150.055 190.4C150.471 190.88 151.1 191.157 151.943 191.232L151.959 188.896L151.943 185.488C151.09 185.573 150.455 185.856 150.039 186.336C149.634 186.805 149.431 187.477 149.431 188.352ZM161.327 184.544C162.319 184.544 163.087 184.869 163.631 185.52C164.186 186.16 164.463 187.067 164.463 188.24C164.463 189.477 164.175 190.437 163.599 191.12C163.023 191.792 162.202 192.128 161.135 192.128C160.133 192.128 159.354 191.808 158.799 191.168C158.255 190.517 157.983 189.605 157.983 188.432C157.983 187.195 158.271 186.24 158.847 185.568C159.434 184.885 160.261 184.544 161.327 184.544ZM161.247 185.44C160.575 185.44 160.063 185.669 159.711 186.128C159.359 186.587 159.183 187.259 159.183 188.144C159.183 189.168 159.354 189.936 159.695 190.448C160.047 190.96 160.554 191.216 161.215 191.216C161.887 191.216 162.399 190.992 162.751 190.544C163.103 190.096 163.279 189.424 163.279 188.528C163.279 187.515 163.103 186.747 162.751 186.224C162.41 185.701 161.909 185.44 161.247 185.44ZM170.793 184.752L170.697 185.6L169.353 185.568H168.457L168.425 188.784L168.473 192H167.225L167.273 188.896L167.241 185.568H166.345L164.985 185.6L164.905 185.488L164.985 184.672H170.697L170.793 184.752ZM174.546 184.544C175.538 184.544 176.306 184.869 176.85 185.52C177.405 186.16 177.682 187.067 177.682 188.24C177.682 189.477 177.394 190.437 176.818 191.12C176.242 191.792 175.421 192.128 174.354 192.128C173.351 192.128 172.573 191.808 172.018 191.168C171.474 190.517 171.202 189.605 171.202 188.432C171.202 187.195 171.49 186.24 172.066 185.568C172.653 184.885 173.479 184.544 174.546 184.544ZM174.466 185.44C173.794 185.44 173.282 185.669 172.93 186.128C172.578 186.587 172.402 187.259 172.402 188.144C172.402 189.168 172.573 189.936 172.914 190.448C173.266 190.96 173.773 191.216 174.434 191.216C175.106 191.216 175.618 190.992 175.97 190.544C176.322 190.096 176.498 189.424 176.498 188.528C176.498 187.515 176.322 186.747 175.97 186.224C175.629 185.701 175.127 185.44 174.466 185.44Z" fill="#DFE3E9"/>
<path d="M136.498 155.411C135.803 154.235 135.456 152.892 135.456 151.044V134.584H122.084V151.38C122.084 155.411 122.779 158.434 124.168 160.618C125.558 162.801 128.336 165.656 132.156 167L140.318 159.106C138.408 157.762 137.192 156.419 136.498 155.411Z" fill="#DFE3E9"/>
<path d="M128.586 63C110.101 63 95.0714 77.5744 95.0714 95.4993C95.0714 113.257 110.101 127.831 128.586 127.831C147.071 127.831 161.929 113.257 161.929 95.4993C161.929 77.5744 146.899 63 128.586 63ZM128.414 114.932C117.357 114.932 108.374 106.221 108.374 95.4993C108.374 84.7779 117.357 76.0667 128.414 76.0667C139.47 76.0667 148.453 84.7779 148.453 95.4993C148.453 106.221 139.47 114.932 128.414 114.932Z" fill="#DFE3E9"/>
</svg>
