<svg width="17" height="14" viewBox="0 0 17 14" fill="none" xmlns="http://www.w3.org/2000/svg">
<path d="M15.1256 5.06243C15.1256 4.63002 15.1375 4.19421 15.1256 3.7618C15.1256 3.75499 15.1256 3.74988 15.1256 3.74307C15.1256 3.65114 15.0473 3.57283 14.9553 3.57283H1.75838C1.57963 3.57283 1.40258 3.56943 1.22383 3.57283C1.21532 3.57283 1.20851 3.57283 1.19999 3.57283C1.10806 3.57283 1.02975 3.65114 1.02975 3.74307V12.6891C1.02975 12.7283 1.02975 12.7675 1.02975 12.8049C1.03316 13.1267 1.16254 13.4399 1.39577 13.6646C1.61878 13.8791 1.915 13.9966 2.22483 14C2.25718 14 2.28953 14 2.32187 14H13.9339C13.9373 14 13.9407 14 13.9441 14C14.5927 13.9864 15.1188 13.4552 15.1256 12.8049C15.1273 12.6909 15.1256 12.5751 15.1256 12.461V5.06243ZM11.0909 5.9681C11.0909 5.98683 11.0892 6.00555 11.0875 6.02258C11.0705 6.19792 10.9922 6.35625 10.873 6.47371C10.7385 6.6082 10.5529 6.69332 10.3504 6.69332H5.80497C5.41001 6.69332 5.08315 6.37667 5.06443 5.98683C5.06443 5.98002 5.06443 5.97491 5.06443 5.9681C5.06443 5.96129 5.06443 5.95448 5.06443 5.94937C5.06443 5.94427 5.06443 5.93746 5.06443 5.93235C5.06443 5.92554 5.06443 5.92043 5.06443 5.91362C5.07294 5.72466 5.15465 5.55272 5.28063 5.42674C5.41512 5.29225 5.60068 5.20883 5.80327 5.20883H10.3487C10.7385 5.20883 11.0586 5.51356 11.0875 5.8949C11.0892 5.90681 11.0892 5.92043 11.0892 5.93235C11.0892 5.93746 11.0892 5.94427 11.0892 5.94937C11.0909 5.95448 11.0909 5.96129 11.0909 5.9681Z" fill="#48448C" style="fill: var(--main-color);"/>
<path d="M16.1504 2.46287C16.147 2.74547 15.9427 2.96337 15.6635 2.9838C15.6567 2.9838 15.6516 2.9821 15.6448 2.9821H1.33279C1.06891 2.9821 0.805043 2.9855 0.542874 2.9838C0.236444 2.9821 0.00321563 2.76249 0.00151324 2.45095C-0.000189155 2.12579 0.00151324 1.80064 0.00151324 1.47378C0.00151324 1.15883 -0.00189155 0.843892 0.00151324 0.528949C0.00491803 0.217411 0.241551 0.00120724 0.546279 0.00120724H15.5154C15.5971 0.00120724 15.6789 -0.00560234 15.7589 0.013124C16.0057 0.0658982 16.1504 0.294019 16.1521 0.535759C16.1521 0.663438 16.1487 0.789415 16.1487 0.915392V2.12069C16.147 2.23645 16.1521 2.34881 16.1504 2.46287Z" fill="#48448C" style="fill: var(--main-color);"/>
</svg>
