<svg width="31" height="21" viewBox="0 0 31 21" fill="none" xmlns="http://www.w3.org/2000/svg">
<g clip-path="url(#clip0)">
<path d="M30.4796 0.00698353C30.4106 0.0144164 30.3442 0.0380266 30.2858 0.0751909L17.4138 8.68287C16.9297 8.18312 16.2435 7.87663 15.4918 7.87663C14.0308 7.87663 12.8371 9.05626 12.8371 10.5C12.8371 10.8834 12.9212 11.2503 13.072 11.5795L0.199941 20.1876C-0.0062394 20.3236 -0.0619876 20.5986 0.0751707 20.8024C0.212772 21.0061 0.49107 21.0612 0.69725 20.9257C0.69725 20.9257 0.69725 20.9257 0.697693 20.9257L7.61092 16.3077C10.0439 17.3596 12.7048 17.9337 15.4922 17.9337C21.5692 17.9337 27.0396 15.177 30.8672 10.7877C31.0119 10.6233 31.0119 10.3784 30.8672 10.214C29.0258 8.10224 26.8007 6.37563 24.3137 5.14484L30.7845 0.813667C30.9946 0.689932 31.0632 0.421474 30.938 0.214229C30.8433 0.0572646 30.661 -0.0253712 30.4796 0.00698353ZM15.4918 3.06757C9.41477 3.06757 3.94436 5.82429 0.116761 10.2136C-0.0279193 10.378 -0.0279193 10.6228 0.116761 10.7872C1.23571 12.0705 2.49004 13.213 3.86384 14.1893C4.05143 14.3441 4.33062 14.3187 4.48725 14.1333C4.64387 13.948 4.61821 13.6721 4.43061 13.5173C4.41336 13.5029 4.39477 13.4902 4.37575 13.4788C3.17229 12.6236 2.07459 11.6197 1.07112 10.514C4.73015 6.47532 9.82492 3.94202 15.4922 3.94202C16.6678 3.94202 17.8155 4.04914 18.9349 4.25639C19.1756 4.30186 19.4074 4.14577 19.4534 3.90792C19.4994 3.67007 19.3415 3.44096 19.1008 3.39549C17.9279 3.17863 16.7227 3.06757 15.4918 3.06757ZM15.4918 4.37925C12.1526 4.37925 9.41787 6.99562 9.29752 10.2683C9.28602 10.5096 9.47494 10.7147 9.71917 10.726C9.9634 10.7374 10.1709 10.5507 10.1824 10.3094C10.2855 7.49799 12.6198 5.25414 15.4918 5.25414C16.0377 5.25414 16.5594 5.3359 17.054 5.48631C17.2828 5.57201 17.5381 5.45833 17.6248 5.23228C17.7115 5.00623 17.5965 4.75395 17.3677 4.66826C17.3509 4.66214 17.3341 4.65689 17.3169 4.65252C16.7395 4.47632 16.1267 4.37925 15.4918 4.37925ZM23.47 5.70449C25.9052 6.83341 28.0882 8.47563 29.9129 10.4869C26.2538 14.5255 21.1591 17.0588 15.4918 17.0588C13.0269 17.0588 10.6762 16.5739 8.49537 15.706L10.6244 14.2851C11.7589 15.7056 13.5207 16.6216 15.4913 16.6216C18.907 16.6216 21.6856 13.8758 21.6856 10.5004C21.6856 9.38812 21.3821 8.35277 20.856 7.45339L23.47 5.70449ZM20.1237 7.94527C20.552 8.70124 20.8011 9.57001 20.8011 10.5004C20.8011 13.4032 18.4292 15.7471 15.4918 15.7471C13.8233 15.7471 12.3451 14.9794 11.3713 13.7932L13.5698 12.3175C14.0538 12.8173 14.7401 13.1238 15.4918 13.1238C16.9527 13.1238 18.1464 11.9441 18.1464 10.5004C18.1464 10.117 18.0624 9.75014 17.9115 9.42091L20.1237 7.94527ZM15.4918 8.75152C15.9395 8.75152 16.3426 8.92116 16.6532 9.18875L13.8326 11.0741C13.7693 10.8935 13.722 10.7029 13.722 10.5004C13.722 9.52935 14.5091 8.75152 15.4918 8.75152ZM17.1509 9.92635C17.2142 10.1069 17.2616 10.2976 17.2616 10.5C17.2616 11.4711 16.4744 12.2489 15.4918 12.2489C15.044 12.2489 14.6409 12.0793 14.3303 11.8117L17.1509 9.92635Z" fill="black"/>
</g>
<defs>
<clipPath id="clip0">
<rect width="31" height="21" fill="white"/>
</clipPath>
</defs>
</svg>
