<svg width="35" height="35" viewBox="0 0 35 35" fill="none" xmlns="http://www.w3.org/2000/svg">
<circle opacity="0.6" cx="17.5" cy="17.5" r="17" style="stroke: var(--main-color); fill: var(--fill-color);" fill="white" stroke="#F67660"/>
<path d="M19.6391 14.8901L19.88 15.3618L20.4056 15.4275C21.769 15.5979 22.9541 15.7151 23.8872 15.8074C24.3937 15.8575 24.826 15.9002 25.1721 15.9401C25.2386 15.9478 25.302 15.9554 25.3624 15.9628C25.3312 15.9904 25.2989 16.0189 25.2653 16.0483C25.0124 16.2696 24.6914 16.5412 24.3149 16.8596C23.6158 17.4508 22.7256 18.2037 21.7259 19.0972L21.3013 19.4766L21.4109 20.0353C21.6563 21.2862 21.9045 22.3875 22.0991 23.2509C22.2071 23.7301 22.2986 24.1361 22.3639 24.4535C22.3789 24.5261 22.3926 24.5946 22.4051 24.6591C22.3169 24.6151 22.2212 24.5662 22.1173 24.5122C21.8117 24.3534 21.4309 24.1473 20.9835 23.9051C20.1715 23.4654 19.1401 22.907 17.9412 22.2978L17.4876 22.0672L17.0342 22.2983C15.8083 22.9229 14.7687 23.4886 13.9528 23.9325C13.5208 24.1676 13.1515 24.3685 12.8504 24.526C12.7568 24.575 12.67 24.6197 12.5893 24.6605C12.6013 24.6001 12.6143 24.5365 12.6284 24.4692C12.6935 24.1579 12.7807 23.7742 12.8826 23.3259C13.0806 22.4543 13.3342 21.3385 13.5892 20.0347L13.6984 19.4763L13.2741 19.0972C12.2744 18.2037 11.3842 17.4508 10.6851 16.8596C10.3086 16.5412 9.98758 16.2696 9.73466 16.0483C9.70113 16.0189 9.66879 15.9904 9.63759 15.9628C9.69799 15.9554 9.76138 15.9478 9.8279 15.9401C10.174 15.9002 10.6063 15.8575 11.1128 15.8074C12.0459 15.7151 13.231 15.5979 14.5944 15.4275L15.12 15.3618L15.3609 14.8901C15.9448 13.7469 16.4321 12.7242 16.8144 11.9217C17.0267 11.476 17.2066 11.0983 17.3528 10.8056C17.4057 10.6996 17.4547 10.6037 17.5 10.517C17.5453 10.6037 17.5943 10.6996 17.6472 10.8056C17.7934 11.0983 17.9733 11.4761 18.1856 11.9217C18.5679 12.7242 19.0552 13.7469 19.6391 14.8901ZM22.5101 25.519C22.5094 25.518 22.5099 25.5061 22.5138 25.4863C22.5128 25.51 22.5108 25.52 22.5101 25.519ZM17.91 9.85413C17.91 9.85513 17.9032 9.86282 17.8898 9.87418C17.9033 9.85881 17.91 9.85313 17.91 9.85413ZM17.1102 9.87418C17.0968 9.86282 17.09 9.85513 17.09 9.85413C17.09 9.85313 17.0967 9.85881 17.1102 9.87418Z" style="stroke: var(--main-color);" stroke="#F67660" stroke-width="2"/>
</svg>
