<svg width="120" height="120" viewBox="0 0 120 120" fill="none" xmlns="http://www.w3.org/2000/svg">
<g clip-path="url(#clip0)">
<path d="M60 120C93.1371 120 120 93.0589 120 59.8253C120 26.5918 93.1371 -0.349365 60 -0.349365C26.8629 -0.349365 0 26.5918 0 59.8253C0 93.0589 26.8629 120 60 120Z" fill="#00CF94"/>
<path d="M60.0001 120C66.3631 120.001 72.6856 118.985 78.7296 116.989V116.681L78.0328 111.821L77.8382 110.361L77.5 108.008L76.5677 101.73L75.6763 95.4307H43.3915L43.1251 97.3626L42.8894 99.017L42.4488 102.1L42.3054 103.127L40.3894 116.691C46.6972 118.881 53.3252 119.999 60.0001 120Z" fill="#F9D8BC"/>
<path d="M77.4591 108.008C67.2951 112.365 56.8341 122.631 42.8894 98.9656L43.1251 97.3112L43.3915 95.3793H75.6763L76.5677 101.73L77.4591 108.008Z" fill="#EFBA9E"/>
<path d="M82.0185 62.2195C82.3863 61.4792 82.9249 60.8376 83.5896 60.3479C84.2542 59.8582 85.0258 59.5346 85.8402 59.404C86.6617 59.2021 87.5182 59.1897 88.3452 59.3677C89.1722 59.5457 89.9482 59.9094 90.6148 60.4316C92.1517 61.9113 91.3935 64.1617 90.2664 66.0524C89.1394 67.9431 87.664 69.8955 87.9406 71.8068C88.125 73.0707 89.0677 74.2216 88.8013 75.5266C88.5349 76.8316 86.8341 78.0955 84.9488 78.3524C83.0636 78.6093 81.1886 77.8489 80.6865 76.6261L82.0185 62.2195Z" fill="#EFBA9E"/>
<path d="M38.0841 62.2196C37.7163 61.4792 37.1777 60.8376 36.513 60.3479C35.8483 59.8582 35.0768 59.5346 34.2624 59.404C33.4409 59.2014 32.5843 59.1886 31.7571 59.3666C30.93 59.5446 30.154 59.9088 29.4878 60.4316C27.9407 61.9113 28.7091 64.1617 29.8361 66.0524C30.9632 67.9431 32.4386 69.8955 32.162 71.8068C31.9775 73.0707 31.0247 74.2216 31.3013 75.5266C31.5779 76.8316 33.2685 78.0956 35.1538 78.3524C37.039 78.6093 38.9038 77.8489 39.4161 76.6261L38.0841 62.2196Z" fill="#EFBA9E"/>
<path d="M69.2521 105.84C66.5878 107.832 63.3537 108.907 60.0308 108.907C56.7079 108.907 53.4737 107.832 50.8095 105.84C43.2172 100.188 33.8013 88.2994 34.539 80.1507C35.0944 69.594 34.7035 59.0086 33.3709 48.522C32.9729 45.4945 33.6211 42.4216 35.2076 39.8151C36.7942 37.2087 39.2232 35.2261 42.0902 34.1976C53.6969 30.1136 66.3441 30.1136 77.9509 34.1976C80.8178 35.2261 83.2469 37.2087 84.8334 39.8151C86.4199 42.4216 87.0682 45.4945 86.6701 48.522C85.3324 59.0082 84.9415 69.594 85.5021 80.1507C86.25 88.2994 76.8443 100.188 69.2521 105.84Z" fill="#F9D8BC"/>
<path d="M34.5697 80.2637C33.9037 88.3713 43.2787 100.199 50.8504 105.84C53.5147 107.832 56.7488 108.907 60.0718 108.907C63.3947 108.907 66.6288 107.832 69.2931 105.84C76.8443 100.199 86.1988 88.3713 85.5328 80.2637L83.6783 82.3189C81.0656 85.2886 77.3361 94.5367 73.4222 94.5367H46.4242C42.0082 94.5367 37.9099 84.8159 35.2869 81.2502L34.5697 80.2637Z" fill="#48428E"/>
<path d="M49.9693 60.9556C49.9693 61.417 49.8329 61.8679 49.5773 62.2515C49.3217 62.6351 48.9585 62.9341 48.5335 63.1106C48.1085 63.2872 47.6409 63.3334 47.1897 63.2434C46.7385 63.1534 46.3241 62.9312 45.9988 62.605C45.6736 62.2788 45.4521 61.8632 45.3623 61.4107C45.2726 60.9582 45.3186 60.4892 45.4947 60.063C45.6707 59.6367 45.9688 59.2724 46.3513 59.0161C46.7338 58.7598 47.1834 58.623 47.6434 58.623C48.2603 58.623 48.8519 58.8688 49.2881 59.3062C49.7242 59.7437 49.9693 60.337 49.9693 60.9556Z" fill="#48428E"/>
<path d="M74.7952 60.9556C74.7972 61.4194 74.6619 61.8734 74.4065 62.26C74.151 62.6467 73.7869 62.9485 73.3602 63.1275C72.9335 63.3064 72.4635 63.3542 72.0097 63.265C71.5558 63.1757 71.1386 62.9534 70.8109 62.6262C70.4832 62.2989 70.2597 61.8815 70.1687 61.4267C70.0777 60.972 70.1234 60.5004 70.2999 60.0717C70.4764 59.643 70.7758 59.2765 71.1602 59.0186C71.5446 58.7607 71.9966 58.623 72.4591 58.623C73.0769 58.623 73.6695 58.8684 74.1073 59.3056C74.5451 59.7427 74.7924 60.336 74.7952 60.9556Z" fill="#48428E"/>
<path d="M78.5655 57.4721C78.359 57.5047 78.1481 57.4537 77.979 57.3304C77.81 57.2071 77.6966 57.0215 77.6639 56.8145C77.3872 55.0676 75.1639 54.1017 73.2171 54.0812C72.35 54.088 71.4842 54.1497 70.6249 54.2661L69.0163 54.4614C68.8192 54.458 68.6305 54.3808 68.4873 54.2449C68.3441 54.1089 68.2569 53.9242 68.2428 53.727C68.2286 53.5298 68.2886 53.3344 68.4109 53.1793C68.5332 53.0243 68.709 52.9208 68.9036 52.8892C69.4159 52.8892 69.9282 52.7967 70.4508 52.735C71.3714 52.6123 72.2987 52.5471 73.2274 52.5398C75.8913 52.5398 78.8011 53.9784 79.2212 56.6501C79.2293 56.8434 79.1673 57.0331 79.0468 57.1842C78.9263 57.3353 78.7553 57.4376 78.5655 57.4721Z" fill="#48428E"/>
<path d="M40.4304 58.2223C40.3272 58.2223 40.2251 58.2017 40.13 58.1619C40.0348 58.122 39.9485 58.0635 39.8761 57.9899C39.8037 57.9163 39.7465 57.829 39.708 57.7331C39.6695 57.6371 39.6503 57.5345 39.6517 57.431C39.6517 54.7696 42.2951 52.9097 44.9181 52.4576C45.8379 52.3203 46.7651 52.2379 47.6947 52.211L49.0779 52.1288C49.1802 52.122 49.2827 52.1355 49.3798 52.1686C49.4768 52.2016 49.5665 52.2534 49.6435 52.3212C49.7206 52.3889 49.7836 52.4712 49.8289 52.5634C49.8743 52.6556 49.9011 52.7558 49.9078 52.8583C49.9145 52.9609 49.9011 53.0638 49.8682 53.1611C49.8352 53.2584 49.7835 53.3483 49.716 53.4256C49.6484 53.5029 49.5664 53.5661 49.4745 53.6116C49.3826 53.657 49.2826 53.6839 49.1804 53.6907C48.7091 53.6907 48.2275 53.7626 47.7459 53.7832C46.8814 53.8043 46.0191 53.8798 45.164 54.0092C43.2377 54.3483 41.1988 55.6533 41.1988 57.431C41.1988 57.6391 41.1171 57.8388 40.9714 57.9869C40.8256 58.135 40.6276 58.2196 40.4201 58.2223H40.4304Z" fill="#48428E"/>
<path d="M60.2871 71.9301C59.7424 71.9379 59.2021 71.8314 58.701 71.6172C58.1998 71.4031 57.7489 71.0861 57.3773 70.6868C55.7686 69.0118 56.6805 67.0902 57.7461 64.8604C58.984 62.6207 59.6855 60.123 59.7953 57.5646C59.7953 57.3575 59.8773 57.1589 60.0234 57.0124C60.1694 56.866 60.3675 56.7837 60.574 56.7837C60.7805 56.7837 60.9786 56.866 61.1246 57.0124C61.2706 57.1589 61.3527 57.3575 61.3527 57.5646C61.2621 60.3548 60.5143 63.0837 59.1703 65.5283C58.074 67.8404 57.7359 68.7857 58.5248 69.6386C59.3137 70.4915 60.6662 70.5018 62.7461 69.9572C62.8444 69.9295 62.9472 69.9219 63.0484 69.935C63.1496 69.9481 63.2472 69.9816 63.3352 70.0334C63.4232 70.0852 63.4999 70.1543 63.5606 70.2366C63.6214 70.3188 63.665 70.4125 63.6887 70.5121C63.715 70.6112 63.7216 70.7147 63.708 70.8164C63.6944 70.9181 63.661 71.0161 63.6096 71.1049C63.5582 71.1937 63.4899 71.2714 63.4085 71.3336C63.3272 71.3959 63.2344 71.4414 63.1354 71.4677C62.2088 71.7399 61.252 71.8953 60.2871 71.9301Z" fill="#EFBA9E"/>
<path d="M50.4202 80.274C51.2911 83.1204 55.2665 87.7959 60.0513 87.7959C64.8362 87.7959 68.8116 83.1204 69.6825 80.274H50.4202Z" fill="white"/>
<path d="M61.1169 79.4314C61.1169 80.0579 60.9935 80.6783 60.7538 81.2568C60.5141 81.8354 60.1629 82.3608 59.7202 82.8029C59.2775 83.2449 58.7521 83.595 58.1742 83.8328C57.5963 84.0707 56.9772 84.1918 56.3525 84.1891C53.7398 84.1891 44.4673 81.1064 44.4673 81.1064C44.4673 81.1064 51.6394 74.6738 56.3525 74.6738C56.9772 74.671 57.5963 74.7921 58.1742 75.03C58.7521 75.2679 59.2775 75.6179 59.7202 76.06C60.1629 76.502 60.5141 77.0274 60.7538 77.606C60.9935 78.1845 61.1169 78.8049 61.1169 79.4314Z" fill="#48428E"/>
<path d="M39.7438 33.9099C39.7438 33.9099 31.2192 8.83713 64.129 12.3309C64.129 12.3309 75.7888 15.8246 80.0921 12.4747C80.0921 12.4953 95.6454 40.7947 39.7438 33.9099Z" fill="#48428E"/>
<path d="M35.2971 37.1468C35.2971 37.1468 29.8258 5.64136 68.4324 16.0507C68.4324 16.0507 81.6906 22.4011 87.4488 19.2259C87.4488 19.2259 94.4057 67.1725 35.2971 37.1468Z" fill="#48428E"/>
<path d="M65.2253 100.096H54.877C56.7622 96.4994 57.5306 93.5708 57.4692 91.2588C57.4664 90.918 57.5314 90.58 57.6601 90.2646C57.7889 89.9492 57.979 89.6626 58.2193 89.4216C58.4596 89.1806 58.7453 88.99 59.0598 88.8608C59.3743 88.7317 59.7113 88.6666 60.0511 88.6693C60.391 88.6666 60.7279 88.7317 61.0424 88.8608C61.3569 88.99 61.6426 89.1806 61.8829 89.4216C62.1232 89.6626 62.3133 89.9492 62.4421 90.2646C62.5709 90.58 62.6358 90.918 62.6331 91.2588C62.5716 93.5708 63.3298 96.4994 65.2253 100.096Z" fill="#48428E"/>
<path d="M42.7049 78.4655C42.7049 78.4655 43.8934 84.5693 56.3525 84.1891L51.5369 76.1021C51.5369 76.1021 45.9939 78.7121 44.498 76.472C43.1967 74.5196 45.4406 73.4612 45.4406 73.4612C45.4406 73.4612 41.6701 74.1394 42.7049 78.4655Z" fill="#48428E"/>
<path d="M58.9856 79.4314C58.9856 80.6932 59.4854 81.9033 60.375 82.7956C61.2647 83.6878 62.4713 84.1891 63.7294 84.1891C66.3524 84.1891 75.6249 81.1063 75.6249 81.1063C75.6249 81.1063 68.4528 74.6737 63.7294 74.6737C62.4713 74.6737 61.2647 75.175 60.375 76.0672C59.4854 76.9595 58.9856 78.1696 58.9856 79.4314Z" fill="#48428E"/>
<path d="M77.3873 78.4655C77.3873 78.4655 76.1988 84.5693 63.7295 84.1891L68.5656 76.1021C68.5656 76.1021 74.0983 78.7121 75.6045 76.472C76.9057 74.5196 74.6516 73.4612 74.6516 73.4612C74.6516 73.4612 78.4324 74.1394 77.3873 78.4655Z" fill="#48428E"/>
</g>
<defs>
<clipPath id="clip0">
<rect width="120" height="120" fill="white"/>
</clipPath>
</defs>
</svg>
