<svg width="120" height="121" viewBox="0 0 120 121" fill="none" xmlns="http://www.w3.org/2000/svg">
<path d="M60 120.445C93.1371 120.445 120 93.4822 120 60.2223C120 26.9625 93.1371 0 60 0C26.8629 0 0 26.9625 0 60.2223C0 93.4822 26.8629 120.445 60 120.445Z" fill="#37C8CC"/>
<path d="M95.9323 56.0471C92.8586 52.3655 87.4487 48.6427 88.4016 43.9635C90.7889 32.1782 86.9877 13.585 60 13.4204C39.8053 14.0169 24.836 32.497 20.2049 44.7657C16.559 54.3751 15.2898 64.7287 16.5061 74.9386C18.8934 91.8452 35.9733 105.852 60 105.852C84.0266 105.852 103.484 92.0098 103.484 74.9386C103.484 68.4803 100.707 61.8266 95.9323 56.0471Z" fill="#FF775F"/>
<path d="M75.9221 88.5544H43.7602C43.9753 89.1406 44.1803 89.737 44.3647 90.3438C44.8179 91.8663 45.1603 93.4198 45.3893 94.9921C45.4507 95.3417 45.4917 95.6914 45.543 96.0205C46.5613 103.463 44.6501 111.01 40.2151 117.061C52.9354 121.517 66.7796 121.546 79.5184 117.144C77.8758 114.984 76.5668 112.588 75.6352 110.037C74.8747 107.931 74.3624 105.743 74.1085 103.517C73.7774 100.552 73.8567 97.5551 74.3442 94.6116C74.6802 92.5474 75.2085 90.5195 75.9221 88.5544Z" fill="#F9D8BC"/>
<path d="M75.6353 110.037C64.0574 110.037 53.2275 113.75 45.5636 96.0514C45.5636 95.7017 45.4713 95.352 45.4099 95.023C45.1809 93.4507 44.8385 91.8971 44.3853 90.3747C44.2008 89.7679 43.9959 89.1714 43.7808 88.5853H49.3853C56.2004 90.2131 62.9187 92.225 69.5082 94.6116H74.3443C73.8549 97.5618 73.7756 100.566 74.1086 103.538C74.364 105.757 74.8764 107.938 75.6353 110.037Z" fill="#EFBA9E"/>
<path d="M41.291 66.3927C41.0871 65.7884 40.7414 65.2423 40.2831 64.8002C39.8249 64.3581 39.2674 64.0331 38.6578 63.8525C38.052 63.6117 37.3994 63.5125 36.7497 63.5624C36.1 63.6123 35.4701 63.81 34.9078 64.1405C33.5861 65.1689 33.9447 66.9171 34.6107 68.47C35.2767 70.0229 36.209 71.6683 35.8094 73.0977C35.5431 74.0541 34.7029 74.8357 34.7849 75.8538C34.9432 76.4865 35.2762 77.0615 35.7457 77.5127C36.2151 77.9639 36.8019 78.2729 37.4385 78.4042C38.8525 78.7847 40.3586 78.4042 40.8709 77.5198L41.291 66.3927Z" fill="#EFBA9E"/>
<path d="M38.9856 77.7563C38.9856 78.2201 38.8486 78.6734 38.5919 79.059C38.3352 79.4446 37.9704 79.7451 37.5435 79.9226C37.1167 80.1 36.647 80.1465 36.1938 80.056C35.7406 79.9655 35.3244 79.7422 34.9977 79.4143C34.671 79.0864 34.4485 78.6686 34.3584 78.2138C34.2682 77.7589 34.3145 77.2875 34.4913 76.859C34.6681 76.4306 34.9675 76.0644 35.3517 75.8068C35.7359 75.5491 36.1875 75.4116 36.6495 75.4116C37.2691 75.4116 37.8633 75.6586 38.3014 76.0984C38.7395 76.5381 38.9856 77.1345 38.9856 77.7563Z" fill="#48428E"/>
<path d="M79.3955 66.3926C79.602 65.7881 79.9497 65.242 80.4096 64.8001C80.8695 64.3581 81.4282 64.0332 82.039 63.8525C82.6431 63.6119 83.2939 63.5127 83.942 63.5626C84.5901 63.6125 85.2182 63.8101 85.7787 64.1405C87.1107 65.1689 86.8033 66.9171 86.0758 68.47C85.3484 70.0229 84.4775 71.6683 84.8771 73.0977C85.1435 74.0541 85.9836 74.8357 85.9017 75.8538C85.7392 76.4862 85.4036 77.0603 84.9328 77.5111C84.4619 77.9618 83.8747 78.2712 83.2377 78.4042C81.834 78.7847 80.3279 78.4042 79.8156 77.5198L79.3955 66.3926Z" fill="#EFBA9E"/>
<path d="M81.711 77.7563C81.711 78.2214 81.8488 78.6759 82.1069 79.0621C82.365 79.4484 82.7316 79.7488 83.1603 79.9254C83.5889 80.1019 84.0602 80.1465 84.5142 80.0535C84.9682 79.9605 85.3843 79.7341 85.7098 79.4031C86.0352 79.0721 86.2552 78.6514 86.3419 78.1946C86.4285 77.7377 86.3779 77.2653 86.1963 76.8375C86.0148 76.4096 85.7106 76.0456 85.3224 75.7917C84.9342 75.5378 84.4796 75.4055 84.0163 75.4116C83.4012 75.417 82.8133 75.6668 82.3813 76.1062C81.9493 76.5457 81.7082 77.139 81.711 77.7563Z" fill="#48428E"/>
<path d="M75.584 38.4102H45.0819C38.9344 38.4102 34.7438 43.5522 35.7786 49.7225C37.0108 57.5593 37.4366 65.5026 37.0491 73.4268C36.67 81.911 45.5225 94.4676 52.8278 102.366C53.7984 103.398 54.9674 104.222 56.264 104.789C57.5607 105.355 58.9583 105.652 60.3725 105.662C61.7867 105.672 63.1882 105.394 64.4924 104.845C65.7966 104.296 66.9765 103.488 67.961 102.468C75.379 94.6116 84.3545 82.0447 83.6577 73.4268C83.2377 65.5036 83.6532 57.558 84.8975 49.7225C85.9323 43.6036 81.7725 38.4102 75.584 38.4102Z" fill="#F9D8BC"/>
<path d="M51.834 84.8522C52.6024 87.6906 56.1168 89.8399 60.3586 89.8399C64.6004 89.8399 68.1147 87.6906 68.8832 84.8522H51.834Z" fill="white"/>
<path d="M49.375 65.8887C49.375 66.3504 49.2386 66.8018 48.9831 67.1857C48.7275 67.5696 48.3643 67.8688 47.9393 68.0455C47.5143 68.2222 47.0466 68.2684 46.5955 68.1783C46.1443 68.0882 45.7299 67.8659 45.4046 67.5394C45.0793 67.213 44.8578 66.797 44.7681 66.3442C44.6783 65.8913 44.7244 65.422 44.9004 64.9954C45.0765 64.5688 45.3746 64.2042 45.7571 63.9477C46.1395 63.6912 46.5892 63.5543 47.0492 63.5543C47.6661 63.5543 48.2576 63.8003 48.6938 64.238C49.13 64.6758 49.375 65.2696 49.375 65.8887Z" fill="#48428E"/>
<path d="M75.9734 65.8887C75.9714 66.348 75.8339 66.7963 75.5782 67.1772C75.3225 67.558 74.9602 67.8543 74.5369 68.0286C74.1136 68.203 73.6483 68.2475 73.1998 68.1567C72.7513 68.0659 72.3397 67.8437 72.0169 67.5183C71.6941 67.1928 71.4746 66.7787 71.386 66.3281C71.2975 65.8776 71.344 65.4108 71.5195 64.9867C71.6951 64.5626 71.9919 64.2002 72.3724 63.9453C72.753 63.6904 73.2003 63.5543 73.6578 63.5543C73.9628 63.5543 74.2647 63.6148 74.5463 63.7322C74.828 63.8496 75.0837 64.0218 75.2988 64.2387C75.514 64.4556 75.6843 64.713 75.8001 64.9962C75.9159 65.2793 75.9748 65.5827 75.9734 65.8887Z" fill="#48428E"/>
<path d="M42.2746 60.6748C42.0907 60.6745 41.9129 60.609 41.7726 60.4897C41.6145 60.3541 41.5161 60.1614 41.4988 59.9534C41.4816 59.7454 41.5468 59.539 41.6803 59.379C42.8855 58.0937 44.527 57.3084 46.2808 57.1783C47.2055 57.122 48.1327 57.122 49.0574 57.1783C49.6926 57.1783 50.3279 57.1783 50.9529 57.1783C51.1598 57.1725 51.3608 57.2476 51.5137 57.3876C51.6666 57.5276 51.7594 57.7217 51.7726 57.929C51.7781 58.032 51.7629 58.1351 51.7281 58.2321C51.6932 58.3291 51.6393 58.4181 51.5696 58.4938C51.4999 58.5696 51.4157 58.6305 51.3221 58.6731C51.2285 58.7156 51.1273 58.7388 51.0246 58.7414C50.3586 58.7414 49.6926 58.7414 48.9754 58.7414C48.1155 58.6896 47.2533 58.6896 46.3935 58.7414C45.0432 58.837 43.7746 59.426 42.8279 60.3971C42.7603 60.4799 42.6761 60.5473 42.5807 60.5952C42.4854 60.643 42.3811 60.6702 42.2746 60.6748Z" fill="#48428E"/>
<path d="M77.5923 60.6748C77.4791 60.6747 77.3673 60.6498 77.2646 60.6018C77.162 60.5539 77.071 60.484 76.998 60.3972C76.0539 59.4283 74.7894 58.8394 73.4427 58.7414C72.5794 58.6896 71.7138 58.6896 70.8505 58.7414C70.1845 58.7414 69.5185 58.7414 68.8013 58.7414C68.6986 58.7388 68.5974 58.7156 68.5038 58.6731C68.4102 58.6305 68.326 58.5696 68.2563 58.4939C68.1866 58.4181 68.1327 58.3291 68.0978 58.2321C68.063 58.1351 68.0478 58.032 68.0534 57.929C68.0665 57.7235 68.1578 57.531 68.3085 57.3912C68.4592 57.2515 68.6576 57.1752 68.8628 57.1783C69.4878 57.1783 70.123 57.1783 70.7685 57.1783C71.6932 57.1221 72.6205 57.1221 73.5452 57.1783C75.2953 57.3109 76.9327 58.096 78.1353 59.3791C78.2033 59.457 78.2552 59.5478 78.288 59.6461C78.3207 59.7444 78.3336 59.8482 78.326 59.9516C78.3184 60.055 78.2903 60.1558 78.2435 60.2481C78.1967 60.3405 78.1321 60.4226 78.0534 60.4897C77.9228 60.5984 77.7615 60.6631 77.5923 60.6748Z" fill="#48428E"/>
<path d="M60.5021 78.034C59.2983 77.9946 58.1185 77.6854 57.0492 77.129C56.1374 76.7177 56.455 75.8127 57.1415 73.8073C58.3805 70.5899 59.0731 67.1868 59.1906 63.7394C59.1906 63.5321 59.2727 63.3333 59.4187 63.1868C59.5647 63.0402 59.7628 62.9578 59.9693 62.9578C60.1758 62.9578 60.3739 63.0402 60.5199 63.1868C60.666 63.3333 60.748 63.5321 60.748 63.7394C60.6233 67.3635 59.8925 70.9407 58.5861 74.3215C58.4017 74.8871 58.1865 75.5042 58.0841 75.8847C59.3669 76.4875 60.8264 76.5937 62.1824 76.1829C62.282 76.1567 62.3858 76.1505 62.4878 76.1648C62.5897 76.1791 62.6878 76.2135 62.7765 76.2661C62.8651 76.3187 62.9424 76.3885 63.004 76.4713C63.0656 76.5541 63.1102 76.6483 63.1353 76.7485C63.1614 76.8485 63.1676 76.9526 63.1533 77.0549C63.1391 77.1573 63.1048 77.2558 63.0524 77.3447C63 77.4337 62.9305 77.5113 62.848 77.5731C62.7655 77.6349 62.6716 77.6797 62.5718 77.7049C61.8986 77.9021 61.2031 78.0127 60.5021 78.034Z" fill="#EFBA9E"/>
<path d="M48.7704 38.184C49.252 36.806 49.6925 35.2325 49.0266 33.9368C48.6747 33.3498 48.165 32.8743 47.5561 32.5651C46.9471 32.2558 46.2635 32.1253 45.5839 32.1885C44.2236 32.3458 42.9276 32.8562 41.8237 33.6694C37.4897 36.5489 34.4671 41.1149 32.6024 46.01C31.4036 49.0438 25.4303 67.0303 30.2663 67.8838C36.0553 68.9122 41.4343 55.2347 43.2479 51.553C45.3695 47.2188 47.214 42.7534 48.7704 38.184Z" fill="#FF775F"/>
<path d="M45.543 34.0705C45.7069 39.3769 49.9385 43.6242 54.3135 46.5962C62.3094 52.0041 71.621 55.1254 81.2499 55.6254C83.0122 55.718 84.9282 55.6254 86.3729 54.5971C88.3094 53.1676 88.627 50.391 88.2171 47.9434C87.1926 41.917 82.6741 36.9191 77.3258 34.0088C71.9774 31.0984 65.8299 29.9878 59.7745 29.3502L45.543 34.0705Z" fill="#FF775F"/>
</svg>
