<svg width="171" height="43" viewBox="0 0 171 43" fill="none" xmlns="http://www.w3.org/2000/svg">
<path d="M15.3871 37.7571C15.1081 37.2765 14.9685 36.7273 14.9685 35.9721V29.2441H9.59644V36.1094C9.59644 37.7571 9.87551 38.9928 10.4336 39.8853C10.9918 40.7778 12.1081 41.9449 13.6429 42.4941L16.922 39.2675C16.1546 38.7182 15.6662 38.169 15.3871 37.7571Z" fill="#F67660"/>
<path d="M13.5349 0C6.06977 0 0 5.97251 0 13.318C0 20.5949 6.06977 26.5674 13.5349 26.5674C21 26.5674 27 20.5949 27 13.318C27 5.97251 20.9302 0 13.5349 0ZM13.4651 21.2814C9 21.2814 5.37209 17.7116 5.37209 13.318C5.37209 8.92444 9 5.35467 13.4651 5.35467C17.9302 5.35467 21.5581 8.92444 21.5581 13.318C21.5581 17.7116 17.9302 21.2814 13.4651 21.2814Z" fill="#48448C"/>
<path d="M34.9073 30.843C33.6171 29.7247 33 28.1944 33 26.1933V12.0676H36.8707V26.1933C36.8707 28.3121 38.1049 29.3715 40.5732 29.3715C43.0415 29.3715 44.2756 28.3121 44.2756 26.1933V12.0676H48.1463V26.1933C48.1463 28.1944 47.5293 29.7247 46.239 30.843C44.9488 31.9612 43.0415 32.5498 40.5732 32.5498C38.1049 32.5498 36.1415 31.9612 34.9073 30.843Z" fill="#48448C"/>
<path d="M61.161 19.1304L60.2634 22.2497C59.8707 21.9554 59.5342 21.7789 59.1976 21.6611C58.861 21.5434 58.4122 21.4846 57.9073 21.4846C56.7293 21.4846 55.8317 22.3086 55.3268 24.0154V32.1375H51.7927V22.8383C51.7927 22.3086 51.6805 21.8966 51.5122 21.6023C51.3439 21.2492 51.0073 20.896 50.5024 20.5429L52.8585 18.3652C53.4756 18.7184 53.9805 19.0715 54.3171 19.4835C54.6537 19.8366 54.9342 20.3075 55.1025 20.8372C55.439 20.072 55.9439 19.4835 56.561 19.0715C57.1781 18.6007 57.9073 18.4241 58.7488 18.4241C59.7025 18.3652 60.4878 18.6007 61.161 19.1304Z" fill="#48448C"/>
<path d="M66.4341 30.843V32.1378H62.9V15.1878C62.9 14.6581 62.7878 14.2461 62.6195 13.9518C62.4512 13.5987 62.0585 13.2456 61.6097 12.8925L63.9658 10.7148C64.9195 11.1857 65.5366 11.7742 65.9293 12.4216C66.2658 13.069 66.4902 13.9518 66.4902 15.1289V20.1904C67.4439 19.0133 68.7341 18.4248 70.4732 18.4248C71.6512 18.4248 72.7171 18.719 73.5585 19.3076C74.4 19.8961 75.0171 20.7201 75.4658 21.7206C75.9146 22.7211 76.0829 23.8394 76.0829 25.0165V25.9581C76.0829 27.1352 75.8585 28.2534 75.4658 29.254C75.0732 30.2545 74.4 31.0784 73.5585 31.667C72.7171 32.2555 71.7073 32.5498 70.4732 32.5498C68.678 32.491 67.3317 31.9613 66.4341 30.843ZM71.6512 28.5477C72.1561 27.8415 72.4366 26.9586 72.4366 25.8993V24.9576C72.4366 23.8982 72.1561 23.0154 71.6512 22.3092C71.1463 21.6029 70.361 21.1909 69.3512 21.1909C67.8366 21.1909 66.8268 21.956 66.4341 23.5451V27.2529C66.8268 28.842 67.8366 29.6071 69.3512 29.6071C70.361 29.6659 71.1463 29.254 71.6512 28.5477Z" fill="#48448C"/>
<path d="M89.7147 29.254C89.883 29.6072 90.2757 29.9603 90.7245 30.3135L88.3684 32.4912C87.3025 31.9615 86.6293 31.2552 86.2367 30.3723C85.844 30.9609 85.283 31.4906 84.6098 31.8438C83.9367 32.2558 83.0391 32.4324 82.0293 32.4324C80.7391 32.4324 79.7293 32.0792 78.944 31.3729C78.1586 30.6666 77.822 29.666 77.822 28.43C77.822 27.3117 78.1025 26.37 78.6635 25.7814C79.2245 25.1339 79.8976 24.7219 80.6269 24.4865C81.3562 24.2511 82.1976 24.0745 83.0952 24.0156L84.3854 23.8979C84.8903 23.839 85.283 23.7213 85.5074 23.6036C85.7318 23.4859 85.844 23.2505 85.844 22.9562C85.7879 22.3676 85.6196 21.8967 85.283 21.4847C84.9464 21.0727 84.3854 20.8961 83.4879 20.8961C82.9269 20.8961 82.422 21.0139 81.9732 21.2493C81.5245 21.4847 81.0757 21.8379 80.6269 22.3676L78.2147 20.6018C78.7196 19.8955 79.3928 19.307 80.2342 18.9538C81.0196 18.5418 82.1415 18.3652 83.544 18.3652C87.4708 18.3652 89.4342 20.0133 89.4342 23.3682V28.018C89.4342 28.5477 89.4903 28.9597 89.7147 29.254ZM85.1147 29.1363C85.6196 28.6654 85.9001 28.0768 85.9001 27.3705V26.1934C85.6196 26.3111 85.0586 26.4288 84.2171 26.4877L83.3757 26.5465C82.7586 26.6054 82.2537 26.7231 81.8049 27.0174C81.4123 27.2528 81.1879 27.7237 81.1879 28.3711C81.1879 28.842 81.3562 29.254 81.6367 29.4894C81.9732 29.7837 82.3659 29.9014 82.8708 29.9014C83.8806 29.8426 84.6098 29.6072 85.1147 29.1363Z" fill="#48448C"/>
<path d="M103.346 19.5423C104.076 20.3663 104.468 21.4846 104.468 22.956V32.1375H100.934V23.3091C100.934 22.6617 100.766 22.132 100.429 21.7789C100.093 21.4257 99.644 21.1903 99.083 21.1903C97.9049 21.1903 97.0074 21.9554 96.5025 23.4268V32.1375H92.9684V22.8383C92.9684 22.3086 92.8562 21.8966 92.6879 21.6023C92.5196 21.2492 92.1269 20.896 91.6781 20.5429L94.0342 18.3652C94.5952 18.6595 95.1001 19.0126 95.4366 19.3658C95.7732 19.7189 96.0537 20.1309 96.222 20.5429C96.6147 19.8955 97.1196 19.3658 97.7927 18.9538C98.4659 18.5418 99.2513 18.3652 100.205 18.3652C101.495 18.3652 102.561 18.7184 103.346 19.5423Z" fill="#48448C"/>
<path d="M115.463 30.4888C114.061 29.2528 113.388 27.4282 113.388 25.015V18.8938C113.388 16.4807 114.061 14.6561 115.463 13.4201C116.866 12.184 118.829 11.5955 121.41 11.5955C123.261 11.5955 124.832 11.8897 126.01 12.5372C127.188 13.1846 128.141 14.1263 128.815 15.3624L125.898 17.4812C125.337 16.5395 124.72 15.8332 124.102 15.4212C123.485 15.0092 122.588 14.7738 121.41 14.7738C119.951 14.7738 118.885 15.1269 118.212 15.8332C117.539 16.5395 117.202 17.5401 117.202 18.9527V25.0739C117.202 26.4276 117.539 27.4871 118.212 28.1934C118.885 28.8997 119.951 29.2528 121.41 29.2528C122.7 29.2528 123.654 29.0174 124.327 28.6054C125 28.1345 125.337 27.4871 125.337 26.6631V25.7802C125.337 24.603 124.832 24.0145 123.766 24.0145H120.624V20.8361H124.832C126.29 20.8361 127.356 21.1893 128.029 21.8956C128.702 22.6019 129.095 23.7202 129.095 25.1916V26.9574C129.095 28.6642 128.422 30.018 127.02 31.0185C125.617 32.0191 123.766 32.49 121.41 32.49C118.829 32.3134 116.81 31.7248 115.463 30.4888Z" fill="#48448C"/>
<path d="M143.68 29.0186C143.849 29.3718 144.241 29.7249 144.69 30.0781L142.334 32.2559C141.717 31.9027 141.268 31.6084 140.932 31.1964C140.595 30.7844 140.315 30.4312 140.146 29.9015C139.305 31.4907 138.015 32.2559 136.219 32.2559C134.761 32.2559 133.695 31.8438 132.91 31.0787C132.124 30.2547 131.732 29.1363 131.732 27.6649V18.4829H135.266V27.3117C135.266 27.9592 135.434 28.4889 135.771 28.8421C136.107 29.2541 136.612 29.4306 137.229 29.4306C138.407 29.4306 139.305 28.6066 139.81 26.9586V18.4829H143.344V27.7237C143.344 28.3123 143.456 28.7243 143.68 29.0186Z" fill="#48448C"/>
<path d="M156.471 18.9553L155.573 22.0747C155.181 21.7804 154.844 21.6038 154.507 21.4861C154.171 21.3684 153.722 21.3095 153.217 21.3095C152.039 21.3095 151.142 22.1335 150.637 23.8403V31.9624H147.102V22.6632C147.102 22.1335 146.99 21.7215 146.822 21.4272C146.654 21.0741 146.317 20.721 145.812 20.3678L148.168 18.1902C148.785 18.5433 149.29 18.8965 149.627 19.3084C150.02 19.6616 150.244 20.1324 150.412 20.6621C150.749 19.897 151.254 19.3084 151.871 18.8965C152.488 18.4256 153.217 18.249 154.059 18.249C155.012 18.1902 155.854 18.4256 156.471 18.9553Z" fill="#48448C"/>
<path d="M169.99 29.0186C170.159 29.3718 170.551 29.7249 171 30.0781L168.644 32.2559C168.027 31.9027 167.578 31.6084 167.242 31.1964C166.905 30.8432 166.624 30.4312 166.456 29.9015C165.615 31.4907 164.324 32.2559 162.529 32.2559C161.071 32.2559 160.005 31.8438 159.22 31.0787C158.434 30.2547 158.042 29.1363 158.042 27.6649V18.4829H161.576V27.3117C161.576 27.9592 161.744 28.4889 162.081 28.8421C162.417 29.2541 162.922 29.4306 163.539 29.4306C164.717 29.4306 165.615 28.6066 166.12 26.9586V18.4829H169.654V27.7237C169.71 28.3123 169.766 28.7243 169.99 29.0186Z" fill="#48448C"/>
</svg>
