<svg viewBox="0 0 194 40" fill="none" xmlns="http://www.w3.org/2000/svg">
<path d="M35.2022 28.4976C33.6973 27.2698 32.9775 25.5896 32.9775 23.3925V7.88367H37.4923V23.3925C37.4923 25.7189 38.9318 26.882 41.8108 26.882C44.6898 26.882 46.1293 25.7189 46.1293 23.3925V7.88367H50.6441V23.3925C50.6441 25.5896 49.9243 27.2698 48.4194 28.4976C46.9145 29.7253 44.6898 30.3715 41.8108 30.3715C38.9318 30.3715 36.6417 29.7253 35.2022 28.4976Z" fill="#48448C"/>
<path d="M65.8242 15.6381L64.7773 19.063C64.3193 18.7399 63.9267 18.546 63.5341 18.4168C63.1415 18.2875 62.6181 18.2229 62.0292 18.2229C60.6551 18.2229 59.6082 19.1276 59.0193 21.0016V29.9192H54.8971V19.7092C54.8971 19.1276 54.7663 18.6753 54.57 18.3522C54.3737 17.9644 53.9811 17.5767 53.3922 17.189L56.1403 14.798C56.8601 15.1858 57.449 15.5735 57.8415 16.0258C58.2341 16.4135 58.5613 16.9305 58.7576 17.5121C59.1502 16.672 59.7391 16.0258 60.4588 15.5735C61.1786 15.0565 62.0292 14.8627 63.0107 14.8627C64.123 14.798 65.039 15.0565 65.8242 15.6381Z" fill="#48448C"/>
<path d="M71.9748 28.4976V29.9192H67.8526V11.3085C67.8526 10.727 67.7217 10.2746 67.5254 9.95152C67.3291 9.5638 66.8711 9.17608 66.3477 8.78835L69.0958 6.3974C70.2081 6.91436 70.9279 7.56057 71.3859 8.27139C71.7785 8.98221 72.0402 9.95152 72.0402 11.2439V16.8013C73.1526 15.5089 74.6575 14.8627 76.6859 14.8627C78.0599 14.8627 79.3031 15.1858 80.2846 15.832C81.2661 16.4782 81.9858 17.3829 82.5093 18.4814C83.0327 19.58 83.229 20.8077 83.229 22.1001V23.1341C83.229 24.4265 82.9673 25.6543 82.5093 26.7528C82.0513 27.8514 81.2661 28.756 80.2846 29.4022C79.3031 30.0485 78.1254 30.3716 76.6859 30.3716C74.592 30.3069 73.0217 29.7253 71.9748 28.4976ZM78.0599 25.9774C78.6488 25.2019 78.976 24.2326 78.976 23.0695V22.0355C78.976 20.8724 78.6488 19.9031 78.0599 19.1276C77.471 18.3522 76.555 17.8998 75.3772 17.8998C73.6106 17.8998 72.4328 18.7399 71.9748 20.4846V24.5557C72.4328 26.3005 73.6106 27.1405 75.3772 27.1405C76.555 27.2052 77.471 26.7528 78.0599 25.9774Z" fill="#48448C"/>
<path d="M99.1289 26.7528C99.3252 27.1405 99.7832 27.5282 100.307 27.916L97.5586 30.3069C96.3154 29.7253 95.5302 28.9499 95.0722 27.9806C94.6141 28.6268 93.9598 29.2084 93.1746 29.5961C92.3895 30.0484 91.3426 30.2423 90.1648 30.2423C88.6599 30.2423 87.4821 29.8546 86.566 29.0791C85.65 28.3037 85.2574 27.2051 85.2574 25.8481C85.2574 24.6203 85.5846 23.5864 86.2389 22.9402C86.8932 22.2294 87.6784 21.777 88.529 21.5185C89.3796 21.2601 90.3611 21.0662 91.408 21.0016L92.9129 20.8723C93.5018 20.8077 93.9598 20.6785 94.2216 20.5492C94.4833 20.42 94.6141 20.1615 94.6141 19.8384C94.5487 19.1922 94.3524 18.6753 93.9598 18.2229C93.5672 17.7706 92.9129 17.5767 91.866 17.5767C91.2117 17.5767 90.6228 17.7059 90.0994 17.9644C89.5759 18.2229 89.0525 18.6106 88.529 19.1922L85.7154 17.2536C86.3043 16.4782 87.0895 15.832 88.071 15.4442C88.987 14.9919 90.2957 14.798 91.9314 14.798C96.5117 14.798 98.8018 16.6074 98.8018 20.2908V25.3958C98.8018 25.9774 98.8672 26.4297 99.1289 26.7528ZM93.7635 26.6236C94.3524 26.1066 94.6796 25.4604 94.6796 24.6849V23.3925C94.3524 23.5218 93.6981 23.651 92.7166 23.7156L91.7351 23.7803C91.0154 23.8449 90.4265 23.9741 89.9031 24.2972C89.445 24.5557 89.1833 25.0727 89.1833 25.7835C89.1833 26.3005 89.3796 26.7528 89.7068 27.0113C90.0994 27.3344 90.5574 27.4636 91.1463 27.4636C92.324 27.399 93.1746 27.1405 93.7635 26.6236Z" fill="#48448C"/>
<path d="M115.029 16.0904C115.879 16.9951 116.337 18.2229 116.337 19.8384V29.9192H112.215V20.2261C112.215 19.5153 112.019 18.9337 111.626 18.546C111.234 18.1583 110.71 17.8998 110.056 17.8998C108.682 17.8998 107.635 18.7399 107.046 20.3554V29.9192H102.924V19.7092C102.924 19.1276 102.793 18.6753 102.597 18.3522C102.4 17.9644 101.942 17.5767 101.419 17.189L104.167 14.798C104.821 15.1211 105.41 15.5089 105.803 15.8966C106.196 16.2843 106.523 16.7366 106.719 17.189C107.177 16.4782 107.766 15.8966 108.551 15.4442C109.336 14.9919 110.252 14.798 111.365 14.798C112.87 14.798 114.113 15.1858 115.029 16.0904Z" fill="#48448C"/>
<path d="M129.162 28.1098C127.526 26.7528 126.741 24.7496 126.741 22.1001V15.3796C126.741 12.7302 127.526 10.727 129.162 9.36993C130.798 8.0129 133.088 7.3667 136.098 7.3667C138.257 7.3667 140.089 7.6898 141.463 8.40062C142.837 9.11145 143.95 10.1454 144.735 11.5024L141.332 13.8287C140.678 12.7948 139.958 12.0194 139.239 11.567C138.519 11.1147 137.472 10.8562 136.098 10.8562C134.397 10.8562 133.153 11.2439 132.368 12.0194C131.583 12.7948 131.19 13.8934 131.19 15.4442V22.1648C131.19 23.651 131.583 24.8142 132.368 25.5896C133.153 26.3651 134.397 26.7528 136.098 26.7528C137.603 26.7528 138.715 26.4943 139.5 26.042C140.285 25.525 140.678 24.8142 140.678 23.9095V22.9402C140.678 21.6478 140.089 21.0016 138.846 21.0016H135.182V17.5121H140.089C141.79 17.5121 143.034 17.8998 143.819 18.6753C144.604 19.4507 145.062 20.6785 145.062 22.294V24.2326C145.062 26.1066 144.277 27.5929 142.641 28.6914C141.005 29.79 138.846 30.3069 136.098 30.3069C133.088 30.1131 130.732 29.4669 129.162 28.1098Z" fill="#48448C"/>
<path d="M162.074 26.4943C162.27 26.882 162.728 27.2698 163.252 27.6575L160.504 30.0484C159.784 29.6607 159.261 29.3376 158.868 28.8853C158.475 28.4329 158.148 28.0452 157.952 27.4636C156.97 29.2084 155.466 30.0484 153.372 30.0484C151.671 30.0484 150.427 29.5961 149.511 28.756C148.595 27.8514 148.137 26.6236 148.137 25.0081V14.9273H152.259V24.6203C152.259 25.3312 152.456 25.9127 152.848 26.3005C153.241 26.7528 153.83 26.9467 154.549 26.9467C155.924 26.9467 156.97 26.042 157.559 24.2326V14.9273H161.682V25.0727C161.682 25.7189 161.812 26.1712 162.074 26.4943Z" fill="#48448C"/>
<path d="M176.993 15.4443L175.946 18.8691C175.488 18.546 175.095 18.3522 174.702 18.2229C174.31 18.0937 173.786 18.0291 173.198 18.0291C171.824 18.0291 170.777 18.9338 170.188 20.8077V29.7253H166.066V19.5153C166.066 18.9338 165.935 18.4814 165.738 18.1583C165.542 17.7706 165.149 17.3829 164.561 16.9951L167.309 14.6042C168.028 14.9919 168.617 15.3796 169.01 15.832C169.468 16.2197 169.73 16.7367 169.926 17.3182C170.319 16.4782 170.907 15.832 171.627 15.3796C172.347 14.8627 173.198 14.6688 174.179 14.6688C175.291 14.6042 176.273 14.8627 176.993 15.4443Z" fill="#48448C"/>
<path d="M192.762 26.4943C192.958 26.882 193.416 27.2698 193.939 27.6575L191.191 30.0484C190.472 29.6607 189.948 29.3376 189.555 28.8853C189.163 28.4976 188.836 28.0452 188.639 27.4636C187.658 29.2084 186.153 30.0484 184.059 30.0484C182.358 30.0484 181.115 29.5961 180.199 28.756C179.283 27.8514 178.825 26.6236 178.825 25.0081V14.9273H182.947V24.6203C182.947 25.3312 183.143 25.9127 183.536 26.3005C183.928 26.7528 184.517 26.9467 185.237 26.9467C186.611 26.9467 187.658 26.042 188.247 24.2326V14.9273H192.369V25.0727C192.434 25.7189 192.5 26.1712 192.762 26.4943Z" fill="#48448C"/>
<path d="M15.5727 35.5412C15.311 35.0888 15.1801 34.5719 15.1801 33.8611V27.5283H10.1419V33.9903C10.1419 35.5412 10.4036 36.7043 10.9271 37.5444C11.4505 38.3845 12.4974 39.483 13.9369 40L17.0122 36.9628C16.2925 36.4459 15.8345 35.9289 15.5727 35.5412Z" fill="#F67660"/>
<path d="M12.6937 0C5.69255 0 0 5.62197 0 12.5363C0 19.3861 5.69255 25.0081 12.6937 25.0081C19.6949 25.0081 25.322 19.3861 25.322 12.5363C25.322 5.62197 19.6295 0 12.6937 0ZM12.6283 20.0323C8.44068 20.0323 5.03824 16.6721 5.03824 12.5363C5.03824 8.40065 8.44068 5.04039 12.6283 5.04039C16.8159 5.04039 20.2184 8.40065 20.2184 12.5363C20.2184 16.6721 16.8159 20.0323 12.6283 20.0323Z" fill="#48448C"/>
</svg>
