<svg width="182" height="180" viewBox="0 0 182 180" fill="none" xmlns="http://www.w3.org/2000/svg">
<circle cx="90" cy="90" r="90" fill="#DFE3E9"/>
<g filter="url(#filter0_d)">
<rect x="5.46143" y="32" width="168.077" height="115" rx="4" fill="#FFFFFF"/>
</g>
<path d="M6.7251 36.2638C6.7251 34.6069 8.06824 33.2638 9.7251 33.2638H169.275C170.931 33.2638 172.275 34.6069 172.275 36.2638V40.8462H6.7251V36.2638Z" fill="#E6EBF1"/>
<circle cx="168.483" cy="37.055" r="1.26374" fill="#48448C"/>
<circle cx="164.692" cy="37.055" r="1.26374" fill="#48448C"/>
<circle cx="160.901" cy="37.055" r="1.26374" fill="#48448C"/>
<rect x="33.2637" y="53.4835" width="44.2308" height="5.05494" rx="2" fill="#ADB8CA"/>
<rect x="62.3296" y="63.5934" width="84.6703" height="42.967" rx="3" fill="#E1E1E1" fill-opacity="0.6"/>
<rect x="85.0767" y="69.9121" width="29.0659" height="3.79121" rx="1.8956" fill="#ADB8CA"/>
<rect x="85.0767" y="76.2307" width="46.7582" height="3.79121" rx="1.8956" fill="#ADB8CA"/>
<rect x="85.0767" y="83.8132" width="7.58242" height="3.79121" rx="1.8956" fill="#ADB8CA"/>
<rect x="85.0767" y="90.1318" width="7.58242" height="3.79121" rx="1.8956" fill="#ADB8CA"/>
<rect x="85.0767" y="96.4506" width="7.58242" height="3.79121" rx="1.8956" fill="#ADB8CA"/>
<path d="M62.3296 113.352C62.3296 111.695 63.6727 110.352 65.3296 110.352H144C145.657 110.352 147 111.695 147 113.352V147H62.3296V113.352Z" fill="#E1E1E1" fill-opacity="0.6"/>
<rect x="95.1865" y="83.8132" width="25.2747" height="3.79121" rx="1.8956" fill="#C8C8C9"/>
<rect x="95.1865" y="90.1318" width="36.6483" height="3.79121" rx="1.8956" fill="#C8C8C9"/>
<rect x="95.1865" y="96.4506" width="30.3297" height="3.79121" rx="1.8956" fill="#C8C8C9"/>
<rect x="85.0767" y="116.67" width="29.0659" height="3.79121" rx="1.8956" fill="#ADB8CA"/>
<rect x="85.0767" y="122.989" width="46.7582" height="3.79121" rx="1.8956" fill="#ADB8CA"/>
<rect x="85.0767" y="130.571" width="7.58242" height="3.79121" rx="1.8956" fill="#ADB8CA"/>
<rect x="85.0767" y="136.89" width="7.58242" height="3.79121" rx="1.8956" fill="#ADB8CA"/>
<rect x="85.0767" y="143.209" width="7.58242" height="3.79121" rx="1.8956" fill="#ADB8CA"/>
<rect x="95.1865" y="130.571" width="25.2747" height="3.79121" rx="1.8956" fill="#C8C8C9"/>
<rect x="95.1865" y="136.89" width="36.6483" height="3.79121" rx="1.8956" fill="#C8C8C9"/>
<rect x="95.1865" y="143.209" width="30.3297" height="3.79121" rx="1.8956" fill="#C8C8C9"/>
<rect x="33.2637" y="63.5934" width="25.2747" height="31.5934" rx="2" fill="#EDEDED"/>
<rect x="33.2637" y="97.7142" width="25.2747" height="25.2747" rx="2" fill="#EDEDED"/>
<path d="M33.2637 128.78C33.2637 127.676 34.1591 126.78 35.2637 126.78H56.5384C57.643 126.78 58.5384 127.676 58.5384 128.78V147H33.2637V128.78Z" fill="#EDEDED"/>
<rect x="67.3843" y="68.6483" width="12.6374" height="12.6374" rx="5" fill="#C4CDDB"/>
<rect x="68.6484" y="115.407" width="12.6374" height="12.6374" rx="5" fill="#F2C94C" fill-opacity="0.8"/>
<path d="M35.791 68.6484C35.791 67.9504 36.3568 67.3846 37.0548 67.3846H54.7471C55.445 67.3846 56.0108 67.9504 56.0108 68.6484C56.0108 69.3463 55.445 69.9121 54.7471 69.9121H37.0548C36.3568 69.9121 35.791 69.3463 35.791 68.6484Z" fill="#ADB8CA"/>
<path d="M35.791 73.7033C35.791 73.0054 36.3568 72.4396 37.0548 72.4396H49.6921C50.3901 72.4396 50.9559 73.0054 50.9559 73.7033C50.9559 74.4013 50.3901 74.967 49.6921 74.967H37.0548C36.3568 74.967 35.791 74.4013 35.791 73.7033Z" fill="#C8C8C9"/>
<path d="M35.791 78.7582C35.791 78.0603 36.3568 77.4945 37.0548 77.4945H52.2196C52.9175 77.4945 53.4833 78.0603 53.4833 78.7582C53.4833 79.4562 52.9175 80.022 52.2196 80.022H37.0548C36.3568 80.022 35.791 79.4562 35.791 78.7582Z" fill="#C8C8C9"/>
<path d="M35.791 83.8132C35.791 83.1152 36.3568 82.5494 37.0548 82.5494H49.6921C50.3901 82.5494 50.9559 83.1152 50.9559 83.8132C50.9559 84.5111 50.3901 85.0769 49.6921 85.0769H37.0548C36.3568 85.0769 35.791 84.5111 35.791 83.8132Z" fill="#C8C8C9"/>
<path d="M35.791 90.1319C35.791 89.434 36.3568 88.8682 37.0548 88.8682H49.6921C50.3901 88.8682 50.9559 89.434 50.9559 90.1319C50.9559 90.8298 50.3901 91.3956 49.6921 91.3956H37.0548C36.3568 91.3956 35.791 90.8298 35.791 90.1319Z" fill="#C8C8C9"/>
<path d="M35.791 107.824C35.791 107.126 36.3568 106.56 37.0548 106.56H49.6921C50.3901 106.56 50.9559 107.126 50.9559 107.824C50.9559 108.522 50.3901 109.088 49.6921 109.088H37.0548C36.3568 109.088 35.791 108.522 35.791 107.824Z" fill="#C8C8C9"/>
<path d="M35.791 112.879C35.791 112.181 36.3568 111.615 37.0548 111.615H52.2196C52.9175 111.615 53.4833 112.181 53.4833 112.879C53.4833 113.577 52.9175 114.143 52.2196 114.143H37.0548C36.3568 114.143 35.791 113.577 35.791 112.879Z" fill="#C8C8C9"/>
<path d="M35.791 117.934C35.791 117.236 36.3568 116.67 37.0548 116.67H49.6921C50.3901 116.67 50.9559 117.236 50.9559 117.934C50.9559 118.632 50.3901 119.198 49.6921 119.198H37.0548C36.3568 119.198 35.791 118.632 35.791 117.934Z" fill="#C8C8C9"/>
<path d="M35.791 135.626C35.791 134.928 36.3568 134.363 37.0548 134.363H49.6921C50.3901 134.363 50.9559 134.928 50.9559 135.626C50.9559 136.324 50.3901 136.89 49.6921 136.89H37.0548C36.3568 136.89 35.791 136.324 35.791 135.626Z" fill="#C8C8C9"/>
<path d="M35.791 140.681C35.791 139.983 36.3568 139.418 37.0548 139.418H52.2196C52.9175 139.418 53.4833 139.983 53.4833 140.681C53.4833 141.379 52.9175 141.945 52.2196 141.945H37.0548C36.3568 141.945 35.791 141.379 35.791 140.681Z" fill="#C8C8C9"/>
<path d="M35.791 145.736C35.791 145.038 36.3568 144.473 37.0548 144.473H49.6921C50.3901 144.473 50.9559 145.038 50.9559 145.736C50.9559 146.434 50.3901 147 49.6921 147H37.0548C36.3568 147 35.791 146.434 35.791 145.736Z" fill="#C8C8C9"/>
<path d="M35.791 102.769C35.791 102.071 36.3568 101.505 37.0548 101.505H54.7471C55.445 101.505 56.0108 102.071 56.0108 102.769C56.0108 103.467 55.445 104.033 54.7471 104.033H37.0548C36.3568 104.033 35.791 103.467 35.791 102.769Z" fill="#ADB8CA"/>
<path d="M35.791 130.571C35.791 129.874 36.3568 129.308 37.0548 129.308H54.7471C55.445 129.308 56.0108 129.874 56.0108 130.571C56.0108 131.269 55.445 131.835 54.7471 131.835H37.0548C36.3568 131.835 35.791 131.269 35.791 130.571Z" fill="#ADB8CA"/>
<circle opacity="0.9" cx="157" cy="36" r="25" fill="#F2C94C"/>
<path fill-rule="evenodd" clip-rule="evenodd" d="M161.167 32.0339C171.471 33.4105 170.957 31.8331 163.422 39.0319C165.306 49.2994 166.619 48.3243 157.486 43.3626C148.324 48.353 149.694 49.3281 151.578 39.0319C144.043 31.8331 143.529 33.4105 153.833 32.0339C158.313 22.6554 156.687 22.6554 161.167 32.0339Z" fill="white"/>
<defs>
<filter id="filter0_d" x="3.46143" y="30" width="172.077" height="119" filterUnits="userSpaceOnUse" color-interpolation-filters="sRGB">
<feFlood flood-opacity="0" result="BackgroundImageFix"/>
<feColorMatrix in="SourceAlpha" type="matrix" values="0 0 0 0 0 0 0 0 0 0 0 0 0 0 0 0 0 0 127 0"/>
<feOffset/>
<feGaussianBlur stdDeviation="1"/>
<feColorMatrix type="matrix" values="0 0 0 0 0 0 0 0 0 0 0 0 0 0 0 0 0 0 0.16 0"/>
<feBlend mode="normal" in2="BackgroundImageFix" result="effect1_dropShadow"/>
<feBlend mode="normal" in="SourceGraphic" in2="effect1_dropShadow" result="shape"/>
</filter>
</defs>
</svg>
