<svg width="13" height="21" viewBox="0 0 13 21" fill="none" xmlns="http://www.w3.org/2000/svg">
<g clip-path="url(#clip0)">
<path d="M6.49994 11.3644C9.61106 11.3644 12.1332 8.82038 12.1332 5.68217C12.1332 2.54396 9.6111 0 6.49994 0C3.38878 0 0.866756 2.544 0.866756 5.68221C0.870575 8.81878 3.39041 11.3605 6.49994 11.3644ZM6.49994 2.62255C8.17516 2.62255 9.53322 3.99238 9.53322 5.68221C9.53322 7.37203 8.1752 8.74187 6.49994 8.74187C4.82468 8.74187 3.46666 7.37203 3.46666 5.68221C3.46666 3.99238 4.82472 2.62255 6.49994 2.62255Z" fill="#FF9800"/>
<path d="M12.0179 14.0569C12.6301 13.6501 12.999 12.9605 12.9998 12.2211C13.0084 11.6074 12.6651 11.0439 12.1185 10.7743C11.5569 10.4914 10.8846 10.5551 10.3852 10.9387C8.07027 12.641 4.93055 12.641 2.61567 10.9387C2.11542 10.5571 1.44435 10.4934 0.882358 10.7743C0.336004 11.0439 -0.00747324 11.6068 0.000123475 12.2202C0.00142345 12.9595 0.370169 13.6489 0.98205 14.056C1.76707 14.5826 2.62196 14.9946 3.52134 15.2798C3.67389 15.3276 3.8313 15.3719 3.99368 15.4127L1.37468 17.9959C0.687646 18.6683 0.671031 19.7752 1.33763 20.4682C2.00423 21.1612 3.10153 21.178 3.78861 20.5056C3.80291 20.4916 3.81696 20.4774 3.83078 20.4629L6.50007 17.676L9.17456 20.4681C9.84059 21.1616 10.9379 21.1793 11.6255 20.5074C12.3131 19.8356 12.3305 18.7287 11.6645 18.0352C11.6506 18.0207 11.6364 18.0064 11.622 17.9924L9.00727 15.4118C9.1696 15.3699 9.32763 15.3253 9.48131 15.2781C10.3797 14.9939 11.2338 14.5828 12.0179 14.0569Z" fill="#FF9800"/>
</g>
<defs>
<clipPath id="clip0">
<rect width="13" height="21" fill="white"/>
</clipPath>
</defs>
</svg>
