<svg width="20" height="19" viewBox="0 0 20 19" fill="none" xmlns="http://www.w3.org/2000/svg">
<path d="M12.2929 6.34622L12.5304 6.82587L13.0612 6.89432C14.4963 7.07937 15.7426 7.2065 16.7245 7.30665C17.2579 7.36107 17.7132 7.40751 18.0783 7.45096C18.2139 7.46708 18.3371 7.48276 18.4492 7.49811C18.3731 7.56916 18.2892 7.64602 18.1971 7.72919C17.9292 7.97113 17.5905 8.26668 17.1937 8.61287C16.4585 9.25431 15.5241 10.0696 14.4719 11.0398L14.0636 11.4162L14.1673 11.9617C14.4256 13.3206 14.6854 14.5091 14.8897 15.4444C15.0038 15.9662 15.1006 16.4091 15.1703 16.7588C15.1978 16.8969 15.2214 17.0216 15.2415 17.1342C15.1243 17.0749 14.9934 17.0064 14.8474 16.9282C14.5242 16.7549 14.1228 16.5307 13.6515 16.2674C12.7973 15.7903 11.7139 15.1851 10.4519 14.5235L9.98698 14.2797L9.5223 14.524C8.23198 15.2023 7.13957 15.8155 6.28121 16.2973C5.82611 16.5528 5.4368 16.7713 5.11866 16.9431C4.98368 17.0159 4.86175 17.0803 4.75164 17.1368C4.77164 17.0278 4.79493 16.9077 4.82173 16.7755C4.89102 16.4338 4.9832 16.0153 5.09071 15.5273C5.29888 14.5822 5.56454 13.3762 5.83279 11.9612L5.93616 11.416L5.52814 11.0398C4.47589 10.0696 3.54146 9.25431 2.80629 8.61287C2.40951 8.26668 2.07077 7.97113 1.80287 7.72919C1.71077 7.64602 1.62694 7.56916 1.55083 7.49811C1.66285 7.48276 1.78614 7.46708 1.92166 7.45096C2.28676 7.40751 2.74211 7.36107 3.27554 7.30665C4.25736 7.2065 5.5037 7.07937 6.93879 6.89432L7.46961 6.82587L7.70708 6.34622C8.32187 5.10445 8.83196 3.99975 9.23354 3.13005C9.45747 2.64507 9.64767 2.23316 9.80345 1.91133C9.87541 1.76268 9.94065 1.63162 10 1.51642C10.0593 1.63162 10.1246 1.76268 10.1965 1.91133C10.3523 2.23316 10.5425 2.64507 10.7665 3.13005C11.168 3.99975 11.6781 5.10445 12.2929 6.34622ZM10.4054 0.855918C10.4054 0.856968 10.3985 0.864882 10.3847 0.876507C10.3985 0.86068 10.4054 0.854867 10.4054 0.855918ZM9.61525 0.876508C9.60147 0.864882 9.59457 0.856968 9.59457 0.855918C9.59457 0.854867 9.60146 0.86068 9.61525 0.876508Z" stroke="#F67660" stroke-width="2"/>
</svg>
