<svg width="22" height="19" viewBox="0 0 22 19" fill="none" xmlns="http://www.w3.org/2000/svg">
<path d="M3.82526 6.97362L5.77918 6.08418L5.77989 6.08386C6.06039 5.95791 6.38376 6.08472 6.51361 6.35562C6.51363 6.35565 6.51365 6.35569 6.51366 6.35572L6.37839 6.42053C6.4783 6.62868 6.39088 6.87848 6.18273 6.97839L3.82526 6.97362ZM3.82526 6.97362C4.98075 3.96855 7.86085 1.98263 11.1619 1.98263C14.746 1.98263 17.8789 4.37741 18.7813 7.80345L18.7813 7.80355C18.8608 8.1043 19.1719 8.28531 19.4726 8.20585M3.82526 6.97362L1.95222 4.54135L2.76165 6.56494M2.76165 6.56494C4.09033 3.12291 7.39049 0.85 11.1619 0.85C15.2591 0.85 18.8414 3.59279 19.8749 7.51459C19.9543 7.81532 19.7733 8.12642 19.4726 8.20585M2.76165 6.56494L2.84429 6.77154C4.11091 3.30248 7.39658 1 11.1619 1C15.1919 1 18.714 3.69778 19.7298 7.55292M19.4726 8.20585L19.4343 8.06082M19.4726 8.20585C19.4726 8.20585 19.4726 8.20584 19.4726 8.20584L19.4343 8.06082M19.4343 8.06082C19.6549 8.00255 19.7882 7.77356 19.7298 7.55292M19.4343 8.06082C19.2136 8.11913 18.9846 7.98588 18.9264 7.76525L19.7298 7.55292" fill="#727272" stroke="#727272" stroke-width="0.3"/>
<path d="M20.7764 15.2833C21.0688 15.1765 21.2228 14.8551 21.1164 14.5603M20.7764 15.2833L20.7249 15.1424M20.7764 15.2833C20.7764 15.2833 20.7764 15.2833 20.7764 15.2833L20.7249 15.1424M20.7764 15.2833C20.4816 15.391 20.1599 15.238 20.052 14.9464M21.1164 14.5603L20.7249 15.1424M21.1164 14.5603V14.5558L21.1057 14.529L19.7776 11.1984L19.7776 11.1983C19.7216 11.0584 19.6093 10.939 19.4599 10.8812M21.1164 14.5603L19.4599 10.8812M20.7249 15.1424C20.5084 15.2215 20.2711 15.1091 20.192 14.8926L20.0528 14.9483L20.052 14.9464M20.052 14.9464L19.2415 12.9201M20.052 14.9464L19.2415 12.9201M19.2415 12.9201C17.9095 16.3623 14.6132 18.6355 10.8414 18.6355C6.74435 18.6355 3.15762 15.897 2.12837 11.9706C2.04909 11.67 2.23007 11.3591 2.53072 11.2797L19.2415 12.9201ZM19.4599 10.8812C19.4603 10.8813 19.4606 10.8815 19.4609 10.8816L19.4052 11.0209L19.459 10.8809C19.4593 10.881 19.4596 10.8811 19.4599 10.8812ZM19.4599 10.8812C19.3165 10.8242 19.1543 10.831 19.0159 10.8919L19.0159 10.8919L19.0142 10.8926L15.765 12.3695M19.4599 10.8812L15.765 12.3695M15.765 12.3695C15.4765 12.49 15.3432 12.823 15.4612 13.1096C15.5808 13.3999 15.9149 13.5344 16.2024 13.416L16.2026 13.4164L16.2127 13.4114L16.2248 13.4053L16.2349 13.4002L18.1853 12.5124C17.0219 15.5173 14.1381 17.5029 10.8414 17.5029C7.25727 17.5029 4.12444 15.1081 3.222 11.6821L3.22198 11.682C3.14254 11.3812 2.83146 11.2002 2.53074 11.2797L15.765 12.3695Z" fill="#727272" stroke="#727272" stroke-width="0.3"/>
</svg>
