<svg width="96" height="23" viewBox="0 0 96 23" fill="none" xmlns="http://www.w3.org/2000/svg">
<path d="M19.2 4.99999C19.2 2.23857 21.4385 0 24.2 0H71.7999C74.5614 0 76.7999 2.23858 76.7999 5V22.4H19.2V4.99999Z" fill="white"/>
<path d="M19.2 22.4V3.20001C19.2 3.20001 19.2 10.0572 13.0286 15.5429C5.48571 22.4 0 22.4 0 22.4H19.2Z" fill="white"/>
<path d="M76.8 22.4V3.20001C76.8 3.20001 76.8 10.0572 82.9714 15.5429C90.5143 22.4 96 22.4 96 22.4H76.8Z" fill="white"/>
<path d="M35.9424 12.342V15.8H34.1504V6.25199H37.7204C38.6257 6.25199 39.3724 6.53199 39.9604 7.09199C40.5484 7.65199 40.8424 8.38465 40.8424 9.28999C40.8424 10.1953 40.5484 10.9327 39.9604 11.502C39.3724 12.062 38.6211 12.342 37.7064 12.342H35.9424ZM35.9424 7.94599V10.662H37.6224C38.0704 10.662 38.4204 10.5313 38.6724 10.27C38.9244 10.0087 39.0504 9.68199 39.0504 9.28999C39.0504 8.89799 38.9244 8.57599 38.6724 8.32399C38.4204 8.07199 38.0704 7.94599 37.6224 7.94599H35.9424ZM46.1222 11.166V10.48H47.2142C47.7088 10.48 48.1055 10.354 48.4042 10.102C48.7122 9.84065 48.8662 9.53265 48.8662 9.17799C48.8662 8.81399 48.7402 8.51532 48.4882 8.28199C48.2455 8.04865 47.9375 7.93199 47.5642 7.93199H45.7162V15.8H43.9242V6.25199H47.5362C48.4975 6.25199 49.2535 6.52265 49.8042 7.06399C50.3642 7.61465 50.6442 8.31932 50.6442 9.17799C50.6442 9.79399 50.4715 10.34 50.1262 10.816C49.7808 11.2827 49.3002 11.6093 48.6842 11.796L51.4702 15.8H49.3002L46.1222 11.166ZM55.4168 14.498C54.4648 13.5367 53.9888 12.3747 53.9888 11.012C53.9888 9.64932 54.4648 8.49199 55.4168 7.53999C56.3782 6.58799 57.5355 6.11199 58.8888 6.11199C60.2422 6.11199 61.3948 6.58799 62.3468 7.53999C63.3082 8.49199 63.7888 9.64932 63.7888 11.012C63.7888 12.3747 63.3082 13.5367 62.3468 14.498C61.3948 15.4593 60.2422 15.94 58.8888 15.94C57.5355 15.94 56.3782 15.4593 55.4168 14.498ZM55.7668 11.012C55.7668 11.88 56.0702 12.6407 56.6768 13.294C57.2928 13.938 58.0302 14.26 58.8888 14.26C59.7475 14.26 60.4802 13.938 61.0868 13.294C61.7028 12.65 62.0108 11.8893 62.0108 11.012C62.0108 10.144 61.7028 9.39265 61.0868 8.75799C60.4802 8.12332 59.7475 7.80599 58.8888 7.80599C58.0302 7.80599 57.2928 8.12332 56.6768 8.75799C56.0702 9.39265 55.7668 10.144 55.7668 11.012Z" fill="#FF9800"/>
</svg>
