<svg width="41" height="10" viewBox="0 0 41 10" fill="none" xmlns="http://www.w3.org/2000/svg">
<path d="M8.19995 3.33716C8.19995 1.6803 9.5431 0.337158 11.2 0.337158H29.7999C31.4568 0.337158 32.7999 1.6803 32.7999 3.33716V9.73745H8.19995V3.33716Z" fill="white"/>
<path d="M8.2 9.73738V1.67999C8.2 1.67999 8.2 4.55763 5.56429 6.85974C2.34286 9.73738 0 9.73738 0 9.73738H8.2Z" fill="white"/>
<path d="M32.8 9.73738V1.67999C32.8 1.67999 32.8 4.55763 35.4357 6.85974C38.6571 9.73738 41 9.73738 41 9.73738H32.8Z" fill="white"/>
<path d="M14.1957 5.58125V7.55725H13.1717V2.10125H15.2117C15.7291 2.10125 16.1557 2.26125 16.4917 2.58125C16.8277 2.90125 16.9957 3.31992 16.9957 3.83725C16.9957 4.35458 16.8277 4.77592 16.4917 5.10125C16.1557 5.42125 15.7264 5.58125 15.2037 5.58125H14.1957ZM14.1957 3.06925V4.62125H15.1557C15.4117 4.62125 15.6117 4.54658 15.7557 4.39725C15.8997 4.24792 15.9717 4.06125 15.9717 3.83725C15.9717 3.61325 15.8997 3.42925 15.7557 3.28525C15.6117 3.14125 15.4117 3.06925 15.1557 3.06925H14.1957ZM20.0127 4.90925V4.51725H20.6367C20.9194 4.51725 21.1461 4.44525 21.3167 4.30125C21.4927 4.15192 21.5807 3.97592 21.5807 3.77325C21.5807 3.56525 21.5087 3.39458 21.3647 3.26125C21.2261 3.12792 21.0501 3.06125 20.8367 3.06125H19.7807V7.55725H18.7567V2.10125H20.8207C21.3701 2.10125 21.8021 2.25592 22.1167 2.56525C22.4367 2.87992 22.5967 3.28258 22.5967 3.77325C22.5967 4.12525 22.4981 4.43725 22.3007 4.70925C22.1034 4.97592 21.8287 5.16258 21.4767 5.26925L23.0687 7.55725H21.8287L20.0127 4.90925ZM25.324 6.81325C24.78 6.26392 24.508 5.59992 24.508 4.82125C24.508 4.04258 24.78 3.38125 25.324 2.83725C25.8733 2.29325 26.5346 2.02125 27.308 2.02125C28.0813 2.02125 28.74 2.29325 29.284 2.83725C29.8333 3.38125 30.108 4.04258 30.108 4.82125C30.108 5.59992 29.8333 6.26392 29.284 6.81325C28.74 7.36258 28.0813 7.63725 27.308 7.63725C26.5346 7.63725 25.8733 7.36258 25.324 6.81325ZM25.524 4.82125C25.524 5.31725 25.6973 5.75192 26.044 6.12525C26.396 6.49325 26.8173 6.67725 27.308 6.67725C27.7986 6.67725 28.2173 6.49325 28.564 6.12525C28.916 5.75725 29.092 5.32258 29.092 4.82125C29.092 4.32525 28.916 3.89592 28.564 3.53325C28.2173 3.17058 27.7986 2.98925 27.308 2.98925C26.8173 2.98925 26.396 3.17058 26.044 3.53325C25.6973 3.89592 25.524 4.32525 25.524 4.82125Z" fill="#FF9800"/>
</svg>
