<svg width="60" height="14" viewBox="0 0 60 14" fill="none" xmlns="http://www.w3.org/2000/svg">
<path d="M12 3C12 1.34315 13.3431 0 15 0H45C46.6569 0 48 1.34315 48 3V14H12V3Z" fill="white"/>
<path d="M12 14V2C12 2 12 6.28571 8.14286 9.71429C3.42857 14 0 14 0 14H12Z" fill="white"/>
<path d="M48 14V2C48 2 48 6.28571 51.8571 9.71429C56.5714 14 60 14 60 14H48Z" fill="white"/>
<path d="M21.2446 8.53V11H19.9646V4.18H22.5146C23.1613 4.18 23.6946 4.38 24.1146 4.78C24.5346 5.18 24.7446 5.70333 24.7446 6.35C24.7446 6.99667 24.5346 7.52333 24.1146 7.93C23.6946 8.33 23.158 8.53 22.5046 8.53H21.2446ZM21.2446 5.39V7.33H22.4446C22.7646 7.33 23.0146 7.23667 23.1946 7.05C23.3746 6.86333 23.4646 6.63 23.4646 6.35C23.4646 6.07 23.3746 5.84 23.1946 5.66C23.0146 5.48 22.7646 5.39 22.4446 5.39H21.2446ZM28.5159 7.69V7.2H29.2959C29.6492 7.2 29.9326 7.11 30.1459 6.93C30.3659 6.74333 30.4759 6.52333 30.4759 6.27C30.4759 6.01 30.3859 5.79667 30.2059 5.63C30.0326 5.46333 29.8126 5.38 29.5459 5.38H28.2259V11H26.9459V4.18H29.5259C30.2126 4.18 30.7526 4.37333 31.1459 4.76C31.5459 5.15333 31.7459 5.65667 31.7459 6.27C31.7459 6.71 31.6226 7.1 31.3759 7.44C31.1292 7.77333 30.7859 8.00667 30.3459 8.14L32.3359 11H30.7859L28.5159 7.69ZM35.155 10.07C34.475 9.38333 34.135 8.55333 34.135 7.58C34.135 6.60667 34.475 5.78 35.155 5.1C35.8416 4.42 36.6683 4.08 37.635 4.08C38.6016 4.08 39.425 4.42 40.105 5.1C40.7916 5.78 41.135 6.60667 41.135 7.58C41.135 8.55333 40.7916 9.38333 40.105 10.07C39.425 10.7567 38.6016 11.1 37.635 11.1C36.6683 11.1 35.8416 10.7567 35.155 10.07ZM35.405 7.58C35.405 8.2 35.6216 8.74333 36.055 9.21C36.495 9.67 37.0216 9.9 37.635 9.9C38.2483 9.9 38.7716 9.67 39.205 9.21C39.645 8.75 39.865 8.20667 39.865 7.58C39.865 6.96 39.645 6.42333 39.205 5.97C38.7716 5.51667 38.2483 5.29 37.635 5.29C37.0216 5.29 36.495 5.51667 36.055 5.97C35.6216 6.42333 35.405 6.96 35.405 7.58Z" fill="#FF9800"/>
</svg>
