<svg width="24" height="24" viewBox="0 0 24 24" fill="none" xmlns="http://www.w3.org/2000/svg">
<g clip-path="url(#clip0)">
<path d="M12.4362 12.4022L2.6384 13.3505L0.0596526 21.5965C-0.152869 22.2696 0.22045 22.9874 0.893624 23.2003C1.2066 23.2993 1.54543 23.2738 1.84004 23.1295L23.3134 12.732C23.9198 12.4363 24.1717 11.7046 23.876 11.0982C23.7564 10.853 23.5585 10.6551 23.3134 10.5356L1.85503 0.130612C1.22084 -0.179738 0.455461 0.0830097 0.145486 0.717203C0.00118095 1.01181 -0.0239319 1.35065 0.0746454 1.66362L2.6534 9.90963L12.4324 10.8579C12.8567 10.8999 13.1667 11.2781 13.1247 11.7024C13.0883 12.0686 12.7986 12.3587 12.4324 12.3947L12.4362 12.4022Z" fill="#F67660"/>
</g>
<defs>
<clipPath id="clip0">
<rect width="24" height="23.259" fill="white"/>
</clipPath>
</defs>
</svg>
