<svg width="15" height="18" viewBox="0 0 15 18" fill="none" xmlns="http://www.w3.org/2000/svg">
<g clip-path="url(#clip0)">
<path d="M12.2735 -0.000183105C10.7726 -0.000183105 9.5462 1.27782 9.5462 2.84192C9.5462 3.21353 9.61234 3.57424 9.73802 3.90037L4.55348 6.89784C4.06893 6.4405 3.42984 6.15771 2.72825 6.15771C1.22734 6.15771 0.000976562 7.43571 0.000976562 8.99982C0.000976562 10.5639 1.22734 11.8419 2.72825 11.8419C3.43279 11.8419 4.07552 11.5624 4.56052 11.1018L9.74507 14.0993C9.61734 14.4275 9.5462 14.7828 9.5462 15.1577C9.5462 16.7218 10.7726 17.9998 12.2735 17.9998C13.7744 17.9998 15.0007 16.7218 15.0007 15.1577C15.0007 13.5936 13.7744 12.3156 12.2735 12.3156C11.4564 12.3156 10.7217 12.695 10.221 13.2926L5.12848 10.347C5.33711 9.94576 5.45529 9.48629 5.45529 8.99982C5.45529 8.51097 5.33916 8.05529 5.12848 7.65266L10.2207 4.70682C10.7217 5.30509 11.4557 5.6838 12.2732 5.6838C13.7742 5.6838 15.0005 4.4058 15.0005 2.84169C15.0007 1.27782 13.7744 -0.000183105 12.2735 -0.000183105Z" fill="#F67660"/>
</g>
<defs>
<clipPath id="clip0">
<rect width="15" height="18" fill="white"/>
</clipPath>
</defs>
</svg>
