<svg width="30" height="30" viewBox="0 0 30 30" fill="none" xmlns="http://www.w3.org/2000/svg">
<path d="M1.90297 15.6717H19.7682L15.1612 20.3633C14.8115 20.7125 14.8115 21.3224 15.1607 21.6721C15.3358 21.8472 15.5646 21.956 15.7943 21.956C16.0236 21.956 16.2524 21.8794 16.4274 21.7043L22.1655 15.9725C22.3334 15.8046 22.4279 15.5794 22.4279 15.3421C22.4279 15.1048 22.3334 14.8782 22.1655 14.7103L21.8933 14.4385C21.8315 14.349 21.7536 14.2711 21.6636 14.2097L16.4279 8.97404C16.0782 8.62434 15.5109 8.62434 15.1616 8.97404C14.8119 9.32374 14.8119 9.80508 15.1616 10.1552L18.973 13.8806H1.90297C1.40864 13.8806 1.00745 14.2818 1.00745 14.7761C1.00745 15.2705 1.40864 15.6717 1.90297 15.6717Z" fill="#F67660"/>
<path d="M28.9925 26.5437V4.27209C28.9925 2.12552 27.2427 0 25.0759 0H13.4337C11.3095 0 9.29102 2.04896 9.29102 4.27209V9.57358C9.29102 10.0679 9.69221 10.4691 10.1865 10.4691C10.6809 10.4691 11.0821 10.0679 11.0821 9.57358V4.27209C11.0821 3.04119 12.3004 1.79104 13.4337 1.79104H25.0759C26.2612 1.79104 27.2015 3.10612 27.2015 4.27209V26.5437C27.2015 27.7361 26.215 28.209 25.0759 28.209H13.4337C12.3747 28.209 11.0821 27.8118 11.0821 26.5437V21.2154C11.0821 20.721 10.6809 20.3199 10.1865 20.3199C9.69221 20.3199 9.29102 20.721 9.29102 21.2154V26.5437C9.29102 28.6451 11.1631 30 13.4337 30H25.0759C27.3976 30 28.9925 28.5775 28.9925 26.5437Z" fill="#F67660"/>
</svg>
