<svg width="545" height="456" viewBox="0 0 545 456" fill="none" xmlns="http://www.w3.org/2000/svg">
<path d="M482.269 140.37C522.794 208.468 486.447 358.172 396.625 420.003C306.802 481.973 163.504 456.071 82.5945 387.138C1.68481 318.204 -16.8367 206.379 14.2182 151.232C45.4123 96.0855 126.183 97.7567 225.335 91.7685C324.349 85.9196 441.884 72.2722 482.269 140.37Z" fill="#AED7DB"/>
<g clip-path="url(#clip0)">
<path fill-rule="evenodd" clip-rule="evenodd" d="M108.262 49.4901C103.654 44.0814 100.536 37.4529 101.057 30.0255C102.558 8.62498 132.349 13.3328 138.143 24.1339C143.938 34.9351 143.25 62.333 135.76 64.2635C132.774 65.0333 126.411 63.1475 119.935 59.2443L124 88H100L108.262 49.4901Z" fill="#B28B67"/>
<path fill-rule="evenodd" clip-rule="evenodd" d="M112.999 14.7866C125.055 10.6097 140.701 15.4907 138.607 25.2807C137.263 31.5671 129.982 34.7071 122.819 38.0674C121.765 36.2369 119.754 35 117.447 35C114.046 35 111.29 37.6863 111.29 41C111.29 42.1936 111.648 43.3058 112.264 44.2404C109.855 46.3365 108.154 48.8595 107.743 52.1318C103.859 52.1318 97.5822 40.7286 99.6546 29.9098C99.1113 29.9694 98.5592 30 98 30C89.7157 30 83 23.2843 83 15C83 6.71573 89.7157 0 98 0C106.213 0 112.884 6.60068 112.999 14.7866Z" fill="#191847"/>
<path fill-rule="evenodd" clip-rule="evenodd" d="M92 171L129.631 294.024L147.86 398.648H162.153L142.891 171H92Z" fill="#997659"/>
<path fill-rule="evenodd" clip-rule="evenodd" d="M78.5378 171C81.0937 238.547 78.0857 273.389 77.5136 279.526C76.9416 285.663 69.1082 325.455 50.5637 400.708L65.794 395.478C95.1019 326.459 105.089 290.589 108.45 281.526C111.812 272.463 120.739 235.621 135.233 171H78.5378Z" fill="#B28B67"/>
<path fill-rule="evenodd" clip-rule="evenodd" d="M50.6781 395.402C49.5594 398.388 49 400.623 49 402.106C49 403.909 49.3004 406.54 49.9012 410C51.9932 410 70.7938 410 106.303 410C107.769 405.154 106.923 402.539 103.765 402.152C100.607 401.766 97.9837 401.417 95.895 401.106L69.68 389.419C69.1756 389.194 68.5843 389.421 68.3595 389.925C68.3556 389.934 68.3519 389.942 68.3483 389.951L66.6632 394.039C63.7399 395.403 61.3644 396.085 59.5367 396.085C58.0517 396.085 56.001 395.485 53.3845 394.285L53.3845 394.285C52.3804 393.825 51.1933 394.266 50.733 395.27C50.7131 395.313 50.6948 395.357 50.6781 395.402Z" fill="#E4E4E4"/>
<path fill-rule="evenodd" clip-rule="evenodd" d="M144.678 395.402C143.559 398.388 143 400.623 143 402.106C143 403.909 143.3 406.54 143.901 410C145.993 410 164.794 410 200.303 410C201.769 405.154 200.923 402.539 197.765 402.152C194.607 401.766 191.984 401.417 189.895 401.106L163.68 389.419C163.176 389.194 162.584 389.421 162.359 389.925C162.356 389.934 162.352 389.942 162.348 389.951L160.663 394.039C157.74 395.403 155.364 396.085 153.537 396.085C152.052 396.085 150.001 395.485 147.384 394.285L147.384 394.285C146.38 393.825 145.193 394.266 144.733 395.27C144.713 395.313 144.695 395.357 144.678 395.402Z" fill="#E4E4E4"/>
<path fill-rule="evenodd" clip-rule="evenodd" d="M87 171L103 233.68H151.87L144.584 171H87Z" fill="#69A1AC"/>
<path fill-rule="evenodd" clip-rule="evenodd" d="M78 171C72.7355 186.781 71.7355 207.674 75 233.68H124.87L138.584 171H78Z" fill="#89C5CC"/>
<path fill-rule="evenodd" clip-rule="evenodd" d="M178 131.311L217.483 125.925C225.381 121.532 232.647 118.558 239.281 117.003C241.148 116.948 244.117 117.627 239.693 121.315C235.269 125.003 230.78 129.083 231.569 131.051C232.357 133.02 236.471 132.287 237.153 135.315C237.607 137.333 230.93 137.661 217.121 136.299L185.084 149L178 131.311ZM53.9699 140.45L75.8673 140.532C51.8562 194.566 39.3364 222.857 38.308 225.406C35.9941 231.14 40.8907 239.874 42.9847 244.567C36.1646 247.619 36.8913 236.317 28.288 240.319C20.4353 243.973 14.4618 250.592 5.38912 244.994C4.27369 244.306 3.05136 241.715 6.00466 239.69C13.3624 234.645 23.9654 225.815 25.398 222.908C27.3517 218.945 36.8756 191.459 53.9699 140.45Z" fill="#997659"/>
<path fill-rule="evenodd" clip-rule="evenodd" d="M113.949 71L131.094 72.1422C135.317 110.343 158.316 134.473 209.811 126.304L216.652 175.499C168.523 181.719 126.313 162.45 117.662 110.278C115.423 96.7729 113.655 82.7178 113.949 71Z" fill="#DD6A56"/>
<path fill-rule="evenodd" clip-rule="evenodd" d="M105.491 66.0159L131.468 71.9653C131.468 116.644 145.7 145.15 153 178H82.8436C81.8554 189.351 81.2485 201.018 80.9322 213H28.4016C40.3053 149.664 65.4301 100.664 103.776 66H105.477L105.491 66.0159Z" fill="#F67660"/>
<path fill-rule="evenodd" clip-rule="evenodd" d="M93.9126 114.259C92.1046 142.101 93.1679 163.347 97.1025 178H82.8438C84.8015 155.514 88.256 134.267 93.9126 114.259V114.259Z" fill="black" fill-opacity="0.1"/>
</g>
<path fill-rule="evenodd" clip-rule="evenodd" d="M421.738 62.4901C426.346 57.0814 429.464 50.4529 428.943 43.0255C427.442 21.625 397.651 26.3328 391.857 37.1339C386.062 47.9351 386.75 75.333 394.24 77.2635C397.226 78.0333 403.589 76.1475 410.065 72.2443L406 101H430L421.738 62.4901Z" fill="#B28B67"/>
<path fill-rule="evenodd" clip-rule="evenodd" d="M439.407 35.9017C440.182 35.1335 440.605 34.0371 440.97 32.9959C441.35 31.9144 441.719 30.8217 441.972 29.696C442.475 27.4468 442.48 24.8602 440.876 23.1136C439.589 21.7131 437.658 21.0849 435.876 20.9484C434.689 20.8573 433.469 21.0236 432.331 21.3978C431.202 21.7689 430.229 22.5086 429.134 22.9678C429.092 20.5439 428.677 18.0077 427.447 15.9381C426.264 13.9468 424.378 12.8293 422.229 12.5337C420.024 12.2303 417.846 12.7463 415.872 13.8139C415.378 14.0813 414.888 14.3614 414.419 14.6784C414.027 14.9439 413.619 15.2636 413.159 15.3716C412.645 15.4921 412.391 15.1957 412.058 14.8212C411.666 14.3822 411.226 13.9955 410.76 13.6527C408.698 12.1373 405.993 11.5142 403.604 12.4225C402.504 12.8411 401.433 13.5518 400.687 14.5313C400.021 15.4043 399.546 16.7892 398.628 17.3975C398.238 17.6557 397.963 17.3136 397.608 17.0608C397.075 16.6809 396.566 16.2617 396.027 15.8921C395.269 15.3729 394.448 14.9845 393.57 14.7812C392.283 14.4836 390.506 14.5534 390.138 16.2382C390 16.871 390.106 17.5479 390.15 18.1855C390.211 19.0611 390.275 19.9363 390.351 20.8106C390.409 21.4744 390.482 22.1155 390.607 22.7674C390.674 23.1148 390.883 23.7626 390.734 24.1106C390.548 24.5455 389.689 24.2982 389.321 24.3134C388.596 24.3433 387.868 24.4705 387.197 24.7804C386.678 25.0206 386.131 25.3738 385.912 25.9694C385.777 26.3353 385.813 26.7112 385.876 27.0876C385.953 27.5393 385.865 27.779 385.808 28.2348C384.834 27.7552 381.459 26.6896 381.035 28.4351C380.893 29.0163 381.215 29.673 381.461 30.1632C381.892 31.0229 382.457 31.8087 383.034 32.5581C384.239 34.1214 385.677 35.4698 387.224 36.623C385.411 37.4289 384.938 39.806 386.507 41.2223C387.2 41.8476 388.132 41.9868 389.006 41.9468C389.326 41.9321 389.787 41.8092 390.039 41.8649C390.175 41.8948 390.32 42.0097 390.507 42.0225C391.741 42.107 393.134 41.8098 394.34 41.536C396.488 41.0482 398.523 40.0302 400.184 38.4797C400.61 38.082 400.962 37.853 401.536 37.8589C402.038 37.864 402.532 38.0018 403.034 38.0145C404.362 38.0484 405.56 37.3989 406.794 36.9665C406.87 38.6333 407.345 40.4691 408.026 41.9687C408.582 43.1915 409.743 43.3692 410.884 43.4765C414.533 43.8198 418.194 43.4367 421.848 43.4417C418.311 44.2411 414.657 44.5705 411.152 45.5112C409.568 45.9362 410.778 47.004 411.455 47.7443C412.57 48.9632 413.4 50.4735 413.975 52.0646C415.705 49.8096 418.763 48.3238 421.472 49.0165C424.465 49.7818 426.573 53.8296 424.659 56.7397C423.547 58.429 421.541 59.0811 419.871 59.8069C421.173 61.1612 421.489 63.1614 422.273 64.8462C422.659 65.6771 423.202 66.6165 424.067 66.9061C424.387 67.0132 424.762 67.0224 425.014 67.2832C425.327 67.6061 425.401 67.9671 425.801 68.2446C427.394 69.3523 429.883 69.2669 431.295 67.8214C432.572 66.5141 432.24 64.4454 431.173 63.12C432.871 62.4123 435.964 61.5021 435.289 58.8571C438.968 58.6128 447.9 52.6462 442.963 48.2863C445.673 46.7548 448.162 43.012 446.422 39.7127C445.081 37.1721 441.964 36.0364 439.407 35.9017Z" fill="#191847"/>
<path fill-rule="evenodd" clip-rule="evenodd" d="M438 184L389.918 311.227L356.217 405H337L383.326 184L438 184Z" fill="#1F28CF"/>
<path fill-rule="evenodd" clip-rule="evenodd" d="M449.883 184C450.406 227.654 450.028 286.427 451.246 289.149C452.058 290.963 477.309 311.632 527 351.157L517.095 368C458.101 329.956 427.095 308.399 424.079 303.331C419.555 295.728 396.826 225.763 385 184H449.883Z" fill="#2B44FF"/>
<path fill-rule="evenodd" clip-rule="evenodd" d="M544.426 362.491L527.696 349.759L514.198 365.846C513.159 377.973 509.144 391.574 502.152 406.649L505.216 409.22L529.642 380.11L536.466 368.866L537.998 370.152L544.426 362.491Z" fill="#191847"/>
<path fill-rule="evenodd" clip-rule="evenodd" d="M358 423L357 402H336C326.042 409 313.042 414.667 297 419V423H335L348 421V423H358Z" fill="#191847"/>
<path fill-rule="evenodd" clip-rule="evenodd" d="M385.362 121.7L350.653 102.69C344.881 95.8355 339.193 90.5122 333.591 86.7198C331.88 86.0052 328.886 85.5726 331.686 90.5415C334.485 95.5104 337.206 100.863 335.78 102.394C334.354 103.924 330.797 101.786 329.096 104.329C327.961 106.025 334.037 108.704 347.324 112.365L372.545 135.458L385.362 121.7ZM331 137.74L315.754 129.364C313.615 121.224 311.057 117.128 308.082 117.077C305.796 116.014 309.777 126.3 305.444 125.408C301.111 124.516 290.536 116.651 288.714 118.248C286.018 120.61 288.422 127.864 291.254 131.473C296.547 138.218 300.93 140.524 311.762 143.544C317.426 145.123 323.549 148.289 330.132 153.04L331 137.74Z" fill="#997659"/>
<path fill-rule="evenodd" clip-rule="evenodd" d="M402.266 117.465C390.108 117.337 373.896 114.769 356.598 103.789L349.804 118.939C361.736 130.78 378.514 140.51 393.184 140.098C404.745 139.773 410.653 125.789 402.266 117.465Z" fill="#2026A2"/>
<path fill-rule="evenodd" clip-rule="evenodd" d="M385.896 141.761C372.989 144.98 351.345 141.184 320.964 130.373C313.429 145.964 309.945 157.078 310.514 163.717C336.576 177.331 358.914 183.401 377.317 183.802C376.732 194.721 378.061 205.112 382.526 214.606C391.706 234.124 445.455 216.048 463.527 219.606C474.845 182.851 452.962 167.914 452.945 144.397C452.925 118.642 432.246 79 429.203 79L401.456 79C399.926 98.669 392.22 120.346 385.896 141.761Z" fill="#1F28CF"/>
<defs>
<clipPath id="clip0">
<rect width="238" height="410" fill="white" transform="translate(4)"/>
</clipPath>
</defs>
</svg>
