<svg width="24" height="24" viewBox="0 0 24 24" fill="none" xmlns="http://www.w3.org/2000/svg">
<g clip-path="url(#clip0)">
<path d="M12 -0.000244141C5.382 -0.000244141 0 5.38176 0 11.9998C0 18.618 5.382 23.9998 12 23.9998C18.618 23.9998 24 18.618 24 11.9998C24 5.38176 18.618 -0.000244141 12 -0.000244141ZM12 1.56497C17.7723 1.56497 22.4348 6.22749 22.4348 11.9998C22.4348 17.772 17.7723 22.4346 12 22.4346C6.22774 22.4346 1.56522 17.772 1.56522 11.9998C1.56522 6.22749 6.22774 1.56497 12 1.56497ZM7.56522 7.04323C6.5567 7.04323 5.73913 7.8608 5.73913 8.86932C5.73913 9.87784 6.5567 10.6954 7.56522 10.6954C8.57374 10.6954 9.3913 9.87784 9.3913 8.86932C9.3913 7.8608 8.57374 7.04323 7.56522 7.04323ZM16.4348 7.04323C15.4263 7.04323 14.6087 7.8608 14.6087 8.86932C14.6087 9.87784 15.4263 10.6954 16.4348 10.6954C17.4433 10.6954 18.2609 9.87784 18.2609 8.86932C18.2609 7.8608 17.4433 7.04323 16.4348 7.04323ZM6.17948 14.3476C5.928 14.3622 5.69843 14.5041 5.55991 14.7551C5.42791 15.0076 5.44565 15.3287 5.60896 15.5622C7.008 17.6549 9.35165 19.0432 12.0003 19.0432C14.6489 19.0432 16.9925 17.6549 18.3916 15.5622C18.6198 15.2207 18.521 14.7063 18.1797 14.478C17.8383 14.2498 17.3157 14.3484 17.0872 14.6898C15.9574 16.38 14.105 17.478 12.0003 17.478C9.89557 17.478 8.04313 16.38 6.9133 14.6898C6.70122 14.4415 6.4307 14.333 6.17948 14.3476Z" fill="#48448C"/>
</g>
<defs>
<clipPath id="clip0">
<rect width="24" height="24" fill="white"/>
</clipPath>
</defs>
</svg>
