<svg width="137" height="95" viewBox="0 0 137 95" fill="none" xmlns="http://www.w3.org/2000/svg">
<g filter="url(#filter0_d)">
<rect x="2" y="2" width="133" height="91" rx="4" fill="white"/>
</g>
<path d="M3 6C3 4.34315 4.34315 3 6 3H131C132.657 3 134 4.34315 134 6V9H3V6Z" fill="#E6EBF1"/>
<circle cx="131" cy="6" r="1" fill="#48448C"/>
<circle cx="128" cy="6" r="1" fill="#48448C"/>
<circle cx="125" cy="6" r="1" fill="#48448C"/>
<rect x="23" y="19" width="35" height="4" rx="2" fill="#ADB8CA"/>
<rect x="23" y="73" width="35" height="8" rx="4" fill="#48448C"/>
<rect x="37" y="27" width="65" height="3" rx="1.5" fill="#ADB8CA"/>
<rect x="37" y="32" width="37" height="3" rx="1.5" fill="#ADB8CA"/>
<rect x="37" y="42" width="65" height="3" rx="1.5" fill="#ADB8CA"/>
<rect x="37" y="47" width="37" height="3" rx="1.5" fill="#ADB8CA"/>
<rect x="37" y="56" width="65" height="3" rx="1.5" fill="#ADB8CA"/>
<rect x="37" y="61" width="37" height="3" rx="1.5" fill="#ADB8CA"/>
<rect x="65" y="73" width="28" height="3" rx="1.5" fill="#E1E1E1"/>
<rect x="65" y="78" width="16" height="3" rx="1.5" fill="#E1E1E1"/>
<rect opacity="0.5" x="109" y="19" width="4" height="4" rx="2" fill="#ADB8CA"/>
<rect opacity="0.5" x="102" y="19" width="4" height="4" rx="2" fill="#ADB8CA"/>
<rect x="95" y="19" width="4" height="4" rx="2" fill="#ADB8CA"/>
<rect x="23" y="27" width="10" height="10" fill="#D9DCE2"/>
<rect x="23" y="42" width="10" height="10" fill="#D9DCE2"/>
<rect x="23" y="56" width="10" height="10" fill="#D9DCE2"/>
<rect x="25" y="29" width="6" height="6" fill="#F67660"/>
<rect x="25" y="44" width="6" height="6" fill="#27AE60"/>
<rect x="25" y="58" width="6" height="6" fill="white"/>
<rect opacity="0.8" x="31" y="76" width="18" height="2" rx="1" fill="white"/>
<defs>
<filter id="filter0_d" x="0" y="0" width="137" height="95" filterUnits="userSpaceOnUse" color-interpolation-filters="sRGB">
<feFlood flood-opacity="0" result="BackgroundImageFix"/>
<feColorMatrix in="SourceAlpha" type="matrix" values="0 0 0 0 0 0 0 0 0 0 0 0 0 0 0 0 0 0 127 0"/>
<feOffset/>
<feGaussianBlur stdDeviation="1"/>
<feColorMatrix type="matrix" values="0 0 0 0 0 0 0 0 0 0 0 0 0 0 0 0 0 0 0.16 0"/>
<feBlend mode="normal" in2="BackgroundImageFix" result="effect1_dropShadow"/>
<feBlend mode="normal" in="SourceGraphic" in2="effect1_dropShadow" result="shape"/>
</filter>
</defs>
</svg>
