<svg width="137" height="95" viewBox="0 0 137 95" fill="none" xmlns="http://www.w3.org/2000/svg">
<g filter="url(#filter0_d)">
<rect x="2" y="2" width="133" height="91" rx="4" fill="white"/>
</g>
<path d="M3 6C3 4.34315 4.34315 3 6 3H131C132.657 3 134 4.34315 134 6V9H3V6Z" fill="#E6EBF1"/>
<circle cx="131" cy="6" r="1" fill="#48448C"/>
<circle cx="128" cy="6" r="1" fill="#48448C"/>
<circle cx="125" cy="6" r="1" fill="#48448C"/>
<rect x="24" y="19" width="35" height="4" rx="2" fill="#ADB8CA"/>
<rect x="47" y="27" width="67" height="34" rx="3" fill="#E1E1E1" fill-opacity="0.6"/>
<rect x="65" y="32" width="23" height="3" rx="1.5" fill="#ADB8CA"/>
<rect x="65" y="37" width="37" height="3" rx="1.5" fill="#ADB8CA"/>
<rect x="65" y="43" width="6" height="3" rx="1.5" fill="#ADB8CA"/>
<rect x="65" y="48" width="6" height="3" rx="1.5" fill="#ADB8CA"/>
<rect x="65" y="53" width="6" height="3" rx="1.5" fill="#ADB8CA"/>
<path d="M47 67C47 65.3431 48.3431 64 50 64H111C112.657 64 114 65.3431 114 67V93H47V67Z" fill="#E1E1E1" fill-opacity="0.6"/>
<rect x="73" y="43" width="20" height="3" rx="1.5" fill="#C8C8C9"/>
<rect x="73" y="48" width="29" height="3" rx="1.5" fill="#C8C8C9"/>
<rect x="73" y="53" width="24" height="3" rx="1.5" fill="#C8C8C9"/>
<rect x="65" y="69" width="23" height="3" rx="1.5" fill="#ADB8CA"/>
<rect x="65" y="74" width="37" height="3" rx="1.5" fill="#ADB8CA"/>
<rect x="65" y="80" width="6" height="3" rx="1.5" fill="#ADB8CA"/>
<rect x="65" y="85" width="6" height="3" rx="1.5" fill="#ADB8CA"/>
<rect x="65" y="90" width="6" height="3" rx="1.5" fill="#ADB8CA"/>
<rect x="73" y="80" width="20" height="3" rx="1.5" fill="#C8C8C9"/>
<rect x="73" y="85" width="29" height="3" rx="1.5" fill="#C8C8C9"/>
<rect x="73" y="90" width="24" height="3" rx="1.5" fill="#C8C8C9"/>
<rect x="24" y="27" width="20" height="25" rx="2" fill="#EDEDED"/>
<rect x="24" y="54" width="20" height="20" rx="2" fill="#EDEDED"/>
<path d="M24 79C24 77.8954 24.8954 77 26 77H42C43.1046 77 44 77.8954 44 79V93H24V79Z" fill="#EDEDED"/>
<rect x="51" y="31" width="10" height="10" rx="5" fill="#C4CDDB"/>
<rect x="52" y="68" width="10" height="10" rx="5" fill="#F2C94C" fill-opacity="0.8"/>
<path d="M26 31C26 30.4477 26.4477 30 27 30H41C41.5523 30 42 30.4477 42 31C42 31.5523 41.5523 32 41 32H27C26.4477 32 26 31.5523 26 31Z" fill="#ADB8CA"/>
<path d="M26 35C26 34.4477 26.4477 34 27 34H37C37.5523 34 38 34.4477 38 35C38 35.5523 37.5523 36 37 36H27C26.4477 36 26 35.5523 26 35Z" fill="#C8C8C9"/>
<path d="M26 39C26 38.4477 26.4477 38 27 38H39C39.5523 38 40 38.4477 40 39C40 39.5523 39.5523 40 39 40H27C26.4477 40 26 39.5523 26 39Z" fill="#C8C8C9"/>
<path d="M26 43C26 42.4477 26.4477 42 27 42H37C37.5523 42 38 42.4477 38 43C38 43.5523 37.5523 44 37 44H27C26.4477 44 26 43.5523 26 43Z" fill="#C8C8C9"/>
<path d="M26 48C26 47.4477 26.4477 47 27 47H37C37.5523 47 38 47.4477 38 48C38 48.5523 37.5523 49 37 49H27C26.4477 49 26 48.5523 26 48Z" fill="#C8C8C9"/>
<path d="M26 62C26 61.4477 26.4477 61 27 61H37C37.5523 61 38 61.4477 38 62C38 62.5523 37.5523 63 37 63H27C26.4477 63 26 62.5523 26 62Z" fill="#C8C8C9"/>
<path d="M26 66C26 65.4477 26.4477 65 27 65H39C39.5523 65 40 65.4477 40 66C40 66.5523 39.5523 67 39 67H27C26.4477 67 26 66.5523 26 66Z" fill="#C8C8C9"/>
<path d="M26 70C26 69.4477 26.4477 69 27 69H37C37.5523 69 38 69.4477 38 70C38 70.5523 37.5523 71 37 71H27C26.4477 71 26 70.5523 26 70Z" fill="#C8C8C9"/>
<path d="M26 84C26 83.4477 26.4477 83 27 83H37C37.5523 83 38 83.4477 38 84C38 84.5523 37.5523 85 37 85H27C26.4477 85 26 84.5523 26 84Z" fill="#C8C8C9"/>
<path d="M26 88C26 87.4477 26.4477 87 27 87H39C39.5523 87 40 87.4477 40 88C40 88.5523 39.5523 89 39 89H27C26.4477 89 26 88.5523 26 88Z" fill="#C8C8C9"/>
<path d="M26 92C26 91.4477 26.4477 91 27 91H37C37.5523 91 38 91.4477 38 92C38 92.5523 37.5523 93 37 93H27C26.4477 93 26 92.5523 26 92Z" fill="#C8C8C9"/>
<path d="M26 58C26 57.4477 26.4477 57 27 57H41C41.5523 57 42 57.4477 42 58C42 58.5523 41.5523 59 41 59H27C26.4477 59 26 58.5523 26 58Z" fill="#ADB8CA"/>
<path d="M26 80C26 79.4477 26.4477 79 27 79H41C41.5523 79 42 79.4477 42 80C42 80.5523 41.5523 81 41 81H27C26.4477 81 26 80.5523 26 80Z" fill="#ADB8CA"/>
<defs>
<filter id="filter0_d" x="0" y="0" width="137" height="95" filterUnits="userSpaceOnUse" color-interpolation-filters="sRGB">
<feFlood flood-opacity="0" result="BackgroundImageFix"/>
<feColorMatrix in="SourceAlpha" type="matrix" values="0 0 0 0 0 0 0 0 0 0 0 0 0 0 0 0 0 0 127 0"/>
<feOffset/>
<feGaussianBlur stdDeviation="1"/>
<feColorMatrix type="matrix" values="0 0 0 0 0 0 0 0 0 0 0 0 0 0 0 0 0 0 0.16 0"/>
<feBlend mode="normal" in2="BackgroundImageFix" result="effect1_dropShadow"/>
<feBlend mode="normal" in="SourceGraphic" in2="effect1_dropShadow" result="shape"/>
</filter>
</defs>
</svg>
