<svg width="14" height="16" viewBox="0 0 14 16" fill="none" xmlns="http://www.w3.org/2000/svg">
<path d="M9.98749 13.4232C9.98749 13.6926 9.76854 13.8947 9.51591 13.8947C9.26328 13.8947 9.04433 13.6758 9.04433 13.4232V4.58105H7.41065V13.4232C7.41065 13.6926 7.1917 13.8947 6.93907 13.8947C6.68644 13.8947 6.46749 13.6758 6.46749 13.4232V4.58105H4.85065V13.4232C4.85065 13.6926 4.6317 13.8947 4.37907 13.8947C4.12644 13.8947 3.90749 13.6758 3.90749 13.4232V4.58105H1.70117V13.9453C1.70117 15.0737 2.62749 16 3.75591 16H10.1222C11.2506 16 12.177 15.0737 12.177 13.9453V4.58105H9.98749V13.4232Z" fill="#48448C" style="fill: var(--main-color);"/>
<path d="M13.1705 2.25684H9.78526V0.707368C9.78526 0.32 9.46526 0 9.07789 0H4.8C4.41263 0 4.09263 0.32 4.09263 0.707368V2.25684H0.707368C0.32 2.25684 0 2.57684 0 2.96421C0 3.35158 0.32 3.67158 0.707368 3.67158H13.1705C13.5579 3.67158 13.8779 3.35158 13.8779 2.96421C13.8779 2.57684 13.5747 2.25684 13.1705 2.25684ZM5.50737 1.43158H8.35368V2.27368H5.50737V1.43158Z" fill="#48448C" style="fill: var(--main-color);"/>
</svg>
