<svg viewBox="0 0 20 11" fill="none" xmlns="http://www.w3.org/2000/svg">
<g clip-path="url(#clip0)">
<path d="M19.8939 9.93459C19.8697 9.88428 19.8471 9.84254 19.8262 9.80911C19.4792 9.20665 18.8161 8.46719 17.8373 7.59049L17.8166 7.57042L17.8062 7.56057L17.7958 7.55048H17.7852C17.341 7.14225 17.0597 6.86776 16.9419 6.72723C16.7263 6.45953 16.6781 6.18855 16.7959 5.914C16.8791 5.70656 17.1917 5.26847 17.7331 4.59915C18.0178 4.24443 18.2433 3.96013 18.4098 3.74594C19.6109 2.20667 20.1316 1.22306 19.9719 0.794715L19.9098 0.694617C19.8682 0.634354 19.7606 0.579224 19.5872 0.528947C19.4135 0.478774 19.1914 0.470477 18.9206 0.503913L15.9217 0.523884C15.8731 0.507289 15.8037 0.508835 15.7133 0.528947C15.6231 0.549058 15.5779 0.559148 15.5779 0.559148L15.5257 0.584287L15.4843 0.614489C15.4496 0.634459 15.4114 0.669583 15.3697 0.719791C15.3282 0.769822 15.2935 0.828538 15.2658 0.895446C14.9393 1.7052 14.5681 2.45806 14.1515 3.154C13.8946 3.56898 13.6587 3.92863 13.4432 4.23314C13.2281 4.53755 13.0476 4.76183 12.9019 4.9056C12.756 5.0495 12.6244 5.16479 12.5061 5.25188C12.3881 5.339 12.2979 5.37581 12.2355 5.36235C12.173 5.34888 12.1141 5.33552 12.0583 5.32216C11.9612 5.2619 11.8831 5.17994 11.8242 5.07622C11.765 4.9725 11.7252 4.84196 11.7043 4.68469C11.6836 4.52732 11.6714 4.39196 11.6679 4.27815C11.6646 4.16448 11.6661 4.00369 11.6732 3.79625C11.6804 3.58871 11.6836 3.44828 11.6836 3.37466C11.6836 3.12032 11.6888 2.84428 11.6991 2.54649C11.7096 2.24869 11.7181 2.01273 11.7252 1.83891C11.7323 1.6649 11.7356 1.48081 11.7356 1.28673C11.7356 1.09265 11.7233 0.94045 11.6991 0.829979C11.6752 0.71965 11.6384 0.612555 11.59 0.50873C11.5413 0.40501 11.4701 0.324777 11.3766 0.267819C11.2829 0.210932 11.1664 0.165787 11.0277 0.132246C10.6598 0.0519771 10.1912 0.00855556 9.62184 0.001805C8.33067 -0.0115555 7.50104 0.0688184 7.1331 0.242821C6.98732 0.316339 6.8554 0.416789 6.73745 0.543854C6.61246 0.691136 6.59502 0.77151 6.68526 0.78473C7.10184 0.844887 7.39676 0.988793 7.57033 1.21631L7.63288 1.33687C7.68154 1.42385 7.73012 1.57785 7.77874 1.79865C7.82728 2.01945 7.85861 2.2637 7.8724 2.53126C7.90705 3.01987 7.90705 3.43812 7.8724 3.78606C7.83764 4.13413 7.80481 4.40511 7.77348 4.59918C7.74215 4.79326 7.69532 4.95053 7.63288 5.07095C7.57033 5.19141 7.52872 5.26503 7.50786 5.29175C7.48703 5.31847 7.46967 5.33531 7.45588 5.34192C7.36565 5.37525 7.27181 5.39223 7.17468 5.39223C7.07741 5.39223 6.95946 5.34533 6.82064 5.2516C6.68186 5.15786 6.53783 5.02911 6.38855 4.86513C6.23927 4.70111 6.07091 4.47191 5.88341 4.17748C5.69605 3.88306 5.50165 3.53509 5.30032 3.13357L5.13375 2.84239C5.02962 2.65506 4.88738 2.38229 4.70688 2.02434C4.52627 1.66624 4.36663 1.31985 4.22785 0.985242C4.17238 0.844711 4.08904 0.737722 3.97798 0.664098L3.92586 0.633897C3.89121 0.607176 3.83559 0.578802 3.75929 0.548565C3.68288 0.518364 3.60315 0.496706 3.51977 0.48338L0.666571 0.503351C0.37501 0.503351 0.177183 0.567024 0.0730179 0.694195L0.0313298 0.754352C0.0105041 0.787859 0 0.841371 0 0.915029C0 0.988653 0.0208258 1.07901 0.0625138 1.186C0.479029 2.12967 0.931981 3.03977 1.42137 3.91643C1.91076 4.79309 2.33602 5.49926 2.69692 6.03431C3.05789 6.56975 3.42582 7.07509 3.80072 7.55009C4.17562 8.02527 4.42378 8.32978 4.5452 8.46356C4.66676 8.59759 4.76225 8.69779 4.83165 8.7647L5.09203 9.00558C5.25864 9.16622 5.50329 9.35861 5.82611 9.58275C6.149 9.80703 6.50647 10.0278 6.89869 10.2455C7.29099 10.4628 7.74737 10.6402 8.26809 10.7773C8.78873 10.9146 9.29548 10.9697 9.78841 10.9431H10.9859C11.2288 10.9229 11.4128 10.8493 11.5379 10.7222L11.5793 10.6719C11.6072 10.632 11.6333 10.5699 11.6573 10.4864C11.6817 10.4028 11.6938 10.3106 11.6938 10.2104C11.6867 9.92267 11.7094 9.66337 11.7613 9.43252C11.8132 9.20173 11.8724 9.02773 11.9386 8.91054C12.0047 8.79346 12.0793 8.69466 12.1624 8.61457C12.2456 8.5343 12.3049 8.48568 12.3397 8.46894C12.3743 8.4521 12.4019 8.44068 12.4227 8.43382C12.5893 8.38031 12.7854 8.43213 13.0112 8.58954C13.2369 8.74681 13.4485 8.94099 13.6465 9.17178C13.8444 9.40277 14.0821 9.66193 14.3597 9.94964C14.6375 10.2375 14.8804 10.4514 15.0886 10.5921L15.2968 10.7126C15.4358 10.793 15.6163 10.8666 15.8385 10.9335C16.0603 11.0004 16.2546 11.0171 16.4215 10.9837L19.0872 10.9436C19.3508 10.9436 19.556 10.9015 19.7015 10.818C19.8473 10.7344 19.934 10.6422 19.9619 10.542C19.9898 10.4416 19.9912 10.3278 19.9672 10.2005C19.9425 10.0735 19.9182 9.98476 19.8939 9.93459Z" fill="#4D75A3"/>
</g>
<defs>
<clipPath id="clip0">
<rect width="20" height="11" fill="white"/>
</clipPath>
</defs>
</svg>
