<svg width="26" height="23" viewBox="0 0 26 23" fill="none" xmlns="http://www.w3.org/2000/svg">
<g clip-path="url(#clip0)">
<path d="M14.6756 0.98118C14.3289 0.375157 13.6933 0 13 0C12.3067 0 11.6711 0.375157 11.3244 0.98118L0.26 20.0853C-0.0866667 20.6913 -0.0866667 21.4128 0.26 22.0188C0.606667 22.6248 1.24222 23 1.93556 23H24.0356C24.7289 23 25.3644 22.6248 25.7111 22.0188C26.0578 21.4128 26.0578 20.6913 25.7111 20.0853L14.6756 0.98118ZM24.7289 21.4705C24.5844 21.7302 24.3244 21.8745 24.0356 21.8745H1.96444C1.67556 21.8745 1.41556 21.7302 1.27111 21.4705C1.12667 21.2108 1.12667 20.9222 1.27111 20.6913L12.3067 1.55834C12.4511 1.29862 12.7111 1.15433 13 1.15433C13.2889 1.15433 13.5489 1.29862 13.6933 1.55834L24.7578 20.6913C24.8733 20.9222 24.8733 21.2108 24.7289 21.4705Z" fill="black"/>
<path d="M12.9999 8.34003C11.3243 8.34003 9.76434 9.00377 8.60878 10.2158C8.37767 10.4467 8.40656 10.8218 8.63767 11.0238C8.86878 11.2258 9.24434 11.2258 9.44656 10.995C10.371 10.0138 11.6421 9.4655 12.9999 9.4655C15.7154 9.4655 17.911 11.6587 17.911 14.3714C17.911 15.2371 17.6799 16.074 17.2754 16.7955C17.131 17.0841 17.2177 17.4304 17.4777 17.5747C17.5643 17.6324 17.6799 17.6612 17.7666 17.6612C17.9688 17.6612 18.171 17.5458 18.2577 17.3726C18.7777 16.4492 19.0666 15.4103 19.0666 14.3714C19.0666 11.0527 16.351 8.34003 12.9999 8.34003Z" fill="black"/>
<path d="M16.4669 17.8633C15.5425 18.7867 14.3003 19.3062 13.0003 19.3062C10.2847 19.3062 8.08915 17.1129 8.08915 14.4003C8.08915 13.5922 8.26248 12.8419 8.63804 12.1205C8.78248 11.8319 8.66693 11.4856 8.40693 11.3413C8.11804 11.197 7.77137 11.3124 7.62693 11.5722C7.1647 12.4379 6.93359 13.3902 6.93359 14.3714C6.93359 17.719 9.64915 20.4316 13.0003 20.4316C14.618 20.4316 16.1492 19.7968 17.3047 18.6424C17.5358 18.4116 17.5358 18.0653 17.3047 17.8344C17.0736 17.6324 16.698 17.6324 16.4669 17.8633Z" fill="black"/>
<path d="M12.9997 16.7667C13.3174 16.7667 13.5774 16.5069 13.5774 16.1895V10.8507C13.5774 10.5333 13.3174 10.2736 12.9997 10.2736C12.6819 10.2736 12.4219 10.5333 12.4219 10.8507V16.1895C12.4219 16.5069 12.6819 16.7667 12.9997 16.7667Z" fill="black"/>
<path d="M12.9997 18.4693C13.3188 18.4693 13.5774 18.2109 13.5774 17.8921C13.5774 17.5733 13.3188 17.3149 12.9997 17.3149C12.6806 17.3149 12.4219 17.5733 12.4219 17.8921C12.4219 18.2109 12.6806 18.4693 12.9997 18.4693Z" fill="black"/>
</g>
<defs>
<clipPath id="clip0">
<rect width="26" height="23" fill="white"/>
</clipPath>
</defs>
</svg>
