<svg width="21" height="21" viewBox="0 0 21 21" fill="none" xmlns="http://www.w3.org/2000/svg">
<path fill-rule="evenodd" clip-rule="evenodd" d="M10.5041 0C4.70497 0 0 4.71251 0 10.5C0 16.2961 4.7057 21 10.5041 21C16.2938 21 21 16.2969 21 10.5C21 4.71177 16.2946 0 10.5041 0ZM8.7697 1.46511C7.80109 2.70912 7.14978 4.34408 6.75843 6.14535H2.39395C3.68268 3.74618 6.0011 1.98867 8.7697 1.46511ZM12.2059 1.46511C14.9792 1.98447 17.3126 3.74094 18.6061 6.14535H14.2253C13.8332 4.34401 13.1749 2.7091 12.2059 1.46511ZM10.4878 1.52209C11.5584 2.50484 12.372 4.18117 12.8573 6.14535H8.12641C8.61089 4.18121 9.41747 2.50479 10.4878 1.52209ZM1.8158 7.45581H6.51416C6.37163 8.45734 6.31 9.48616 6.31058 10.5163C6.31118 11.5357 6.38192 12.5618 6.52232 13.5523H1.8158C1.48176 12.5977 1.30283 11.5713 1.30283 10.5C1.30283 9.43267 1.48288 8.40838 1.8158 7.45581ZM7.85771 7.45581H13.126C13.2886 8.4446 13.3788 9.47807 13.3784 10.5163C13.3782 11.5462 13.2866 12.5724 13.126 13.5523H7.85771C7.69703 12.5724 7.61401 11.5462 7.61341 10.5163C7.61282 9.47802 7.69551 8.4446 7.85771 7.45581ZM14.4696 7.45581H19.1842C19.5177 8.40833 19.6972 9.43281 19.6972 10.5C19.6972 11.5712 19.5188 12.5977 19.1842 13.5523H14.4696C14.6099 12.5618 14.681 11.5357 14.6813 10.5163C14.6816 9.48611 14.6125 8.45737 14.4696 7.45581ZM2.38583 14.8546H6.75031C7.14009 16.6565 7.79596 18.2939 8.76153 19.5349C5.99248 19.0099 3.67216 17.2568 2.38583 14.8546ZM8.12641 14.8546H12.8655C12.3798 16.8304 11.5624 18.5105 10.4878 19.486C9.41739 18.5101 8.61143 16.8279 8.12641 14.8546ZM14.2334 14.8546H18.6142C17.3244 17.2596 14.9924 19.0122 12.2222 19.5349C13.1893 18.294 13.8435 16.6566 14.2334 14.8546Z" fill="#2F80ED"/>
</svg>
