<svg width="10" height="20" viewBox="0 0 10 20" fill="none" xmlns="http://www.w3.org/2000/svg">
<g clip-path="url(#clip0)">
<path d="M9.11782 0H6.33099C3.50757 0 0.658607 2.12586 0.658607 6.87523C0.658607 9.33531 1.68114 11.2513 3.55558 12.3409L0.124833 18.6726C-0.0378315 18.9721 -0.0420839 19.3114 0.113417 19.5804C0.26524 19.8431 0.542873 20 0.855789 20H2.59127C2.98552 20 3.29292 19.8057 3.44034 19.4653L6.65705 13.05H6.89181V19.2004C6.89181 19.6339 7.25051 20 7.6751 20H9.19118C9.66734 20 9.99975 19.661 9.99975 19.1756V0.875117C9.99983 0.359883 9.63719 0 9.11782 0ZM6.89181 10.2002H6.47768C4.87191 10.2002 3.91328 8.86375 3.91328 6.62512C3.91328 3.84156 5.12426 2.8498 6.25763 2.8498H6.89181V10.2002Z" fill="#D7143A"/>
</g>
<defs>
<clipPath id="clip0">
<rect width="10" height="20" fill="white"/>
</clipPath>
</defs>
</svg>
