<?xml version="1.0" standalone="no"?>
<!DOCTYPE svg PUBLIC "-//W3C//DTD SVG 1.1//EN" "http://www.w3.org/Graphics/SVG/1.1/DTD/svg11.dtd" >
<svg xmlns="http://www.w3.org/2000/svg" xmlns:xlink="http://www.w3.org/1999/xlink" version="1.1">
<metadata>
Created by FontForge 20170731 at Tue Nov 12 07:32:13 2013
 By Aleksey,,,
Copyright (c) 2011 by Ramiz Guseynov. All rights reserved. | wf-r
</metadata>
<defs>
<font id="DeeDeeHeavy-Italic" horiz-adv-x="563" >
  <font-face 
    font-family="DeeDee Heavy"
    font-weight="900"
    font-style="italic"
    font-stretch="normal"
    units-per-em="1000"
    panose-1="2 0 5 6 0 0 0 2 0 4"
    ascent="753"
    descent="-247"
    x-height="490"
    cap-height="682"
    bbox="-173 -271 1387 990"
    underline-thickness="50"
    underline-position="-225"
    unicode-range="U+000D-FB0A"
  />
<missing-glyph horiz-adv-x="240" 
 />
    <glyph glyph-name="fi" unicode="fi" horiz-adv-x="639" 
d="M382 62l41 293h-172l-50 -355h-154l50 355h-41l19 135h41l18 127l182 208l99 -79l-132 -163l-13 -93h327l-50 -359l45 -50l-101 -105zM642 627l-118 -103l-88 103l117 103z" />
    <glyph glyph-name="fl" unicode="fl" horiz-adv-x="640" 
d="M384 62l86 612h-112l-74 -91l-13 -93h108l-19 -135h-108l-50 -355h-154l50 355h-41l19 135h41l18 127l163 188h345l-94 -674l44 -50l-100 -105z" />
    <glyph glyph-name=".notdef" horiz-adv-x="240" 
 />
    <glyph glyph-name=".null" horiz-adv-x="0" 
 />
    <glyph glyph-name="nonmarkingreturn" unicode="&#xd;" horiz-adv-x="333" 
 />
    <glyph glyph-name="NULL" horiz-adv-x="0" 
 />
    <glyph glyph-name="NULL" horiz-adv-x="0" 
 />
    <glyph glyph-name="space" unicode=" " horiz-adv-x="240" 
 />
    <glyph glyph-name="exclam" unicode="!" horiz-adv-x="330" 
d="M326 682l-80 -451h-146l46 451h180zM78 165h172l-23 -165h-172z" />
    <glyph glyph-name="quotedbl" unicode="&#x22;" horiz-adv-x="510" 
d="M516 682l-67 -252h-124l35 252h156zM283 682l-69 -252h-123l35 252h157z" />
    <glyph glyph-name="numbersign" unicode="#" horiz-adv-x="737" 
d="M705 373h-106l-29 -99h92l-16 -118h-109l-44 -156h-142l45 156h-95l-44 -156h-144l44 156h-93l16 118h111l28 99h-96l17 116h113l45 157h143l-45 -157h94l45 157h142l-45 -157h90zM429 274l29 99h-95l-29 -99h95z" />
    <glyph glyph-name="dollar" unicode="$" horiz-adv-x="608" 
d="M189 -88l11 80q-38 4 -75 13.5t-55 16.5l-17 8l22 156q88 -45 188 -45q48 0 82 14.5t34 41.5q0 16 -16 31.5t-41 31t-55.5 32.5t-58.5 35q-38 26 -65 64.5t-27 86.5q0 37 13.5 69t37.5 57.5t57 43.5t72 29l12 84h163l-10 -72q32 -3 64 -10t47 -12l16 -5l-21 -152
q-102 32 -192 32q-37 0 -60.5 -12t-23.5 -31q0 -16 19.5 -30t48.5 -30t63 -35t63 -45t48.5 -61.5t19.5 -83.5q0 -60 -46 -121t-141 -88l-13 -93h-164z" />
    <glyph glyph-name="percent" unicode="%" horiz-adv-x="992" 
d="M836 682l-494 -682h-142l494 682h142zM726 -10q-75 0 -123 45q-48 46 -48 115q0 87 67 148q68 62 156 62q75 0 122 -46q49 -45 49 -113q0 -85 -67 -148q-66 -63 -156 -63zM261 321q-75 0 -123 45q-48 46 -48 115q0 87 67 148q67 63 156 63q72 0 122 -47q49 -46 49 -114
q0 -85 -68 -148q-68 -62 -155 -62zM761 238q-30 0 -51.5 -21.5t-21.5 -51.5q0 -24 15 -38.5t40 -14.5q31 0 53 21t22 51q0 23 -16 38.5t-41 15.5zM296 570q-32 0 -53.5 -21t-21.5 -52q0 -24 15.5 -39.5t41.5 -15.5q29 0 50.5 21.5t21.5 53.5q0 23 -15 38t-39 15z" />
    <glyph glyph-name="ampersand" unicode="&#x26;" horiz-adv-x="764" 
d="M733 310h-84l-10 -73q-13 -100 -103 -174q-88 -73 -221 -73q-121 0 -190 63t-69 148q0 111 100 190q-36 34 -36 90q0 96 74 152q73 57 181 57q18 0 38 -1.5t38.5 -4.5t34 -6t26.5 -6l21 -6l-19 -135q-68 25 -138 25q-46 0 -68.5 -18.5t-22.5 -42.5q0 -22 15.5 -36.5
t42.5 -14.5h13l-19 -134h-13q-45 0 -73 -30q-28 -29 -28 -64q0 -17 8.5 -33t24 -28t37 -19.5t47.5 -7.5q27 0 50.5 9t41.5 24t29.5 35.5t14.5 44.5l10 69h-75l19 134h246l66 55l92 -79z" />
    <glyph glyph-name="quotesingle" unicode="'" horiz-adv-x="277" 
d="M283 682l-69 -252h-123l35 252h157z" />
    <glyph glyph-name="parenleft" unicode="(" horiz-adv-x="381" 
d="M240 152q0 -79 16 -165q8 -45 17 -79.5t17 -59.5l16 -51l-143 -59q-2 3 -4 8t-5.5 13t-9 22t-12.5 35q-16 45 -27 88q-12 45 -21.5 107.5t-9.5 122.5q0 80 23 172q24 92 58 161q34 72 67.5 130.5t57.5 90.5l23 32l123 -62l-21 -31q-6 -10 -17 -30t-27 -50
q-32 -59 -57 -117q-12 -29 -23 -62.5t-21 -72.5q-20 -78 -20 -143z" />
    <glyph glyph-name="parenright" unicode=")" horiz-adv-x="381" 
d="M172 306q0 74 -17 165t-33 139l-16 51l143 59q2 -3 4 -8t5.5 -13t8.5 -22t13 -35q16 -45 27 -88q12 -45 21.5 -107.5t9.5 -122.5q0 -82 -24 -173q-22 -89 -57 -160q-33 -71 -67 -130t-58 -91l-23 -32l-123 62l20 31q12 18 45 80q16 29 30 58t26 58q25 58 45 135
q20 80 20 144z" />
    <glyph glyph-name="asterisk" unicode="*" horiz-adv-x="545" 
d="M531 525l-104 -31l49 -82l-140 -90l-49 82l-70 -81l-115 92l74 83l-90 31l66 149l96 -32l14 100h157l-15 -104l101 32z" />
    <glyph glyph-name="plus" unicode="+" horiz-adv-x="578" 
d="M74 202l20 143h154l21 154h142l-21 -154h152l-20 -143h-152l-22 -150h-142l22 150h-154z" />
    <glyph glyph-name="comma" unicode="," horiz-adv-x="313" 
d="M274 165l-131 -304h-126l84 304h173z" />
    <glyph glyph-name="hyphen" unicode="-" horiz-adv-x="437" 
d="M64 202l20 143h327l-20 -143h-327z" />
    <glyph glyph-name="period" unicode="." horiz-adv-x="307" 
d="M64 0l23 165h167l-23 -165h-167z" />
    <glyph glyph-name="slash" unicode="/" horiz-adv-x="385" 
d="M-23 0l320 682h159l-321 -682h-158z" />
    <glyph glyph-name="zero" unicode="0" horiz-adv-x="582" 
d="M577 430q0 -45 -7 -94.5t-22.5 -98.5t-40 -93.5t-59 -79t-80 -54.5t-102.5 -20q-106 0 -160.5 67t-54.5 191q0 198 88 320q88 124 226 124q105 0 158.5 -69t53.5 -193zM411 410q0 61 -17.5 97.5t-49.5 36.5q-49 0 -88 -82q-38 -84 -38 -191q0 -63 18 -99t51 -36t59 32
q19 24 31.5 56.5t19.5 66.5t10 65.5t4 53.5z" />
    <glyph glyph-name="one" unicode="1" horiz-adv-x="376" 
d="M372 682l-95 -682h-168l74 532h-118l21 150h286z" />
    <glyph glyph-name="two" unicode="2" horiz-adv-x="572" 
d="M513 150l-21 -150h-472l20 138l214 185q123 106 125 163q0 23 -22 37.5t-61 14.5q-28 0 -72 -10q-23 -5 -43 -10t-37 -10l-33 -10l21 149q96 43 214 43q49 0 87 -13t63.5 -37t38.5 -56.5t13 -71.5q0 -33 -7 -64.5t-24 -62t-44.5 -62t-67.5 -65.5l-129 -108h237z" />
    <glyph glyph-name="three" unicode="3" horiz-adv-x="547" 
d="M511 254q0 -115 -79 -190q-80 -74 -209 -74q-30 0 -59 3t-53 8t-42.5 11t-28.5 12l-20 11l21 145q99 -44 185 -44q25 0 46.5 7t37.5 19.5t24.5 29.5t8.5 36q0 66 -97 66h-71l20 140h91q15 0 28.5 5.5t24 14.5t17 21.5t6.5 26.5q0 20 -19.5 32t-56.5 12q-34 0 -77 -9
q-22 -4 -39.5 -8t-31.5 -9l-27 -8l20 141q90 39 205 39q83 0 139 -45t56 -118q0 -98 -75 -156q55 -40 55 -119z" />
    <glyph glyph-name="four" unicode="4" horiz-adv-x="613" 
d="M514 273h68l-22 -150h-68l-17 -123h-167l17 123h-288l20 138l259 431l137 -64l-211 -355h105l20 143h167z" />
    <glyph glyph-name="five" unicode="5" horiz-adv-x="555" 
d="M531 268q0 -120 -84 -199q-82 -79 -218 -79q-27 0 -53.5 3t-49.5 7.5t-41 9.5t-29 10l-21 11l21 150q100 -42 182 -42q25 0 48 7.5t39.5 20.5t26.5 31.5t10 40.5q0 36 -28 56t-70 20q-23 0 -48.5 -5.5t-39.5 -10.5l-13 -5l-80 66l82 322h400l-21 -148h-254l-22 -82
q8 1 16.5 1.5t16.5 0.5q101 0 165 -49q65 -50 65 -137z" />
    <glyph glyph-name="six" unicode="6" horiz-adv-x="574" 
d="M549 266q0 -114 -80 -196q-80 -80 -205 -80q-98 0 -156.5 59t-58.5 183q0 202 105 331t253 129q23 0 50 -4t43 -8l16 -3l-19 -133q-42 13 -97 13q-50 0 -91 -37q-41 -35 -58 -86q46 24 102 24q89 0 142 -53q54 -53 54 -139zM284 132q43 0 72 33q30 34 30 81
q0 34 -17 55.5t-45 21.5q-53 0 -109 -32q-2 -16 -3 -28.5t-1 -21.5q0 -109 73 -109z" />
    <glyph glyph-name="seven" unicode="7" horiz-adv-x="512" 
d="M558 682l-19 -135l-326 -547h-179l323 531h-287l21 151h467z" />
    <glyph glyph-name="eight" unicode="8" horiz-adv-x="597" 
d="M558 230q0 -105 -86 -173q-85 -67 -202 -67q-101 0 -162 49q-62 50 -62 131q0 32 9 60.5t25 52.5t37 43.5t45 32.5q-55 45 -55 121q0 88 74 150q76 62 192 62q90 0 146 -46q58 -45 58 -112q0 -108 -98 -168q79 -49 79 -136zM338 439q71 29 71 74q0 18 -18 29.5t-45 11.5
q-30 0 -52 -14.5t-22 -33.5q0 -20 18.5 -38t47.5 -29zM293 129q29 0 61 17q32 18 32 50q0 18 -13 35.5t-26 26.5l-37 25h-4q-92 -42 -92 -92q0 -26 22.5 -44t56.5 -18z" />
    <glyph glyph-name="nine" unicode="9" horiz-adv-x="574" 
d="M71 417q0 114 80 194q79 81 206 81q49 0 89 -14.5t68 -44.5t43 -75.5t15 -108.5q0 -201 -105 -330t-253 -129q-23 0 -50 3.5t-43 7.5l-16 4l19 133q42 -13 97 -13q49 0 91 36q41 37 58 87q-47 -24 -102 -24q-89 0 -144 53q-53 55 -53 140zM337 550q-43 0 -73 -34
q-29 -34 -29 -80q0 -34 17 -55.5t45 -21.5q55 0 108 32q2 16 3 28.5t1 22.5q0 108 -72 108z" />
    <glyph glyph-name="colon" unicode=":" horiz-adv-x="307" 
d="M52 0l23 165h167l-23 -165h-167zM98 325l23 165h167l-23 -165h-167z" />
    <glyph glyph-name="semicolon" unicode=";" horiz-adv-x="313" 
d="M113 325l23 165h167l-23 -165h-167zM262 165l-130 -304h-126l83 304h173z" />
    <glyph glyph-name="less" unicode="&#x3c;" horiz-adv-x="578" 
d="M548 390l-284 -113v-4l252 -114l-21 -148l-419 211l15 107l478 210z" />
    <glyph glyph-name="equal" unicode="=" horiz-adv-x="578" 
d="M90 316l20 143h448l-20 -143h-448zM58 94l20 142h448l-20 -142h-448z" />
    <glyph glyph-name="greater" unicode="&#x3e;" horiz-adv-x="578" 
d="M352 277l-252 113l21 149l418 -210l-15 -107l-477 -211l21 148l284 114v4z" />
    <glyph glyph-name="question" unicode="?" horiz-adv-x="467" 
d="M483 550q0 -32 -10 -58.5t-25.5 -49t-35.5 -43t-39 -39.5q-25 -25 -47 -58.5t-29 -70.5h-147q6 38 18 68t28 53.5t33 41.5t32 33q22 21 36.5 43t14.5 46q0 37 -57 37q-16 0 -34.5 -2.5t-37 -6.5t-34.5 -9t-28 -9l-23 -9l19 139q78 36 183 36q87 0 135 -36.5t48 -105.5z
M105 0l23 165h172l-23 -165h-172z" />
    <glyph glyph-name="at" unicode="@" horiz-adv-x="978" 
d="M531 375q-59 0 -102 -46q-44 -47 -44 -105q0 -48 30 -80t79 -32q29 0 67 18l32 228q-29 17 -62 17zM640 0l-64 33q-55 -38 -117 -38q-85 0 -140 60q-55 59 -55 150q0 114 83 200t183 86q20 0 40.5 -6.5t31.5 -12.5l10 -6l5 24h121l-52 -368l27 -17q55 39 90 99.5
t35 135.5q0 104 -81 172q-81 69 -194 69q-146 0 -259 -116q-112 -115 -112 -275q0 -123 80 -198q80 -76 220 -76q60 0 124 11q32 5 55 11t39 11l32 11l-17 -120q-110 -42 -256 -42q-182 0 -292 110t-110 283q0 133 68 249q68 117 186 184q118 69 259 69q159 0 265 -97
q108 -98 108 -245q0 -69 -21.5 -129t-57.5 -103q-35 -42 -73 -71t-80 -48h-81z" />
    <glyph glyph-name="A" unicode="A" horiz-adv-x="678" 
d="M535 682l90 -682h-172l-20 157h-192l-64 -157h-171l279 682h250zM302 310h112l-21 191l-1 34h-4l-11 -34z" />
    <glyph glyph-name="B" unicode="B" horiz-adv-x="659" 
d="M630 513q0 -89 -75 -153q60 -44 60 -130q0 -102 -78 -166q-76 -64 -190 -64h-296l95 682h260q106 0 165 -43.5t59 -125.5zM351 147q19 0 37 4.5t31.5 13.5t21.5 22.5t8 31.5q0 55 -94 55h-102l-18 -127h116zM274 415h97q45 0 70 22t25 50q0 22 -19 35t-52 13h-104z" />
    <glyph glyph-name="C" unicode="C" horiz-adv-x="674" 
d="M631 188l-23 -160q-111 -38 -216 -38q-149 0 -238 87t-89 223q0 160 119 276q121 116 306 116q46 0 94 -9q49 -9 74 -18l25 -9l-21 -150q-86 33 -192 33q-100 0 -168 -67q-68 -66 -68 -162q0 -37 13 -68t37 -53t58 -34t76 -12q41 0 96 11q27 5 48.5 11t37.5 11z" />
    <glyph glyph-name="D" unicode="D" horiz-adv-x="713" 
d="M51 0l95 682h238q146 0 229 -80t83 -207q0 -169 -110 -282t-298 -113h-237zM293 537l-55 -392h66q102 0 162 66t60 166q0 73 -41.5 116.5t-122.5 43.5h-69z" />
    <glyph glyph-name="E" unicode="E" horiz-adv-x="631" 
d="M51 0l95 682h482l-21 -152h-318l-15 -109h299l-22 -152h-298l-16 -117h326l-21 -152h-491z" />
    <glyph glyph-name="F" unicode="F" horiz-adv-x="591" 
d="M606 530h-318l-15 -110h287l-22 -152h-286l-37 -268h-164l95 682h481z" />
    <glyph glyph-name="G" unicode="G" horiz-adv-x="746" 
d="M521 261h-156l21 146h323l-49 -348l-36 -20q-22 -10 -95 -30q-69 -19 -141 -19q-148 0 -236 84q-88 85 -88 215q0 179 123 290q124 112 314 112q26 0 52.5 -2.5t50.5 -7t44 -9.5t32 -10l24 -9l-21 -149q-109 34 -200 34q-108 0 -177 -66q-69 -65 -69 -162q0 -75 49 -121
t131 -46q16 0 38 2.5t37 4.5l14 3z" />
    <glyph glyph-name="H" unicode="H" horiz-adv-x="713" 
d="M709 682l-95 -682h-165l39 281h-234l-39 -281h-164l95 682h164l-34 -248h234l34 248h165z" />
    <glyph glyph-name="I" unicode="I" horiz-adv-x="319" 
d="M220 0h-169l95 682h169z" />
    <glyph glyph-name="J" unicode="J" horiz-adv-x="348" 
d="M350 682l-91 -648l-173 -188l-103 88l111 142l85 606h171z" />
    <glyph glyph-name="K" unicode="K" horiz-adv-x="662" 
d="M380 350l253 -350h-220l-161 233l-32 -233h-169l95 682h169l-32 -229l209 229h216z" />
    <glyph glyph-name="L" unicode="L" horiz-adv-x="573" 
d="M540 152l-21 -152h-468l95 682h169l-74 -530h299z" />
    <glyph glyph-name="M" unicode="M" horiz-adv-x="821" 
d="M817 682l-95 -682h-165l60 430h-4l-30 -41l-104 -125h-111l-70 125l-17 41h-4l-60 -430h-166l95 682h164l135 -242h4l204 242h164z" />
    <glyph glyph-name="N" unicode="N" horiz-adv-x="719" 
d="M715 682l-95 -682h-180l-154 380l-8 35h-4l-58 -415h-165l95 682h179l152 -374l11 -40h4l58 414h165z" />
    <glyph glyph-name="O" unicode="O" horiz-adv-x="823" 
d="M65 310q0 72 31.5 140.5t85.5 122.5t133 86.5t169 32.5q139 0 230 -89q91 -88 91 -228q0 -154 -122 -270q-121 -115 -298 -115q-139 0 -230 89q-90 90 -90 231zM462 539q-97 0 -164 -66t-67 -158q0 -72 50 -122t126 -50q97 0 164 67q68 68 68 158q0 71 -51 121
q-50 50 -126 50z" />
    <glyph glyph-name="P" unicode="P" horiz-adv-x="613" 
d="M292 535l-22 -154h102q18 0 34 8t27.5 20.5t18 28.5t6.5 33q0 29 -17 46.5t-46 17.5h-103zM625 493q0 -115 -79 -187q-78 -72 -195 -72h-102l-32 -234h-166l95 682h268q49 0 88 -13.5t66.5 -38.5t42 -60t14.5 -77z" />
    <glyph glyph-name="Q" unicode="Q" horiz-adv-x="830" 
d="M65 310q0 72 31.5 140.5t85.5 122.5t133 86.5t169 32.5q139 0 230 -89q91 -88 91 -228q0 -131 -93 -240l59 -62l-112 -105l-68 72q-95 -50 -206 -50q-139 0 -230 89q-90 90 -90 231zM435 207l112 104l56 -60q36 55 36 117q0 71 -51 121q-50 50 -126 50q-97 0 -164 -66
t-67 -158q0 -72 50 -122t126 -50q43 0 76 13z" />
    <glyph glyph-name="R" unicode="R" horiz-adv-x="664" 
d="M292 535l-20 -142h86q24 0 44.5 7t34.5 19t22 27t8 30q0 27 -17.5 43t-46.5 16h-111zM432 0l-172 310l-43 -310h-166l95 682h275q100 0 156.5 -49t56.5 -133q0 -75 -42 -133.5t-114 -86.5l155 -280h-201z" />
    <glyph glyph-name="S" unicode="S" horiz-adv-x="590" 
d="M575 662l-22 -152q-102 32 -191 32q-37 0 -61 -12t-24 -31q0 -14 16 -27.5t40.5 -28.5t54.5 -31.5t59 -35.5q39 -26 66 -67.5t27 -92.5q0 -39 -15.5 -79t-52 -73t-96 -53.5t-147.5 -20.5q-24 0 -48.5 3t-46.5 7.5t-40 9.5t-30 10l-24 10l22 156q88 -45 187 -45
q48 0 82.5 14t34.5 41q0 16 -16 32t-41 33t-55.5 34.5t-58.5 35.5q-39 26 -66 64t-27 83q0 60 24.5 102.5t69.5 65.5q45 24 95 35t110 11q21 0 43.5 -2t43 -5.5t37.5 -7.5t28 -7z" />
    <glyph glyph-name="T" unicode="T" 
d="M598 531h-183l-74 -531h-169l74 531h-181l21 151h533z" />
    <glyph glyph-name="U" unicode="U" horiz-adv-x="705" 
d="M707 682l-61 -432q-17 -117 -103 -188q-87 -72 -204 -72q-109 0 -185 65q-74 65 -74 162q0 24 3 48l59 417h163l-57 -400q-3 -23 -3 -35q0 -46 30 -75t75 -29q46 0 86 35q40 34 48 90l58 414h165z" />
    <glyph glyph-name="V" unicode="V" horiz-adv-x="661" 
d="M546 682h178l-331 -682h-172l-141 682h178l73 -433l3 -40h4l14 40z" />
    <glyph glyph-name="W" unicode="W" horiz-adv-x="821" 
d="M817 682l-95 -682h-164l-136 242h-4l-203 -242h-164l95 682h166l-61 -436h4l30 46l103 126h112l71 -126l16 -46h4l61 436h165z" />
    <glyph glyph-name="X" unicode="X" horiz-adv-x="730" 
d="M286 353l-179 329h199l101 -196h4l154 196h200l-270 -329l196 -353h-201l-116 222h-4l-179 -222h-199z" />
    <glyph glyph-name="Y" unicode="Y" horiz-adv-x="640" 
d="M250 276l-174 406h190l89 -254h4l159 254h188l-287 -406l-38 -276h-169z" />
    <glyph glyph-name="Z" unicode="Z" horiz-adv-x="618" 
d="M560 152l-21 -152h-518l21 151l354 379h-274l21 152h490l-20 -145l-365 -385h312z" />
    <glyph glyph-name="bracketleft" unicode="[" horiz-adv-x="364" 
d="M288 -103l-19 -137h-244l131 932h244l-19 -137h-84l-93 -658h84z" />
    <glyph glyph-name="backslash" unicode="\" horiz-adv-x="385" 
d="M230 682l131 -682h-159l-131 682h159z" />
    <glyph glyph-name="bracketright" unicode="]" horiz-adv-x="364" 
d="M-4 -240l18 137h84l93 658h-84l19 137h244l-131 -932h-243z" />
    <glyph glyph-name="asciicircum" unicode="^" horiz-adv-x="522" 
d="M495 317h-161l-37 177h-4l-87 -177h-161l211 365h130z" />
    <glyph glyph-name="underscore" unicode="_" horiz-adv-x="512" 
d="M500 -85l-14 -97h-511l14 97h511z" />
    <glyph glyph-name="grave" unicode="`" horiz-adv-x="264" 
d="M236 706l59 -151h-139l-101 151h181z" />
    <glyph glyph-name="a" unicode="a" horiz-adv-x="594" 
d="M452 -23l-66 54q-50 -39 -129 -39q-85 0 -147 65q-61 64 -61 157q0 118 85 200q86 83 219 83q49 0 102 -11q26 -5 45.5 -11t32.5 -11l26 -11l-46 -323l42 -47zM334 364q-50 0 -91 -38q-39 -38 -39 -91q0 -51 26 -78.5t71 -27.5q36 0 57 10l31 215q-16 10 -55 10z" />
    <glyph glyph-name="b" unicode="b" horiz-adv-x="591" 
d="M168 31l-80 -54l-74 106l55 47l95 675h156l-46 -327q31 19 84 19q84 0 145 -64t61 -161q0 -119 -82 -200q-83 -80 -187 -80q-39 0 -70.5 9.5t-44.5 19.5zM281 129q51 0 90 39q40 39 40 93q0 43 -26.5 70.5t-71.5 27.5q-31 0 -57 -10l-29 -210q19 -10 54 -10z" />
    <glyph glyph-name="c" unicode="c" horiz-adv-x="502" 
d="M462 162l-19 -137q-81 -35 -161 -35q-104 0 -168 64q-65 65 -65 163q0 121 87 202q88 81 219 81q18 0 36.5 -2.5t35.5 -6t30.5 -8.5t22.5 -9l18 -8l-20 -138q-57 33 -133 33q-54 0 -97 -41q-42 -41 -42 -92q0 -43 29 -71.5t77 -28.5q18 0 37 2.5t36.5 6t32.5 8t24 9.5z
" />
    <glyph glyph-name="d" unicode="d" horiz-adv-x="591" 
d="M441 -23l-66 54q-50 -39 -129 -39q-88 0 -148 64q-59 65 -59 163q0 110 84 194q85 84 194 84q24 0 43.5 -4.5t27.5 -9.5l7 -5l46 327h156l-95 -675l43 -47zM322 359q-51 0 -91 -39q-39 -39 -39 -93q0 -42 26.5 -70t71.5 -28q37 0 58 10l29 210q-21 10 -55 10z" />
    <glyph glyph-name="e" unicode="e" 
d="M205 196q7 -34 37 -54.5t68 -20.5q45 0 84 7t57 14l18 7l-18 -127q-85 -32 -159 -32q-113 0 -178 64q-65 65 -65 165q0 116 91 198q92 83 207 83q75 0 140 -50q64 -49 64 -143q0 -15 -3 -35t-6.5 -37t-7 -29t-3.5 -10h-326zM336 368q-42 0 -74.5 -24t-47.5 -63h207
q0 38 -23 62.5t-62 24.5z" />
    <glyph glyph-name="f" unicode="f" horiz-adv-x="354" 
d="M377 490l-19 -135h-108l-49 -355h-154l49 355h-41l19 135h41l18 127l182 208l99 -79l-132 -163l-13 -93h108z" />
    <glyph glyph-name="g" unicode="g" horiz-adv-x="591" 
d="M455 460l80 54l74 -106l-55 -47l-63 -449l-159 -182l-104 82l112 136l9 65q-31 -19 -84 -19q-85 0 -146 64t-61 164q0 114 85 195q85 82 193 82q35 0 65 -9.5t42 -19.5zM342 362q-51 0 -91 -39q-39 -39 -39 -94q0 -42 26 -69.5t71 -27.5q32 0 58 10l29 210q-19 10 -54 10
z" />
    <glyph glyph-name="h" unicode="h" horiz-adv-x="588" 
d="M306 805l-46 -333l66 23q103 0 153.5 -42.5t50.5 -115.5q0 -16 -1 -21l-30 -316h-153l28 285q1 4 1 19q0 26 -15 40t-40 14q-11 0 -31 -6t-35 -12l-14 -5l-47 -335h-157l113 805h157z" />
    <glyph glyph-name="i" unicode="i" horiz-adv-x="313" 
d="M59 62l61 428h155l-51 -359l45 -50l-101 -105zM320 627l-116 -93l-90 93l116 93z" />
    <glyph glyph-name="j" unicode="j" horiz-adv-x="313" 
d="M289 490l-81 -582l-159 -176l-101 83l110 133l76 542h155zM334 627l-116 -93l-90 93l116 93z" />
    <glyph glyph-name="k" unicode="k" horiz-adv-x="553" 
d="M303 805l-67 -480l146 165h184l-217 -233l165 -257h-193l-106 174l-25 -174h-154l113 805h154z" />
    <glyph glyph-name="l" unicode="l" horiz-adv-x="302" 
d="M46 62l104 743h155l-94 -674l44 -50l-100 -105z" />
    <glyph glyph-name="m" unicode="m" horiz-adv-x="854" 
d="M167 512l74 -58q69 42 139 42q36 0 65.5 -12t40.5 -24l12 -11q73 46 151 46q75 0 116.5 -44t41.5 -114q0 -16 -1 -21l-30 -316h-153l28 278v5t0.5 8.5t0.5 8v3.5q0 24 -11.5 38.5t-29.5 14.5q-16 0 -35 -7t-30 -13l-11 -7l-40 -329h-155l37 296q0 2 0.5 6t0.5 5
q0 23 -12.5 36t-30.5 13q-14 0 -31.5 -6t-27.5 -12l-11 -6l-46 -332h-155l50 360l-45 50z" />
    <glyph glyph-name="n" unicode="n" horiz-adv-x="606" 
d="M170 511l73 -59q74 43 153 43q75 0 118.5 -43.5t43.5 -116.5v-12.5t-1 -9.5l-29 -313h-153l28 276v5t0.5 8.5t0.5 8v3.5q0 28 -15.5 42.5t-40.5 14.5q-12 0 -32 -7t-34 -14l-14 -7l-46 -330h-157l50 362l-46 48z" />
    <glyph glyph-name="o" unicode="o" horiz-adv-x="605" 
d="M589 270q0 -115 -89 -198q-88 -82 -217 -82q-101 0 -168 65q-66 66 -66 169q0 116 90 196q91 80 216 80q101 0 168 -65q66 -65 66 -165zM302 129q50 0 90 40q41 41 41 94q0 42 -26.5 70t-71.5 28q-52 0 -91 -40q-38 -40 -38 -92q0 -42 26.5 -71t69.5 -29z" />
    <glyph glyph-name="p" unicode="p" horiz-adv-x="605" 
d="M187 513l66 -54q49 39 129 39q87 0 147 -63t60 -155q0 -125 -85 -206q-84 -81 -193 -81q-24 0 -43.5 4.5t-27.5 9.5l-7 5l-37 -262h-156l86 610l-43 47zM305 131q49 0 90 38q41 39 41 93q0 42 -27.5 70.5t-70.5 28.5q-37 0 -58 -10l-29 -210q21 -10 54 -10z" />
    <glyph glyph-name="q" unicode="q" horiz-adv-x="577" 
d="M428 469l11 21h133l-104 -740h-156l37 262q-31 -19 -92 -19q-79 0 -139 63t-60 155q0 121 83 204t195 83q26 0 49 -7t33 -15zM342 361q-51 0 -91 -40q-39 -39 -39 -93q0 -42 26 -69.5t71 -27.5q32 0 58 10l29 210q-19 10 -54 10z" />
    <glyph glyph-name="r" unicode="r" horiz-adv-x="448" 
d="M486 474l-21 -140q-48 23 -98 23q-26 0 -44.5 -7.5t-31 -18.5t-19 -22.5t-8.5 -18.5l-3 -8l-39 -282h-157l50 362l-46 48l101 102l72 -57q61 42 132 42q33 0 61 -6t39 -11z" />
    <glyph glyph-name="s" unicode="s" horiz-adv-x="462" 
d="M448 467l-18 -123q-66 33 -148 33q-20 0 -32 -9t-12 -19q0 -6 8 -12.5t21 -14t29.5 -15.5t33.5 -17q34 -17 63 -51q29 -35 29 -78q0 -81 -64 -126q-65 -45 -168 -45q-18 0 -37.5 2.5t-38.5 6.5t-35 8.5t-27 9.5l-21 9l18 132q91 -42 152 -42q58 0 58 25q0 6 -8 13
t-20.5 14.5t-29 15.5t-33.5 16q-17 9 -33 22t-28.5 29.5t-20.5 36.5t-8 42q0 76 63 123q64 47 159 47q36 0 73 -8t56 -16z" />
    <glyph glyph-name="t" unicode="t" horiz-adv-x="366" 
d="M300 582l-13 -92h108l-19 -137h-108l-32 -222l48 -48l-104 -108l-108 88l41 290h-48l14 103l130 126h91z" />
    <glyph glyph-name="u" unicode="u" horiz-adv-x="600" 
d="M463 -23l-70 61q-73 -43 -146 -43q-81 0 -128.5 41t-47.5 113q0 5 0.5 12.5t1.5 16.5l44 312h155l-41 -293q-1 -3 -1 -13q0 -26 16.5 -39.5t41.5 -13.5q16 0 36 6.5t32 12.5l13 6l47 334h157l-51 -361l45 -49z" />
    <glyph glyph-name="v" unicode="v" horiz-adv-x="551" 
d="M592 490l-248 -490h-173l-110 490h168l49 -276l3 -31h5l12 32l126 275h168z" />
    <glyph glyph-name="w" unicode="w" horiz-adv-x="824" 
d="M860 490l-213 -490h-173l-36 245l-2 37h-4l-12 -36l-106 -246h-174l-74 490h167l24 -266l1 -30h5l10 29l113 267h155l38 -265l2 -30h5l9 30l98 265h167z" />
    <glyph glyph-name="x" unicode="x" horiz-adv-x="593" 
d="M368 0l-70 139l-110 -139h-190l216 250l-138 240h185l68 -130l104 130h186l-207 -240l148 -250h-192z" />
    <glyph glyph-name="y" unicode="y" horiz-adv-x="576" 
d="M458 490h168l-287 -593l-141 -165l-102 83l112 135l24 50h-40l-89 352l-54 58l102 103l94 -76l55 -257l2 -25h4z" />
    <glyph glyph-name="z" unicode="z" horiz-adv-x="548" 
d="M475 0h-428l19 133l242 214l1 4h-202l19 139h412l-19 -135l-238 -211l-1 -4h215z" />
    <glyph glyph-name="braceleft" unicode="{" horiz-adv-x="389" 
d="M313 -103l-18 -128q-38 -7 -65.5 -10t-46.5 -3q-26 0 -48 10t-37.5 27.5t-24.5 41.5t-9 52q0 5 0.5 11.5t1.5 14.5l25 172q3 16 3 22q0 22 -18 36t-50 14l18 129q35 0 57.5 17t26.5 43l26 188q9 64 55 109t105 45q16 0 43 -3t47 -6l19 -3l-18 -128h-72q-17 0 -20 -18
l-26 -188q-4 -33 -24.5 -65.5t-48.5 -54.5q40 -41 40 -101q0 -16 -1 -21l-24 -172l-2 -18q0 -13 13 -13h73z" />
    <glyph glyph-name="bar" unicode="|" horiz-adv-x="305" 
d="M310 682l-130 -922h-155l130 922h155z" />
    <glyph glyph-name="braceright" unicode="}" horiz-adv-x="389" 
d="M-3 -231l17 128h73q16 0 19 17l26 186q9 73 73 122q-40 40 -40 101q0 15 1 19l24 175q0 6 1 10t1 6v1q0 14 -14 14h-72l18 128q76 12 113 12q25 0 47 -10t37.5 -27t24.5 -41t9 -52q0 -4 -0.5 -10t-1.5 -14l-26 -188q-1 -2 -1 -9q0 -23 17.5 -37t49.5 -14l-18 -129
q-36 0 -57.5 -16.5t-25.5 -42.5l-27 -187q-9 -63 -56 -109q-46 -46 -103 -46q-15 0 -42 3t-47 7z" />
    <glyph glyph-name="asciitilde" unicode="~" horiz-adv-x="578" 
d="M70 177l20 137q7 6 20.5 15t52.5 24t76 15q35 0 89 -27q55 -26 79 -26q12 0 28 3.5t31.5 9t30.5 12t26 12.5l22 12l-20 -137q-3 -3 -7.5 -6.5t-12.5 -8.5t-20.5 -11t-31.5 -13q-38 -15 -75 -15q-34 0 -91 26q-54 27 -80 27q-14 0 -30 -3.5t-31.5 -8.5t-30.5 -11.5
t-25 -12.5z" />
    <glyph glyph-name="exclamdown" unicode="&#xa1;" horiz-adv-x="330" 
d="M37 -192l80 451h146l-46 -451h-180zM286 325h-172l23 165h172z" />
    <glyph glyph-name="cent" unicode="&#xa2;" horiz-adv-x="502" 
d="M161 -94l15 105q-60 26 -93.5 79t-33.5 119q0 88 54 162q55 74 139 107l14 105h156l-12 -87q26 -4 50.5 -11.5t35.5 -12.5l12 -6l-20 -138q-57 33 -133 33q-54 0 -97 -41q-42 -41 -42 -92q0 -43 29 -71.5t77 -28.5q18 0 37 2.5t36.5 6t32.5 8t24 9.5l20 8l-19 -137
q-26 -11 -54 -19t-59 -12l-13 -88h-156z" />
    <glyph glyph-name="sterling" unicode="&#xa3;" horiz-adv-x="593" 
d="M329 424h130l-20 -144h-130l-19 -131h244l-21 -149h-480l21 149h71l19 131h-74l20 144h74l9 64q13 102 86 153q72 51 170 51q43 0 82.5 -8.5t57.5 -17.5l18 -8l-20 -140q-87 29 -150 29q-31 0 -52.5 -13t-24.5 -33z" />
    <glyph glyph-name="currency" unicode="&#xa4;" horiz-adv-x="642" 
d="M462 -16l-60 71q-45 -21 -94 -21q-51 0 -87 21l-81 -71l-86 98l82 71q-11 31 -11 59q0 63 36 122l-62 72l114 98l61 -70q38 19 93 19q54 0 88 -19l82 70l84 -99l-81 -71q10 -26 10 -61q0 -66 -35 -119l61 -71zM258 244q-1 -3 -1 -12q0 -29 19.5 -47.5t50.5 -18.5
q37 0 64 26t27 63q0 29 -19.5 47.5t-50.5 18.5q-34 0 -60 -22t-30 -55z" />
    <glyph glyph-name="yen" unicode="&#xa5;" horiz-adv-x="675" 
d="M128 264l16 116h60l-128 302h183l89 -268h4l161 268h183l-212 -302h63l-16 -116h-121l-9 -64h121l-17 -116h-121l-11 -84h-163l11 84h-119l17 116h119l9 64h-119z" />
    <glyph glyph-name="brokenbar" unicode="&#xa6;" horiz-adv-x="305" 
d="M310 682l-55 -388h-155l55 388h155zM235 148l-55 -388h-155l55 388h155z" />
    <glyph glyph-name="section" unicode="&#xa7;" horiz-adv-x="576" 
d="M534 223q0 -69 -36 -106l-71 -74q16 -31 16 -68q0 -93 -70 -148q-69 -57 -169 -57q-19 0 -38.5 2.5t-37.5 7t-32.5 9t-23.5 9.5l-19 10l21 152q88 -41 151 -41q22 0 37 12t15 27q0 17 -32 46q-33 30 -70 58q-39 30 -70 78q-32 50 -32 102q0 68 33 101l74 76
q-16 31 -16 71q0 99 67 151q67 54 161 54q45 0 85 -9.5t59 -18.5l18 -9l-21 -152q-80 40 -153 40q-20 0 -35 -12t-15 -27q0 -12 15 -27t38 -33.5t49 -41t49 -50t38 -60.5t15 -72zM338 145q27 27 27 52q0 46 -96 123q-28 -31 -28 -52q0 -27 24 -56t73 -67z" />
    <glyph glyph-name="dieresis" unicode="&#xa8;" horiz-adv-x="454" 
d="M250 627l-117 -93l-89 93l116 93zM498 627l-117 -93l-89 93l116 93z" />
    <glyph glyph-name="copyright" unicode="&#xa9;" horiz-adv-x="784" 
d="M539 260v-101q-57 -22 -105 -22q-83 0 -140 57q-56 59 -56 141q0 84 57 141t140 57q20 0 46 -6t42 -12l16 -6v-100q-51 21 -95 21q-21 0 -38 -7.5t-30 -20.5t-20 -30.5t-7 -36.5t7 -36.5t20 -30.5t30 -20.5t38 -7.5q20 0 43.5 5t37.5 10zM769 339q0 -142 -103 -245
q-102 -102 -244 -102t-245 102q-102 103 -102 245q0 143 102 245q103 102 245 102t244 -102q103 -102 103 -245zM688 339q0 111 -78 189t-188 78t-189 -78q-78 -78 -78 -189q0 -110 78 -188q79 -78 189 -78t188 78t78 188z" />
    <glyph glyph-name="ordfeminine" unicode="&#xaa;" horiz-adv-x="446" 
d="M340 347l-48 32q-29 -23 -78 -23q-54 0 -94 42q-41 43 -41 101q0 74 58 129t123 55q14 0 26.5 -3.5t18.5 -7.5l6 -3l7 13h94l-32 -229l34 -33zM264 586q-14 0 -27.5 -6t-24.5 -16t-17.5 -23.5t-6.5 -28.5q0 -23 16.5 -39t41.5 -16l28 4l17 123q-6 1 -12.5 1.5t-14.5 0.5z
" />
    <glyph glyph-name="guillemotleft" unicode="&#xab;" horiz-adv-x="747" 
d="M243 246l135 -246h-179l-132 246l201 244h179zM544 246l135 -246h-179l-132 246l201 244h179z" />
    <glyph glyph-name="logicalnot" unicode="&#xac;" horiz-adv-x="579" 
d="M506 48h-148l23 166h-301l20 142h449z" />
    <glyph glyph-name="registered" unicode="&#xae;" horiz-adv-x="784" 
d="M469 158l-70 132h-6v-132h-104v368h139q60 0 95 -31.5t35 -85.5q0 -35 -17.5 -63t-48.5 -39l90 -149h-113zM393 448v-83h21q20 0 32 13t12 30q0 15 -8.5 27.5t-22.5 12.5h-34zM766 339q0 -142 -103 -245q-102 -102 -244 -102t-245 102q-102 103 -102 245q0 143 102 245
q103 102 245 102q143 0 245 -102t102 -245zM685 339q0 111 -78 189t-188 78t-189 -78q-78 -78 -78 -189q0 -110 78 -188q79 -78 189 -78t188 78t78 188z" />
    <glyph glyph-name="macron" unicode="&#xaf;" horiz-adv-x="293" 
d="M346 692l-18 -125h-293l18 125h293z" />
    <glyph glyph-name="degree" unicode="&#xb0;" horiz-adv-x="398" 
d="M379 567q0 -60 -42 -102q-43 -41 -102 -41q-60 0 -103 41q-41 41 -41 102q0 59 42 101q42 43 102 43q59 0 101 -43q43 -42 43 -101zM272 529q20 17 17.5 38.5t-17.5 36.5t-36.5 17.5t-38.5 -17.5q-17 -16 -17 -37t17 -38t38 -17t37 17z" />
    <glyph glyph-name="plusminus" unicode="&#xb1;" horiz-adv-x="584" 
d="M536 300h-152l-16 -118h-150l16 118h-147l20 138h147l16 118h150l-16 -118h152zM499 0h-454l20 141h454z" />
    <glyph glyph-name="twosuperior" unicode="&#xb2;" horiz-adv-x="420" 
d="M386 400l-16 -116h-310l14 100l124 103q23 18 40.5 35t17.5 28q0 26 -26 26q-20 0 -50 -7t-50 -13l-21 -7l17 115q71 28 142 28q66 0 98.5 -30t32.5 -81q0 -79 -88 -149l-34 -28l-1 -4h110z" />
    <glyph glyph-name="threesuperior" unicode="&#xb3;" horiz-adv-x="418" 
d="M388 432q0 -70 -56 -114q-55 -43 -139 -43q-31 0 -61.5 5.5t-45.5 10.5l-16 5l15 109q60 -22 115 -22q23 0 34.5 14t11.5 27q0 11 -8.5 18.5t-23.5 7.5h-37l12 85h40q12 0 19.5 9.5t7.5 20.5q0 22 -27 22q-21 0 -49.5 -5t-46.5 -10l-18 -5l15 103q63 22 142 22
q57 0 92.5 -28.5t35.5 -77.5q0 -47 -41 -83q29 -27 29 -71z" />
    <glyph glyph-name="acute" unicode="&#xb4;" horiz-adv-x="263" 
d="M34 555l101 151h181l-143 -151h-139z" />
    <glyph glyph-name="mu" unicode="&#xb5;" horiz-adv-x="602" 
d="M20 -250l105 740h155l-42 -293q-1 -3 -1 -12q0 -26 16.5 -40t41.5 -14q18 0 38 6t31 12l12 6l48 335h157l-51 -362l46 -47l-105 -106l-71 57q-56 -37 -106 -37q-25 0 -45.5 5t-28.5 10l-8 5l-38 -265h-154z" />
    <glyph glyph-name="paragraph" unicode="&#xb6;" horiz-adv-x="713" 
d="M284 377l-15 -111h-106q-45 22 -72.5 67t-27.5 102q0 108 82 177q82 70 202 70h381l-19 -138h-59l-112 -794h-149l112 794h-54l-112 -794h-98l112 794h-47q-40 0 -74 -25q-35 -24 -35 -71q0 -32 22.5 -51.5t52.5 -19.5h16z" />
    <glyph glyph-name="periodcentered" unicode="&#xb7;" horiz-adv-x="307" 
d="M81 244l23 165h167l-23 -165h-167z" />
    <glyph glyph-name="cedilla" unicode="&#xb8;" horiz-adv-x="249" 
d="M231 -1l-30 -48q5 -3 13 -8.5t21 -23.5q14 -20 14 -39q0 -62 -49 -96q-47 -34 -116 -34q-12 0 -32.5 5t-34.5 10l-14 5l13 92q37 -17 66 -17q12 0 24 10t12 25q0 7 -5 14.5t-13.5 13.5t-18 10.5t-18.5 6.5l44 74h124z" />
    <glyph glyph-name="onesuperior" unicode="&#xb9;" horiz-adv-x="316" 
d="M322 682l-56 -400h-142l38 271h-74l18 129h216z" />
    <glyph glyph-name="ordmasculine" unicode="&#xba;" horiz-adv-x="419" 
d="M222 357q-32 0 -58 10.5t-45 29.5t-29.5 45t-10.5 56q0 78 57 134q58 56 133 56q31 0 57.5 -10.5t45.5 -29.5t29.5 -45t10.5 -56q0 -77 -58 -134q-58 -56 -132 -56zM306 532q0 23 -14.5 39.5t-37.5 16.5q-14 0 -26.5 -6.5t-22 -17t-15 -24t-5.5 -28.5q0 -24 14 -40.5
t37 -16.5q15 0 28 7t22 18t14.5 24.5t5.5 27.5z" />
    <glyph glyph-name="guillemotright" unicode="&#xbb;" horiz-adv-x="747" 
d="M333 0l205 246l-136 244h179l133 -244l-202 -246h-179zM32 0l205 246l-136 244h179l133 -244l-202 -246h-179z" />
    <glyph glyph-name="onequarter" unicode="&#xbc;" horiz-adv-x="970" 
d="M750 191l11 77h132l-11 -77h40l-16 -120h-40l-10 -71h-132l10 71h-227l16 120l158 233l101 -51l-121 -182h89zM342 682l-56 -400h-142l38 271h-74l18 129h216zM770 682l-494 -682h-142l494 682h142z" />
    <glyph glyph-name="onehalf" unicode="&#xbd;" horiz-adv-x="930" 
d="M342 682l-56 -400h-142l38 271h-74l18 129h216zM770 682l-494 -682h-142l494 682h142zM868 116l-16 -116h-310l14 100l124 103q23 18 40.5 35t17.5 28q0 26 -26 26q-20 0 -50 -7t-50 -13l-21 -7l17 115q71 28 142 28q66 0 98.5 -30t32.5 -81q0 -79 -88 -149l-34 -28
l-1 -4h110z" />
    <glyph glyph-name="threequarters" unicode="&#xbe;" horiz-adv-x="1026" 
d="M809 191l11 77h132l-11 -77h40l-17 -120h-40l-10 -71h-132l10 71h-227l17 120l158 233l101 -51l-121 -182h89zM829 682l-495 -682h-142l495 682h142zM397 432q0 -70 -56 -114q-55 -43 -139 -43q-31 0 -61.5 5.5t-46.5 10.5l-15 5l15 109q60 -22 115 -22q23 0 34.5 14
t11.5 27q0 11 -8.5 18.5t-23.5 7.5h-37l12 85h40q12 0 19.5 9.5t7.5 20.5q0 22 -27 22q-21 0 -49.5 -5t-46.5 -10l-18 -5l15 103q63 22 142 22q57 0 92.5 -28.5t35.5 -77.5q0 -47 -41 -83q29 -27 29 -71z" />
    <glyph glyph-name="questiondown" unicode="&#xbf;" horiz-adv-x="467" 
d="M17 -60q0 32 10 58.5t25.5 49.5t35 42.5l38.5 38.5q26 26 48 59.5t29 70.5h146q-4 -29 -13.5 -55.5t-22 -49t-26.5 -40.5t-28 -30q-27 -24 -49 -53t-22 -57q0 -37 57 -37q16 0 34.5 2.5t37 6.5t34.5 8.5t28 9.5l23 9l-19 -139q-78 -36 -183 -36q-87 0 -135 36.5
t-48 105.5zM395 490l-23 -165h-172l23 165h172z" />
    <glyph glyph-name="Agrave" unicode="&#xc0;" horiz-adv-x="678" 
d="M535 682l90 -682h-172l-20 157h-192l-64 -157h-171l279 682h250zM302 310h112l-21 191l-1 34h-4l-11 -34zM420 898l59 -151h-139l-101 151h181z" />
    <glyph glyph-name="Aacute" unicode="&#xc1;" horiz-adv-x="678" 
d="M535 682l90 -682h-172l-20 157h-192l-64 -157h-171l279 682h250zM302 310h112l-21 191l-1 34h-4l-11 -34zM342 747l101 151h181l-143 -151h-139z" />
    <glyph glyph-name="Acircumflex" unicode="&#xc2;" horiz-adv-x="678" 
d="M535 682l90 -682h-172l-20 157h-192l-64 -157h-171l279 682h250zM302 310h112l-21 191l-1 34h-4l-11 -34zM220 746l138 152h147l98 -152h-145l-39 61l-57 -61h-142z" />
    <glyph glyph-name="Atilde" unicode="&#xc3;" horiz-adv-x="678" 
d="M535 682l90 -682h-172l-20 157h-192l-64 -157h-171l279 682h250zM302 310h112l-21 191l-1 34h-4l-11 -34zM604 896q-4 -29 -14 -55t-26 -49q-32 -45 -89 -45q-22 0 -62 17t-51 17q-21 0 -32 -32h-99q8 60 38 103q31 46 90 46q22 0 61 -17q40 -17 52 -17q22 0 33 32h99z
" />
    <glyph glyph-name="Adieresis" unicode="&#xc4;" horiz-adv-x="678" 
d="M535 682l90 -682h-172l-20 157h-192l-64 -157h-171l279 682h250zM302 310h112l-21 191l-1 34h-4l-11 -34zM404 819l-117 -93l-89 93l116 93zM652 819l-117 -93l-89 93l116 93z" />
    <glyph glyph-name="Aring" unicode="&#xc5;" horiz-adv-x="678" 
d="M535 682l90 -682h-172l-20 157h-192l-64 -157h-171l279 682h250zM302 310h112l-21 191l-1 34h-4l-11 -34zM299 810q0 49 40 83t94 34q22 0 42 -7.5t35 -20.5t24 -30.5t9 -37.5q0 -47 -41 -82q-40 -34 -93 -34q-23 0 -43 7.5t-35 20.5t-23.5 30t-8.5 37zM426 862
q-19 0 -35 -13.5t-16 -33.5q0 -15 11.5 -25t28.5 -10q20 0 35.5 13.5t15.5 32.5q0 15 -11.5 25.5t-28.5 10.5z" />
    <glyph glyph-name="AE" unicode="&#xc6;" horiz-adv-x="953" 
d="M422 0l24 177h-186l-101 -177h-177l400 682h578l-21 -152h-278l-15 -110h258l-22 -151h-257l-16 -117h286l-21 -152h-452zM347 331h121l28 199h-35z" />
    <glyph glyph-name="Ccedilla" unicode="&#xc7;" horiz-adv-x="674" 
d="M631 188l-23 -160q-68 -23 -153 -34l-27 -43q5 -3 13 -8.5t21 -23.5q14 -20 14 -39q0 -62 -49 -96q-47 -34 -116 -34q-12 0 -32.5 5t-34.5 10l-14 5l13 92q37 -17 66 -17q12 0 24 10t12 25q0 7 -5 14.5t-13.5 13.5t-18 10.5t-18.5 6.5l41 70q-124 16 -195 100
q-71 85 -71 205q0 160 119 276q121 116 306 116q46 0 94 -9q49 -9 74 -18l25 -9l-21 -150q-86 33 -192 33q-100 0 -168 -67q-68 -66 -68 -162q0 -37 13 -68t37 -53t58 -34t76 -12q41 0 96 11q27 5 48.5 11t37.5 11z" />
    <glyph glyph-name="Egrave" unicode="&#xc8;" horiz-adv-x="621" 
d="M51 0l95 682h482l-21 -152h-318l-15 -109h299l-22 -152h-298l-16 -117h326l-21 -152h-491zM409 898l59 -151h-139l-101 151h181z" />
    <glyph glyph-name="Eacute" unicode="&#xc9;" horiz-adv-x="621" 
d="M51 0l95 682h482l-21 -152h-318l-15 -109h299l-22 -152h-298l-16 -117h326l-21 -152h-491zM300 747l101 151h181l-143 -151h-139z" />
    <glyph glyph-name="Ecircumflex" unicode="&#xca;" horiz-adv-x="621" 
d="M51 0l95 682h482l-21 -152h-318l-15 -109h299l-22 -152h-298l-16 -117h326l-21 -152h-491zM213 746l138 152h147l98 -152h-145l-39 61l-57 -61h-142z" />
    <glyph glyph-name="Edieresis" unicode="&#xcb;" horiz-adv-x="621" 
d="M51 0l95 682h482l-21 -152h-318l-15 -109h299l-22 -152h-298l-16 -117h326l-21 -152h-491zM382 819l-117 -93l-89 93l116 93zM630 819l-117 -93l-89 93l116 93z" />
    <glyph glyph-name="Igrave" unicode="&#xcc;" horiz-adv-x="319" 
d="M220 0h-169l95 682h169zM238 898l59 -151h-139l-101 151h181z" />
    <glyph glyph-name="Iacute" unicode="&#xcd;" horiz-adv-x="319" 
d="M220 0h-169l95 682h169zM162 747l101 151h181l-143 -151h-139z" />
    <glyph glyph-name="Icircumflex" unicode="&#xce;" horiz-adv-x="319" 
d="M220 0h-169l95 682h169zM49 746l138 152h147l98 -152h-145l-39 61l-57 -61h-142z" />
    <glyph glyph-name="Idieresis" unicode="&#xcf;" horiz-adv-x="319" 
d="M220 0h-169l95 682h169zM234 819l-117 -93l-89 93l116 93zM482 819l-117 -93l-89 93l116 93z" />
    <glyph glyph-name="Eth" unicode="&#xd0;" horiz-adv-x="725" 
d="M35 281l19 134h67l37 267h238q146 0 229 -80t83 -207q0 -168 -111 -282q-111 -113 -297 -113h-237l39 281h-67zM305 537l-17 -122h102l-19 -134h-102l-19 -136h66q102 0 162 66t60 166q0 73 -41.5 116.5t-122.5 43.5h-69z" />
    <glyph glyph-name="Ntilde" unicode="&#xd1;" horiz-adv-x="719" 
d="M715 682l-95 -682h-180l-154 380l-8 35h-4l-58 -415h-165l95 682h179l152 -374l11 -40h4l58 414h165zM628 896q-4 -29 -14 -55t-26 -49q-32 -45 -89 -45q-22 0 -62 17t-51 17q-21 0 -32 -32h-99q8 60 38 103q31 46 90 46q22 0 61 -17q40 -17 52 -17q22 0 33 32h99z" />
    <glyph glyph-name="Ograve" unicode="&#xd2;" horiz-adv-x="823" 
d="M65 310q0 72 31.5 140.5t85.5 122.5t133 86.5t169 32.5q139 0 230 -89q91 -88 91 -228q0 -154 -122 -270q-121 -115 -298 -115q-139 0 -230 89q-90 90 -90 231zM462 539q-97 0 -164 -66t-67 -158q0 -72 50 -122t126 -50q97 0 164 67q68 68 68 158q0 71 -51 121
q-50 50 -126 50zM497 898l59 -151h-139l-101 151h181z" />
    <glyph glyph-name="Oacute" unicode="&#xd3;" horiz-adv-x="823" 
d="M65 310q0 72 31.5 140.5t85.5 122.5t133 86.5t169 32.5q139 0 230 -89q91 -88 91 -228q0 -154 -122 -270q-121 -115 -298 -115q-139 0 -230 89q-90 90 -90 231zM462 539q-97 0 -164 -66t-67 -158q0 -72 50 -122t126 -50q97 0 164 67q68 68 68 158q0 71 -51 121
q-50 50 -126 50zM410 747l101 151h181l-143 -151h-139z" />
    <glyph glyph-name="Ocircumflex" unicode="&#xd4;" horiz-adv-x="823" 
d="M65 310q0 72 31.5 140.5t85.5 122.5t133 86.5t169 32.5q139 0 230 -89q91 -88 91 -228q0 -154 -122 -270q-121 -115 -298 -115q-139 0 -230 89q-90 90 -90 231zM462 539q-97 0 -164 -66t-67 -158q0 -72 50 -122t126 -50q97 0 164 67q68 68 68 158q0 71 -51 121
q-50 50 -126 50zM295 746l138 152h147l98 -152h-145l-39 61l-57 -61h-142z" />
    <glyph glyph-name="Otilde" unicode="&#xd5;" horiz-adv-x="823" 
d="M65 310q0 72 31.5 140.5t85.5 122.5t133 86.5t169 32.5q139 0 230 -89q91 -88 91 -228q0 -154 -122 -270q-121 -115 -298 -115q-139 0 -230 89q-90 90 -90 231zM462 539q-97 0 -164 -66t-67 -158q0 -72 50 -122t126 -50q97 0 164 67q68 68 68 158q0 71 -51 121
q-50 50 -126 50zM688 896q-4 -29 -14 -55t-26 -49q-32 -45 -89 -45q-22 0 -62 17t-51 17q-21 0 -32 -32h-99q8 60 38 103q31 46 90 46q22 0 61 -17q40 -17 52 -17q22 0 33 32h99z" />
    <glyph glyph-name="Odieresis" unicode="&#xd6;" horiz-adv-x="823" 
d="M65 310q0 72 31.5 140.5t85.5 122.5t133 86.5t169 32.5q139 0 230 -89q91 -88 91 -228q0 -154 -122 -270q-121 -115 -298 -115q-139 0 -230 89q-90 90 -90 231zM462 539q-97 0 -164 -66t-67 -158q0 -72 50 -122t126 -50q97 0 164 67q68 68 68 158q0 71 -51 121
q-50 50 -126 50zM475 819l-117 -93l-89 93l116 93zM723 819l-117 -93l-89 93l116 93z" />
    <glyph glyph-name="multiply" unicode="&#xd7;" horiz-adv-x="548" 
d="M156 65l-87 101l124 109l-94 109l115 100l94 -108l122 107l87 -101l-122 -108l91 -106l-114 -100l-92 106z" />
    <glyph glyph-name="Oslash" unicode="&#xd8;" horiz-adv-x="823" 
d="M94 54l42 45q-71 83 -71 211q0 151 123 267q122 115 296 115q81 0 144 -29l40 45l102 -75l-39 -44q74 -83 74 -214q0 -76 -33 -145.5t-90 -123t-133.5 -85t-163.5 -31.5q-83 0 -149 33l-42 -50zM406 143q91 0 162 66q71 68 71 157q0 44 -24 88l-265 -303q30 -8 56 -8z
M463 539q-97 0 -164 -66q-68 -66 -68 -158q0 -50 21 -81l264 297q-29 8 -53 8z" />
    <glyph glyph-name="Ugrave" unicode="&#xd9;" horiz-adv-x="705" 
d="M707 682l-61 -432q-17 -117 -103 -188q-87 -72 -204 -72q-109 0 -185 65q-74 65 -74 162q0 24 3 48l59 417h163l-57 -400q-3 -23 -3 -35q0 -46 30 -75t75 -29q46 0 86 35q40 34 48 90l58 414h165zM443 898l59 -151h-139l-101 151h181z" />
    <glyph glyph-name="Uacute" unicode="&#xda;" horiz-adv-x="705" 
d="M707 682l-61 -432q-17 -117 -103 -188q-87 -72 -204 -72q-109 0 -185 65q-74 65 -74 162q0 24 3 48l59 417h163l-57 -400q-3 -23 -3 -35q0 -46 30 -75t75 -29q46 0 86 35q40 34 48 90l58 414h165zM361 747l101 151h181l-143 -151h-139z" />
    <glyph glyph-name="Ucircumflex" unicode="&#xdb;" horiz-adv-x="705" 
d="M707 682l-61 -432q-17 -117 -103 -188q-87 -72 -204 -72q-109 0 -185 65q-74 65 -74 162q0 24 3 48l59 417h163l-57 -400q-3 -23 -3 -35q0 -46 30 -75t75 -29q46 0 86 35q40 34 48 90l58 414h165zM248 746l138 152h147l98 -152h-145l-39 61l-57 -61h-142z" />
    <glyph glyph-name="Udieresis" unicode="&#xdc;" horiz-adv-x="705" 
d="M707 682l-61 -432q-17 -117 -103 -188q-87 -72 -204 -72q-109 0 -185 65q-74 65 -74 162q0 24 3 48l59 417h163l-57 -400q-3 -23 -3 -35q0 -46 30 -75t75 -29q46 0 86 35q40 34 48 90l58 414h165zM426 819l-117 -93l-89 93l116 93zM674 819l-117 -93l-89 93l116 93z" />
    <glyph glyph-name="Yacute" unicode="&#xdd;" horiz-adv-x="638" 
d="M249 276l-174 406h190l89 -254h4l159 254h188l-287 -406l-38 -276h-169zM317 747l101 151h181l-143 -151h-139z" />
    <glyph glyph-name="Thorn" unicode="&#xde;" horiz-adv-x="613" 
d="M610 380q0 -120 -76 -190q-77 -71 -198 -71h-102l-17 -119h-166l95 682h164l-15 -115h104q49 0 88 -13.5t66.5 -38t42 -59t14.5 -76.5zM276 420l-22 -154h102q37 0 61 29q25 28 25 62q0 28 -17.5 45.5t-45.5 17.5h-103z" />
    <glyph glyph-name="germandbls" unicode="&#xdf;" horiz-adv-x="689" 
d="M63 353l19 137h54l20 142l166 150q67 33 127 33q90 0 145 -47q54 -47 54 -115q0 -36 -11 -62.5t-27 -47t-35 -36t-35 -29t-27 -26t-11 -27.5q0 -14 23.5 -37t50.5 -47q14 -12 27.5 -28t24 -35t17 -40t6.5 -42q0 -89 -70 -147t-172 -58q-26 0 -53.5 6t-42.5 12l-15 6
l21 146q46 -21 112 -21q22 0 39.5 11t17.5 30q0 16 -23.5 41.5t-51.5 49.5q-14 12 -27.5 28.5t-24 34.5t-17 37.5t-6.5 38.5q0 22 6.5 43.5t17.5 40.5t24.5 34t27.5 26t27.5 22.5t24.5 23t17.5 23t6.5 21.5q0 38 -53 38q-11 0 -23 -4.5t-18 -9.5l-7 -5l-82 -79l-82 -585
h-158l50 353h-54z" />
    <glyph glyph-name="agrave" unicode="&#xe0;" horiz-adv-x="594" 
d="M452 -23l-66 54q-50 -39 -129 -39q-85 0 -147 65q-61 64 -61 157q0 118 85 200q86 83 219 83q49 0 102 -11q26 -5 45.5 -11t32.5 -11l26 -11l-46 -323l42 -47zM334 364q-50 0 -91 -38q-39 -38 -39 -91q0 -51 26 -78.5t71 -27.5q36 0 57 10l31 215q-16 10 -55 10zM384 706
l59 -151h-139l-101 151h181z" />
    <glyph glyph-name="aacute" unicode="&#xe1;" horiz-adv-x="594" 
d="M452 -23l-66 54q-50 -39 -129 -39q-85 0 -147 65q-61 64 -61 157q0 118 85 200q86 83 219 83q49 0 102 -11q26 -5 45.5 -11t32.5 -11l26 -11l-46 -323l42 -47zM334 364q-50 0 -91 -38q-39 -38 -39 -91q0 -51 26 -78.5t71 -27.5q36 0 57 10l31 215q-16 10 -55 10zM271 555
l101 151h181l-143 -151h-139z" />
    <glyph glyph-name="acircumflex" unicode="&#xe2;" horiz-adv-x="594" 
d="M452 -23l-66 54q-50 -39 -129 -39q-85 0 -147 65q-61 64 -61 157q0 118 85 200q86 83 219 83q49 0 102 -11q26 -5 45.5 -11t32.5 -11l26 -11l-46 -323l42 -47zM334 364q-50 0 -91 -38q-39 -38 -39 -91q0 -51 26 -78.5t71 -27.5q36 0 57 10l31 215q-16 10 -55 10zM177 554
l138 152h147l98 -152h-145l-39 61l-57 -61h-142z" />
    <glyph glyph-name="atilde" unicode="&#xe3;" horiz-adv-x="594" 
d="M452 -23l-66 54q-50 -39 -129 -39q-85 0 -147 65q-61 64 -61 157q0 118 85 200q86 83 219 83q49 0 102 -11q26 -5 45.5 -11t32.5 -11l26 -11l-46 -323l42 -47zM334 364q-50 0 -91 -38q-39 -38 -39 -91q0 -51 26 -78.5t71 -27.5q36 0 57 10l31 215q-16 10 -55 10zM558 704
q-4 -29 -14 -55t-26 -49q-32 -45 -89 -45q-22 0 -62 17t-51 17q-21 0 -32 -32h-99q8 60 38 103q31 46 90 46q22 0 61 -17q40 -17 52 -17q22 0 33 32h99z" />
    <glyph glyph-name="adieresis" unicode="&#xe4;" horiz-adv-x="594" 
d="M452 -23l-66 54q-50 -39 -129 -39q-85 0 -147 65q-61 64 -61 157q0 118 85 200q86 83 219 83q49 0 102 -11q26 -5 45.5 -11t32.5 -11l26 -11l-46 -323l42 -47zM334 364q-50 0 -91 -38q-39 -38 -39 -91q0 -51 26 -78.5t71 -27.5q36 0 57 10l31 215q-16 10 -55 10zM351 627
l-117 -93l-89 93l116 93zM599 627l-117 -93l-89 93l116 93z" />
    <glyph glyph-name="aring" unicode="&#xe5;" horiz-adv-x="594" 
d="M452 -23l-66 54q-50 -39 -129 -39q-85 0 -147 65q-61 64 -61 157q0 118 85 200q86 83 219 83q49 0 102 -11q26 -5 45.5 -11t32.5 -11l26 -11l-46 -323l42 -47zM334 364q-50 0 -91 -38q-39 -38 -39 -91q0 -51 26 -78.5t71 -27.5q36 0 57 10l31 215q-16 10 -55 10zM250 627
q0 49 40 83t94 34q22 0 42 -7.5t35 -20.5t24 -30.5t9 -37.5q0 -47 -41 -82q-40 -34 -93 -34q-23 0 -43 7.5t-35 20.5t-23.5 30t-8.5 37zM377 679q-19 0 -35 -13.5t-16 -33.5q0 -15 11.5 -25t28.5 -10q20 0 35.5 13.5t15.5 32.5q0 15 -11.5 25.5t-28.5 10.5z" />
    <glyph glyph-name="ae" unicode="&#xe6;" horiz-adv-x="860" 
d="M502 196q7 -34 37 -54.5t68 -20.5q45 0 84 7t57 14l18 7l-18 -127q-85 -32 -159 -32q-108 0 -175 61q-105 -60 -199 -60q-79 0 -126.5 36t-47.5 94q0 80 64 126t164 46q16 0 37.5 -2t35.5 -4l13 -2q1 8 1.5 13.5t0.5 8.5q0 67 -72 67q-17 0 -36.5 -2t-38.5 -5.5t-36.5 -8
t-29.5 -8.5l-24 -9l17 122q94 36 178 36q113 0 164 -54q80 55 165 55q75 0 140 -50q64 -49 64 -143q0 -15 -3 -35t-6.5 -37t-7 -29t-3.5 -10h-326zM633 368q-42 0 -74.5 -24t-47.5 -63h207q0 36 -23.5 61.5t-61.5 25.5zM356 141q-8 23 -12 59q-41 6 -78 6q-26 0 -43 -14.5
t-17 -34.5q0 -17 13.5 -27t33.5 -10q16 0 41.5 5t43.5 11z" />
    <glyph glyph-name="ccedilla" unicode="&#xe7;" horiz-adv-x="502" 
d="M462 162l-19 -137q-42 -19 -97 -28l-28 -46q5 -3 13 -8.5t21 -23.5q14 -20 14 -39q0 -62 -49 -96q-47 -34 -116 -34q-12 0 -32.5 5t-34.5 10l-14 5l13 92q37 -17 66 -17q12 0 24 10t12 25q0 7 -5 14.5t-13.5 13.5t-18 10.5t-18.5 6.5l42 71q-39 9 -71 28.5t-54.5 48.5
t-35 65.5t-12.5 78.5q0 121 87 202q88 81 219 81q18 0 36.5 -2.5t35.5 -6t30.5 -8.5t22.5 -9l18 -8l-20 -138q-57 33 -133 33q-54 0 -97 -41q-42 -41 -42 -92q0 -43 29 -71.5t77 -28.5q18 0 37 2.5t36.5 6t32.5 8t24 9.5z" />
    <glyph glyph-name="egrave" unicode="&#xe8;" 
d="M205 196q7 -34 37 -54.5t68 -20.5q45 0 84 7t57 14l18 7l-18 -127q-85 -32 -159 -32q-113 0 -178 64q-65 65 -65 165q0 116 91 198q92 83 207 83q75 0 140 -50q64 -49 64 -143q0 -15 -3 -35t-6.5 -37t-7 -29t-3.5 -10h-326zM336 368q-42 0 -74.5 -24t-47.5 -63h207
q0 38 -23 62.5t-62 24.5zM377 706l59 -151h-139l-101 151h181z" />
    <glyph glyph-name="eacute" unicode="&#xe9;" 
d="M205 196q7 -34 37 -54.5t68 -20.5q45 0 84 7t57 14l18 7l-18 -127q-85 -32 -159 -32q-113 0 -178 64q-65 65 -65 165q0 116 91 198q92 83 207 83q75 0 140 -50q64 -49 64 -143q0 -15 -3 -35t-6.5 -37t-7 -29t-3.5 -10h-326zM336 368q-42 0 -74.5 -24t-47.5 -63h207
q0 38 -23 62.5t-62 24.5zM285 555l101 151h181l-143 -151h-139z" />
    <glyph glyph-name="ecircumflex" unicode="&#xea;" 
d="M205 196q7 -34 37 -54.5t68 -20.5q45 0 84 7t57 14l18 7l-18 -127q-85 -32 -159 -32q-113 0 -178 64q-65 65 -65 165q0 116 91 198q92 83 207 83q75 0 140 -50q64 -49 64 -143q0 -15 -3 -35t-6.5 -37t-7 -29t-3.5 -10h-326zM336 368q-42 0 -74.5 -24t-47.5 -63h207
q0 38 -23 62.5t-62 24.5zM174 554l138 152h147l98 -152h-145l-39 61l-57 -61h-142z" />
    <glyph glyph-name="edieresis" unicode="&#xeb;" 
d="M205 196q7 -34 37 -54.5t68 -20.5q45 0 84 7t57 14l18 7l-18 -127q-85 -32 -159 -32q-113 0 -178 64q-65 65 -65 165q0 116 91 198q92 83 207 83q75 0 140 -50q64 -49 64 -143q0 -15 -3 -35t-6.5 -37t-7 -29t-3.5 -10h-326zM336 368q-42 0 -74.5 -24t-47.5 -63h207
q0 38 -23 62.5t-62 24.5zM342 627l-117 -93l-89 93l116 93zM590 627l-117 -93l-89 93l116 93z" />
    <glyph glyph-name="igrave" unicode="&#xec;" horiz-adv-x="313" 
d="M59 62l61 428h155l-51 -359l45 -50l-101 -105zM218 706l59 -151h-139l-101 151h181z" />
    <glyph glyph-name="iacute" unicode="&#xed;" horiz-adv-x="313" 
d="M59 62l61 428h155l-51 -359l45 -50l-101 -105zM136 555l101 151h181l-143 -151h-139z" />
    <glyph glyph-name="icircumflex" unicode="&#xee;" horiz-adv-x="313" 
d="M59 62l61 428h155l-51 -359l45 -50l-101 -105zM15 554l138 152h147l98 -152h-145l-39 61l-57 -61h-142z" />
    <glyph glyph-name="idieresis" unicode="&#xef;" horiz-adv-x="313" 
d="M59 62l61 428h155l-51 -359l45 -50l-101 -105zM190 627l-117 -93l-89 93l116 93zM438 627l-117 -93l-89 93l116 93z" />
    <glyph glyph-name="eth" unicode="&#xf0;" horiz-adv-x="615" 
d="M340 831q87 -53 130 -110l113 53l38 -111l-87 -41q53 -114 53 -246q0 -178 -91 -282q-90 -104 -226 -104q-100 0 -167 63q-66 63 -66 157q0 125 86 205q85 79 201 79q28 0 53 -6t36 -12l11 -6q-7 48 -32 90l-103 -44l-35 111l71 30q-22 26 -82 59zM289 126q53 0 94 40
q42 40 42 96q0 45 -28 73t-74 28q-56 0 -96 -40q-41 -41 -41 -95q0 -43 29 -72.5t74 -29.5z" />
    <glyph glyph-name="ntilde" unicode="&#xf1;" horiz-adv-x="608" 
d="M168 511l73 -59q74 43 153 43q75 0 118.5 -43.5t43.5 -116.5v-12.5t-1 -9.5l-29 -313h-153l28 276v5t0.5 8.5t0.5 8v3.5q0 28 -15.5 42.5t-40.5 14.5q-12 0 -32 -7t-34 -14l-14 -7l-46 -330h-157l50 362l-46 48zM565 704q-4 -29 -14 -55t-26 -49q-32 -45 -89 -45
q-22 0 -62 17t-51 17q-21 0 -32 -32h-99q8 60 38 103q31 46 90 46q22 0 61 -17q40 -17 52 -17q22 0 33 32h99z" />
    <glyph glyph-name="ograve" unicode="&#xf2;" horiz-adv-x="605" 
d="M589 270q0 -115 -89 -198q-88 -82 -217 -82q-101 0 -168 65q-66 66 -66 169q0 116 90 196q91 80 216 80q101 0 168 -65q66 -65 66 -165zM302 129q50 0 90 40q41 41 41 94q0 42 -26.5 70t-71.5 28q-52 0 -91 -40q-38 -40 -38 -92q0 -42 26.5 -71t69.5 -29zM357 706
l59 -151h-139l-101 151h181z" />
    <glyph glyph-name="oacute" unicode="&#xf3;" horiz-adv-x="605" 
d="M589 270q0 -115 -89 -198q-88 -82 -217 -82q-101 0 -168 65q-66 66 -66 169q0 116 90 196q91 80 216 80q101 0 168 -65q66 -65 66 -165zM302 129q50 0 90 40q41 41 41 94q0 42 -26.5 70t-71.5 28q-52 0 -91 -40q-38 -40 -38 -92q0 -42 26.5 -71t69.5 -29zM290 555
l101 151h181l-143 -151h-139z" />
    <glyph glyph-name="ocircumflex" unicode="&#xf4;" horiz-adv-x="605" 
d="M589 270q0 -115 -89 -198q-88 -82 -217 -82q-101 0 -168 65q-66 66 -66 169q0 116 90 196q91 80 216 80q101 0 168 -65q66 -65 66 -165zM302 129q50 0 90 40q41 41 41 94q0 42 -26.5 70t-71.5 28q-52 0 -91 -40q-38 -40 -38 -92q0 -42 26.5 -71t69.5 -29zM169 554
l138 152h147l98 -152h-145l-39 61l-57 -61h-142z" />
    <glyph glyph-name="otilde" unicode="&#xf5;" horiz-adv-x="605" 
d="M589 270q0 -115 -89 -198q-88 -82 -217 -82q-101 0 -168 65q-66 66 -66 169q0 116 90 196q91 80 216 80q101 0 168 -65q66 -65 66 -165zM302 129q50 0 90 40q41 41 41 94q0 42 -26.5 70t-71.5 28q-52 0 -91 -40q-38 -40 -38 -92q0 -42 26.5 -71t69.5 -29zM551 704
q-4 -29 -14 -55t-26 -49q-32 -45 -89 -45q-22 0 -62 17t-51 17q-21 0 -32 -32h-99q8 60 38 103q31 46 90 46q22 0 61 -17q40 -17 52 -17q22 0 33 32h99z" />
    <glyph glyph-name="odieresis" unicode="&#xf6;" horiz-adv-x="605" 
d="M589 270q0 -115 -89 -198q-88 -82 -217 -82q-101 0 -168 65q-66 66 -66 169q0 116 90 196q91 80 216 80q101 0 168 -65q66 -65 66 -165zM302 129q50 0 90 40q41 41 41 94q0 42 -26.5 70t-71.5 28q-52 0 -91 -40q-38 -40 -38 -92q0 -42 26.5 -71t69.5 -29zM347 627
l-117 -93l-89 93l116 93zM595 627l-117 -93l-89 93l116 93z" />
    <glyph glyph-name="divide" unicode="&#xf7;" horiz-adv-x="578" 
d="M420 509l-18 -127h-157l18 127h157zM541 340l-19 -135h-448l19 135h448zM371 163l-17 -126h-157l17 126h157z" />
    <glyph glyph-name="oslash" unicode="&#xf8;" horiz-adv-x="605" 
d="M69 41l29 32q-48 57 -48 151q0 119 89 197q88 78 216 78q55 0 99 -18l24 27l87 -66l-23 -26q48 -62 48 -146q0 -116 -91 -198t-216 -82q-58 0 -97 19l-30 -34zM337 374q-56 0 -100 -44q-43 -43 -43 -103q0 -20 5 -37l160 182q-5 1 -11 1.5t-11 0.5zM301 116q55 0 99 45
q45 45 45 104q0 18 -5 35l-159 -182q5 -1 10 -1.5t10 -0.5z" />
    <glyph glyph-name="ugrave" unicode="&#xf9;" horiz-adv-x="602" 
d="M463 -23l-70 61q-73 -43 -146 -43q-81 0 -128.5 41t-47.5 113q0 5 0.5 12.5t1.5 16.5l44 312h155l-41 -293q-1 -3 -1 -13q0 -26 16.5 -39.5t41.5 -13.5q16 0 36 6.5t32 12.5l13 6l47 334h157l-51 -361l45 -49zM360 706l59 -151h-139l-101 151h181z" />
    <glyph glyph-name="uacute" unicode="&#xfa;" horiz-adv-x="602" 
d="M463 -23l-70 61q-73 -43 -146 -43q-81 0 -128.5 41t-47.5 113q0 5 0.5 12.5t1.5 16.5l44 312h155l-41 -293q-1 -3 -1 -13q0 -26 16.5 -39.5t41.5 -13.5q16 0 36 6.5t32 12.5l13 6l47 334h157l-51 -361l45 -49zM273 555l101 151h181l-143 -151h-139z" />
    <glyph glyph-name="ucircumflex" unicode="&#xfb;" horiz-adv-x="602" 
d="M463 -23l-70 61q-73 -43 -146 -43q-81 0 -128.5 41t-47.5 113q0 5 0.5 12.5t1.5 16.5l44 312h155l-41 -293q-1 -3 -1 -13q0 -26 16.5 -39.5t41.5 -13.5q16 0 36 6.5t32 12.5l13 6l47 334h157l-51 -361l45 -49zM158 554l138 152h147l98 -152h-145l-39 61l-57 -61h-142z
" />
    <glyph glyph-name="udieresis" unicode="&#xfc;" horiz-adv-x="602" 
d="M463 -23l-70 61q-73 -43 -146 -43q-81 0 -128.5 41t-47.5 113q0 5 0.5 12.5t1.5 16.5l44 312h155l-41 -293q-1 -3 -1 -13q0 -26 16.5 -39.5t41.5 -13.5q16 0 36 6.5t32 12.5l13 6l47 334h157l-51 -361l45 -49zM334 627l-117 -93l-89 93l116 93zM582 627l-117 -93l-89 93
l116 93z" />
    <glyph glyph-name="yacute" unicode="&#xfd;" horiz-adv-x="557" 
d="M449 490h168l-287 -593l-141 -165l-102 83l112 135l24 50h-40l-89 352l-54 58l102 103l94 -76l55 -257l2 -25h4zM223 555l101 151h181l-143 -151h-139z" />
    <glyph glyph-name="thorn" unicode="&#xfe;" horiz-adv-x="578" 
d="M314 805l-47 -330q38 23 88 23q85 0 144 -63q60 -63 60 -156q0 -122 -84 -204q-82 -82 -187 -82q-26 0 -47.5 4.5t-29.5 9.5l-8 5l-37 -262h-155l148 1055h155zM276 131q51 0 90 39q40 39 40 93q0 42 -26.5 70t-71.5 28q-36 0 -57 -10l-30 -210q21 -10 55 -10z" />
    <glyph glyph-name="ydieresis" unicode="&#xff;" horiz-adv-x="557" 
d="M449 490h168l-287 -593l-141 -165l-102 83l112 135l24 50h-40l-89 352l-54 58l102 103l94 -76l55 -257l2 -25h4zM307 627l-117 -93l-89 93l116 93zM555 627l-117 -93l-89 93l116 93z" />
    <glyph glyph-name="Amacron" unicode="&#x100;" horiz-adv-x="678" 
d="M535 682l90 -682h-172l-20 157h-192l-64 -157h-171l279 682h250zM302 310h112l-21 191l-1 34h-4l-11 -34zM575 884l-18 -125h-293l18 125h293z" />
    <glyph glyph-name="amacron" unicode="&#x101;" horiz-adv-x="594" 
d="M452 -23l-66 54q-50 -39 -129 -39q-85 0 -147 65q-61 64 -61 157q0 118 85 200q86 83 219 83q49 0 102 -11q26 -5 45.5 -11t32.5 -11l26 -11l-46 -323l42 -47zM334 364q-50 0 -91 -38q-39 -38 -39 -91q0 -51 26 -78.5t71 -27.5q36 0 57 10l31 215q-16 10 -55 10zM520 692
l-18 -125h-293l18 125h293z" />
    <glyph glyph-name="Abreve" unicode="&#x102;" horiz-adv-x="678" 
d="M535 682l90 -682h-172l-20 157h-192l-64 -157h-171l279 682h250zM302 310h112l-21 191l-1 34h-4l-11 -34zM603 898q-11 -73 -69 -119t-126 -46q-63 0 -108 39q-45 40 -45 103q0 4 0.5 9.5t1.5 13.5h114q-1 -3 -1 -11q0 -46 54 -46q24 0 43 16.5t23 40.5h113z" />
    <glyph glyph-name="abreve" unicode="&#x103;" horiz-adv-x="594" 
d="M452 -23l-66 54q-50 -39 -129 -39q-85 0 -147 65q-61 64 -61 157q0 118 85 200q86 83 219 83q49 0 102 -11q26 -5 45.5 -11t32.5 -11l26 -11l-46 -323l42 -47zM334 364q-50 0 -91 -38q-39 -38 -39 -91q0 -51 26 -78.5t71 -27.5q36 0 57 10l31 215q-16 10 -55 10zM561 706
q-11 -73 -69 -119t-126 -46q-63 0 -108 39q-45 40 -45 103q0 4 0.5 9.5t1.5 13.5h114q-1 -3 -1 -11q0 -46 54 -46q24 0 43 16.5t23 40.5h113z" />
    <glyph glyph-name="Aogonek" unicode="&#x104;" horiz-adv-x="678" 
d="M536 682l89 -682q-9 -7 -23 -19.5t-38 -40.5q-23 -29 -23 -46q0 -22 22 -22q12 0 30.5 4t30.5 8l12 5l-16 -112q-39 -21 -79.5 -25.5t-72.5 5.5t-51.5 32t-17.5 53q0 31 27 72q28 39 54 63q28 23 31 23h-58l-20 157h-192l-64 -157h-170l279 682h250zM303 310h112l-23 191
v34h-4l-10 -34z" />
    <glyph glyph-name="aogonek" unicode="&#x105;" horiz-adv-x="594" 
d="M334 364q-50 0 -91 -38q-39 -38 -39 -91q0 -51 26 -78.5t71 -27.5q36 0 57 10l31 215q-16 10 -55 10zM385 31q-50 -39 -128 -39q-85 0 -147 65q-61 64 -61 157q0 118 85 200q86 83 219 83q49 0 102 -11q26 -5 45.5 -11t32.5 -11l26 -11l-46 -323l42 -47l-80 -77l-9 -9
q-12 -11 -26 -26t-28 -33q-7 -11 -12.5 -23t-5.5 -21q0 -22 22 -22q12 0 30.5 4t30.5 8l12 5l-16 -112q-39 -21 -79.5 -25.5t-72.5 5.5t-51.5 32t-17.5 53q0 38 36 83q19 23 36.5 40.5t34.5 30.5q34 25 38 25z" />
    <glyph glyph-name="Cacute" unicode="&#x106;" horiz-adv-x="674" 
d="M631 188l-23 -160q-111 -38 -216 -38q-149 0 -238 87t-89 223q0 160 119 276q121 116 306 116q46 0 94 -9q49 -9 74 -18l25 -9l-21 -150q-86 33 -192 33q-100 0 -168 -67q-68 -66 -68 -162q0 -37 13 -68t37 -53t58 -34t76 -12q41 0 96 11q27 5 48.5 11t37.5 11zM407 747
l101 151h181l-143 -151h-139z" />
    <glyph glyph-name="cacute" unicode="&#x107;" horiz-adv-x="502" 
d="M462 162l-19 -137q-81 -35 -161 -35q-104 0 -168 64q-65 65 -65 163q0 121 87 202q88 81 219 81q18 0 36.5 -2.5t35.5 -6t30.5 -8.5t22.5 -9l18 -8l-20 -138q-57 33 -133 33q-54 0 -97 -41q-42 -41 -42 -92q0 -43 29 -71.5t77 -28.5q18 0 37 2.5t36.5 6t32.5 8t24 9.5z
M267 555l101 151h181l-143 -151h-139z" />
    <glyph glyph-name="Ccircumflex" unicode="&#x108;" horiz-adv-x="674" 
d="M631 188l-23 -160q-111 -38 -216 -38q-149 0 -238 87t-89 223q0 160 119 276q121 116 306 116q46 0 94 -9q49 -9 74 -18l25 -9l-21 -150q-86 33 -192 33q-100 0 -168 -67q-68 -66 -68 -162q0 -37 13 -68t37 -53t58 -34t76 -12q41 0 96 11q27 5 48.5 11t37.5 11zM308 746
l138 152h147l98 -152h-145l-39 61l-57 -61h-142z" />
    <glyph glyph-name="ccircumflex" unicode="&#x109;" horiz-adv-x="502" 
d="M462 162l-19 -137q-81 -35 -161 -35q-104 0 -168 64q-65 65 -65 163q0 121 87 202q88 81 219 81q18 0 36.5 -2.5t35.5 -6t30.5 -8.5t22.5 -9l18 -8l-20 -138q-57 33 -133 33q-54 0 -97 -41q-42 -41 -42 -92q0 -43 29 -71.5t77 -28.5q18 0 37 2.5t36.5 6t32.5 8t24 9.5z
M166 554l138 152h147l98 -152h-145l-39 61l-57 -61h-142z" />
    <glyph glyph-name="Cdotaccent" unicode="&#x10a;" horiz-adv-x="674" 
d="M631 188l-23 -160q-111 -38 -216 -38q-149 0 -238 87t-89 223q0 160 119 276q121 116 306 116q46 0 94 -9q49 -9 74 -18l25 -9l-21 -150q-86 33 -192 33q-100 0 -168 -67q-68 -66 -68 -162q0 -37 13 -68t37 -53t58 -34t76 -12q41 0 96 11q27 5 48.5 11t37.5 11zM613 819
l-117 -93l-89 93l116 93z" />
    <glyph glyph-name="cdotaccent" unicode="&#x10b;" horiz-adv-x="502" 
d="M462 162l-19 -137q-81 -35 -161 -35q-104 0 -168 64q-65 65 -65 163q0 121 87 202q88 81 219 81q18 0 36.5 -2.5t35.5 -6t30.5 -8.5t22.5 -9l18 -8l-20 -138q-57 33 -133 33q-54 0 -97 -41q-42 -41 -42 -92q0 -43 29 -71.5t77 -28.5q18 0 37 2.5t36.5 6t32.5 8t24 9.5z
M473 627l-117 -93l-89 93l116 93z" />
    <glyph glyph-name="Ccaron" unicode="&#x10c;" horiz-adv-x="674" 
d="M631 188l-23 -160q-111 -38 -216 -38q-149 0 -238 87t-89 223q0 160 119 276q121 116 306 116q46 0 94 -9q49 -9 74 -18l25 -9l-21 -150q-86 33 -192 33q-100 0 -168 -67q-68 -66 -68 -162q0 -37 13 -68t37 -53t58 -34t76 -12q41 0 96 11q27 5 48.5 11t37.5 11zM417 746
l-96 152h142l40 -61l56 61h145l-140 -152h-147z" />
    <glyph glyph-name="ccaron" unicode="&#x10d;" horiz-adv-x="502" 
d="M462 162l-19 -137q-81 -35 -161 -35q-104 0 -168 64q-65 65 -65 163q0 121 87 202q88 81 219 81q18 0 36.5 -2.5t35.5 -6t30.5 -8.5t22.5 -9l18 -8l-20 -138q-57 33 -133 33q-54 0 -97 -41q-42 -41 -42 -92q0 -43 29 -71.5t77 -28.5q18 0 37 2.5t36.5 6t32.5 8t24 9.5z
M277 554l-96 152h142l40 -61l56 61h145l-140 -152h-147z" />
    <glyph glyph-name="Dcaron" unicode="&#x10e;" horiz-adv-x="713" 
d="M51 0l95 682h238q146 0 229 -80t83 -207q0 -169 -110 -282t-298 -113h-237zM293 537l-55 -392h66q102 0 162 66t60 166q0 73 -41.5 116.5t-122.5 43.5h-69zM268 746l-96 152h142l40 -61l56 61h145l-140 -152h-147z" />
    <glyph glyph-name="dcaron" unicode="&#x10f;" horiz-adv-x="782" 
d="M441 -23l-66 54q-50 -39 -129 -39q-88 0 -148 64q-59 65 -59 162q0 110 86 194q86 85 192 85q24 0 43.5 -4.5t27.5 -9.5l7 -5l46 327h156l-95 -675l43 -47zM322 359q-51 0 -91 -39q-39 -39 -39 -93q0 -42 26.5 -70t71.5 -28q37 0 58 10l29 210q-21 10 -55 10zM881 706
l-114 -195h-126l67 195h173z" />
    <glyph glyph-name="Dcroat" unicode="&#x110;" horiz-adv-x="725" 
d="M35 281l19 134h67l37 267h238q146 0 229 -80t83 -207q0 -168 -111 -282q-111 -113 -297 -113h-237l39 281h-67zM305 537l-17 -122h102l-19 -134h-102l-19 -136h66q102 0 162 66t60 166q0 73 -41.5 116.5t-122.5 43.5h-69z" />
    <glyph glyph-name="dcroat" unicode="&#x111;" horiz-adv-x="590" 
d="M298 557l18 124h108l17 124h156l-17 -124h52l-18 -124h-52l-60 -427l43 -47l-104 -106l-66 54q-50 -39 -129 -39q-88 0 -148 64q-59 65 -59 161q0 114 86 197q88 83 192 83q24 0 43.5 -4.5t27.5 -9.5l7 -5l11 79h-108zM322 359q-51 0 -91 -39q-39 -39 -39 -93
q0 -42 26.5 -70t71.5 -28q37 0 58 10l29 210q-21 10 -55 10z" />
    <glyph glyph-name="Emacron" unicode="&#x112;" horiz-adv-x="631" 
d="M51 0l95 682h482l-21 -152h-318l-15 -109h299l-22 -152h-298l-16 -117h326l-21 -152h-491zM554 884l-18 -125h-293l18 125h293z" />
    <glyph glyph-name="emacron" unicode="&#x113;" 
d="M205 196q7 -34 37 -54.5t68 -20.5q45 0 84 7t57 14l18 7l-18 -127q-85 -32 -159 -32q-113 0 -178 64q-65 65 -65 165q0 116 91 198q92 83 207 83q75 0 140 -50q64 -49 64 -143q0 -15 -3 -35t-6.5 -37t-7 -29t-3.5 -10h-326zM336 368q-42 0 -74.5 -24t-47.5 -63h207
q0 38 -23 62.5t-62 24.5zM516 692l-18 -125h-293l18 125h293z" />
    <glyph glyph-name="Ebreve" unicode="&#x114;" horiz-adv-x="631" 
d="M51 0l95 682h482l-21 -152h-318l-15 -109h299l-22 -152h-298l-16 -117h326l-21 -152h-491zM600 898q-11 -73 -69 -119t-126 -46q-63 0 -108 39q-45 40 -45 103q0 4 0.5 9.5t1.5 13.5h114q-1 -3 -1 -11q0 -46 54 -46q24 0 43 16.5t23 40.5h113z" />
    <glyph glyph-name="ebreve" unicode="&#x115;" 
d="M205 196q7 -34 37 -54.5t68 -20.5q45 0 84 7t57 14l18 7l-18 -127q-85 -32 -159 -32q-113 0 -178 64q-65 65 -65 165q0 116 91 198q92 83 207 83q75 0 140 -50q64 -49 64 -143q0 -15 -3 -35t-6.5 -37t-7 -29t-3.5 -10h-326zM336 368q-42 0 -74.5 -24t-47.5 -63h207
q0 38 -23 62.5t-62 24.5zM542 706q-11 -73 -69 -119t-126 -46q-63 0 -108 39q-45 40 -45 103q0 4 0.5 9.5t1.5 13.5h114q-1 -3 -1 -11q0 -46 54 -46q24 0 43 16.5t23 40.5h113z" />
    <glyph glyph-name="Edotaccent" unicode="&#x116;" horiz-adv-x="631" 
d="M51 0l95 682h482l-21 -152h-318l-15 -109h299l-22 -152h-298l-16 -117h326l-21 -152h-491zM514 819l-117 -93l-89 93l116 93z" />
    <glyph glyph-name="edotaccent" unicode="&#x117;" 
d="M205 196q7 -34 37 -54.5t68 -20.5q45 0 84 7t57 14l18 7l-18 -127q-85 -32 -159 -32q-113 0 -178 64q-65 65 -65 165q0 116 91 198q92 83 207 83q75 0 140 -50q64 -49 64 -143q0 -15 -3 -35t-6.5 -37t-7 -29t-3.5 -10h-326zM336 368q-42 0 -74.5 -24t-47.5 -63h207
q0 38 -23 62.5t-62 24.5zM467 627l-117 -93l-89 93l116 93z" />
    <glyph glyph-name="Eogonek" unicode="&#x118;" horiz-adv-x="631" 
d="M59 0l96 682h482l-21 -152h-318l-16 -109h299l-21 -152h-298l-16 -117h326l-22 -152l-8 -7q-8 -7 -20.5 -19t-24.5 -26t-21 -28t-9 -26q0 -22 22 -22q12 0 30.5 4t30.5 8l12 5l-16 -112q-53 -27 -105 -27q-54 0 -85 26t-31 68q0 33 28 71q30 39 54 62q28 23 30 23h-378z
" />
    <glyph glyph-name="eogonek" unicode="&#x119;" 
d="M205 196q7 -34 37 -54.5t68 -20.5q45 0 84 7t57 14l18 7l-18 -127q-32 -13 -76 -22q-9 -7 -22.5 -19.5t-36.5 -40.5q-22 -28 -22 -46q0 -22 22 -22q12 0 30.5 4t30.5 8l12 5l-16 -112q-53 -27 -105 -27q-54 0 -84.5 25.5t-30.5 67.5q0 26 21 61q11 17 21 30.5t20 23.5
t19.5 18t19.5 16q-95 10 -151 72q-54 63 -54 155q0 116 91 198q92 83 207 83q75 0 140 -50q64 -49 64 -143q0 -15 -3 -35t-6.5 -37t-7 -29t-3.5 -10h-326zM336 368q-42 0 -74.5 -24t-47.5 -63h207q0 38 -23 62.5t-62 24.5z" />
    <glyph glyph-name="Ecaron" unicode="&#x11a;" horiz-adv-x="631" 
d="M51 0l95 682h482l-21 -152h-318l-15 -109h299l-22 -152h-298l-16 -117h326l-21 -152h-491zM329 746l-96 152h142l40 -61l56 61h145l-140 -152h-147z" />
    <glyph glyph-name="ecaron" unicode="&#x11b;" 
d="M205 196q7 -34 37 -54.5t68 -20.5q45 0 84 7t57 14l18 7l-18 -127q-85 -32 -159 -32q-113 0 -178 64q-65 65 -65 165q0 116 91 198q92 83 207 83q75 0 140 -50q64 -49 64 -143q0 -15 -3 -35t-6.5 -37t-7 -29t-3.5 -10h-326zM336 368q-42 0 -74.5 -24t-47.5 -63h207
q0 38 -23 62.5t-62 24.5zM280 554l-96 152h142l40 -61l56 61h145l-140 -152h-147z" />
    <glyph glyph-name="Gcircumflex" unicode="&#x11c;" horiz-adv-x="746" 
d="M521 261h-156l21 146h323l-49 -348l-36 -20q-22 -10 -95 -30q-69 -19 -141 -19q-148 0 -236 84q-88 85 -88 215q0 179 123 290q124 112 314 112q26 0 52.5 -2.5t50.5 -7t44 -9.5t32 -10l24 -9l-21 -149q-109 34 -200 34q-108 0 -177 -66q-69 -65 -69 -162q0 -75 49 -121
t131 -46q16 0 38 2.5t37 4.5l14 3zM317 746l138 152h147l98 -152h-145l-39 61l-57 -61h-142z" />
    <glyph glyph-name="gcircumflex" unicode="&#x11d;" horiz-adv-x="591" 
d="M455 460l80 54l74 -106l-55 -47l-63 -449l-159 -182l-104 82l112 136l9 65q-31 -19 -84 -19q-85 0 -146 64t-61 164q0 114 85 195q85 82 193 82q35 0 65 -9.5t42 -19.5zM342 362q-51 0 -91 -39q-39 -39 -39 -94q0 -42 26 -69.5t71 -27.5q32 0 58 10l29 210q-19 10 -54 10
zM158 554l138 152h147l98 -152h-145l-39 61l-57 -61h-142z" />
    <glyph glyph-name="Gbreve" unicode="&#x11e;" horiz-adv-x="746" 
d="M521 261h-156l21 146h323l-49 -348l-36 -20q-22 -10 -95 -30q-69 -19 -141 -19q-148 0 -236 84q-88 85 -88 215q0 179 123 290q124 112 314 112q26 0 52.5 -2.5t50.5 -7t44 -9.5t32 -10l24 -9l-21 -149q-109 34 -200 34q-108 0 -177 -66q-69 -65 -69 -162q0 -75 49 -121
t131 -46q16 0 38 2.5t37 4.5l14 3zM690 898q-11 -73 -69 -119t-126 -46q-63 0 -108 39q-45 40 -45 103q0 4 0.5 9.5t1.5 13.5h114q-1 -3 -1 -11q0 -46 54 -46q24 0 43 16.5t23 40.5h113z" />
    <glyph glyph-name="gbreve" unicode="&#x11f;" horiz-adv-x="591" 
d="M455 460l80 54l74 -106l-55 -47l-63 -449l-159 -182l-104 82l112 136l9 65q-31 -19 -84 -19q-85 0 -146 64t-61 164q0 114 85 195q85 82 193 82q35 0 65 -9.5t42 -19.5zM342 362q-51 0 -91 -39q-39 -39 -39 -94q0 -42 26 -69.5t71 -27.5q32 0 58 10l29 210q-19 10 -54 10
zM546 706q-11 -73 -69 -119t-126 -46q-63 0 -108 39q-45 40 -45 103q0 4 0.5 9.5t1.5 13.5h114q-1 -3 -1 -11q0 -46 54 -46q24 0 43 16.5t23 40.5h113z" />
    <glyph glyph-name="Gdotaccent" unicode="&#x120;" horiz-adv-x="746" 
d="M521 261h-156l21 146h323l-49 -348l-36 -20q-22 -10 -95 -30q-69 -19 -141 -19q-148 0 -236 84q-88 85 -88 215q0 179 123 290q124 112 314 112q26 0 52.5 -2.5t50.5 -7t44 -9.5t32 -10l24 -9l-21 -149q-109 34 -200 34q-108 0 -177 -66q-69 -65 -69 -162q0 -75 49 -121
t131 -46q16 0 38 2.5t37 4.5l14 3zM618 819l-117 -93l-89 93l116 93z" />
    <glyph glyph-name="gdotaccent" unicode="&#x121;" horiz-adv-x="591" 
d="M455 460l80 54l74 -106l-55 -47l-63 -449l-159 -182l-104 82l112 136l9 65q-31 -19 -84 -19q-85 0 -146 64t-61 164q0 114 85 195q85 82 193 82q35 0 65 -9.5t42 -19.5zM342 362q-51 0 -91 -39q-39 -39 -39 -94q0 -42 26 -69.5t71 -27.5q32 0 58 10l29 210q-19 10 -54 10
zM459 627l-117 -93l-89 93l116 93z" />
    <glyph glyph-name="Gcommaaccent" unicode="&#x122;" horiz-adv-x="746" 
d="M521 261h-156l21 146h323l-49 -348l-36 -20q-22 -10 -95 -30q-69 -19 -141 -19q-148 0 -236 84q-88 85 -88 215q0 179 123 290q124 112 314 112q26 0 52.5 -2.5t50.5 -7t44 -9.5t32 -10l24 -9l-21 -149q-109 34 -200 34q-108 0 -177 -66q-69 -65 -69 -162q0 -75 49 -121
t131 -46q16 0 38 2.5t37 4.5l14 3zM493 -66l-115 -195h-125l67 195h173z" />
    <glyph glyph-name="gcommaaccent" unicode="&#x123;" horiz-adv-x="591" 
d="M446 460l81 54l74 -106l-56 -47l-63 -449l-158 -182l-105 82l112 136l10 65q-31 -19 -84 -19q-85 0 -147 65q-61 64 -61 164q0 114 84 195q85 81 195 81q35 0 64.5 -9.5t41.5 -19.5zM334 362q-51 0 -91 -39t-40 -93q0 -43 26.5 -70.5t71.5 -27.5q32 0 58 10l29 210
q-19 10 -54 10zM245 554l114 195h126l-67 -195h-173z" />
    <glyph glyph-name="Hcircumflex" unicode="&#x124;" horiz-adv-x="713" 
d="M709 682l-95 -682h-165l39 281h-234l-39 -281h-164l95 682h164l-34 -248h234l34 248h165zM244 746l138 152h147l98 -152h-145l-39 61l-57 -61h-142z" />
    <glyph glyph-name="hcircumflex" unicode="&#x125;" horiz-adv-x="588" 
d="M306 805l-46 -333l66 23q103 0 153.5 -42.5t50.5 -115.5q0 -16 -1 -21l-30 -316h-153l28 285q1 4 1 19q0 26 -15 40t-40 14q-11 0 -31 -6t-35 -12l-14 -5l-47 -335h-157l113 805h157zM43 838l138 152h147l98 -152h-145l-39 61l-57 -61h-142z" />
    <glyph glyph-name="Hbar" unicode="&#x126;" horiz-adv-x="719" 
d="M712 682l-9 -64h43l-16 -118h-43l-70 -500h-165l39 281h-234l-39 -281h-164l70 500h-43l16 118h43l9 64h164l-9 -64h234l9 64h165zM278 428h234l10 72h-234z" />
    <glyph glyph-name="hbar" unicode="&#x127;" horiz-adv-x="594" 
d="M312 805l-17 -123h108l-18 -126h-108l-11 -84q44 23 114 23q72 0 114 -43.5t42 -115.5q0 -15 -1 -20l-30 -316h-153l28 286q0 2 0.5 9t0.5 9q0 26 -15 40t-40 14q-11 0 -31 -6t-35 -12l-14 -5l-47 -335h-157l78 556h-51l18 126h51l17 123h157z" />
    <glyph glyph-name="Itilde" unicode="&#x128;" horiz-adv-x="319" 
d="M220 0h-169l95 682h169zM422 896q-4 -29 -14 -55t-26 -49q-32 -45 -89 -45q-22 0 -62 17t-51 17q-21 0 -32 -32h-99q8 60 38 103q31 46 90 46q22 0 61 -17q40 -17 52 -17q22 0 33 32h99z" />
    <glyph glyph-name="itilde" unicode="&#x129;" horiz-adv-x="313" 
d="M59 62l61 428h155l-51 -359l45 -50l-101 -105zM400 704q-4 -29 -14 -55t-26 -49q-32 -45 -89 -45q-22 0 -62 17t-51 17q-21 0 -32 -32h-99q8 60 38 103q31 46 90 46q22 0 61 -17q40 -17 52 -17q22 0 33 32h99z" />
    <glyph glyph-name="Imacron" unicode="&#x12a;" horiz-adv-x="319" 
d="M220 0h-169l95 682h169zM394 884l-18 -125h-293l18 125h293z" />
    <glyph glyph-name="imacron" unicode="&#x12b;" horiz-adv-x="313" 
d="M59 62l61 428h155l-51 -359l45 -50l-101 -105zM369 692l-18 -125h-293l18 125h293z" />
    <glyph glyph-name="Ibreve" unicode="&#x12c;" horiz-adv-x="319" 
d="M429 898q-11 -73 -69 -119t-126 -46q-63 0 -108 39q-45 40 -45 103q0 4 0.5 9.5t1.5 13.5h114q-1 -3 -1 -11q0 -46 54 -46q24 0 43 16.5t23 40.5h113zM220 0h-169l95 682h169z" />
    <glyph glyph-name="ibreve" unicode="&#x12d;" horiz-adv-x="313" 
d="M59 62l61 428h155l-51 -359l45 -50l-101 -105zM396 706q-11 -73 -69 -119t-126 -46q-63 0 -108 39q-45 40 -45 103q0 4 0.5 9.5t1.5 13.5h114q-1 -3 -1 -11q0 -46 54 -46q24 0 43 16.5t23 40.5h113z" />
    <glyph glyph-name="Iogonek" unicode="&#x12e;" horiz-adv-x="319" 
d="M219 0l-8 -7q-8 -7 -20.5 -19t-24.5 -26t-21 -28t-9 -26q0 -22 22 -22q12 0 30.5 4t30.5 8l12 5l-16 -112q-53 -27 -105 -27q-54 0 -85 26.5t-31 68.5q0 33 28 71q14 19 27.5 34.5t26.5 26.5q28 23 30 23h-56l96 682h169z" />
    <glyph glyph-name="iogonek" unicode="&#x12f;" horiz-adv-x="313" 
d="M60 62l60 428h155l-50 -359l45 -50l-70 -68l-10 -9q-9 -9 -22.5 -23t-26 -29.5t-21 -30.5t-8.5 -27q0 -22 22 -22q12 0 30.5 4t30.5 8l12 5l-16 -112q-52 -27 -105 -27t-84 26q-30 25 -30 66q0 30 21 62t46.5 58.5t47 43.5t23.5 17zM320 627l-116 -93l-90 93l116 93z" />
    <glyph glyph-name="Idotaccent" unicode="&#x130;" horiz-adv-x="319" 
d="M220 0h-169l95 682h169zM351 819l-117 -93l-89 93l116 93z" />
    <glyph glyph-name="dotlessi" unicode="&#x131;" horiz-adv-x="313" 
d="M59 62l61 428h155l-51 -359l45 -50l-101 -105z" />
    <glyph glyph-name="IJ" unicode="&#x132;" horiz-adv-x="637" 
d="M220 0h-169l96 682h169zM639 682l-91 -648l-173 -188l-104 88l112 142l85 606h171z" />
    <glyph glyph-name="ij" unicode="&#x133;" horiz-adv-x="589" 
d="M60 62l61 428h155l-51 -359l45 -50l-101 -105zM320 627l-116 -93l-90 93l116 93zM565 490l-81 -582l-160 -176l-101 83l110 133l77 542h155zM610 627l-116 -93l-90 93l116 93z" />
    <glyph glyph-name="Jcircumflex" unicode="&#x134;" horiz-adv-x="348" 
d="M350 682l-91 -648l-173 -188l-103 88l111 142l85 606h171zM83 746l138 152h147l98 -152h-145l-39 61l-57 -61h-142z" />
    <glyph glyph-name="jcircumflex" unicode="&#x135;" horiz-adv-x="313" 
d="M289 490l-81 -582l-159 -176l-101 83l110 133l76 542h155zM29 554l138 152h147l98 -152h-145l-39 61l-57 -61h-142z" />
    <glyph glyph-name="Kcommaaccent" unicode="&#x136;" horiz-adv-x="662" 
d="M380 350l253 -350h-220l-161 233l-32 -233h-169l95 682h169l-32 -229l209 229h216zM398 -66l-115 -195h-125l67 195h173z" />
    <glyph glyph-name="kcommaaccent" unicode="&#x137;" horiz-adv-x="544" 
d="M303 805l-67 -480l146 165h184l-217 -233l165 -257h-193l-106 174l-25 -174h-154l113 805h154zM344 -66l-115 -195h-125l67 195h173z" />
    <glyph glyph-name="kgreenlandic" unicode="&#x138;" horiz-adv-x="553" 
d="M270 490l-23 -165l146 165h184l-217 -233l165 -257h-193l-106 174l-25 -174h-154l69 490h154z" />
    <glyph glyph-name="Lacute" unicode="&#x139;" horiz-adv-x="573" 
d="M540 152l-21 -152h-468l95 682h169l-74 -530h299zM169 747l101 151h181l-143 -151h-139z" />
    <glyph glyph-name="lacute" unicode="&#x13a;" horiz-adv-x="302" 
d="M46 62l104 743h155l-94 -674l44 -50l-100 -105zM160 838l101 151h181l-143 -151h-139z" />
    <glyph glyph-name="Lcommaaccent" unicode="&#x13b;" horiz-adv-x="573" 
d="M540 152l-21 -152h-468l95 682h169l-74 -530h299zM384 -66l-115 -195h-125l67 195h173z" />
    <glyph glyph-name="lcommaaccent" unicode="&#x13c;" horiz-adv-x="302" 
d="M46 62l104 743h155l-94 -674l44 -50l-100 -105zM223 -66l-115 -195h-125l67 195h173z" />
    <glyph glyph-name="Lcaron" unicode="&#x13d;" horiz-adv-x="573" 
d="M540 152l-21 -152h-468l95 682h169l-74 -530h299zM626 705l-115 -195h-125l67 195h173z" />
    <glyph glyph-name="lcaron" unicode="&#x13e;" horiz-adv-x="490" 
d="M46 62l104 743h155l-94 -674l44 -50l-100 -105zM583 706l-114 -195h-126l67 195h173z" />
    <glyph glyph-name="Ldot" unicode="&#x13f;" horiz-adv-x="573" 
d="M540 152l-21 -152h-468l95 682h169l-74 -530h299zM354 257l23 165h167l-23 -165h-167z" />
    <glyph glyph-name="ldot" unicode="&#x140;" horiz-adv-x="533" 
d="M45 62l105 743h155l-95 -674l45 -50l-101 -105zM327 244l23 165h167l-23 -165h-167z" />
    <glyph glyph-name="Lslash" unicode="&#x141;" horiz-adv-x="570" 
d="M62 224l-56 135l115 56l37 267h168l-25 -183l71 34l54 -135l-149 -70l-25 -176h300l-21 -152h-468l34 242z" />
    <glyph glyph-name="lslash" unicode="&#x142;" horiz-adv-x="344" 
d="M50 236l-47 128l105 50l55 391h155l-43 -311l70 34l47 -128l-140 -68l-28 -201l44 -50l-100 -105l-109 86l27 191z" />
    <glyph glyph-name="Nacute" unicode="&#x143;" horiz-adv-x="719" 
d="M715 682l-95 -682h-180l-154 380l-8 35h-4l-58 -415h-165l95 682h179l152 -374l11 -40h4l58 414h165zM347 747l101 151h181l-143 -151h-139z" />
    <glyph glyph-name="nacute" unicode="&#x144;" horiz-adv-x="606" 
d="M170 511l73 -59q74 43 153 43q75 0 118.5 -43.5t43.5 -116.5v-12.5t-1 -9.5l-29 -313h-153l28 276v5t0.5 8.5t0.5 8v3.5q0 28 -15.5 42.5t-40.5 14.5q-12 0 -32 -7t-34 -14l-14 -7l-46 -330h-157l50 362l-46 48zM310 555l101 151h181l-143 -151h-139z" />
    <glyph glyph-name="Ncommaaccent" unicode="&#x145;" horiz-adv-x="719" 
d="M715 682l-95 -682h-180l-154 380l-8 35h-4l-58 -415h-165l95 682h179l152 -374l11 -40h4l58 414h165zM435 -66l-115 -195h-125l67 195h173z" />
    <glyph glyph-name="ncommaaccent" unicode="&#x146;" horiz-adv-x="606" 
d="M170 511l73 -59q74 43 153 43q75 0 118.5 -43.5t43.5 -116.5v-12.5t-1 -9.5l-29 -313h-153l28 276v5t0.5 8.5t0.5 8v3.5q0 28 -15.5 42.5t-40.5 14.5q-12 0 -32 -7t-34 -14l-14 -7l-46 -330h-157l50 362l-46 48zM386 -66l-115 -195h-125l67 195h173z" />
    <glyph glyph-name="Ncaron" unicode="&#x147;" horiz-adv-x="719" 
d="M715 682l-95 -682h-180l-154 380l-8 35h-4l-58 -415h-165l95 682h179l152 -374l11 -40h4l58 414h165zM360 746l-96 152h142l40 -61l56 61h145l-140 -152h-147z" />
    <glyph glyph-name="ncaron" unicode="&#x148;" horiz-adv-x="606" 
d="M170 511l73 -59q74 43 153 43q75 0 118.5 -43.5t43.5 -116.5v-12.5t-1 -9.5l-29 -313h-153l28 276v5t0.5 8.5t0.5 8v3.5q0 28 -15.5 42.5t-40.5 14.5q-12 0 -32 -7t-34 -14l-14 -7l-46 -330h-157l50 362l-46 48zM338 554l-96 152h142l40 -61l56 61h145l-140 -152h-147z
" />
    <glyph glyph-name="napostrophe" unicode="&#x149;" horiz-adv-x="606" 
d="M171 511l72 -59q74 43 153 43q75 0 118.5 -43.5t43.5 -116.5v-12.5t-1 -9.5l-29 -313h-153l28 284q0 2 0.5 9t0.5 8q0 28 -15.5 42.5t-40.5 14.5q-12 0 -32 -7t-34 -14l-14 -7l-46 -330h-157l51 362l-47 48zM168 707l-114 -195h-125l66 195h173z" />
    <glyph glyph-name="Eng" unicode="&#x14a;" horiz-adv-x="719" 
d="M725 682l-107 -763l-173 -188l-104 88l118 142l4 33l-168 386l-8 35h-4l-58 -415h-165l96 682h179l151 -374l12 -40h4l58 414h165z" />
    <glyph glyph-name="eng" unicode="&#x14b;" horiz-adv-x="606" 
d="M184 513l69 -61q73 43 146 43q40 0 72.5 -11t56 -31.5t36 -49t12.5 -63.5q0 -5 -0.5 -12t-1.5 -16l-57 -404l-159 -176l-101 83l111 133l48 345q0 2 0.5 6t0.5 5q0 26 -16.5 40.5t-41.5 14.5q-16 0 -36 -6.5t-33 -12.5l-12 -6l-47 -334h-157l51 361l-45 49z" />
    <glyph glyph-name="Omacron" unicode="&#x14c;" horiz-adv-x="823" 
d="M65 310q0 72 31.5 140.5t85.5 122.5t133 86.5t169 32.5q139 0 230 -89q91 -88 91 -228q0 -154 -122 -270q-121 -115 -298 -115q-139 0 -230 89q-90 90 -90 231zM462 539q-97 0 -164 -66t-67 -158q0 -72 50 -122t126 -50q97 0 164 67q68 68 68 158q0 71 -51 121
q-50 50 -126 50zM651 884l-18 -125h-293l18 125h293z" />
    <glyph glyph-name="omacron" unicode="&#x14d;" horiz-adv-x="605" 
d="M589 270q0 -115 -89 -198q-88 -82 -217 -82q-101 0 -168 65q-66 66 -66 169q0 116 90 196q91 80 216 80q101 0 168 -65q66 -65 66 -165zM302 129q50 0 90 40q41 41 41 94q0 42 -26.5 70t-71.5 28q-52 0 -91 -40q-38 -40 -38 -92q0 -42 26.5 -71t69.5 -29zM523 692
l-18 -125h-293l18 125h293z" />
    <glyph glyph-name="Obreve" unicode="&#x14e;" horiz-adv-x="823" 
d="M65 310q0 72 31.5 140.5t85.5 122.5t133 86.5t169 32.5q139 0 230 -89q91 -88 91 -228q0 -154 -122 -270q-121 -115 -298 -115q-139 0 -230 89q-90 90 -90 231zM462 539q-97 0 -164 -66t-67 -158q0 -72 50 -122t126 -50q97 0 164 67q68 68 68 158q0 71 -51 121
q-50 50 -126 50zM689 898q-11 -73 -69 -119t-126 -46q-63 0 -108 39q-45 40 -45 103q0 4 0.5 9.5t1.5 13.5h114q-1 -3 -1 -11q0 -46 54 -46q24 0 43 16.5t23 40.5h113z" />
    <glyph glyph-name="obreve" unicode="&#x14f;" horiz-adv-x="605" 
d="M589 270q0 -115 -89 -198q-88 -82 -217 -82q-101 0 -168 65q-66 66 -66 169q0 116 90 196q91 80 216 80q101 0 168 -65q66 -65 66 -165zM302 129q50 0 90 40q41 41 41 94q0 42 -26.5 70t-71.5 28q-52 0 -91 -40q-38 -40 -38 -92q0 -42 26.5 -71t69.5 -29zM564 706
q-11 -73 -69 -119t-126 -46q-63 0 -108 39q-45 40 -45 103q0 4 0.5 9.5t1.5 13.5h114q-1 -3 -1 -11q0 -46 54 -46q24 0 43 16.5t23 40.5h113z" />
    <glyph glyph-name="Ohungarumlaut" unicode="&#x150;" horiz-adv-x="823" 
d="M65 310q0 72 31.5 140.5t85.5 122.5t133 86.5t169 32.5q139 0 230 -89q91 -88 91 -228q0 -154 -122 -270q-121 -115 -298 -115q-139 0 -230 89q-90 90 -90 231zM462 539q-97 0 -164 -66t-67 -158q0 -72 50 -122t126 -50q97 0 164 67q68 68 68 158q0 71 -51 121
q-50 50 -126 50zM274 747l101 151h181l-143 -151h-139zM535 747l101 151h181l-143 -151h-139z" />
    <glyph glyph-name="ohungarumlaut" unicode="&#x151;" horiz-adv-x="605" 
d="M589 270q0 -115 -89 -198q-88 -82 -217 -82q-101 0 -168 65q-66 66 -66 169q0 116 90 196q91 80 216 80q101 0 168 -65q66 -65 66 -165zM302 129q50 0 90 40q41 41 41 94q0 42 -26.5 70t-71.5 28q-52 0 -91 -40q-38 -40 -38 -92q0 -42 26.5 -71t69.5 -29zM142 555
l101 151h181l-143 -151h-139zM403 555l101 151h181l-143 -151h-139z" />
    <glyph glyph-name="OE" unicode="&#x152;" horiz-adv-x="944" 
d="M389 0q-141 0 -233 86q-91 85 -91 223q0 152 123 262q124 111 296 111h468l-21 -152h-289l-15 -110h270l-22 -151h-269l-16 -117h296l-21 -152h-476zM463 530q-89 0 -159 -63q-70 -61 -70 -151q0 -72 49 -118t127 -46h15l53 378h-15z" />
    <glyph glyph-name="oe" unicode="&#x153;" horiz-adv-x="921" 
d="M563 196q7 -34 37 -54.5t68 -20.5q45 0 84 7t57 14l18 7l-18 -127q-85 -32 -159 -32q-117 0 -182 74q-85 -74 -195 -74q-101 0 -162 67q-62 68 -62 167q0 111 85 193q86 83 210 83q111 0 176 -75q82 75 184 75q75 0 140 -50t65 -143q0 -15 -3 -35t-6.5 -37t-7 -29
t-3.5 -10h-326zM418 246q1 4 1 17q0 42 -25.5 70t-68.5 28q-52 0 -89 -40q-36 -41 -36 -94q0 -42 25 -70t67 -28q24 0 45.5 9.5t38 25t28 37t14.5 45.5zM694 368q-42 0 -74.5 -24t-47.5 -63h207q0 35 -21.5 61t-63.5 26z" />
    <glyph glyph-name="Racute" unicode="&#x154;" horiz-adv-x="664" 
d="M292 535l-20 -142h86q24 0 44.5 7t34.5 19t22 27t8 30q0 27 -17.5 43t-46.5 16h-111zM432 0l-172 310l-43 -310h-166l95 682h275q100 0 156.5 -49t56.5 -133q0 -75 -42 -133.5t-114 -86.5l155 -280h-201zM298 747l101 151h181l-143 -151h-139z" />
    <glyph glyph-name="racute" unicode="&#x155;" horiz-adv-x="448" 
d="M486 474l-21 -140q-48 23 -98 23q-26 0 -44.5 -7.5t-31 -18.5t-19 -22.5t-8.5 -18.5l-3 -8l-39 -282h-157l50 362l-46 48l101 102l72 -57q61 42 132 42q33 0 61 -6t39 -11zM295 555l101 151h181l-143 -151h-139z" />
    <glyph glyph-name="Rcommaaccent" unicode="&#x156;" horiz-adv-x="664" 
d="M292 535l-20 -142h86q24 0 44.5 7t34.5 19t22 27t8 30q0 27 -17.5 43t-46.5 16h-111zM432 0l-172 310l-43 -310h-166l95 682h275q100 0 156.5 -49t56.5 -133q0 -75 -42 -133.5t-114 -86.5l155 -280h-201zM405 -66l-115 -195h-125l67 195h173z" />
    <glyph glyph-name="rcommaaccent" unicode="&#x157;" horiz-adv-x="448" 
d="M486 474l-21 -140q-48 23 -98 23q-26 0 -44.5 -7.5t-31 -18.5t-19 -22.5t-8.5 -18.5l-3 -8l-39 -282h-157l50 362l-46 48l101 102l72 -57q61 42 132 42q33 0 61 -6t39 -11zM243 -66l-115 -195h-125l67 195h173z" />
    <glyph glyph-name="Rcaron" unicode="&#x158;" horiz-adv-x="664" 
d="M292 535l-20 -142h86q24 0 44.5 7t34.5 19t22 27t8 30q0 27 -17.5 43t-46.5 16h-111zM432 0l-172 310l-43 -310h-166l95 682h275q100 0 156.5 -49t56.5 -133q0 -75 -42 -133.5t-114 -86.5l155 -280h-201zM296 746l-96 152h142l40 -61l56 61h145l-140 -152h-147z" />
    <glyph glyph-name="rcaron" unicode="&#x159;" horiz-adv-x="448" 
d="M486 474l-21 -140q-48 23 -98 23q-26 0 -44.5 -7.5t-31 -18.5t-19 -22.5t-8.5 -18.5l-3 -8l-39 -282h-157l50 362l-46 48l101 102l72 -57q61 42 132 42q33 0 61 -6t39 -11zM303 554l-96 152h142l40 -61l56 61h145l-140 -152h-147z" />
    <glyph glyph-name="Sacute" unicode="&#x15a;" horiz-adv-x="590" 
d="M575 662l-22 -152q-102 32 -191 32q-37 0 -61 -12t-24 -31q0 -14 16 -27.5t40.5 -28.5t54.5 -31.5t59 -35.5q39 -26 66 -67.5t27 -92.5q0 -39 -15.5 -79t-52 -73t-96 -53.5t-147.5 -20.5q-24 0 -48.5 3t-46.5 7.5t-40 9.5t-30 10l-24 10l22 156q88 -45 187 -45
q48 0 82.5 14t34.5 41q0 16 -16 32t-41 33t-55.5 34.5t-58.5 35.5q-39 26 -66 64t-27 83q0 60 24.5 102.5t69.5 65.5q45 24 95 35t110 11q21 0 43.5 -2t43 -5.5t37.5 -7.5t28 -7zM325 747l101 151h181l-143 -151h-139z" />
    <glyph glyph-name="sacute" unicode="&#x15b;" horiz-adv-x="462" 
d="M448 467l-18 -123q-66 33 -148 33q-20 0 -32 -9t-12 -19q0 -6 8 -12.5t21 -14t29.5 -15.5t33.5 -17q34 -17 63 -51q29 -35 29 -78q0 -81 -64 -126q-65 -45 -168 -45q-18 0 -37.5 2.5t-38.5 6.5t-35 8.5t-27 9.5l-21 9l18 132q91 -42 152 -42q58 0 58 25q0 6 -8 13
t-20.5 14.5t-29 15.5t-33.5 16q-17 9 -33 22t-28.5 29.5t-20.5 36.5t-8 42q0 76 63 123q64 47 159 47q36 0 73 -8t56 -16zM224 555l101 151h181l-143 -151h-139z" />
    <glyph glyph-name="Scircumflex" unicode="&#x15c;" horiz-adv-x="590" 
d="M575 662l-22 -152q-102 32 -191 32q-37 0 -61 -12t-24 -31q0 -14 16 -27.5t40.5 -28.5t54.5 -31.5t59 -35.5q39 -26 66 -67.5t27 -92.5q0 -39 -15.5 -79t-52 -73t-96 -53.5t-147.5 -20.5q-24 0 -48.5 3t-46.5 7.5t-40 9.5t-30 10l-24 10l22 156q88 -45 187 -45
q48 0 82.5 14t34.5 41q0 16 -16 32t-41 33t-55.5 34.5t-58.5 35.5q-39 26 -66 64t-27 83q0 60 24.5 102.5t69.5 65.5q45 24 95 35t110 11q21 0 43.5 -2t43 -5.5t37.5 -7.5t28 -7zM225 746l138 152h147l98 -152h-145l-39 61l-57 -61h-142z" />
    <glyph glyph-name="scircumflex" unicode="&#x15d;" horiz-adv-x="462" 
d="M448 467l-18 -123q-66 33 -148 33q-20 0 -32 -9t-12 -19q0 -6 8 -12.5t21 -14t29.5 -15.5t33.5 -17q34 -17 63 -51q29 -35 29 -78q0 -81 -64 -126q-65 -45 -168 -45q-18 0 -37.5 2.5t-38.5 6.5t-35 8.5t-27 9.5l-21 9l18 132q91 -42 152 -42q58 0 58 25q0 6 -8 13
t-20.5 14.5t-29 15.5t-33.5 16q-17 9 -33 22t-28.5 29.5t-20.5 36.5t-8 42q0 76 63 123q64 47 159 47q36 0 73 -8t56 -16zM125 554l138 152h147l98 -152h-145l-39 61l-57 -61h-142z" />
    <glyph glyph-name="Scedilla" unicode="&#x15e;" horiz-adv-x="590" 
d="M575 662l-22 -152q-102 32 -191 32q-37 0 -61 -12t-24 -31q0 -14 16 -27.5t40.5 -28.5t54.5 -31.5t59 -35.5q39 -26 66 -67.5t27 -92.5q0 -81 -58 -143q-57 -63 -180 -78l-27 -44q5 -3 13 -8.5t21 -23.5q14 -20 14 -39q0 -62 -49 -96q-47 -34 -116 -34q-12 0 -32.5 5
t-34.5 10l-14 5l13 92q37 -17 66 -17q12 0 24 10t12 25q0 7 -5 14.5t-13.5 13.5t-18 10.5t-18.5 6.5l40 68q-36 4 -70 13.5t-51 16.5l-16 7l22 156q88 -45 187 -45q48 0 82.5 14t34.5 41q0 16 -16 32t-41 33t-55.5 34.5t-58.5 35.5q-39 26 -66 64t-27 83q0 60 24.5 102.5
t69.5 65.5q45 24 95 35t110 11q21 0 43.5 -2t43 -5.5t37.5 -7.5t28 -7z" />
    <glyph glyph-name="scedilla" unicode="&#x15f;" horiz-adv-x="462" 
d="M448 467l-18 -123q-66 33 -148 33q-20 0 -32 -9t-12 -19q0 -6 8 -12.5t21 -14t29.5 -15.5t33.5 -17q34 -17 63 -51q29 -35 29 -78q0 -63 -39.5 -105t-108.5 -57l-30 -48q5 -3 13 -8.5t21 -23.5q14 -20 14 -39q0 -62 -49 -96q-47 -34 -116 -34q-12 0 -32.5 5t-34.5 10
l-14 5l13 92q37 -17 66 -17q12 0 24 10t12 25q0 7 -5 14.5t-13.5 13.5t-18 10.5t-18.5 6.5l40 68q-28 4 -57 12t-43 15l-15 6l18 132q91 -42 152 -42q58 0 58 25q0 6 -8 13t-20.5 14.5t-29 15.5t-33.5 16q-17 9 -33 22t-28.5 29.5t-20.5 36.5t-8 42q0 76 63 123
q64 47 159 47q36 0 73 -8t56 -16z" />
    <glyph glyph-name="Scaron" unicode="&#x160;" horiz-adv-x="590" 
d="M575 662l-22 -152q-102 32 -191 32q-37 0 -61 -12t-24 -31q0 -14 16 -27.5t40.5 -28.5t54.5 -31.5t59 -35.5q39 -26 66 -67.5t27 -92.5q0 -39 -15.5 -79t-52 -73t-96 -53.5t-147.5 -20.5q-24 0 -48.5 3t-46.5 7.5t-40 9.5t-30 10l-24 10l22 156q88 -45 187 -45
q48 0 82.5 14t34.5 41q0 16 -16 32t-41 33t-55.5 34.5t-58.5 35.5q-39 26 -66 64t-27 83q0 60 24.5 102.5t69.5 65.5q45 24 95 35t110 11q21 0 43.5 -2t43 -5.5t37.5 -7.5t28 -7zM339 746l-96 152h142l40 -61l56 61h145l-140 -152h-147z" />
    <glyph glyph-name="scaron" unicode="&#x161;" horiz-adv-x="462" 
d="M448 467l-18 -123q-66 33 -148 33q-20 0 -32 -9t-12 -19q0 -6 8 -12.5t21 -14t29.5 -15.5t33.5 -17q34 -17 63 -51q29 -35 29 -78q0 -81 -64 -126q-65 -45 -168 -45q-18 0 -37.5 2.5t-38.5 6.5t-35 8.5t-27 9.5l-21 9l18 132q91 -42 152 -42q58 0 58 25q0 6 -8 13
t-20.5 14.5t-29 15.5t-33.5 16q-17 9 -33 22t-28.5 29.5t-20.5 36.5t-8 42q0 76 63 123q64 47 159 47q36 0 73 -8t56 -16zM227 554l-96 152h142l40 -61l56 61h145l-140 -152h-147z" />
    <glyph glyph-name="Tcommaaccent" unicode="&#x162;" 
d="M598 531h-183l-74 -531h-169l74 531h-181l21 151h533zM334 -66l-115 -195h-125l67 195h173z" />
    <glyph glyph-name="tcommaaccent" unicode="&#x163;" horiz-adv-x="366" 
d="M300 582l-13 -92h108l-19 -137h-108l-32 -222l48 -48l-104 -108l-108 88l41 290h-48l14 103l130 126h91zM253 -66l-115 -195h-125l67 195h173z" />
    <glyph glyph-name="Tcaron" unicode="&#x164;" 
d="M598 531h-183l-74 -531h-169l74 531h-181l21 151h533zM272 746l-96 152h142l40 -61l56 61h145l-140 -152h-147z" />
    <glyph glyph-name="tcaron" unicode="&#x165;" horiz-adv-x="554" 
d="M295 582l-13 -92h108l-19 -137h-108l-31 -222l47 -48l-103 -108l-109 88l41 290h-48l15 103l129 126h91zM675 705l-115 -195h-126l68 195h173z" />
    <glyph glyph-name="Tbar" unicode="&#x166;" 
d="M598 531h-183l-13 -97h124l-18 -125h-124l-43 -309h-169l43 309h-124l18 125h124l13 97h-181l21 151h533z" />
    <glyph glyph-name="tbar" unicode="&#x167;" horiz-adv-x="366" 
d="M300 582l-13 -92h108l-19 -137h-108l-8 -57h90l-16 -115h-90l-7 -50l47 -48l-103 -108l-109 88l17 118h-48l16 115h48l8 57h-48l14 103l130 126h91z" />
    <glyph glyph-name="Utilde" unicode="&#x168;" horiz-adv-x="705" 
d="M707 682l-61 -432q-17 -117 -103 -188q-87 -72 -204 -72q-109 0 -185 65q-74 65 -74 162q0 24 3 48l59 417h163l-57 -400q-3 -23 -3 -35q0 -46 30 -75t75 -29q46 0 86 35q40 34 48 90l58 414h165zM635 896q-4 -29 -14 -55t-26 -49q-32 -45 -89 -45q-22 0 -62 17t-51 17
q-21 0 -32 -32h-99q8 60 38 103q31 46 90 46q22 0 61 -17q40 -17 52 -17q22 0 33 32h99z" />
    <glyph glyph-name="utilde" unicode="&#x169;" horiz-adv-x="600" 
d="M463 -23l-70 61q-73 -43 -146 -43q-81 0 -128.5 41t-47.5 113q0 5 0.5 12.5t1.5 16.5l44 312h155l-41 -293q-1 -3 -1 -13q0 -26 16.5 -39.5t41.5 -13.5q16 0 36 6.5t32 12.5l13 6l47 334h157l-51 -361l45 -49zM548 704q-4 -29 -14 -55t-26 -49q-32 -45 -89 -45
q-22 0 -62 17t-51 17q-21 0 -32 -32h-99q8 60 38 103q31 46 90 46q22 0 61 -17q40 -17 52 -17q22 0 33 32h99z" />
    <glyph glyph-name="Umacron" unicode="&#x16a;" horiz-adv-x="705" 
d="M707 682l-61 -432q-17 -117 -103 -188q-87 -72 -204 -72q-109 0 -185 65q-74 65 -74 162q0 24 3 48l59 417h163l-57 -400q-3 -23 -3 -35q0 -46 30 -75t75 -29q46 0 86 35q40 34 48 90l58 414h165zM601 884l-18 -125h-293l18 125h293z" />
    <glyph glyph-name="umacron" unicode="&#x16b;" horiz-adv-x="600" 
d="M463 -23l-70 61q-73 -43 -146 -43q-81 0 -128.5 41t-47.5 113q0 5 0.5 12.5t1.5 16.5l44 312h155l-41 -293q-1 -3 -1 -13q0 -26 16.5 -39.5t41.5 -13.5q16 0 36 6.5t32 12.5l13 6l47 334h157l-51 -361l45 -49zM517 692l-18 -125h-293l18 125h293z" />
    <glyph glyph-name="Ubreve" unicode="&#x16c;" horiz-adv-x="705" 
d="M707 682l-61 -432q-17 -117 -103 -188q-87 -72 -204 -72q-109 0 -185 65q-74 65 -74 162q0 24 3 48l59 417h163l-57 -400q-3 -23 -3 -35q0 -46 30 -75t75 -29q46 0 86 35q40 34 48 90l58 414h165zM634 898q-11 -73 -69 -119t-126 -46q-63 0 -108 39q-45 40 -45 103
q0 4 0.5 9.5t1.5 13.5h114q-1 -3 -1 -11q0 -46 54 -46q24 0 43 16.5t23 40.5h113z" />
    <glyph glyph-name="ubreve" unicode="&#x16d;" horiz-adv-x="600" 
d="M463 -23l-70 61q-73 -43 -146 -43q-81 0 -128.5 41t-47.5 113q0 5 0.5 12.5t1.5 16.5l44 312h155l-41 -293q-1 -3 -1 -13q0 -26 16.5 -39.5t41.5 -13.5q16 0 36 6.5t32 12.5l13 6l47 334h157l-51 -361l45 -49zM541 706q-11 -73 -69 -119t-126 -46q-63 0 -108 39
q-45 40 -45 103q0 4 0.5 9.5t1.5 13.5h114q-1 -3 -1 -11q0 -46 54 -46q24 0 43 16.5t23 40.5h113z" />
    <glyph glyph-name="Uring" unicode="&#x16e;" horiz-adv-x="705" 
d="M707 682l-61 -432q-17 -117 -103 -188q-87 -72 -204 -72q-109 0 -185 65q-74 65 -74 162q0 24 3 48l59 417h163l-57 -400q-3 -23 -3 -35q0 -46 30 -75t75 -29q46 0 86 35q40 34 48 90l58 414h165zM319 810q0 49 40 83t94 34q22 0 42 -7.5t35 -20.5t24 -30.5t9 -37.5
q0 -47 -41 -82q-40 -34 -93 -34q-23 0 -43 7.5t-35 20.5t-23.5 30t-8.5 37zM446 862q-19 0 -35 -13.5t-16 -33.5q0 -15 11.5 -25t28.5 -10q20 0 35.5 13.5t15.5 32.5q0 15 -11.5 25.5t-28.5 10.5z" />
    <glyph glyph-name="uring" unicode="&#x16f;" horiz-adv-x="600" 
d="M463 -23l-70 61q-73 -43 -146 -43q-81 0 -128.5 41t-47.5 113q0 5 0.5 12.5t1.5 16.5l44 312h155l-41 -293q-1 -3 -1 -13q0 -26 16.5 -39.5t41.5 -13.5q16 0 36 6.5t32 12.5l13 6l47 334h157l-51 -361l45 -49zM243 618q0 49 40 83t94 34q22 0 42 -7.5t35 -20.5t24 -30.5
t9 -37.5q0 -47 -41 -82q-40 -34 -93 -34q-23 0 -43 7.5t-35 20.5t-23.5 30t-8.5 37zM370 670q-19 0 -35 -13.5t-16 -33.5q0 -15 11.5 -25t28.5 -10q20 0 35.5 13.5t15.5 32.5q0 15 -11.5 25.5t-28.5 10.5z" />
    <glyph glyph-name="Uhungarumlaut" unicode="&#x170;" horiz-adv-x="705" 
d="M707 682l-61 -432q-17 -117 -103 -188q-87 -72 -204 -72q-109 0 -185 65q-74 65 -74 162q0 24 3 48l59 417h163l-57 -400q-3 -23 -3 -35q0 -46 30 -75t75 -29q46 0 86 35q40 34 48 90l58 414h165zM226 747l101 151h181l-143 -151h-139zM487 747l101 151h181l-143 -151
h-139z" />
    <glyph glyph-name="uhungarumlaut" unicode="&#x171;" horiz-adv-x="600" 
d="M463 -23l-70 61q-73 -43 -146 -43q-81 0 -128.5 41t-47.5 113q0 5 0.5 12.5t1.5 16.5l44 312h155l-41 -293q-1 -3 -1 -13q0 -26 16.5 -39.5t41.5 -13.5q16 0 36 6.5t32 12.5l13 6l47 334h157l-51 -361l45 -49zM155 555l101 151h181l-143 -151h-139zM416 555l101 151h181
l-143 -151h-139z" />
    <glyph glyph-name="Uogonek" unicode="&#x172;" horiz-adv-x="705" 
d="M707 682l-61 -432q-6 -47 -25.5 -88t-49 -73t-67.5 -55t-82 -34q-9 -7 -23 -19.5t-37 -40.5q-23 -29 -23 -46q0 -22 22 -22q12 0 30.5 4t30.5 8l12 5l-16 -112q-53 -27 -105 -27q-54 0 -84.5 25.5t-30.5 67.5q0 40 34 81q17 21 34 38t34 31q-95 10 -158 73
q-62 64 -62 151q0 24 3 48l59 417h163l-57 -400q-3 -23 -3 -35q0 -46 30 -75t75 -29q46 0 86 35q40 34 48 90l58 414h165z" />
    <glyph glyph-name="uogonek" unicode="&#x173;" horiz-adv-x="600" 
d="M567 80l-78 -74l-9 -10q-13 -13 -32 -33.5t-31 -43.5q-11 -22 -6 -34.5t21 -12.5q12 0 30 4t30 8l12 5l-16 -112q-39 -21 -79.5 -25.5t-72.5 5.5t-51 32t-17 53q0 32 22 64t49 57.5t49.5 41.5t24.5 16l-20 17q-73 -43 -146 -43q-81 0 -128.5 41.5t-47.5 111.5
q0 5 0.5 12.5t1.5 17.5l44 312h155l-42 -293q-1 -3 -1 -12q0 -26 16.5 -40t41.5 -14q16 0 36.5 6.5t32.5 12.5l13 6l47 334h157l-51 -361z" />
    <glyph glyph-name="Wcircumflex" unicode="&#x174;" horiz-adv-x="821" 
d="M817 682l-95 -682h-164l-136 242h-4l-203 -242h-164l95 682h166l-61 -436h4l30 46l103 126h112l71 -126l16 -46h4l61 436h165zM300 746l138 152h147l98 -152h-145l-39 61l-57 -61h-142z" />
    <glyph glyph-name="wcircumflex" unicode="&#x175;" horiz-adv-x="824" 
d="M860 490l-213 -490h-173l-36 245l-2 37h-4l-12 -36l-106 -246h-174l-74 490h167l24 -266l1 -30h5l10 29l113 267h155l38 -265l2 -30h5l9 30l98 265h167zM280 554l138 152h147l98 -152h-145l-39 61l-57 -61h-142z" />
    <glyph glyph-name="Ycircumflex" unicode="&#x176;" horiz-adv-x="640" 
d="M250 276l-174 406h190l89 -254h4l159 254h188l-287 -406l-38 -276h-169zM209 746l138 152h147l98 -152h-145l-39 61l-57 -61h-142z" />
    <glyph glyph-name="ycircumflex" unicode="&#x177;" horiz-adv-x="576" 
d="M458 490h168l-287 -593l-141 -165l-102 83l112 135l24 50h-40l-89 352l-54 58l102 103l94 -76l55 -257l2 -25h4zM163 554l138 152h147l98 -152h-145l-39 61l-57 -61h-142z" />
    <glyph glyph-name="Ydieresis" unicode="&#x178;" horiz-adv-x="638" 
d="M249 276l-174 406h190l89 -254h4l159 254h188l-287 -406l-38 -276h-169zM390 819l-117 -93l-89 93l116 93zM638 819l-117 -93l-89 93l116 93z" />
    <glyph glyph-name="Zacute" unicode="&#x179;" horiz-adv-x="618" 
d="M560 152l-21 -152h-518l21 151l354 379h-274l21 152h490l-20 -145l-365 -385h312zM302 747l101 151h181l-143 -151h-139z" />
    <glyph glyph-name="zacute" unicode="&#x17a;" horiz-adv-x="538" 
d="M465 0h-428l19 133l242 214l1 4h-202l19 139h412l-19 -135l-238 -211l-1 -4h215zM238 555l101 151h181l-143 -151h-139z" />
    <glyph glyph-name="Zdotaccent" unicode="&#x17b;" horiz-adv-x="618" 
d="M560 152l-21 -152h-518l21 151l354 379h-274l21 152h490l-20 -145l-365 -385h312zM507 819l-117 -93l-89 93l116 93z" />
    <glyph glyph-name="zdotaccent" unicode="&#x17c;" horiz-adv-x="538" 
d="M465 0h-428l19 133l242 214l1 4h-202l19 139h412l-19 -135l-238 -211l-1 -4h215zM445 627l-117 -93l-89 93l116 93z" />
    <glyph glyph-name="Zcaron" unicode="&#x17d;" horiz-adv-x="618" 
d="M560 152l-21 -152h-518l21 151l354 379h-274l21 152h490l-20 -145l-365 -385h312zM326 746l-96 152h142l40 -61l56 61h145l-140 -152h-147z" />
    <glyph glyph-name="zcaron" unicode="&#x17e;" horiz-adv-x="538" 
d="M465 0h-428l19 133l242 214l1 4h-202l19 139h412l-19 -135l-238 -211l-1 -4h215zM244 554l-96 152h142l40 -61l56 61h145l-140 -152h-147z" />
    <glyph glyph-name="longs" unicode="&#x17f;" horiz-adv-x="320" 
d="M426 680q-42 0 -58 -16l-81 -79l-82 -585h-158l50 355h-46l19 135h46l20 142l157 141q46 42 152 42z" />
    <glyph glyph-name="florin" unicode="&#x192;" horiz-adv-x="492" 
d="M538 671v-129q-30 5 -54.5 7.5t-43.5 2.5q-55 0 -62 -57l-4 -30h115l-21 -140h-116l-51 -385q-13 -100 -69 -151t-141 -51q-28 0 -58 5t-45 10l-16 5v143q57 -23 99 -23q56 0 67 75l52 372h-105l20 140h107l10 65q12 78 61 121t130 43q30 0 61 -6t48 -12z" />
    <glyph glyph-name="AEacute" unicode="&#x1fc;" horiz-adv-x="953" 
d="M422 0l24 177h-186l-101 -177h-177l400 682h578l-21 -152h-278l-15 -110h258l-22 -151h-257l-16 -117h286l-21 -152h-452zM347 331h121l28 199h-35zM527 747l101 151h181l-143 -151h-139z" />
    <glyph glyph-name="aeacute" unicode="&#x1fd;" horiz-adv-x="860" 
d="M502 196q7 -34 37 -54.5t68 -20.5q45 0 84 7t57 14l18 7l-18 -127q-85 -32 -159 -32q-108 0 -175 61q-105 -60 -199 -60q-79 0 -126.5 36t-47.5 94q0 80 64 126t164 46q16 0 37.5 -2t35.5 -4l13 -2q1 8 1.5 13.5t0.5 8.5q0 67 -72 67q-17 0 -36.5 -2t-38.5 -5.5t-36.5 -8
t-29.5 -8.5l-24 -9l17 122q94 36 178 36q113 0 164 -54q80 55 165 55q75 0 140 -50q64 -49 64 -143q0 -15 -3 -35t-6.5 -37t-7 -29t-3.5 -10h-326zM633 368q-42 0 -74.5 -24t-47.5 -63h207q0 36 -23.5 61.5t-61.5 25.5zM356 141q-8 23 -12 59q-41 6 -78 6q-26 0 -43 -14.5
t-17 -34.5q0 -17 13.5 -27t33.5 -10q16 0 41.5 5t43.5 11zM415 555l101 151h181l-143 -151h-139z" />
    <glyph glyph-name="Oslashacute" unicode="&#x1fe;" horiz-adv-x="823" 
d="M94 54l42 45q-71 83 -71 211q0 151 123 267q122 115 296 115q81 0 144 -29l40 45l102 -75l-39 -44q74 -83 74 -214q0 -76 -33 -145.5t-90 -123t-133.5 -85t-163.5 -31.5q-83 0 -149 33l-42 -50zM406 143q91 0 162 66q71 68 71 157q0 44 -24 88l-265 -303q30 -8 56 -8z
M463 539q-97 0 -164 -66q-68 -66 -68 -158q0 -50 21 -81l264 297q-29 8 -53 8zM408 747l101 151h181l-143 -151h-139z" />
    <glyph glyph-name="oslashacute" unicode="&#x1ff;" horiz-adv-x="605" 
d="M69 41l29 32q-48 57 -48 151q0 119 89 197q88 78 216 78q55 0 99 -18l24 27l87 -66l-23 -26q48 -62 48 -146q0 -116 -91 -198t-216 -82q-58 0 -97 19l-30 -34zM337 374q-56 0 -100 -44q-43 -43 -43 -103q0 -20 5 -37l160 182q-5 1 -11 1.5t-11 0.5zM301 116q55 0 99 45
q45 45 45 104q0 18 -5 35l-159 -182q5 -1 10 -1.5t10 -0.5zM279 555l101 151h181l-143 -151h-139z" />
    <glyph glyph-name="Scommaaccent" unicode="&#x218;" horiz-adv-x="590" 
d="M325 -66l-114 -195h-126l67 195h173zM575 662l-22 -152q-102 32 -191 32q-37 0 -61 -12t-24 -31q0 -14 16 -27.5t40.5 -28.5t54.5 -31.5t59 -35.5q39 -26 66 -67.5t27 -92.5q0 -39 -15.5 -79t-52 -73t-96 -53.5t-147.5 -20.5q-24 0 -48.5 3t-46.5 7.5t-40 9.5t-30 10
l-24 10l22 156q88 -45 187 -45q48 0 82.5 14t34.5 41q0 16 -16 32t-41 33t-55.5 34.5t-58.5 35.5q-39 26 -66 64t-27 83q0 60 24.5 102.5t69.5 65.5q45 24 95 35t110 11q21 0 43.5 -2t43 -5.5t37.5 -7.5t28 -7z" />
    <glyph glyph-name="scommaaccent" unicode="&#x219;" horiz-adv-x="462" 
d="M448 467l-18 -123q-66 33 -148 33q-20 0 -32 -9t-12 -19q0 -6 8 -12.5t21 -14t29.5 -15.5t33.5 -17q34 -17 63 -51q29 -35 29 -78q0 -81 -64 -126q-65 -45 -168 -45q-18 0 -37.5 2.5t-38.5 6.5t-35 8.5t-27 9.5l-21 9l18 132q91 -42 152 -42q58 0 58 25q0 6 -8 13
t-20.5 14.5t-29 15.5t-33.5 16q-17 9 -33 22t-28.5 29.5t-20.5 36.5t-8 42q0 76 63 123q64 47 159 47q36 0 73 -8t56 -16zM289 -66l-115 -195h-125l67 195h173z" />
    <glyph glyph-name="circumflex" unicode="&#x2c6;" horiz-adv-x="383" 
d="M33 554l138 152h147l98 -152h-145l-39 61l-57 -61h-142z" />
    <glyph glyph-name="caron" unicode="&#x2c7;" horiz-adv-x="384" 
d="M150 554l-96 152h142l40 -61l56 61h145l-140 -152h-147z" />
    <glyph glyph-name="breve" unicode="&#x2d8;" horiz-adv-x="346" 
d="M401 706q-11 -73 -69 -119t-126 -46q-63 0 -108 39q-45 40 -45 103q0 4 0.5 9.5t1.5 13.5h114q-1 -3 -1 -11q0 -46 54 -46q24 0 43 16.5t23 40.5h113z" />
    <glyph glyph-name="dotaccent" unicode="&#x2d9;" horiz-adv-x="206" 
d="M250 627l-117 -93l-89 93l116 93z" />
    <glyph glyph-name="ring" unicode="&#x2da;" horiz-adv-x="236" 
d="M40 618q0 49 40 83t94 34q22 0 42 -7.5t35 -20.5t24 -30.5t9 -37.5q0 -47 -41 -82q-40 -34 -93 -34q-23 0 -43 7.5t-35 20.5t-23.5 30t-8.5 37zM167 670q-19 0 -35 -13.5t-16 -33.5q0 -15 11.5 -25t28.5 -10q20 0 35.5 13.5t15.5 32.5q0 15 -11.5 25.5t-28.5 10.5z" />
    <glyph glyph-name="ogonek" unicode="&#x2db;" horiz-adv-x="232" 
d="M224 -111l-16 -112q-53 -27 -105 -27q-54 0 -84.5 25.5t-30.5 67.5q0 21 11.5 43.5t27.5 43t33 36.5t28 25l11 9h113q-9 -7 -23 -19.5t-37 -40.5q-23 -29 -23 -46q0 -22 22 -22q12 0 30.5 4t30.5 8z" />
    <glyph glyph-name="tilde" unicode="&#x2dc;" horiz-adv-x="353" 
d="M407 704q-4 -29 -14 -55t-26 -49q-32 -45 -89 -45q-22 0 -62 17t-51 17q-21 0 -32 -32h-99q8 60 38 103q31 46 90 46q22 0 61 -17q40 -17 52 -17q22 0 33 32h99z" />
    <glyph glyph-name="hungarumlaut" unicode="&#x2dd;" horiz-adv-x="523" 
d="M34 555l101 151h181l-143 -151h-139zM295 555l101 151h181l-143 -151h-139z" />
    <glyph glyph-name="afii10023" unicode="&#x401;" horiz-adv-x="631" 
d="M51 0l95 682h482l-21 -152h-318l-15 -109h299l-22 -152h-298l-16 -117h326l-21 -152h-491zM378 819l-117 -93l-89 93l116 93zM626 819l-117 -93l-89 93l116 93z" />
    <glyph glyph-name="afii10051" unicode="&#x402;" horiz-adv-x="689" 
d="M549 530h-184l-14 -106q54 16 129 16q37 0 69 -11.5t55 -34t36 -54.5t13 -74q0 -20 -3 -42l-22 -159l-160 -191l-108 90l108 143l16 117q0 1 0.5 4t0.5 5q0 23 -18.5 38t-43.5 15q-18 0 -41.5 -3t-37.5 -6l-15 -3l-38 -274h-167l74 530h-134l22 152h485z" />
    <glyph glyph-name="afii10052" unicode="&#x403;" horiz-adv-x="573" 
d="M614 682l-21 -152h-299l-74 -530h-169l95 682h468zM313 747l101 151h181l-143 -151h-139z" />
    <glyph glyph-name="afii10053" unicode="&#x404;" horiz-adv-x="674" 
d="M529 419l-21 -153h-269q14 -57 60.5 -90t118.5 -33q41 0 96 11q27 5 48.5 11t37.5 11l31 12l-23 -160q-111 -38 -216 -38q-149 0 -238 87t-89 223q0 162 121 277t304 115q46 0 94 -9q49 -9 74 -18l25 -9l-21 -150q-86 33 -192 33q-69 0 -123 -32.5t-85 -87.5h267z" />
    <glyph glyph-name="afii10054" unicode="&#x405;" horiz-adv-x="590" 
d="M575 662l-22 -152q-102 32 -191 32q-37 0 -61 -12t-24 -31q0 -14 16 -27.5t40.5 -28.5t54.5 -31.5t59 -35.5q39 -26 66 -67.5t27 -92.5q0 -39 -15.5 -79t-52 -73t-96 -53.5t-147.5 -20.5q-24 0 -48.5 3t-46.5 7.5t-40 9.5t-30 10l-24 10l22 156q88 -45 187 -45
q48 0 82.5 14t34.5 41q0 16 -16 32t-41 33t-55.5 34.5t-58.5 35.5q-39 26 -66 64t-27 83q0 60 24.5 102.5t69.5 65.5q45 24 95 35t110 11q21 0 43.5 -2t43 -5.5t37.5 -7.5t28 -7z" />
    <glyph glyph-name="afii10055" unicode="&#x406;" horiz-adv-x="319" 
d="M220 0h-169l95 682h169z" />
    <glyph glyph-name="afii10056" unicode="&#x407;" horiz-adv-x="319" 
d="M220 0h-169l95 682h169zM230 819l-117 -93l-89 93l116 93zM478 819l-117 -93l-89 93l116 93z" />
    <glyph glyph-name="afii10057" unicode="&#x408;" horiz-adv-x="348" 
d="M350 682l-91 -648l-173 -188l-103 88l111 142l85 606h171z" />
    <glyph glyph-name="afii10058" unicode="&#x409;" horiz-adv-x="990" 
d="M421 0l75 530h-139l-85 -380l-164 -191l-104 92l114 143l107 488h459l-34 -239h115q93 0 148 -52q57 -53 57 -135q0 -110 -73 -183q-72 -73 -193 -73h-283zM630 301l-21 -154h110q17 0 32 6.5t26.5 18.5t18.5 28t7 35q0 27 -17.5 46.5t-46.5 19.5h-109z" />
    <glyph glyph-name="afii10059" unicode="&#x40a;" horiz-adv-x="1011" 
d="M449 0l41 295h-234l-41 -295h-164l95 682h164l-33 -239h234l33 239h165l-33 -239h109q93 0 148 -52q57 -53 57 -135q0 -109 -74 -183q-73 -73 -192 -73h-275zM655 295l-21 -148h104q17 0 32.5 6.5t27 18.5t18.5 27.5t7 33.5q0 26 -17.5 44t-47.5 18h-103z" />
    <glyph glyph-name="afii10060" unicode="&#x40b;" horiz-adv-x="689" 
d="M545 530h-184l-15 -106q54 16 129 16q37 0 69 -12t55.5 -34.5t36.5 -55t13 -74.5q0 -19 -3 -40l-31 -224h-166l30 218q1 4 1 14q0 24 -18 39t-43 15q-18 0 -41.5 -3t-37.5 -6l-15 -3l-38 -274h-167l74 530h-134l21 152h485z" />
    <glyph glyph-name="afii10061" unicode="&#x40c;" horiz-adv-x="662" 
d="M380 350l253 -350h-220l-161 233l-32 -233h-169l95 682h169l-32 -229l209 229h216zM329 747l101 151h181l-143 -151h-139z" />
    <glyph glyph-name="afii10062" unicode="&#x40e;" horiz-adv-x="672" 
d="M720 682l-367 -625l-149 -111l-78 124l103 77l39 62l-155 473h185l85 -290l160 290h177zM626 898q-11 -73 -69 -119t-126 -46q-63 0 -108 39q-45 40 -45 103q0 4 0.5 9.5t1.5 13.5h114q-1 -3 -1 -11q0 -46 54 -46q24 0 43 16.5t23 40.5h113z" />
    <glyph glyph-name="afii10145" unicode="&#x40f;" horiz-adv-x="713" 
d="M243 -141l14 141h-201l95 682h165l-74 -531h233l74 531h165l-95 -682h-202l-25 -141h-149z" />
    <glyph glyph-name="afii10017" unicode="&#x410;" horiz-adv-x="678" 
d="M535 682l90 -682h-172l-20 157h-192l-64 -157h-171l279 682h250zM302 310h112l-21 191l-1 34h-4l-11 -34z" />
    <glyph glyph-name="afii10018" unicode="&#x411;" horiz-adv-x="643" 
d="M602 257q0 -111 -73 -184q-72 -73 -200 -73h-278l95 682h451l-21 -152h-285l-12 -86h112q49 0 88 -13.5t66.5 -38t42 -59t14.5 -76.5zM258 297l-21 -150h113q34 0 59.5 24t25.5 61q0 26 -18 45.5t-47 19.5h-112z" />
    <glyph glyph-name="afii10019" unicode="&#x412;" horiz-adv-x="659" 
d="M630 513q0 -89 -75 -153q60 -44 60 -130q0 -102 -78 -166q-76 -64 -190 -64h-296l95 682h260q106 0 165 -43.5t59 -125.5zM351 147q19 0 37 4.5t31.5 13.5t21.5 22.5t8 31.5q0 55 -94 55h-102l-18 -127h116zM274 415h97q45 0 70 22t25 50q0 22 -19 35t-52 13h-104z" />
    <glyph glyph-name="afii10020" unicode="&#x413;" horiz-adv-x="573" 
d="M614 682l-21 -152h-299l-74 -530h-169l95 682h468z" />
    <glyph glyph-name="afii10021" unicode="&#x414;" horiz-adv-x="699" 
d="M479 -141l5 141h-319l-33 -141h-150l40 291h68l49 93l99 439h444l-74 -532h63l-41 -291h-151zM295 227l-37 -77h183l53 380h-131z" />
    <glyph glyph-name="afii10022" unicode="&#x415;" horiz-adv-x="631" 
d="M51 0l95 682h482l-21 -152h-318l-15 -109h299l-22 -152h-298l-16 -117h326l-21 -152h-491z" />
    <glyph glyph-name="afii10024" unicode="&#x416;" horiz-adv-x="941" 
d="M531 0h-169l32 234l-201 -234h-206l319 350l-216 332h205l131 -224l31 224h169l-31 -224l192 224h206l-308 -332l222 -350h-209l-135 234z" />
    <glyph glyph-name="afii10025" unicode="&#x417;" horiz-adv-x="560" 
d="M528 251q0 -113 -80 -187q-79 -73 -210 -73q-63 0 -114 13q-26 7 -45.5 14t-30.5 14l-22 13l25 162q6 -3 12.5 -7.5t17 -9.5t27 -11.5t40.5 -15.5q48 -16 91 -16q51 0 84 23.5t33 58.5q0 29 -23 47t-68 18h-70l20 144h85q36 0 56 18.5t20 40.5q0 39 -65 39q-38 0 -90 -12
q-51 -12 -85 -24l-33 -13l23 164q105 41 224 41q45 0 82 -11.5t62.5 -33.5t39.5 -52.5t14 -67.5q0 -88 -69 -151q49 -46 49 -125z" />
    <glyph glyph-name="afii10026" unicode="&#x418;" horiz-adv-x="719" 
d="M715 682l-95 -682h-165l46 334l16 78h-4l-34 -74l-249 -338h-179l95 682h165l-46 -330l-17 -82h4l35 74l248 338h180z" />
    <glyph glyph-name="afii10027" unicode="&#x419;" horiz-adv-x="719" 
d="M441 813q33 0 53 16t25 31q2 8 4 17.5t4 20.5h101q-12 -88 -60.5 -124t-136.5 -36q-78 0 -117 27.5t-39 93.5q0 18 3 39h101q-1 -8 -1.5 -14.5t-0.5 -11.5q0 -59 64 -59zM708 682l-96 -682h-165l47 334l16 78h-4l-35 -74l-249 -338h-179l96 682h165l-47 -330l-16 -82h4
l34 74l249 338h180z" />
    <glyph glyph-name="afii10028" unicode="&#x41a;" horiz-adv-x="662" 
d="M380 350l253 -350h-220l-161 233l-32 -233h-169l95 682h169l-32 -229l209 229h216z" />
    <glyph glyph-name="afii10029" unicode="&#x41b;" horiz-adv-x="691" 
d="M108 194l107 488h474l-96 -682h-167l75 530h-154l-85 -380l-164 -191l-103 92z" />
    <glyph glyph-name="afii10030" unicode="&#x41c;" horiz-adv-x="821" 
d="M817 682l-95 -682h-165l60 430h-4l-30 -41l-104 -125h-111l-70 125l-17 41h-4l-60 -430h-166l95 682h164l135 -242h4l204 242h164z" />
    <glyph glyph-name="afii10031" unicode="&#x41d;" horiz-adv-x="713" 
d="M709 682l-95 -682h-165l39 281h-234l-39 -281h-164l95 682h164l-34 -248h234l34 248h165z" />
    <glyph glyph-name="afii10032" unicode="&#x41e;" horiz-adv-x="823" 
d="M65 310q0 72 31.5 140.5t85.5 122.5t133 86.5t169 32.5q139 0 230 -89q91 -88 91 -228q0 -154 -122 -270q-121 -115 -298 -115q-139 0 -230 89q-90 90 -90 231zM462 539q-97 0 -164 -66t-67 -158q0 -72 50 -122t126 -50q97 0 164 67q68 68 68 158q0 71 -51 121
q-50 50 -126 50z" />
    <glyph glyph-name="afii10033" unicode="&#x41f;" horiz-adv-x="713" 
d="M709 682l-95 -682h-165l74 530h-233l-74 -530h-165l95 682h563z" />
    <glyph glyph-name="afii10034" unicode="&#x420;" horiz-adv-x="613" 
d="M292 535l-22 -154h102q18 0 34 8t27.5 20.5t18 28.5t6.5 33q0 29 -17 46.5t-46 17.5h-103zM625 493q0 -115 -79 -187q-78 -72 -195 -72h-102l-32 -234h-166l95 682h268q49 0 88 -13.5t66.5 -38.5t42 -60t14.5 -77z" />
    <glyph glyph-name="afii10035" unicode="&#x421;" horiz-adv-x="674" 
d="M631 188l-23 -160q-111 -38 -216 -38q-149 0 -238 87t-89 223q0 160 119 276q121 116 306 116q46 0 94 -9q49 -9 74 -18l25 -9l-21 -150q-86 33 -192 33q-100 0 -168 -67q-68 -66 -68 -162q0 -37 13 -68t37 -53t58 -34t76 -12q41 0 96 11q27 5 48.5 11t37.5 11z" />
    <glyph glyph-name="afii10036" unicode="&#x422;" 
d="M598 531h-183l-74 -531h-169l74 531h-181l21 151h533z" />
    <glyph glyph-name="afii10037" unicode="&#x423;" horiz-adv-x="672" 
d="M720 682l-367 -625l-149 -111l-78 124l103 77l39 62l-155 473h185l85 -290l160 290h177z" />
    <glyph glyph-name="afii10038" unicode="&#x424;" horiz-adv-x="817" 
d="M299 0l8 60q-110 14 -175 82q-65 70 -65 176q0 120 92 210q90 90 229 107l6 47h169l-6 -47q55 -6 100 -27t77 -54.5t49 -77.5t17 -97q0 -121 -94 -212q-93 -90 -230 -107l-8 -60h-169zM497 211q62 11 99 55q38 47 38 101q0 31 -10 52t-24 34.5t-29 20t-25 8.5l-10 2z
M367 484q-63 -9 -100 -55q-36 -47 -36 -100q0 -32 10 -53t24 -34.5t29 -20t24 -8.5l10 -2z" />
    <glyph glyph-name="afii10039" unicode="&#x425;" horiz-adv-x="730" 
d="M286 353l-179 329h199l101 -196h4l154 196h200l-270 -329l196 -353h-201l-116 222h-4l-179 -222h-199z" />
    <glyph glyph-name="afii10040" unicode="&#x426;" horiz-adv-x="733" 
d="M518 0h-462l95 682h165l-74 -532h233l74 532h165l-74 -532h65l-41 -291h-151z" />
    <glyph glyph-name="afii10041" unicode="&#x427;" horiz-adv-x="648" 
d="M381 0l32 232q-68 -18 -135 -18q-90 0 -142.5 46.5t-52.5 131.5q0 20 3 41l35 248h165l-34 -242q-1 -3 -1 -13q0 -27 17.5 -43t51.5 -16q24 0 53 5.5t45 10.5l17 5l41 294h168l-95 -682h-168z" />
    <glyph glyph-name="afii10042" unicode="&#x428;" horiz-adv-x="923" 
d="M824 0h-773l95 682h164l-74 -532h141l74 532h165l-74 -532h138l74 532h165z" />
    <glyph glyph-name="afii10043" unicode="&#x429;" horiz-adv-x="944" 
d="M729 0h-673l95 682h164l-74 -532h141l74 532h165l-74 -532h138l74 532h165l-74 -532h66l-41 -291h-151z" />
    <glyph glyph-name="afii10044" unicode="&#x42a;" horiz-adv-x="635" 
d="M51 535l20 147h263l-33 -239h108q93 0 148 -52q57 -53 57 -135q0 -110 -72 -183t-194 -73h-275l74 535h-96zM281 301l-22 -154h103q34 0 59.5 25t25.5 62q0 27 -17.5 47t-46.5 20h-102z" />
    <glyph glyph-name="afii10045" unicode="&#x42b;" horiz-adv-x="889" 
d="M51 0l95 682h166l-33 -239h108q93 0 148 -52q57 -53 57 -135q0 -109 -74 -183q-73 -73 -192 -73h-275zM259 301l-22 -154h103q34 0 59.5 25t25.5 62q0 27 -17.5 47t-46.5 20h-102zM624 0l95 682h166l-95 -682h-166z" />
    <glyph glyph-name="afii10046" unicode="&#x42c;" horiz-adv-x="613" 
d="M51 0l95 682h166l-33 -239h108q93 0 148 -52q57 -53 57 -135q0 -109 -74 -183q-73 -73 -192 -73h-275zM259 301l-22 -154h103q34 0 59.5 25t25.5 62q0 27 -17.5 47t-46.5 20h-102z" />
    <glyph glyph-name="afii10047" unicode="&#x42d;" horiz-adv-x="674" 
d="M192 266l21 153h270q-14 55 -61 89t-116 34q-49 0 -98 -9q-52 -9 -76 -18l-26 -9l21 150q100 36 203 36q149 0 238 -89q88 -88 88 -229q0 -73 -30.5 -142.5t-84.5 -123.5t-132.5 -86t-169.5 -32q-26 0 -52.5 2.5t-53.5 7.5q-26 5 -46.5 11t-34.5 11l-28 10l23 156
q91 -45 201 -45q72 0 128 33t85 90h-269z" />
    <glyph glyph-name="afii10048" unicode="&#x42e;" horiz-adv-x="1049" 
d="M313 682l-36 -261h66q39 117 147 193q109 77 234 77q134 0 221 -88q88 -87 88 -222q0 -157 -118 -274q-119 -116 -287 -116q-124 0 -210 80q-85 81 -93 197h-70l-37 -268h-167l95 682h167zM704 535q-86 0 -152 -67q-66 -68 -66 -153q0 -69 47 -119q48 -49 118 -49
q84 0 150 67t66 154q0 69 -47 118q-46 49 -116 49z" />
    <glyph glyph-name="afii10049" unicode="&#x42f;" horiz-adv-x="667" 
d="M457 393l20 142h-111q-32 0 -55.5 -19.5t-27.5 -50.5q-4 -28 19.5 -50t68.5 -22h86zM445 310l-255 -310h-203l237 280q-57 25 -86.5 74t-20.5 112q13 96 87 156q73 60 184 60h275l-95 -682h-166z" />
    <glyph glyph-name="afii10065" unicode="&#x430;" horiz-adv-x="594" 
d="M452 -23l-66 54q-50 -39 -129 -39q-85 0 -147 65q-61 64 -61 157q0 118 85 200q86 83 219 83q49 0 102 -11q26 -5 45.5 -11t32.5 -11l26 -11l-46 -323l42 -47zM334 364q-50 0 -91 -38q-39 -38 -39 -91q0 -51 26 -78.5t71 -27.5q36 0 57 10l31 215q-16 10 -55 10z" />
    <glyph glyph-name="afii10066" unicode="&#x431;" horiz-adv-x="595" 
d="M557 711l18 -118q-46 -25 -106 -33q-157 -17 -197 -102q37 19 101 19q82 0 140 -56q58 -55 58 -151q0 -113 -84 -195q-85 -83 -209 -83q-50 0 -91 15.5t-70.5 45.5t-45.5 74t-16 101q0 12 1.5 27t3.5 34q53 369 406 399q15 1 38 7t38 11zM328 351q-50 0 -88 -37
q-38 -38 -38 -90q0 -42 25 -68t70 -26q52 0 89 37t37 90q0 42 -26.5 68t-68.5 26z" />
    <glyph glyph-name="afii10067" unicode="&#x432;" horiz-adv-x="541" 
d="M516 366q0 -65 -46 -105q4 -3 10 -9t16 -28q10 -20 10 -46q0 -80 -58 -129t-153 -49h-248l69 490h227q82 0 127.5 -32t45.5 -92zM308 134q16 0 31.5 9.5t15.5 26.5q0 27 -48 27h-86l-9 -63h96zM236 303h83q20 0 33 9.5t13 21.5q0 10 -9 17t-23 7h-89z" />
    <glyph glyph-name="afii10068" unicode="&#x433;" horiz-adv-x="429" 
d="M470 490l-19 -137h-200l-50 -353h-154l69 490h354z" />
    <glyph glyph-name="afii10069" unicode="&#x434;" horiz-adv-x="595" 
d="M403 -110l10 110h-269l-20 -110h-137l33 247h64l36 75l67 278h371l-50 -353h67l-34 -247h-138zM261 189l-25 -52h128l31 216h-96z" />
    <glyph glyph-name="afii10070" unicode="&#x435;" 
d="M205 196q7 -34 37 -54.5t68 -20.5q45 0 84 7t57 14l18 7l-18 -127q-85 -32 -159 -32q-113 0 -178 64q-65 65 -65 165q0 116 91 198q92 83 207 83q75 0 140 -50q64 -49 64 -143q0 -15 -3 -35t-6.5 -37t-7 -29t-3.5 -10h-326zM336 368q-42 0 -74.5 -24t-47.5 -63h207
q0 38 -23 62.5t-62 24.5z" />
    <glyph glyph-name="afii10072" unicode="&#x436;" horiz-adv-x="778" 
d="M517 490l-23 -166l127 166h181l-204 -236l152 -254h-190l-88 172l-24 -172h-155l24 172l-135 -172h-189l222 254l-137 236h180l81 -167l23 167h155z" />
    <glyph glyph-name="afii10073" unicode="&#x437;" horiz-adv-x="459" 
d="M425 177q0 -84 -69 -136q-68 -51 -166 -51q-45 0 -85.5 8.5t-59.5 17.5l-19 9l19 139q77 -41 153 -41q35 0 56 14t21 33q0 27 -67 27h-44l15 107h56q20 0 34.5 9.5t14.5 25.5q0 32 -49 32q-14 0 -31 -2t-34.5 -5t-34 -7t-28.5 -7l-24 -7l17 126q80 31 169 31
q76 0 121.5 -35t45.5 -92q0 -32 -12 -59.5t-24 -38.5l-12 -11q4 -3 10 -9t16 -29q11 -24 11 -49z" />
    <glyph glyph-name="afii10074" unicode="&#x438;" horiz-adv-x="590" 
d="M47 0l69 490h148l-35 -250l21 38l181 212h145l-69 -490h-148l35 250l-21 -39l-181 -211h-145z" />
    <glyph glyph-name="afii10075" unicode="&#x439;" horiz-adv-x="590" 
d="M357 621q51 0 68 31q9 15 12 26t6 28h101q-12 -88 -61 -124t-137 -36q-79 0 -117 27t-38 93q0 17 3 40h101q-3 -24 -3 -27q0 -58 65 -58zM40 0l69 490h148l-36 -250l22 38l181 212h145l-69 -490h-148l35 250l-22 -39l-180 -211h-145z" />
    <glyph glyph-name="afii10076" unicode="&#x43a;" horiz-adv-x="553" 
d="M270 490l-23 -165l146 165h184l-217 -233l165 -257h-193l-106 174l-25 -174h-154l69 490h154z" />
    <glyph glyph-name="afii10077" unicode="&#x43b;" horiz-adv-x="576" 
d="M94 149l82 341h387l-68 -490h-154l49 353h-103l-60 -249l-124 -140l-103 76z" />
    <glyph glyph-name="afii10078" unicode="&#x43c;" horiz-adv-x="668" 
d="M654 490l-69 -490h-147l31 217l13 56l-34 -47l-64 -70h-92l-44 70l-20 46l-3 -55l-31 -217h-147l69 490h147l98 -169l146 169h147z" />
    <glyph glyph-name="afii10079" unicode="&#x43d;" horiz-adv-x="601" 
d="M587 490l-69 -490h-154l26 183h-163l-26 -183h-154l69 490h154l-24 -171h163l24 171h154z" />
    <glyph glyph-name="afii10080" unicode="&#x43e;" horiz-adv-x="605" 
d="M589 270q0 -115 -89 -198q-88 -82 -217 -82q-101 0 -168 65q-66 66 -66 169q0 116 90 196q91 80 216 80q101 0 168 -65q66 -65 66 -165zM302 129q50 0 90 40q41 41 41 94q0 42 -26.5 70t-71.5 28q-52 0 -91 -40q-38 -40 -38 -92q0 -42 26.5 -71t69.5 -29z" />
    <glyph glyph-name="afii10081" unicode="&#x43f;" horiz-adv-x="601" 
d="M587 490l-69 -490h-154l50 354h-163l-50 -354h-154l69 490h471z" />
    <glyph glyph-name="afii10082" unicode="&#x440;" horiz-adv-x="605" 
d="M187 513l66 -54q49 39 129 39q87 0 147 -63t60 -155q0 -125 -85 -206q-84 -81 -193 -81q-24 0 -43.5 4.5t-27.5 9.5l-7 5l-37 -262h-156l86 610l-43 47zM305 131q49 0 90 38q41 39 41 93q0 42 -27.5 70.5t-70.5 28.5q-37 0 -58 -10l-29 -210q21 -10 54 -10z" />
    <glyph glyph-name="afii10083" unicode="&#x441;" horiz-adv-x="502" 
d="M462 162l-19 -137q-81 -35 -161 -35q-104 0 -168 64q-65 65 -65 163q0 121 87 202q88 81 219 81q18 0 36.5 -2.5t35.5 -6t30.5 -8.5t22.5 -9l18 -8l-20 -138q-57 33 -133 33q-54 0 -97 -41q-42 -41 -42 -92q0 -43 29 -71.5t77 -28.5q18 0 37 2.5t36.5 6t32.5 8t24 9.5z
" />
    <glyph glyph-name="afii10084" unicode="&#x442;" horiz-adv-x="467" 
d="M479 353h-137l-50 -353h-153l50 353h-137l19 137h427z" />
    <glyph glyph-name="afii10085" unicode="&#x443;" horiz-adv-x="576" 
d="M458 490h168l-287 -593l-141 -165l-102 83l112 135l24 50h-40l-89 352l-54 58l102 103l94 -76l55 -257l2 -25h4z" />
    <glyph glyph-name="afii10086" unicode="&#x444;" horiz-adv-x="840" 
d="M480 9l-37 -259h-147l37 259q-38 -15 -84 -15q-95 0 -146.5 59.5t-51.5 158.5q0 113 76 198q77 86 193 86q20 0 40 -3t30 -7l9 -3l28 199h147l-28 -199q36 13 82 13q48 0 85 -16t62.5 -44.5t38.5 -69.5t13 -90q0 -111 -77 -197q-76 -85 -193 -85q-20 0 -39 3.5t-28 7.5z
M555 130q50 0 84 40t34 95q0 42 -22 68t-64 26q-12 0 -27 -2.5t-24 -4.5l-8 -2l-30 -211q27 -9 57 -9zM324 359q-52 0 -86 -42q-34 -40 -34 -95q0 -40 23 -66t65 -26q10 0 25 2t25 4l9 3l30 212q-35 8 -57 8z" />
    <glyph glyph-name="afii10087" unicode="&#x445;" horiz-adv-x="593" 
d="M368 0l-70 139l-110 -139h-190l216 250l-138 240h185l68 -130l104 130h186l-207 -240l148 -250h-192z" />
    <glyph glyph-name="afii10088" unicode="&#x446;" horiz-adv-x="629" 
d="M442 0h-391l69 490h153l-50 -354h163l50 354h154l-50 -354h64l-34 -246h-137z" />
    <glyph glyph-name="afii10089" unicode="&#x447;" horiz-adv-x="537" 
d="M300 0l22 154q-55 -11 -90 -11q-169 0 -169 137q0 16 3 34l25 176h147l-21 -150q-3 -18 -3 -23q0 -35 43 -35q18 0 39 2.5t33 5.5l12 2l28 198h154l-69 -490h-154z" />
    <glyph glyph-name="afii10090" unicode="&#x448;" horiz-adv-x="795" 
d="M712 0h-665l69 490h152l-50 -354h102l50 354h154l-50 -354h103l50 354h154z" />
    <glyph glyph-name="afii10091" unicode="&#x449;" horiz-adv-x="824" 
d="M637 0h-586l69 490h152l-50 -354h102l50 354h154l-50 -354h103l50 354h154l-50 -354h64l-34 -245h-137z" />
    <glyph glyph-name="afii10092" unicode="&#x44a;" horiz-adv-x="534" 
d="M43 360l18 130h227l-22 -160h84q75 0 120.5 -39t45.5 -102q0 -82 -58 -136q-58 -53 -154 -53h-238l50 355zM248 202l-10 -72h86q17 0 30 12t13 29q0 13 -9 22t-24 9h-86z" />
    <glyph glyph-name="afii10093" unicode="&#x44b;" horiz-adv-x="768" 
d="M47 0l69 490h153l-22 -160h84q75 0 120.5 -39t45.5 -102q0 -81 -58 -135q-59 -54 -154 -54h-238zM229 202l-10 -72h86q17 0 30 12t13 29q0 13 -9 22t-24 9h-86zM531 0l69 491h154l-69 -491h-154z" />
    <glyph glyph-name="afii10094" unicode="&#x44c;" horiz-adv-x="515" 
d="M47 0l69 490h153l-22 -160h84q75 0 120.5 -39t45.5 -102q0 -81 -59 -135t-153 -54h-238zM229 202l-10 -72h86q17 0 30 12t13 29q0 13 -9 22t-24 9h-86z" />
    <glyph glyph-name="afii10095" unicode="&#x44d;" horiz-adv-x="510" 
d="M151 196l16 112h166q-6 26 -31.5 44.5t-67.5 18.5q-34 0 -71.5 -6.5t-58.5 -12.5l-21 -6l18 126q72 28 156 28q108 0 172 -64q65 -63 65 -163q0 -124 -87 -203q-86 -80 -214 -80q-45 0 -85.5 7.5t-59.5 14.5l-18 8l18 129q61 -27 146 -27q48 0 82.5 21.5t49.5 52.5h-175z
" />
    <glyph glyph-name="afii10096" unicode="&#x44e;" horiz-adv-x="815" 
d="M800 279q0 -119 -78 -204t-210 -85q-92 0 -153 52q-59 52 -70 136h-68l-25 -178h-149l69 490h149l-25 -176h66q35 83 105 134q71 52 164 52q102 0 164 -62q61 -61 61 -159zM527 129q52 0 86 40q35 41 35 92q0 45 -23 72.5t-65 27.5q-26 0 -48 -10.5t-38 -28.5t-25 -42
t-9 -51q0 -42 22.5 -71t64.5 -29z" />
    <glyph glyph-name="afii10097" unicode="&#x44f;" horiz-adv-x="541" 
d="M-7 0l161 178q-77 42 -77 130q0 76 57 129q59 53 155 53h238l-69 -490h-153l23 160h-22l-134 -160h-179zM344 279l11 75h-86q-18 0 -31 -13t-13 -31q0 -12 9.5 -21.5t23.5 -9.5h86z" />
    <glyph glyph-name="afii10071" unicode="&#x451;" 
d="M205 196q7 -34 37 -54.5t68 -20.5q45 0 84 7t57 14l18 7l-18 -127q-85 -32 -159 -32q-113 0 -178 64q-65 65 -65 165q0 116 91 198q92 83 207 83q75 0 140 -50q64 -49 64 -143q0 -15 -3 -35t-6.5 -37t-7 -29t-3.5 -10h-326zM336 368q-42 0 -74.5 -24t-47.5 -63h207
q0 38 -23 62.5t-62 24.5zM349 627l-117 -93l-89 93l116 93zM597 627l-117 -93l-89 93l116 93z" />
    <glyph glyph-name="afii10099" unicode="&#x452;" horiz-adv-x="597" 
d="M443 603l-17 -121h-148l-12 -81q49 21 115 21q39 0 71 -12t55.5 -33.5t36 -51.5t12.5 -66q0 -5 -0.5 -12.5t-1.5 -17.5l-45 -320l-152 -180l-104 84l109 134l37 264q1 3 1 15q0 32 -19 45.5t-44 13.5q-20 0 -42.5 -6.5t-35.5 -12.5l-13 -7l-36 -259h-154l68 482h-51
l17 121h51l11 79h154l-11 -79h148z" />
    <glyph glyph-name="afii10100" unicode="&#x453;" horiz-adv-x="429" 
d="M470 490l-19 -137h-200l-50 -353h-154l69 490h354zM222 555l101 151h181l-143 -151h-139z" />
    <glyph glyph-name="afii10101" unicode="&#x454;" horiz-adv-x="510" 
d="M395 308l-16 -112h-175q5 -32 34.5 -53t80.5 -21q36 0 73 7t56 13l20 7l-18 -129q-71 -30 -164 -30q-108 0 -172 64q-65 65 -65 170q0 118 88 197t222 79q36 0 73 -7t56 -14l19 -7l-18 -126q-57 25 -145 25q-42 0 -72 -18.5t-43 -44.5h166z" />
    <glyph glyph-name="afii10102" unicode="&#x455;" horiz-adv-x="462" 
d="M448 467l-18 -123q-66 33 -148 33q-20 0 -32 -9t-12 -19q0 -6 8 -12.5t21 -14t29.5 -15.5t33.5 -17q34 -17 63 -51q29 -35 29 -78q0 -81 -64 -126q-65 -45 -168 -45q-18 0 -37.5 2.5t-38.5 6.5t-35 8.5t-27 9.5l-21 9l18 132q91 -42 152 -42q58 0 58 25q0 6 -8 13
t-20.5 14.5t-29 15.5t-33.5 16q-17 9 -33 22t-28.5 29.5t-20.5 36.5t-8 42q0 76 63 123q64 47 159 47q36 0 73 -8t56 -16z" />
    <glyph glyph-name="afii10103" unicode="&#x456;" horiz-adv-x="313" 
d="M59 62l61 428h155l-51 -359l45 -50l-101 -105zM320 627l-116 -93l-90 93l116 93z" />
    <glyph glyph-name="afii10104" unicode="&#x457;" horiz-adv-x="313" 
d="M59 62l61 428h155l-51 -359l45 -50l-101 -105zM190 627l-117 -93l-89 93l116 93zM438 627l-117 -93l-89 93l116 93z" />
    <glyph glyph-name="afii10105" unicode="&#x458;" horiz-adv-x="313" 
d="M289 490l-81 -582l-159 -176l-101 83l110 133l76 542h155zM334 627l-116 -93l-90 93l116 93z" />
    <glyph glyph-name="afii10106" unicode="&#x459;" horiz-adv-x="791" 
d="M324 0l49 353h-86l-60 -249l-124 -140l-103 76l94 109l82 341h370l-22 -160h84q75 0 120.5 -39t45.5 -102q0 -82 -57 -136q-58 -53 -154 -53h-239zM506 202l-10 -72h86q17 0 30 12.5t13 29.5q0 13 -9 21.5t-24 8.5h-86z" />
    <glyph glyph-name="afii10107" unicode="&#x45a;" horiz-adv-x="823" 
d="M354 0l28 197h-153l-28 -197h-154l69 490h154l-22 -160h153l22 160h154l-22 -160h84q75 0 120.5 -39t45.5 -102q0 -81 -58 -135q-59 -54 -154 -54h-239zM537 202l-10 -72h86q17 0 30 12t13 29q0 13 -9 22t-24 9h-86z" />
    <glyph glyph-name="afii10108" unicode="&#x45b;" horiz-adv-x="597" 
d="M433 603l-17 -121h-148l-11 -81q49 21 115 21q39 0 71 -12t55.5 -33.5t36 -51.5t12.5 -66q0 -5 -0.5 -12.5t-1.5 -17.5l-32 -229h-153l29 211q1 4 1 16q0 31 -18.5 44.5t-43.5 13.5q-20 0 -42.5 -6.5t-35.5 -12.5l-13 -7l-36 -259h-154l67 482h-51l17 121h51l11 79h154
l-11 -79h148z" />
    <glyph glyph-name="afii10109" unicode="&#x45c;" horiz-adv-x="544" 
d="M270 490l-23 -165l146 165h184l-217 -233l165 -257h-193l-106 174l-25 -174h-154l69 490h154zM274 555l101 151h181l-143 -151h-139z" />
    <glyph glyph-name="afii10110" unicode="&#x45e;" horiz-adv-x="576" 
d="M458 490h168l-287 -593l-141 -165l-102 83l112 135l24 50h-40l-89 352l-54 58l102 103l94 -76l55 -257l2 -25h4zM554 706q-11 -73 -69 -119t-126 -46q-63 0 -108 39q-45 40 -45 103q0 4 0.5 9.5t1.5 13.5h114q-1 -3 -1 -11q0 -46 54 -46q24 0 43 16.5t23 40.5h113z" />
    <glyph glyph-name="afii10193" unicode="&#x45f;" horiz-adv-x="598" 
d="M198 -109l10 109h-161l69 490h152l-50 -354h163l50 354h153l-69 -490h-162l-21 -109h-134z" />
    <glyph glyph-name="afii10146" unicode="&#x462;" horiz-adv-x="623" 
d="M39 537l20 145h446l-21 -150h-183l-12 -91h108q92 0 148 -51q57 -51 57 -134q0 -110 -73 -183t-193 -73h-275l73 532zM269 299l-22 -152h103q34 0 59.5 25t25.5 62q0 26 -17.5 45.5t-46.5 19.5h-102z" />
    <glyph glyph-name="afii10194" unicode="&#x463;" horiz-adv-x="515" 
d="M63 481l15 108h45l13 93h153l-13 -93h133l-15 -108h-133l-21 -151h84q75 0 120.5 -39t45.5 -102q0 -81 -59 -135t-152 -54h-238l67 481h-45zM222 202l-10 -72h86q17 0 30 12.5t13 29.5q0 13 -9 21.5t-24 8.5h-86z" />
    <glyph glyph-name="afii10147" unicode="&#x472;" horiz-adv-x="817" 
d="M65 310q0 72 32 140.5t86 122.5q55 54 132.5 86.5t165.5 32.5q140 0 231 -89q91 -88 91 -227q0 -154 -122 -270t-299 -116q-140 0 -229 89q-88 89 -88 231zM462 539q-34 0 -66 -9t-59 -25.5t-48 -40t-34 -52.5q58 26 114 26q31 0 79 -24q51 -23 72 -23q17 0 45.5 6.5
t48.5 12.5l21 6q-18 57 -64 90t-109 33zM400 143q35 0 68 9t61.5 25.5t51 40t34.5 52.5q-66 -27 -123 -27q-31 0 -82 23q-50 24 -73 24q-18 0 -42.5 -6t-40.5 -12l-15 -5q7 -50 53 -88q45 -36 108 -36z" />
    <glyph glyph-name="afii10195" unicode="&#x473;" horiz-adv-x="595" 
d="M588 276q0 -118 -87 -202q-86 -84 -217 -84q-101 0 -168 66q-66 66 -66 167q0 117 90 197q91 80 216 80q101 0 166 -65q66 -65 66 -159zM302 117q39 0 73.5 22.5t52.5 58.5q-32 -22 -68 -22q-21 0 -52 16q-31 17 -44 17q-24 0 -62 -20q11 -33 37.5 -52.5t62.5 -19.5z
M338 373q-39 0 -73 -21.5t-52 -56.5q34 24 73 24q18 0 49 -17q29 -16 44 -16q23 0 59 18q-11 31 -37.5 50t-62.5 19z" />
    <glyph glyph-name="afii10148" unicode="&#x474;" horiz-adv-x="661" 
d="M641 512l-249 -512h-172l-140 682h178l72 -433l4 -40h4l13 40l153 339l150 132l97 -106z" />
    <glyph glyph-name="afii10196" unicode="&#x475;" horiz-adv-x="550" 
d="M517 345l-174 -345h-173l-110 490h168l49 -276l3 -31h5l12 32l103 226l108 78l79 -120z" />
    <glyph glyph-name="afii10050" unicode="&#x490;" horiz-adv-x="564" 
d="M628 805l-38 -275h-300l-75 -530h-169l96 682h323l22 123h141z" />
    <glyph glyph-name="afii10098" unicode="&#x491;" horiz-adv-x="453" 
d="M493 576l-31 -223h-215l-50 -353h-153l69 490h229l16 86h135z" />
    <glyph glyph-name="afii10846" unicode="&#x4d9;" 
d="M65 294h327q-9 39 -34 59t-81 20q-35 0 -72 -4.5t-57 -9.5l-19 -5l17 123q78 23 164 23q108 0 172 -64q65 -65 65 -157q0 -117 -89 -203t-201 -86q-87 0 -150 48q-62 48 -62 142q0 28 5 56.5t10 43.5zM260 116q42 0 74 22.5t47 61.5h-205v-6q0 -32 22 -55t62 -23z" />
    <glyph glyph-name="uni1E02" unicode="&#x1e02;" horiz-adv-x="659" 
d="M630 513q0 -89 -75 -153q60 -44 60 -130q0 -102 -78 -166q-76 -64 -190 -64h-296l95 682h260q106 0 165 -43.5t59 -125.5zM351 147q19 0 37 4.5t31.5 13.5t21.5 22.5t8 31.5q0 55 -94 55h-102l-18 -127h116zM274 415h97q45 0 70 22t25 50q0 22 -19 35t-52 13h-104z
M479 819l-117 -93l-89 93l116 93z" />
    <glyph glyph-name="uni1E03" unicode="&#x1e03;" horiz-adv-x="591" 
d="M168 31l-80 -54l-74 106l55 47l95 675h156l-46 -327q31 19 84 19q84 0 145 -64t61 -161q0 -119 -82 -200q-83 -80 -187 -80q-39 0 -70.5 9.5t-44.5 19.5zM281 129q51 0 90 39q40 39 40 93q0 43 -26.5 70.5t-71.5 27.5q-31 0 -57 -10l-29 -210q19 -10 54 -10zM554 818
l-117 -93l-89 93l116 93z" />
    <glyph glyph-name="uni1E0A" unicode="&#x1e0a;" horiz-adv-x="717" 
d="M51 0l95 682h238q146 0 229 -80t83 -207q0 -169 -110 -282t-298 -113h-237zM293 537l-55 -392h66q102 0 162 66t60 166q0 73 -41.5 116.5t-122.5 43.5h-69zM461 819l-117 -93l-89 93l116 93z" />
    <glyph glyph-name="uni1E0B" unicode="&#x1e0b;" horiz-adv-x="591" 
d="M441 -23l-66 54q-50 -39 -129 -39q-88 0 -148 64q-59 65 -59 163q0 110 84 194q85 84 194 84q24 0 43.5 -4.5t27.5 -9.5l7 -5l46 327h156l-95 -675l43 -47zM322 359q-51 0 -91 -39q-39 -39 -39 -93q0 -42 26.5 -70t71.5 -28q37 0 58 10l29 210q-21 10 -55 10zM405 816
l-117 -93l-89 93l116 93z" />
    <glyph glyph-name="uni1E1E" unicode="&#x1e1e;" horiz-adv-x="591" 
d="M606 530h-318l-15 -110h287l-22 -152h-286l-37 -268h-164l95 682h481zM483 819l-117 -93l-89 93l116 93z" />
    <glyph glyph-name="uni1E1F" unicode="&#x1e1f;" horiz-adv-x="354" 
d="M377 490l-19 -135h-108l-49 -355h-154l49 355h-41l19 135h41l18 127l182 208l99 -79l-132 -163l-13 -93h108zM241 818l-117 -93l-89 93l116 93z" />
    <glyph glyph-name="uni1E40" unicode="&#x1e40;" horiz-adv-x="821" 
d="M817 682l-95 -682h-165l60 430h-4l-30 -41l-104 -125h-111l-70 125l-17 41h-4l-60 -430h-166l95 682h164l135 -242h4l204 242h164zM602 819l-117 -93l-89 93l116 93z" />
    <glyph glyph-name="uni1E41" unicode="&#x1e41;" horiz-adv-x="854" 
d="M167 512l74 -58q69 42 139 42q36 0 65.5 -12t40.5 -24l12 -11q73 46 151 46q75 0 116.5 -44t41.5 -114q0 -16 -1 -21l-30 -316h-153l28 278v5t0.5 8.5t0.5 8v3.5q0 24 -11.5 38.5t-29.5 14.5q-16 0 -35 -7t-30 -13l-11 -7l-40 -329h-155l37 296q0 2 0.5 6t0.5 5
q0 23 -12.5 36t-30.5 13q-14 0 -31.5 -6t-27.5 -12l-11 -6l-46 -332h-155l50 360l-45 50zM592 627l-117 -93l-89 93l116 93z" />
    <glyph glyph-name="uni1E56" unicode="&#x1e56;" horiz-adv-x="613" 
d="M292 535l-22 -154h102q18 0 34 8t27.5 20.5t18 28.5t6.5 33q0 29 -17 46.5t-46 17.5h-103zM625 493q0 -115 -79 -187q-78 -72 -195 -72h-102l-32 -234h-166l95 682h268q49 0 88 -13.5t66.5 -38.5t42 -60t14.5 -77zM452 819l-117 -93l-89 93l116 93z" />
    <glyph glyph-name="uni1E57" unicode="&#x1e57;" horiz-adv-x="605" 
d="M187 513l66 -54q49 39 129 39q87 0 147 -63t60 -155q0 -125 -85 -206q-84 -81 -193 -81q-24 0 -43.5 4.5t-27.5 9.5l-7 5l-37 -262h-156l86 610l-43 47zM305 131q49 0 90 38q41 39 41 93q0 42 -27.5 70.5t-70.5 28.5q-37 0 -58 -10l-29 -210q21 -10 54 -10zM463 627
l-117 -93l-89 93l116 93z" />
    <glyph glyph-name="uni1E60" unicode="&#x1e60;" horiz-adv-x="590" 
d="M575 662l-22 -152q-102 32 -191 32q-37 0 -61 -12t-24 -31q0 -14 16 -27.5t40.5 -28.5t54.5 -31.5t59 -35.5q39 -26 66 -67.5t27 -92.5q0 -39 -15.5 -79t-52 -73t-96 -53.5t-147.5 -20.5q-24 0 -48.5 3t-46.5 7.5t-40 9.5t-30 10l-24 10l22 156q88 -45 187 -45
q48 0 82.5 14t34.5 41q0 16 -16 32t-41 33t-55.5 34.5t-58.5 35.5q-39 26 -66 64t-27 83q0 60 24.5 102.5t69.5 65.5q45 24 95 35t110 11q21 0 43.5 -2t43 -5.5t37.5 -7.5t28 -7zM498 819l-117 -93l-89 93l116 93z" />
    <glyph glyph-name="uni1E61" unicode="&#x1e61;" horiz-adv-x="462" 
d="M448 467l-18 -123q-66 33 -148 33q-20 0 -32 -9t-12 -19q0 -6 8 -12.5t21 -14t29.5 -15.5t33.5 -17q34 -17 63 -51q29 -35 29 -78q0 -81 -64 -126q-65 -45 -168 -45q-18 0 -37.5 2.5t-38.5 6.5t-35 8.5t-27 9.5l-21 9l18 132q91 -42 152 -42q58 0 58 25q0 6 -8 13
t-20.5 14.5t-29 15.5t-33.5 16q-17 9 -33 22t-28.5 29.5t-20.5 36.5t-8 42q0 76 63 123q64 47 159 47q36 0 73 -8t56 -16zM421 627l-117 -93l-89 93l116 93z" />
    <glyph glyph-name="uni1E6A" unicode="&#x1e6a;" 
d="M598 531h-183l-74 -531h-169l74 531h-181l21 151h533zM478 819l-117 -93l-89 93l116 93z" />
    <glyph glyph-name="uni1E6B" unicode="&#x1e6b;" horiz-adv-x="366" 
d="M300 582l-13 -92h108l-19 -137h-108l-32 -222l48 -48l-104 -108l-108 88l41 290h-48l14 103l130 126h91zM359 817l-117 -93l-89 93l116 93z" />
    <glyph glyph-name="Wgrave" unicode="&#x1e80;" horiz-adv-x="821" 
d="M817 682l-95 -682h-164l-136 242h-4l-203 -242h-164l95 682h166l-61 -436h4l30 46l103 126h112l71 -126l16 -46h4l61 436h165zM497 898l59 -151h-139l-101 151h181z" />
    <glyph glyph-name="wgrave" unicode="&#x1e81;" horiz-adv-x="824" 
d="M860 490l-213 -490h-173l-36 245l-2 37h-4l-12 -36l-106 -246h-174l-74 490h167l24 -266l1 -30h5l10 29l113 267h155l38 -265l2 -30h5l9 30l98 265h167zM473 706l59 -151h-139l-101 151h181z" />
    <glyph glyph-name="Wacute" unicode="&#x1e82;" horiz-adv-x="821" 
d="M817 682l-95 -682h-164l-136 242h-4l-203 -242h-164l95 682h166l-61 -436h4l30 46l103 126h112l71 -126l16 -46h4l61 436h165zM412 747l101 151h181l-143 -151h-139z" />
    <glyph glyph-name="wacute" unicode="&#x1e83;" horiz-adv-x="824" 
d="M860 490l-213 -490h-173l-36 245l-2 37h-4l-12 -36l-106 -246h-174l-74 490h167l24 -266l1 -30h5l10 29l113 267h155l38 -265l2 -30h5l9 30l98 265h167zM390 555l101 151h181l-143 -151h-139z" />
    <glyph glyph-name="Wdieresis" unicode="&#x1e84;" horiz-adv-x="821" 
d="M817 682l-95 -682h-164l-136 242h-4l-203 -242h-164l95 682h166l-61 -436h4l30 46l103 126h112l71 -126l16 -46h4l61 436h165zM490 819l-117 -93l-89 93l116 93zM738 819l-117 -93l-89 93l116 93z" />
    <glyph glyph-name="wdieresis" unicode="&#x1e85;" horiz-adv-x="824" 
d="M860 490l-213 -490h-173l-36 245l-2 37h-4l-12 -36l-106 -246h-174l-74 490h167l24 -266l1 -30h5l10 29l113 267h155l38 -265l2 -30h5l9 30l98 265h167zM463 627l-117 -93l-89 93l116 93zM711 627l-117 -93l-89 93l116 93z" />
    <glyph glyph-name="Ygrave" unicode="&#x1ef2;" horiz-adv-x="640" 
d="M250 276l-174 406h190l89 -254h4l159 254h188l-287 -406l-38 -276h-169zM406 898l59 -151h-139l-101 151h181z" />
    <glyph glyph-name="ygrave" unicode="&#x1ef3;" horiz-adv-x="576" 
d="M458 490h168l-287 -593l-141 -165l-102 83l112 135l24 50h-40l-89 352l-54 58l102 103l94 -76l55 -257l2 -25h4zM349 706l59 -151h-139l-101 151h181z" />
    <glyph glyph-name="endash" unicode="&#x2013;" horiz-adv-x="539" 
d="M567 331l-20 -137h-539l20 137h539z" />
    <glyph glyph-name="emdash" unicode="&#x2014;" horiz-adv-x="1012" 
d="M1040 331l-20 -137h-1012l20 137h1012z" />
    <glyph glyph-name="quoteleft" unicode="&#x2018;" horiz-adv-x="276" 
d="M64 378l131 304h126l-84 -304h-173z" />
    <glyph glyph-name="quoteright" unicode="&#x2019;" horiz-adv-x="276" 
d="M331 682l-131 -304h-126l84 304h173z" />
    <glyph glyph-name="quotesinglbase" unicode="&#x201a;" horiz-adv-x="276" 
d="M235 165l-131 -304h-126l84 304h173z" />
    <glyph glyph-name="quotedblleft" unicode="&#x201c;" horiz-adv-x="545" 
d="M333 378l131 304h126l-84 -304h-173zM64 378l131 304h126l-84 -304h-173z" />
    <glyph glyph-name="quotedblright" unicode="&#x201d;" horiz-adv-x="545" 
d="M331 682l-131 -304h-126l84 304h173zM600 682l-131 -304h-126l84 304h173z" />
    <glyph glyph-name="quotedblbase" unicode="&#x201e;" horiz-adv-x="545" 
d="M235 165l-131 -304h-126l84 304h173zM504 165l-131 -304h-126l84 304h173z" />
    <glyph glyph-name="dagger" unicode="&#x2020;" horiz-adv-x="506" 
d="M472 349h-111l-76 -544h-155l76 544h-110l20 141h110l27 192h155l-27 -192h111z" />
    <glyph glyph-name="daggerdbl" unicode="&#x2021;" horiz-adv-x="506" 
d="M47 0l20 141h110l29 208h-110l20 141h110l27 192h155l-27 -192h111l-20 -141h-111l-29 -208h111l-20 -141h-111l-27 -195h-155l27 195h-110z" />
    <glyph glyph-name="bullet" unicode="&#x2022;" horiz-adv-x="434" 
d="M130 222q-47 49 -47 115q0 67 47 114q48 48 115 48t114 -48q48 -47 48 -114t-48 -115q-47 -47 -114 -47q-66 0 -115 47z" />
    <glyph glyph-name="ellipsis" unicode="&#x2026;" horiz-adv-x="921" 
d="M64 0l23 165h167l-23 -165h-167zM371 0l23 165h167l-23 -165h-167zM678 0l23 165h167l-23 -165h-167z" />
    <glyph glyph-name="perthousand" unicode="&#x2030;" horiz-adv-x="1430" 
d="M726 -10q-75 0 -123 45q-48 46 -48 115q0 87 67 148q68 62 156 62q75 0 122 -46q49 -45 49 -113q0 -85 -67 -148q-66 -63 -156 -63zM261 321q-75 0 -123 45q-48 46 -48 115q0 87 67 148q67 63 156 63q72 0 122 -47q49 -46 49 -114q0 -85 -68 -148q-68 -62 -155 -62z
M761 238q-30 0 -51.5 -21.5t-21.5 -51.5q0 -24 15 -38.5t40 -14.5q31 0 53 21t22 51q0 23 -16 38.5t-41 15.5zM296 570q-32 0 -53.5 -21t-21.5 -52q0 -24 15.5 -39.5t41.5 -15.5q29 0 50.5 21.5t21.5 53.5q0 23 -15 38t-39 15zM1164 -10q-75 0 -123 45q-48 46 -48 115
q0 87 67 148q68 62 156 62q75 0 122 -46q49 -45 49 -113q0 -85 -67 -148q-66 -63 -156 -63zM1199 238q-30 0 -51.5 -21.5t-21.5 -51.5q0 -24 15 -38.5t40 -14.5q31 0 53 21t22 51q0 23 -16 38.5t-41 15.5zM836 682l-494 -682h-142l494 682h142z" />
    <glyph glyph-name="guilsinglleft" unicode="&#x2039;" horiz-adv-x="446" 
d="M243 246l135 -246h-179l-132 246l201 244h179z" />
    <glyph glyph-name="guilsinglright" unicode="&#x203a;" horiz-adv-x="446" 
d="M32 0l205 246l-136 244h179l133 -244l-202 -246h-179z" />
    <glyph glyph-name="fraction" unicode="&#x2044;" horiz-adv-x="241" 
d="M462 682l-493 -682h-142l493 682h142z" />
    <glyph glyph-name="Euro" unicode="&#x20ac;" horiz-adv-x="679" 
d="M9 361l76 106h73q48 98 150 161q101 64 227 64l155 -32l-21 -150q-78 35 -158 35q-54 0 -100 -23t-71 -55h162l-15 -106h-204l-4 -22l-2 -23h204l-15 -107h-156q18 -28 58 -49.5t88 -21.5q43 0 87 9q23 5 40 9.5t28 9.5l23 10l-21 -151l-174 -35q-127 0 -211 63
q-83 63 -106 156h-133l75 107h49q1 8 1 13.5t1 9.5l4 22h-110z" />
    <glyph glyph-name="litre" unicode="&#x2113;" horiz-adv-x="443" 
d="M127 147l-49 72l63 54v280q0 57 39 98q41 41 101 41q64 0 102 -43t38 -119q0 -81 -55 -160q-53 -78 -127 -140v-123q0 -23 30 -23q13 0 21.5 8t8.5 21v38h95v-37q0 -51 -37 -87q-36 -36 -89 -36t-90 36t-37 87v45zM239 360q83 89 83 168q0 67 -42 67q-18 0 -29.5 -12.5
t-11.5 -28.5v-194z" />
    <glyph glyph-name="trademark" unicode="&#x2122;" horiz-adv-x="898" 
d="M889 682l-54 -387h-121l22 160l9 41h-4l-50 -75h-66l-28 75h-4l-3 -41l-22 -160h-121l54 387h113l60 -128h4l99 128h112zM439 682l-17 -124h-99l-37 -263h-130l37 263h-94l17 124h323z" />
    <glyph glyph-name="estimated" unicode="&#x212e;" horiz-adv-x="796" 
d="M221 318v-200q94 -86 213 -86q115 0 208 81l31 -29q-101 -93 -239 -93q-144 0 -247 101q-101 103 -101 247q0 145 101 246q102 102 247 102t246 -102q102 -101 102 -246q0 -16 -1 -21h-560zM434 646q-119 0 -213 -86v-1v-1v-1v-1v-1v-1v-1v-1v-1v-1v-1v-1v-1v-1v-1v-1v-1
v-1v-1v-1v-1v-1v-1v-1v-1v-1v-1v-1v-1v-1v-1v-1v-1v-1v-1v-1v-1v-1v-1v-1v-1v-1v-2v-1v-1v-1v-1v-1v-1v-2v-1v-1v-1v-2v-1v-1v-1v-2v-1v-1v-1v-2v-1v-1v-2v-1v-1v-2v-1v-2v-1v-1v-2v-1v-2v-1v-1v-2v-1v-2v-1v-2v-1v-2v-1v-2v-1v-2v-1v-2v-1v-2v-1v-2v-1v-2v-2v-1v-2v-1v-2
v-2v-1v-2v-1v-2v-2v-1v-2v-2v-1v-2v-2v-1v-2v-2v-1v-2v-2v-2v-1v-2v-2v-2v-1v-2v-2v-2v-2v-1v-2v-2v-2v-2v-1v-2v-2v-2v-2v-9h427v198q-92 87 -214 87z" />
    <glyph glyph-name="approxequal" unicode="&#x2248;" horiz-adv-x="578" 
d="M87 299l19 137q7 6 20.5 15t52.5 24q40 15 77 15q35 0 89 -27q55 -26 79 -26q12 0 27.5 3.5t31.5 9t30.5 12t25.5 12.5l22 12l-19 -137q-3 -3 -7.5 -6.5t-12.5 -8.5t-20.5 -11t-31.5 -13q-38 -15 -75 -15q-34 0 -91 26q-54 27 -80 27q-14 0 -30 -3.5t-31.5 -8.5
t-30 -11.5t-24.5 -12.5zM55 67l19 137q7 6 20.5 15t52.5 24t76 15q35 0 89 -27q55 -26 79 -26q12 0 28 3.5t31.5 9t30.5 12t26 12.5l22 12l-19 -137q-3 -3 -7.5 -6.5t-12.5 -8.5t-20.5 -11t-31.5 -13q-39 -15 -76 -15q-34 0 -91 26q-54 27 -80 27q-14 0 -29.5 -3.5
t-31.5 -8.5t-30 -11.5t-24 -12.5z" />
    <glyph glyph-name="notequal" unicode="&#x2260;" horiz-adv-x="578" 
d="M90 316l20 143h231l19 41h108l-19 -41h109l-20 -143h-157l-38 -80h183l-20 -142h-230l-20 -42h-108l20 42h-110l20 142h157l38 80h-183z" />
    <glyph glyph-name="lessequal" unicode="&#x2264;" horiz-adv-x="578" 
d="M560 496l-247 -92l-1 -4l221 -93l-21 -148l-421 190l15 107l475 189zM42 0l18 132h448l-18 -132h-448z" />
    <glyph glyph-name="greaterequal" unicode="&#x2265;" horiz-adv-x="578" 
d="M333 404l-221 92l21 149l421 -189l-15 -107l-475 -190l21 148l247 93zM508 132l-18 -132h-448l18 132h448z" />
    <glyph glyph-name="commaaccent" unicode="&#xf6c3;" horiz-adv-x="211" 
d="M213 -66l-115 -195h-125l67 195h173z" />
    <glyph glyph-name="dblgrave" unicode="&#xf6d3;" horiz-adv-x="523" 
d="M497 706l59 -151h-139l-101 151h181zM236 706l59 -151h-139l-101 151h181z" />
    <glyph glyph-name="cyrbreve" unicode="&#xf6d4;" horiz-adv-x="350" 
d="M218 621q51 0 68 31q9 15 12 26t6 28h101q-12 -88 -61 -124t-137 -36q-79 0 -117 27t-38 93q0 17 3 40h101q-3 -24 -3 -27q0 -58 65 -58z" />
    <glyph glyph-name="f_f" unicode="&#xfb00;" horiz-adv-x="670" 
d="M699 490l-19 -135h-108l-49 -355h-154l49 355h-168l-49 -355h-154l49 355h-41l19 135h41l18 127l182 208l99 -79l-132 -163l-13 -93h168l18 127l182 208l99 -79l-132 -163l-13 -93h108z" />
    <glyph glyph-name="f_f_i" unicode="&#xfb03;" horiz-adv-x="961" 
d="M704 62l41 293h-172l-50 -355h-154l50 355h-168l-50 -355h-154l50 355h-41l19 135h41l18 127l182 208l99 -79l-132 -163l-13 -93h168l18 127l182 208l99 -79l-132 -163l-13 -93h327l-50 -359l45 -50l-101 -105zM964 627l-117 -93l-89 93l116 93z" />
    <glyph glyph-name="f_f_l" unicode="&#xfb04;" horiz-adv-x="962" 
d="M705 62l86 612h-112l-74 -91l-13 -93h108l-19 -135h-108l-50 -355h-154l50 355h-168l-50 -355h-154l50 355h-41l19 135h41l18 127l182 208l99 -79l-132 -163l-13 -93h168l18 127l164 188h345l-95 -674l45 -50l-101 -105z" />
    <glyph glyph-name="longs_t" unicode="&#xfb05;" horiz-adv-x="686" 
d="M427 674q-48 0 -69 -21l-74 -68l-82 -585h-154l50 355h-46l19 135h46l20 142l145 132q47 41 163 41h198l-44 -315h108l-19 -135h-108l-31 -224l47 -48l-103 -108l-109 88l86 611h-43z" />
    <glyph glyph-name="s_t" unicode="&#xfb06;" horiz-adv-x="789" 
d="M246 490q-22 28 -22 87q0 90 79 160q80 71 197 71q92 0 153 -61t61 -149q0 -5 -0.5 -13.5t-1.5 -19.5l-10 -75h108l-19 -137h-108l-32 -222l48 -48l-103 -108l-109 88l71 506q0 2 0.5 6.5t0.5 6.5q0 36 -24 62t-62 26q-49 0 -82 -36q-32 -35 -32 -74q0 -21 7.5 -34
t17.5 -20.5t20.5 -10.5t17.5 -3l8 -1l-16 -114h-142q-20 0 -32 -9t-12 -19q0 -6 8 -12.5t21 -14t29.5 -15.5t33.5 -16q34 -15 63 -48q29 -32 29 -73q0 -81 -65 -131q-64 -49 -167 -49q-18 0 -37.5 2.5t-38.5 6.5t-35 8.5t-27 9.5l-21 9l18 132q91 -42 152 -42q58 0 58 25
q0 6 -8 13t-20.5 14.5t-29 15.5t-33.5 16t-33 20.5t-28.5 28.5t-20.5 35t-8 40q0 43 18.5 76t44.5 49t52 26t45 13z" />
    <glyph glyph-name="s_p" unicode="&#xfb07;" horiz-adv-x="1018" 
d="M256 490q-22 28 -22 85q0 89 80 161q81 72 196 72q92 0 153 -61q62 -62 62 -150q0 -6 -0.5 -14t-1.5 -18l-14 -94q44 26 100 26q78 0 135 -63q58 -62 58 -156q0 -126 -87 -205q-86 -80 -191 -80q-24 0 -43.5 4.5t-26.5 9.5l-8 5l-37 -262h-156l115 819q0 2 0.5 6.5
t0.5 6.5q0 36 -24 62t-62 26q-48 0 -81 -36q-33 -35 -33 -74q0 -21 7.5 -34t17.5 -20.5t20.5 -10.5t17.5 -3l8 -1l-16 -114h-142q-19 0 -30.5 -8.5t-13.5 -19.5q0 -6 8 -12.5t21 -14.5t29.5 -16t33.5 -17q17 -8 33.5 -21t29.5 -30.5t21 -38t8 -43.5q0 -73 -66 -119
q-65 -47 -166 -47q-18 0 -37.5 2.5t-38.5 6.5t-35 8.5t-27 9.5l-21 9l18 132q91 -42 153 -42q54 0 57 25q0 6 -8 12.5t-20.5 14.5t-29 16t-33.5 17t-33 22t-28.5 30.5t-20.5 37.5t-8 43q0 44 18.5 72t44 45.5t52.5 25.5t45 11zM848 246q1 4 1 17q0 42 -26.5 70t-71.5 28
q-36 0 -57 -10l-30 -210q21 -10 55 -10q47 0 85 33q36 34 44 82z" />
    <glyph glyph-name="c_t" unicode="&#xfb0a;" horiz-adv-x="821" 
d="M276 484q-1 1 -10 23.5t-9 64.5q0 99 80 167q81 69 195 69q92 0 153 -61t61 -149q0 -5 -0.5 -13.5t-1.5 -19.5l-10 -75h108l-19 -137h-108l-32 -222l48 -48l-103 -108l-109 88l71 506q0 2 0.5 6.5t0.5 6.5q0 36 -24 62t-62 26q-49 0 -82 -36q-32 -35 -32 -74
q0 -31 17.5 -48.5t35.5 -19.5l18 -2l-18 -129h-109q-55 0 -98 -40q-42 -39 -42 -91q0 -43 29 -72.5t78 -29.5q36 0 71 7t53 15l17 7l-19 -137q-71 -30 -152 -30q-104 0 -168 63q-65 63 -65 158q0 103 70 179q72 78 167 94z" />
    <glyph glyph-name="t_y" horiz-adv-x="855" 
d="M734 490h168l-286 -593l-141 -165l-103 83l112 135l24 50h-40l-89 353h-103l-31 -222l47 -48l-103 -108l-109 88l41 290h-48l15 103l129 126h91l-13 -92h215l67 -310l1 -25h4z" />
    </font>
</defs>
</svg>
