<?xml version="1.0" standalone="no"?>
<!DOCTYPE svg PUBLIC "-//W3C//DTD SVG 1.1//EN" "http://www.w3.org/Graphics/SVG/1.1/DTD/svg11.dtd" >
<svg xmlns="http://www.w3.org/2000/svg" xmlns:xlink="http://www.w3.org/1999/xlink" version="1.1">
<metadata>
Created by FontForge 20170731 at Tue Nov 12 07:32:10 2013
 By Aleksey,,,
Copyright (c) 2011 by Ramiz Guseynov. All rights reserved. | wf-r
</metadata>
<defs>
<font id="DeeDee-Bold" horiz-adv-x="565" >
  <font-face 
    font-family="DeeDee"
    font-weight="700"
    font-stretch="normal"
    units-per-em="1000"
    panose-1="2 0 5 6 0 0 0 2 0 4"
    ascent="757"
    descent="-243"
    x-height="490"
    cap-height="682"
    bbox="-117 -268 1310 968"
    underline-thickness="50"
    underline-position="-225"
    unicode-range="U+000D-FB12"
  />
<missing-glyph horiz-adv-x="240" 
 />
    <glyph glyph-name="fi" unicode="fi" horiz-adv-x="580" 
d="M380 58v326h-184v-384h-119v384h-42v106h42v123l146 202l83 -59l-110 -167v-99h305v-377l49 -45l-69 -87zM440 703l82 -81l-82 -81l-81 81z" />
    <glyph glyph-name="fl" unicode="fl" horiz-adv-x="581" 
d="M380 58v644h-108l-75 -113v-99h110v-106h-110v-384h-120v384h-42v106h42v119l140 196h283v-695l51 -41l-69 -87z" />
    <glyph glyph-name=".notdef" horiz-adv-x="240" 
 />
    <glyph glyph-name=".null" horiz-adv-x="0" 
 />
    <glyph glyph-name="nonmarkingreturn" unicode="&#xd;" horiz-adv-x="333" 
 />
    <glyph glyph-name="NULL" horiz-adv-x="0" 
 />
    <glyph glyph-name="NULL" horiz-adv-x="0" 
 />
    <glyph glyph-name="space" unicode=" " horiz-adv-x="240" 
 />
    <glyph glyph-name="exclam" unicode="!" horiz-adv-x="284" 
d="M214 682l-16 -476h-112l-16 476h144zM74 138h137v-138h-137v138z" />
    <glyph glyph-name="quotedbl" unicode="&#x22;" horiz-adv-x="446" 
d="M396 682l-34 -232h-97v232h131zM202 682l-36 -232h-96v232h132z" />
    <glyph glyph-name="numbersign" unicode="#" horiz-adv-x="701" 
d="M636 373h-106l-15 -99h92v-118h-109l-22 -156h-122l23 156h-95l-22 -156h-124l22 156h-93v118h111l14 99h-96v116h113l23 157h123l-23 -157h94l23 157h122l-23 -157h90v-116zM394 274l15 99h-95l-15 -99h95z" />
    <glyph glyph-name="dollar" unicode="$" horiz-adv-x="572" 
d="M226 -86v77q-75 3 -156 38v131q102 -49 202 -49q40 0 75 18t35 54q0 24 -19 45t-48 40t-65 37t-69 38q-45 27 -77 69t-32 96q0 145 154 178v75h125v-68q76 -6 136 -31v-128q-94 41 -181 41q-45 0 -73.5 -17t-28.5 -45q0 -19 13 -34t35 -28.5t50.5 -27t57.5 -29.5
q30 -15 58 -33.5t50 -43.5t35.5 -57t13.5 -72q0 -64 -38.5 -116t-127.5 -73v-85h-125z" />
    <glyph glyph-name="percent" unicode="%" horiz-adv-x="929" 
d="M707 -10q-74 0 -126 51q-51 51 -51 125t52 125q52 52 125 52t125 -52q52 -51 52 -125q0 -73 -51 -125q-51 -51 -126 -51zM717 682l-400 -682h-107l400 682h107zM347 388q-51 -51 -125 -51t-126 51q-51 52 -51 126t52 125t125 51q72 0 125 -51q52 -51 52 -125t-52 -126z
M707 246q-33 0 -55 -23t-22 -57t22 -56.5t55 -22.5t55.5 23t22.5 56t-23 56.5t-55 23.5zM299 514q0 33 -22 56.5t-55 23.5t-55.5 -23.5t-22.5 -56.5t22.5 -57t55.5 -24t55 23.5t22 57.5z" />
    <glyph glyph-name="ampersand" unicode="&#x26;" horiz-adv-x="754" 
d="M706 329h-110v-98q0 -98 -73 -170q-73 -71 -195 -71q-126 0 -202 70t-76 160q0 109 86 174q-60 48 -60 126q0 40 16 72t45 54.5t69.5 34t90.5 11.5q31 0 63.5 -6t49.5 -12l18 -6v-120q-76 32 -133 32q-42 0 -68 -18t-26 -45q0 -34 25.5 -55.5t70.5 -21.5v-111
q-28 0 -50 -9t-37.5 -24t-23.5 -35t-8 -41q0 -46 43 -83t107 -37q66 0 103 40q39 40 39 99v90h-94v110h272l49 51l82 -63z" />
    <glyph glyph-name="quotesingle" unicode="'" horiz-adv-x="252" 
d="M202 682l-36 -232h-96v232h132z" />
    <glyph glyph-name="parenleft" unicode="(" horiz-adv-x="338" 
d="M308 -207l-103 -47l-16 27q-5 8 -13 26l-20 45q-12 26 -22.5 53t-20.5 54q-18 55 -33 130q-15 76 -15 146q0 36 4 73t10.5 73.5t15.5 70t20 62.5q21 57 42 104.5t35 72.5l15 25l101 -49q-7 -13 -15 -30.5t-18 -39.5q-20 -44 -51 -157q-32 -116 -32 -205t29 -200
q14 -54 29 -96.5t29 -74.5z" />
    <glyph glyph-name="parenright" unicode=")" horiz-adv-x="338" 
d="M146 227q0 89 -29 199q-14 54 -29 96.5t-29 73.5l-29 63l101 49l15 -26q5 -8 13.5 -26t20.5 -44q13 -26 23.5 -53t19.5 -54q10 -27 18 -60t16 -71q16 -74 16 -147q0 -35 -4 -72t-10.5 -73t-16 -70t-19.5 -62q-20 -58 -40.5 -105.5t-34.5 -72.5l-15 -26l-103 47
q3 4 5.5 10t7 16t11 26t16.5 42q20 52 35 100q16 47 28 116q13 65 13 124z" />
    <glyph glyph-name="asterisk" unicode="*" horiz-adv-x="535" 
d="M480 552l-121 -39l73 -101l-94 -67l-75 103l-72 -101l-95 68l76 102l-117 39l34 109l122 -39v124h116v-127l118 39z" />
    <glyph glyph-name="plus" unicode="+" horiz-adv-x="551" 
d="M65 218v115h150v156h115v-156h156v-115h-156v-151h-115v151h-150z" />
    <glyph glyph-name="comma" unicode="," horiz-adv-x="277" 
d="M221 138l-76 -278h-102l37 278h141z" />
    <glyph glyph-name="hyphen" unicode="-" horiz-adv-x="406" 
d="M55 218v115h296v-115h-296z" />
    <glyph glyph-name="period" unicode="." horiz-adv-x="277" 
d="M70 138h137v-138h-137v138z" />
    <glyph glyph-name="slash" unicode="/" horiz-adv-x="340" 
d="M-5 0l228 682h122l-228 -682h-122z" />
    <glyph glyph-name="zero" unicode="0" horiz-adv-x="567" 
d="M522 338q0 -81 -15.5 -145.5t-46 -109.5t-75 -69t-101.5 -24t-101.5 24t-75 69t-46.5 109.5t-16 145.5q0 164 62 259q63 95 177 95t176 -95t62 -259zM395 338q0 102 -30 170q-30 67 -81 67t-81 -67q-29 -69 -29 -170q0 -109 29 -171t81 -62t81.5 62t29.5 171z" />
    <glyph glyph-name="one" unicode="1" horiz-adv-x="328" 
d="M258 682v-682h-129v562h-119v120h248z" />
    <glyph glyph-name="two" unicode="2" horiz-adv-x="517" 
d="M467 119v-119h-437v118l183 191q58 61 84 102t26 78q0 36 -28.5 59t-82.5 23q-27 0 -66 -10q-20 -5 -36.5 -10t-30.5 -10l-27 -10v120q93 41 178 41q111 0 168 -59t57 -147q0 -28 -5.5 -54.5t-18 -52.5t-33.5 -53.5t-51 -57.5l-144 -145v-4h264z" />
    <glyph glyph-name="three" unicode="3" horiz-adv-x="497" 
d="M457 209q0 -97 -70 -158q-68 -61 -181 -61q-22 0 -44 2.5t-44 7.5t-38.5 10t-27.5 10l-22 10v124q89 -49 173 -49q27 0 50.5 8t40 22t26 33t9.5 41q0 49 -33 75.5t-96 26.5h-54v115h75q18 0 34.5 6.5t28.5 18t19 26.5t7 33q0 29 -26.5 48.5t-69.5 19.5q-31 0 -71 -9
q-39 -9 -64 -18l-24 -9v117q88 33 168 33q97 0 155 -49q59 -50 59 -130q0 -87 -70 -139q90 -51 90 -165z" />
    <glyph glyph-name="four" unicode="4" horiz-adv-x="535" 
d="M438 258h77v-119h-77v-139h-128v139h-280v117l200 440l115 -46l-181 -392h146v157h128v-157z" />
    <glyph glyph-name="five" unicode="5" horiz-adv-x="520" 
d="M486 230q0 -112 -73 -176q-71 -64 -188 -64q-20 0 -41.5 3t-41 7.5t-36.5 9.5t-28 10l-23 10v124q84 -48 169 -48q28 0 52 8.5t42 23.5t28 36t10 47q0 54 -37.5 83t-92.5 29q-22 0 -46 -5t-38 -10l-13 -5l-70 55l32 314h366v-121h-251l-12 -116q28 6 47 6q105 0 175 -61
q70 -60 70 -160z" />
    <glyph glyph-name="six" unicode="6" horiz-adv-x="549" 
d="M519 225q0 -104 -68 -170q-68 -65 -168 -65q-109 0 -176 81q-67 80 -67 252q0 170 80 270q81 99 209 99q24 0 47 -3t34 -6l12 -3v-112q-39 10 -84 10q-60 0 -103 -40.5t-59 -113.5q57 36 124 36q101 0 160 -66q59 -67 59 -169zM392 227q0 26 -7.5 48t-20.5 38.5t-31 25.5
t-39 9q-64 0 -126 -41v-12q0 -45 10 -85.5t37 -73.5q28 -33 68 -33q51 0 80 34.5t29 89.5z" />
    <glyph glyph-name="seven" unicode="7" horiz-adv-x="446" 
d="M426 682v-119l-249 -563h-137l253 558v4h-303v120h436z" />
    <glyph glyph-name="eight" unicode="8" horiz-adv-x="556" 
d="M516 194q0 -94 -66 -149q-64 -55 -175 -55q-102 0 -169 54q-66 55 -66 147q0 61 31.5 103.5t76.5 63.5v4q-90 55 -90 160q0 73 62 121q61 49 160 49q90 0 151 -49t61 -121q0 -50 -20 -85.5t-73 -67.5v-4q117 -59 117 -171zM363 517q0 31 -26 49t-65 18q-37 0 -63.5 -18
t-26.5 -44q0 -64 100 -97q81 31 81 92zM385 179q-2 26 -10.5 43t-28.5 32q-7 6 -12.5 10t-10.5 7.5t-11.5 7t-15.5 8.5l-24 15q-17 -7 -36 -18t-43 -38q-23 -26 -23 -55q0 -39 30.5 -65t78.5 -26q21 0 40.5 6t34 16.5t23 25t8.5 31.5z" />
    <glyph glyph-name="nine" unicode="9" horiz-adv-x="549" 
d="M30 457q0 105 67 169q67 66 169 66q108 0 176 -81q67 -80 67 -252q0 -171 -81 -270q-80 -99 -208 -99q-24 0 -47 3t-35 6l-11 3v112q39 -10 84 -10q60 0 103 40.5t59 113.5q-57 -36 -124 -36q-102 0 -160 66q-59 67 -59 169zM157 455q0 -26 7.5 -48t20.5 -38.5t31 -25.5
t39 -9q64 0 126 41v12q0 45 -10 85.5t-38 73.5q-27 33 -67 33q-51 0 -80 -34.5t-29 -89.5z" />
    <glyph glyph-name="colon" unicode=":" horiz-adv-x="277" 
d="M70 138h137v-138h-137v138zM70 491h137v-138h-137v138z" />
    <glyph glyph-name="semicolon" unicode=";" horiz-adv-x="279" 
d="M72 491h137v-138h-137v138zM221 138l-76 -278h-102l37 278h141z" />
    <glyph glyph-name="less" unicode="&#x3c;" horiz-adv-x="551" 
d="M486 382l-273 -103v-4l273 -104v-116l-421 177v89l421 179v-118z" />
    <glyph glyph-name="equal" unicode="=" horiz-adv-x="551" 
d="M65 316v114h421v-114h-421zM65 122v114h421v-114h-421z" />
    <glyph glyph-name="greater" unicode="&#x3e;" horiz-adv-x="551" 
d="M338 279l-273 103v118l421 -179v-89l-421 -177v116l273 104v4z" />
    <glyph glyph-name="question" unicode="?" horiz-adv-x="417" 
d="M382 527q0 -32 -9 -58t-22.5 -48.5t-30 -42t-32.5 -37.5q-21 -25 -36 -59t-15 -76h-110q0 33 5.5 62.5t14 54.5t19.5 45t23 33q23 27 42.5 58.5t19.5 61.5q0 25 -21.5 41.5t-60.5 16.5q-13 0 -28.5 -2.5t-31 -6t-29.5 -8t-24 -8.5l-21 -8v114q85 32 153 32
q94 0 144 -43.5t50 -121.5zM113 138h137v-138h-137v138z" />
    <glyph glyph-name="at" unicode="@" horiz-adv-x="979" 
d="M500 104q38 0 70 21v238q-32 20 -70 20q-56 0 -95 -41q-38 -41 -38 -98q0 -56 38 -99q38 -41 95 -41zM778 0h-97l-69 33q-58 -38 -128 -38q-92 0 -161 73t-69 176q0 101 68 175q67 73 153 73q24 0 50.5 -7t40.5 -14l14 -7l4 26h106v-374l51 -30q3 3 8.5 9t18.5 27
q13 22 24 45q10 24 18.5 61.5t8.5 77.5q0 123 -94 205q-95 83 -222 83q-141 0 -241 -103q-100 -101 -100 -249q0 -149 100 -248q100 -100 259 -100q47 0 98 14q26 7 45 14t32 14l27 15v-110q-5 -2 -12 -5.5t-16 -7.5q-16 -7 -71 -21q-51 -13 -105 -13q-200 0 -333 131
q-131 131 -131 319q0 186 131 317t318 131q171 0 295 -115q125 -114 125 -278q0 -60 -15 -111.5t-37 -84.5q-21 -33 -42.5 -57.5t-36.5 -35.5z" />
    <glyph glyph-name="A" unicode="A" horiz-adv-x="633" 
d="M401 682l212 -682h-138l-54 186h-209l-54 -186h-138l213 682h168zM246 308h140l-67 234h-5z" />
    <glyph glyph-name="B" unicode="B" horiz-adv-x="623" 
d="M549 494q0 -27 -7 -49t-17 -37.5t-21 -26t-18 -15.5l-7 -4v-4l10 -5t22 -17q18 -15 29 -30q13 -17 23 -47.5t10 -65.5q0 -87 -62 -140t-157 -53h-279v682h242q109 0 170.5 -47.5t61.5 -140.5zM446 200q0 87 -123 87h-123v-166h137q49 0 79 21.5t30 57.5zM201 405h118
q49 0 77.5 23t28.5 58q0 36 -26.5 56t-72.5 20h-125v-157z" />
    <glyph glyph-name="C" unicode="C" horiz-adv-x="638" 
d="M593 157v-131q-83 -36 -184 -36q-157 0 -261 101q-103 100 -103 241q0 157 102 258q102 102 262 102q22 0 44.5 -2t42 -5.5t36 -8t26.5 -8.5l21 -9v-129q-80 40 -168 40q-101 0 -168 -65q-65 -65 -65 -164q0 -100 66 -164q68 -65 170 -65q39 0 86 11q43 10 69 23z" />
    <glyph glyph-name="D" unicode="D" horiz-adv-x="687" 
d="M75 0v682h210q162 0 259 -97q98 -98 98 -253q0 -140 -100 -236q-99 -96 -257 -96h-210zM205 560v-438h75q103 0 166 60t63 159t-62 159t-164 60h-78z" />
    <glyph glyph-name="E" unicode="E" horiz-adv-x="584" 
d="M75 0v682h446v-121h-320v-155h300v-121h-300v-164h328v-121h-454z" />
    <glyph glyph-name="F" unicode="F" horiz-adv-x="556" 
d="M521 561h-320v-153h288v-121h-288v-287h-126v682h446v-121z" />
    <glyph glyph-name="G" unicode="G" horiz-adv-x="706" 
d="M513 272h-158v119h286v-338q-11 -8 -30 -18t-83 -28q-66 -17 -132 -17q-154 0 -253 100q-98 101 -98 242q0 156 105 258q106 102 263 102q24 0 48.5 -3t47 -7.5t40.5 -9.5t30 -10l23 -9v-128q-87 45 -186 45q-102 0 -170 -65t-68 -164q0 -102 63 -166q63 -65 163 -65
q28 0 55 4t41 8l13 5v145z" />
    <glyph glyph-name="H" unicode="H" horiz-adv-x="690" 
d="M615 682v-682h-126v298h-288v-298h-126v682h126v-263h288v263h126z" />
    <glyph glyph-name="I" unicode="I" horiz-adv-x="281" 
d="M206 0h-131v682h131v-682z" />
    <glyph glyph-name="J" unicode="J" horiz-adv-x="290" 
d="M215 682v-659l-130 -177l-88 68l87 141v627h131z" />
    <glyph glyph-name="K" unicode="K" horiz-adv-x="614" 
d="M312 357l297 -357h-174l-230 284v-284h-130v682h130v-265l228 265h165z" />
    <glyph glyph-name="L" unicode="L" horiz-adv-x="522" 
d="M507 121v-121h-432v682h130v-561h302z" />
    <glyph glyph-name="M" unicode="M" horiz-adv-x="787" 
d="M712 682v-682h-127v419l5 81h-4l-49 -81l-98 -140h-91l-98 140l-49 81h-4l5 -80v-420h-127v682h135l181 -269h4l182 269h135z" />
    <glyph glyph-name="N" unicode="N" horiz-adv-x="682" 
d="M607 682v-682h-148l-226 419l-33 79h-4l5 -79v-419h-126v682h148l226 -419l33 -79h4l-5 80v418h126z" />
    <glyph glyph-name="O" unicode="O" horiz-adv-x="790" 
d="M147 93q-102 103 -102 249t102 248q103 102 248 102t247 -102q103 -102 103 -248t-103 -249q-102 -103 -247 -103t-248 103zM172 342q0 -93 65 -163q66 -69 158 -69t157 69q66 69 66 163q0 93 -66 161q-65 68 -157 68t-158 -68q-65 -68 -65 -161z" />
    <glyph glyph-name="P" unicode="P" horiz-adv-x="578" 
d="M203 247v-247h-128v682h255q97 0 160 -60t63 -157t-63 -158q-63 -60 -161 -60h-126zM203 561v-194h120q48 0 75 28t27 70t-27 69t-75 27h-120z" />
    <glyph glyph-name="Q" unicode="Q" horiz-adv-x="793" 
d="M395 692q146 0 248 -103q103 -102 103 -247q0 -120 -75 -216l79 -76l-82 -87l-85 82q-88 -55 -188 -55q-145 0 -248 103q-102 103 -102 249t102 248q103 102 248 102zM427 196l84 85l68 -66q39 54 39 127q0 93 -66 161q-65 68 -157 68t-158 -68q-65 -68 -65 -161t65 -163
q66 -69 158 -69q51 0 96 24z" />
    <glyph glyph-name="R" unicode="R" horiz-adv-x="629" 
d="M232 331v49h78q53 0 85.5 27.5t32.5 65.5q0 39 -26.5 64t-66.5 25h-132v-562h-128v682h258q103 0 162 -58q60 -59 60 -151q0 -66 -37 -116.5t-103 -70.5l199 -286h-155z" />
    <glyph glyph-name="S" unicode="S" horiz-adv-x="555" 
d="M470 659v-128q-86 40 -178 40q-45 0 -72 -15.5t-27 -42.5q0 -25 23 -43.5t57 -36.5t74.5 -37.5t74.5 -47.5t57 -66.5t23 -93.5q0 -33 -13 -68.5t-43.5 -64t-80.5 -47t-123 -18.5q-22 0 -45 2.5t-44.5 6t-39 8t-29.5 9.5l-24 9v131q90 -45 198 -45q38 0 73 18q35 20 35 54
q0 24 -18.5 44t-47.5 38.5t-64 36.5t-68 37q-45 26 -76.5 67t-31.5 93q0 97 67 145t172 48q21 0 43.5 -2t42.5 -5.5t36.5 -8t27.5 -8.5z" />
    <glyph glyph-name="T" unicode="T" horiz-adv-x="527" 
d="M512 562h-184v-562h-130v562h-183v120h497v-120z" />
    <glyph glyph-name="U" unicode="U" horiz-adv-x="671" 
d="M601 682v-437q0 -105 -80 -180t-185 -75q-106 0 -186 74t-80 180v438h126v-418q0 -66 41 -110q40 -43 100 -43q55 0 96 42q41 44 41 111v418h127z" />
    <glyph glyph-name="V" unicode="V" horiz-adv-x="625" 
d="M472 682h138l-225 -682h-145l-225 682h138l158 -516h4z" />
    <glyph glyph-name="W" unicode="W" horiz-adv-x="787" 
d="M75 0v682h127v-419l-5 -81h4l49 81l98 140h91l98 -140l49 -81h4l-5 80v420h127v-682h-135l-181 269h-4l-182 -269h-135z" />
    <glyph glyph-name="X" unicode="X" horiz-adv-x="673" 
d="M255 354l-220 328h152l149 -225l149 225h153l-220 -328l240 -354h-153l-169 251l-169 -251h-152z" />
    <glyph glyph-name="Y" unicode="Y" horiz-adv-x="593" 
d="M231 277l-226 405h144l146 -284h4l146 284h143l-226 -405v-277h-131v277z" />
    <glyph glyph-name="Z" unicode="Z" horiz-adv-x="583" 
d="M528 121v-121h-483v133l321 424v4h-293v121h454v-127l-330 -430v-4h331z" />
    <glyph glyph-name="bracketleft" unicode="[" horiz-adv-x="311" 
d="M281 -135v-105h-206v921h206v-105h-84v-711h84z" />
    <glyph glyph-name="backslash" unicode="\" horiz-adv-x="338" 
d="M116 681l228 -681h-120l-228 681h120z" />
    <glyph glyph-name="bracketright" unicode="]" horiz-adv-x="311" 
d="M30 -240v105h84v711h-84v105h206v-921h-206z" />
    <glyph glyph-name="asciicircum" unicode="^" horiz-adv-x="495" 
d="M450 328h-121l-79 216h-4l-79 -216h-122l150 354h104z" />
    <glyph glyph-name="underscore" unicode="_" horiz-adv-x="490" 
d="M500 -75v-75h-510v75h510z" />
    <glyph glyph-name="grave" unicode="`" horiz-adv-x="216" 
d="M140 682l76 -130h-105l-111 130h140z" />
    <glyph glyph-name="a" unicode="a" horiz-adv-x="543" 
d="M517 65l-80 -85l-67 55q-7 -5 -20 -12.5t-52 -20.5q-39 -12 -76 -12q-41 0 -74.5 12t-57.5 33.5t-37 51.5t-13 66q0 72 52 118t149 46q26 0 51.5 -5.5t37.5 -11.5l13 -5q0 48 -26.5 72.5t-72.5 24.5q-31 0 -68 -9.5t-59 -18.5l-22 -10v114q75 32 159 32q210 0 210 -195
v-191zM343 130v70q-43 23 -97 23q-38 0 -58 -18t-20 -45t21.5 -43.5t55.5 -16.5q28 0 52.5 7.5t34.5 14.5z" />
    <glyph glyph-name="b" unicode="b" 
d="M167 32l-67 -50l-70 88l49 44v691h121v-334q38 26 92 26q103 0 170 -73q68 -74 68 -180q0 -107 -66 -180q-65 -72 -172 -72q-14 0 -29.5 3t-30 7.5t-27 9.5t-21.5 10zM274 388q-43 0 -74 -21v-248q31 -19 74 -19q58 0 99 42q40 41 40 102q0 59 -41 102q-41 42 -98 42z
" />
    <glyph glyph-name="c" unicode="c" horiz-adv-x="478" 
d="M438 138v-112q-62 -36 -146 -36q-110 0 -184 74q-73 73 -73 181q0 107 74 181t184 74q37 0 71 -9t50 -18l16 -9v-111q-59 36 -130 36q-63 0 -103 -42q-41 -43 -41 -102t41 -103q40 -42 104 -42q31 0 65.5 9.5t53.5 18.5z" />
    <glyph glyph-name="d" unicode="d" 
d="M465 -18l-67 50q-61 -40 -125 -40q-107 0 -173 72q-65 74 -65 180t68 180q67 73 170 73q24 0 47 -6.5t34 -12.5l11 -7v334h121v-691l49 -44zM291 100q43 0 74 19v248q-32 21 -74 21q-59 0 -99 -42q-40 -41 -40 -102t40 -102q40 -42 99 -42z" />
    <glyph glyph-name="e" unicode="e" horiz-adv-x="544" 
d="M501 197h-341q15 -45 51.5 -72.5t87.5 -27.5q37 0 74.5 10t56.5 20l19 10v-113q-61 -34 -151 -34q-117 0 -190 75q-73 74 -73 179q0 108 72 182t174 74q98 0 162 -64q66 -63 66 -160q0 -17 -2 -37t-4 -31zM286 396q-49 0 -83.5 -28.5t-45.5 -76.5h241q0 49 -34 77t-78 28
z" />
    <glyph glyph-name="f" unicode="f" horiz-adv-x="317" 
d="M307 490v-106h-111v-384h-119v384h-42v106h42v123l146 202l83 -59l-110 -167v-99h111z" />
    <glyph glyph-name="g" unicode="g" 
d="M398 460l67 50l70 -88l-49 -44v-468l-124 -172l-87 65l90 132v86q-38 -26 -92 -26q-103 0 -170 73q-68 74 -68 180t65 179q66 73 173 73q14 0 29.5 -3t30 -7.5t27 -9.5t21.5 -10zM291 104q42 0 74 21v248q-31 19 -74 19q-59 0 -99 -42q-40 -41 -40 -102t40 -102
q40 -42 99 -42z" />
    <glyph glyph-name="h" unicode="h" 
d="M191 805v-342q46 34 107 34q82 0 133 -51q52 -50 55 -128l14 -318h-118l-11 300q-1 43 -26 66.5t-61 23.5q-21 0 -44.5 -8t-35.5 -16l-13 -9v-357h-121v805h121z" />
    <glyph glyph-name="i" unicode="i" horiz-adv-x="271" 
d="M71 58v432h121v-377l49 -45l-69 -87zM131 703l82 -81l-82 -81l-81 81z" />
    <glyph glyph-name="j" unicode="j" horiz-adv-x="269" 
d="M199 490v-582l-123 -170l-86 65l89 135v552h120zM137 703l82 -81l-82 -81l-81 81z" />
    <glyph glyph-name="k" unicode="k" horiz-adv-x="523" 
d="M191 805v-487l146 172h159l-200 -221l217 -269h-155l-167 217v-217h-121v805h121z" />
    <glyph glyph-name="l" unicode="l" horiz-adv-x="270" 
d="M70 58v747h121v-692l49 -45l-69 -87z" />
    <glyph glyph-name="m" unicode="m" horiz-adv-x="828" 
d="M99 510l78 -58q58 45 125 45q18 0 36 -3.5t33.5 -9.5t28 -13.5t19.5 -14.5l14 -14q7 6 20 15t50 24q36 16 71 16q75 0 123 -50q49 -49 52 -126l14 -321h-119l-12 300q-1 43 -22.5 66t-52.5 23q-22 0 -43.5 -10t-31.5 -20l-11 -10l6 -349h-117l-5 300q-1 43 -21.5 66
t-52.5 23q-20 0 -40.5 -9.5t-31.5 -18.5l-11 -9v-352h-120v379l-48 46z" />
    <glyph glyph-name="n" unicode="n" horiz-adv-x="572" 
d="M98 510l78 -58q58 45 122 45q88 0 139.5 -49t55.5 -130l14 -318h-118l-11 297q-1 45 -25.5 69t-61.5 24q-21 0 -44.5 -8t-36.5 -16l-12 -8v-358h-121v380l-47 45z" />
    <glyph glyph-name="o" unicode="o" horiz-adv-x="581" 
d="M546 246q0 -107 -75 -182q-74 -74 -181 -74q-105 0 -181 74q-74 76 -74 182t74 180q76 74 181 74q107 0 181 -74q75 -74 75 -180zM290 390q-57 0 -97 -42q-39 -42 -39 -102t39 -103q39 -42 97 -42t97 42q39 43 39 103t-39 102t-97 42z" />
    <glyph glyph-name="p" unicode="p" 
d="M100 505l67 -50q61 40 125 40q108 0 172 -73q66 -72 66 -179q0 -106 -68 -180q-67 -73 -170 -73q-24 0 -47 6.5t-34 13.5l-11 6v-266h-121v623l-49 44zM274 387q-43 0 -74 -19v-248q31 -21 74 -21q57 0 98 42q41 43 41 102q0 61 -40 102q-41 42 -99 42z" />
    <glyph glyph-name="q" unicode="q" horiz-adv-x="556" 
d="M372 468l4 22h110v-740h-121v266q-38 -26 -92 -26q-103 0 -170 73q-68 74 -68 180t65 179q66 73 171 73q25 0 50 -6.5t38 -13.5zM291 99q42 0 74 21v248q-31 19 -74 19q-59 0 -99 -42q-40 -41 -40 -102t40 -102q40 -42 99 -42z" />
    <glyph glyph-name="r" unicode="r" horiz-adv-x="402" 
d="M406 476v-117q-49 28 -109 28q-18 0 -33.5 -6t-27.5 -16t-20 -21.5t-11 -22.5l-7 -22v-299h-121v380l-47 45l68 85l78 -58q6 5 16 12.5t42 19.5q32 13 66 13q29 0 55.5 -5.5t38.5 -10.5z" />
    <glyph glyph-name="s" unicode="s" horiz-adv-x="436" 
d="M371 471v-109q-71 33 -138 33q-27 0 -44 -10.5t-17 -26.5q0 -13 16.5 -24.5t40.5 -24t52.5 -26.5t53 -33t40.5 -44.5t16 -59.5q0 -73 -52.5 -114.5t-146.5 -41.5q-37 0 -72 9.5t-52 18.5l-17 10v112q67 -43 137 -43q31 0 54.5 10t23.5 29q0 14 -16 25.5t-40 24t-52 26.5
t-52 33t-40 44.5t-16 60.5q0 33 13 61t37.5 47.5t59.5 30.5t78 11q35 0 68.5 -7t49.5 -15z" />
    <glyph glyph-name="t" unicode="t" horiz-adv-x="326" 
d="M205 582v-92h111v-108h-111v-269l50 -44l-70 -88l-101 76v325h-49v78l109 122h61z" />
    <glyph glyph-name="u" unicode="u" horiz-adv-x="571" 
d="M473 -20l-78 58q-59 -45 -127 -45q-89 0 -147 50q-56 50 -56 129v318h120v-297q0 -45 25 -69t62 -24q24 0 49.5 8t38.5 16l13 9v357h121v-380l47 -45z" />
    <glyph glyph-name="v" unicode="v" horiz-adv-x="500" 
d="M495 490l-175 -490h-140l-175 490h129l114 -346h4l113 346h130z" />
    <glyph glyph-name="w" unicode="w" horiz-adv-x="794" 
d="M779 490l-142 -490h-143l-95 331h-4l-95 -331h-143l-142 490h129l86 -345h4l99 345h129l98 -345h4l86 345h129z" />
    <glyph glyph-name="x" unicode="x" horiz-adv-x="540" 
d="M374 0l-105 156l-103 -156h-151l183 250l-174 240h146l99 -147l100 147h146l-174 -240l184 -250h-151z" />
    <glyph glyph-name="y" unicode="y" horiz-adv-x="533" 
d="M398 490h130l-197 -593l-116 -159l-86 65l89 133l23 64h-50l-135 371l-56 54l66 82l88 -66l118 -331h4z" />
    <glyph glyph-name="z" unicode="z" horiz-adv-x="511" 
d="M456 0h-401v115l248 261v4h-237v110h384v-118l-243 -257v-4h249v-111z" />
    <glyph glyph-name="braceleft" unicode="{" horiz-adv-x="335" 
d="M305 -134v-98l-93 -11q-49 0 -83 42q-34 41 -34 102v189q0 35 -23 57t-53 22v106q30 0 53 22t23 57v190q0 60 34 101q34 42 83 42l93 -11v-97h-61q-27 0 -27 -42v-187q0 -38 -20 -73.5t-49 -52.5v-4q30 -18 49.5 -53.5t19.5 -74.5v-185q0 -41 27 -41h61z" />
    <glyph glyph-name="bar" unicode="|" horiz-adv-x="269" 
d="M194 682v-922h-119v922h119z" />
    <glyph glyph-name="braceright" unicode="}" horiz-adv-x="335" 
d="M30 -232v98h61q27 0 27 41v185q0 39 19.5 74.5t49.5 53.5v4q-29 17 -49 52.5t-20 73.5v187q0 42 -27 42h-61v97l93 11q48 0 83 -42q34 -41 34 -101v-190q0 -35 23 -57t53 -22v-106q-30 0 -53 -22t-23 -57v-189q0 -61 -34 -102q-35 -42 -83 -42z" />
    <glyph glyph-name="asciitilde" unicode="~" horiz-adv-x="551" 
d="M65 202v110q6 5 16 12.5t43 20.5q32 13 67 13q33 0 89 -27q55 -27 85 -27q28 0 58.5 12t46.5 24l16 11v-111q-6 -5 -16 -12.5t-43 -20.5q-33 -12 -67 -12q-32 0 -89 27q-56 27 -85 27q-28 0 -58.5 -11.5t-46.5 -23.5z" />
    <glyph glyph-name="exclamdown" unicode="&#xa1;" horiz-adv-x="284" 
d="M70 -193l16 477h112l16 -477h-144zM210 352h-137v138h137v-138z" />
    <glyph glyph-name="cent" unicode="&#xa2;" horiz-adv-x="476" 
d="M199 -102v108q-38 14 -68 37.5t-51.5 55t-33 68.5t-11.5 78t11.5 78.5t33 68.5t51.5 54.5t68 37.5v107h120v-92q30 -3 58 -11.5t41 -15.5l12 -8v-111q-59 36 -130 36q-63 0 -103 -42q-41 -43 -41 -102t41 -103q40 -42 104 -42q31 0 65.5 9.5t53.5 18.5l18 10v-112
q-25 -14 -54.5 -22.5t-64.5 -12.5v-93h-120z" />
    <glyph glyph-name="sterling" unicode="&#xa3;" horiz-adv-x="567" 
d="M261 419h134v-116h-134v-182h251v-121h-455v121h74v182h-76v116h76v72q0 100 61 149q61 51 150 51q20 0 40 -2t37.5 -5.5t31.5 -7.5t23 -8l18 -8v-122q-78 35 -148 35q-34 0 -58.5 -19.5t-24.5 -48.5v-86z" />
    <glyph glyph-name="currency" unicode="&#xa4;" horiz-adv-x="615" 
d="M477 -8l-71 71q-41 -24 -99 -24q-56 0 -98 24l-71 -71l-83 82l71 71q-25 43 -25 98q0 58 25 99l-71 71l84 83l70 -70q43 24 98 24q53 0 99 -25l71 71l83 -84l-71 -71q24 -42 24 -96q0 -52 -25 -98l72 -72zM238 312q-14 -14 -21 -31.5t-7 -36t7 -36.5t21 -33
q14 -14 32 -21t37 -7t37 7t32 21q14 15 21 33t7 36.5t-7 36t-21 31.5q-14 15 -32 22t-37 7t-37 -7t-32 -22z" />
    <glyph glyph-name="yen" unicode="&#xa5;" horiz-adv-x="580" 
d="M110 275v96h66l-171 311h141l142 -292h4l143 292h140l-171 -311h68v-96h-118v-56h117v-97h-117v-122h-127v122h-117v97h117v56h-117z" />
    <glyph glyph-name="brokenbar" unicode="&#xa6;" horiz-adv-x="269" 
d="M194 682v-379h-119v379h119zM194 138v-379h-119v379h119z" />
    <glyph glyph-name="section" unicode="&#xa7;" horiz-adv-x="530" 
d="M475 201q0 -48 -17 -73l-70 -93q33 -39 33 -91q0 -87 -49.5 -130t-139.5 -43q-35 0 -68.5 8.5t-49.5 17.5l-17 9v119q79 -40 136 -40q26 0 45.5 18t19.5 39t-25 45.5t-61 50.5q-25 18 -53 41t-51.5 51t-38.5 61t-14 71q0 46 15 67l72 96q-33 43 -33 94q0 85 48.5 129
t135.5 44q33 0 68 -8.5t53 -17.5l19 -8v-120q-76 40 -137 40q-26 0 -45 -18t-19 -39q0 -15 14.5 -32.5t37.5 -36t51 -39.5t54 -43q36 -31 61 -74.5t25 -94.5zM353 187q0 32 -33.5 69.5t-104.5 93.5q-38 -41 -38 -74t33 -70.5t105 -92.5q15 15 26.5 37t11.5 37z" />
    <glyph glyph-name="dieresis" unicode="&#xa8;" horiz-adv-x="370" 
d="M81 703l82 -81l-82 -81l-81 81zM288 703l82 -81l-82 -81l-81 81z" />
    <glyph glyph-name="copyright" unicode="&#xa9;" horiz-adv-x="792" 
d="M643 587q104 -104 104 -247q0 -144 -104 -248q-103 -103 -247 -103q-145 0 -248 103t-103 248q0 144 103 247q104 104 248 104q143 0 247 -104zM665 340q0 110 -80 190t-189 80q-112 0 -191 -79t-79 -191q0 -111 79 -190t191 -79q110 0 189 79q80 80 80 190zM511 263v-84
q-42 -24 -104 -24q-81 0 -134 53q-52 52 -52 131q0 78 53 131t134 53q27 0 51 -6.5t35 -12.5l10 -6v-83q-38 29 -91 29q-23 0 -42 -8t-33 -22.5t-22 -33.5t-8 -41q0 -45 29 -75.5t77 -30.5q23 0 47 7.5t37 15.5z" />
    <glyph glyph-name="ordfeminine" unicode="&#xaa;" horiz-adv-x="427" 
d="M325 352l-47 35q-35 -28 -78 -28q-69 0 -112 46t-43 117q0 70 44 117q45 48 111 48q16 0 32 -4.5t24 -8.5l8 -5l2 13h73v-244l31 -29zM125 522q0 -36 25.5 -61.5t61.5 -25.5q25 0 45 12v149q-20 14 -45 14q-36 0 -61.5 -25.5t-25.5 -62.5z" />
    <glyph glyph-name="guillemotleft" unicode="&#xab;" horiz-adv-x="632" 
d="M179 246l161 -246h-134l-161 246l161 244h134zM426 246l161 -246h-134l-161 246l161 244h134z" />
    <glyph glyph-name="logicalnot" unicode="&#xac;" horiz-adv-x="552" 
d="M487 52h-116v180h-306v113h422v-293z" />
    <glyph glyph-name="registered" unicode="&#xae;" horiz-adv-x="792" 
d="M462 159l-87 148h-7v-148h-88v364h135q57 0 91.5 -30.5t34.5 -81.5q0 -36 -20.5 -64.5t-55.5 -36.5l93 -151h-96zM368 450v-81h32q25 0 39.5 12.5t14.5 29.5q0 16 -11 27.5t-29 11.5h-46zM643 587q104 -104 104 -247q0 -144 -104 -248q-103 -103 -247 -103
q-145 0 -248 103t-103 248q0 144 103 247q104 104 248 104q143 0 247 -104zM665 340q0 110 -80 190t-189 80q-112 0 -191 -79t-79 -191q0 -111 79 -190t191 -79q110 0 189 79q80 80 80 190z" />
    <glyph glyph-name="macron" unicode="&#xaf;" horiz-adv-x="262" 
d="M262 664v-95h-262v95h262z" />
    <glyph glyph-name="degree" unicode="&#xb0;" horiz-adv-x="390" 
d="M195 441q-60 0 -100 40t-40 99q0 58 41 99t99 41t99 -41t41 -99t-41 -99q-40 -40 -99 -40zM195 646q-13 0 -25 -5.5t-21.5 -15t-15 -21.5t-5.5 -24q0 -13 6 -25t15.5 -21.5t21.5 -15t24 -5.5q25 0 45 20q18 15 20.5 34.5t-5.5 37t-24.5 29.5t-35.5 12z" />
    <glyph glyph-name="plusminus" unicode="&#xb1;" horiz-adv-x="551" 
d="M486 296h-156v-127h-115v127h-150v110h150v127h115v-127h156v-110zM486 0h-421v113h421v-113z" />
    <glyph glyph-name="twosuperior" unicode="&#xb2;" horiz-adv-x="390" 
d="M335 380v-90h-280v87l107 105q57 55 57 79q0 34 -45 34q-16 0 -42.5 -5.5t-45.5 -11.5l-18 -6v98q58 21 111 21q72 0 108.5 -33.5t36.5 -90.5q0 -63 -66 -126l-63 -61h140z" />
    <glyph glyph-name="threesuperior" unicode="&#xb3;" horiz-adv-x="388" 
d="M333 415q0 -30 -11.5 -55t-32.5 -42.5t-50 -27.5t-64 -10q-31 0 -61 6t-44 12l-15 6v96q66 -28 116 -28q24 0 40 14t16 33q0 21 -15 33.5t-42 12.5h-35v74h46q14 0 24 10.5t10 24.5q0 13 -11 22t-31 9q-19 0 -44.5 -5.5t-40.5 -11.5l-16 -5v88q57 20 111 20
q60 0 99.5 -31t39.5 -82q0 -20 -11.5 -40.5t-28.5 -28.5v-4q22 -11 36.5 -37t14.5 -53z" />
    <glyph glyph-name="acute" unicode="&#xb4;" horiz-adv-x="216" 
d="M0 552l76 130h140l-111 -130h-105z" />
    <glyph glyph-name="mu" unicode="&#xb5;" horiz-adv-x="576" 
d="M70 -250v740h120v-297q0 -45 25 -69t62 -24q23 0 48 9t39 17l14 9v355h121v-380l47 -45l-68 -85l-78 58q-59 -45 -122 -45q-30 0 -52.5 8.5t-29.5 17.5l-7 9v-278h-119z" />
    <glyph glyph-name="paragraph" unicode="&#xb6;" horiz-adv-x="630" 
d="M575 682v-109h-54v-823h-97v823h-55v-823h-98v823h-43q-44 0 -81 -28t-37 -83q0 -24 9 -44t24 -34.5t34.5 -22.5t40.5 -8h16v-75h-104q-51 25 -83 75.5t-32 114.5q0 96 67 154q67 60 173 60h320z" />
    <glyph glyph-name="periodcentered" unicode="&#xb7;" horiz-adv-x="278" 
d="M70 407h137v-138h-137v138z" />
    <glyph glyph-name="cedilla" unicode="&#xb8;" horiz-adv-x="187" 
d="M144 0l-10 -31q6 -3 15 -8t23 -24q15 -20 15 -44q0 -48 -33.5 -72t-82.5 -24q-18 0 -35.5 3.5t-26.5 7.5l-9 4v75q27 -11 45 -11q14 0 24.5 8t10.5 20q0 16 -13 28.5t-25 17.5l-13 4l20 46h95z" />
    <glyph glyph-name="onesuperior" unicode="&#xb9;" horiz-adv-x="283" 
d="M228 682v-392h-106v293h-77v99h183z" />
    <glyph glyph-name="ordmasculine" unicode="&#xba;" horiz-adv-x="407" 
d="M42 526q0 69 46 115q47 47 115 47q67 0 114 -47q48 -47 48 -115q0 -67 -47 -116q-47 -47 -115 -47t-115 47q-46 46 -46 116zM277 526q0 34 -21 59.5t-53 25.5t-53 -25.5t-21 -59.5q0 -35 20.5 -61.5t53.5 -26.5t53.5 26.5t20.5 61.5z" />
    <glyph glyph-name="guillemotright" unicode="&#xbb;" horiz-adv-x="632" 
d="M292 0l161 246l-161 244h134l161 -244l-161 -246h-134zM45 0l161 246l-161 244h134l161 -244l-161 -246h-134z" />
    <glyph glyph-name="onequarter" unicode="&#xbc;" horiz-adv-x="830" 
d="M733 167h42v-90h-42v-77h-106v77h-193v88l127 261l86 -39l-102 -220h82v97h106v-97zM228 682v-392h-106v293h-77v99h183zM620 682l-400 -682h-107l400 682h107z" />
    <glyph glyph-name="onehalf" unicode="&#xbd;" horiz-adv-x="817" 
d="M228 682v-392h-106v293h-77v99h183zM620 682l-400 -682h-107l400 682h107zM762 90v-90h-280v87l107 105q57 55 57 79q0 34 -45 34q-16 0 -42.5 -6t-44.5 -11l-19 -6v98q58 21 111 21q72 0 108.5 -33.5t36.5 -90.5q0 -63 -66 -126l-63 -61h140z" />
    <glyph glyph-name="threequarters" unicode="&#xbe;" horiz-adv-x="900" 
d="M803 167h42v-90h-42v-77h-106v77h-193v88l127 261l86 -39l-102 -220h82v97h106v-97zM690 682l-400 -682h-107l400 682h107zM333 415q0 -30 -11.5 -55t-32.5 -42.5t-50 -27.5t-64 -10q-31 0 -61 6t-44 12l-15 6v96q66 -28 116 -28q24 0 40 14t16 33q0 21 -15 33.5
t-42 12.5h-35v74h46q14 0 24 10.5t10 24.5q0 13 -11 22t-31 9q-19 0 -44.5 -5.5t-40.5 -11.5l-16 -5v88q57 20 111 20q60 0 99.5 -31t39.5 -82q0 -20 -11.5 -40.5t-28.5 -28.5v-4q22 -11 36.5 -37t14.5 -53z" />
    <glyph glyph-name="questiondown" unicode="&#xbf;" horiz-adv-x="417" 
d="M35 -37q0 31 9 57.5t22.5 48.5t30 41.5t31.5 37.5q22 26 37 60t15 76h110q0 -65 -19.5 -117t-42.5 -79q-23 -26 -42.5 -57.5t-19.5 -61.5q0 -25 21.5 -41.5t60.5 -16.5q13 0 28.5 2.5t31 6t29.5 8t25 8.5l20 8v-114q-85 -32 -153 -32q-94 0 -144 43.5t-50 121.5zM304 352
h-137v138h137v-138z" />
    <glyph glyph-name="Agrave" unicode="&#xc0;" horiz-adv-x="633" 
d="M401 682l212 -682h-138l-54 186h-209l-54 -186h-138l213 682h168zM246 308h140l-67 234h-5zM324 874l76 -130h-105l-111 130h140z" />
    <glyph glyph-name="Aacute" unicode="&#xc1;" horiz-adv-x="633" 
d="M401 682l212 -682h-138l-54 186h-209l-54 -186h-138l213 682h168zM246 308h140l-67 234h-5zM256 744l76 130h140l-111 -130h-105z" />
    <glyph glyph-name="Acircumflex" unicode="&#xc2;" horiz-adv-x="633" 
d="M401 682l212 -682h-138l-54 186h-209l-54 -186h-138l213 682h168zM246 308h140l-67 234h-5zM168 744l92 130h132l93 -130h-106l-53 63l-53 -63h-105z" />
    <glyph glyph-name="Atilde" unicode="&#xc3;" horiz-adv-x="633" 
d="M401 682l212 -682h-138l-54 186h-209l-54 -186h-138l213 682h168zM246 308h140l-67 234h-5zM397 867h71q0 -5 -0.5 -13.5t-5.5 -30.5q-4 -20 -12 -37q-8 -16 -26 -29.5t-42 -13.5q-29 0 -68 15q-38 16 -46 16q-9 0 -16 -7t-10 -15l-2 -7h-70q0 5 0.5 13.5t4.5 29.5
q2 11 5.5 20.5t7.5 17.5q8 16 26 29.5t42 13.5q26 0 65 -16q40 -15 49 -15t16 7t9 15z" />
    <glyph glyph-name="Adieresis" unicode="&#xc4;" horiz-adv-x="633" 
d="M401 682l212 -682h-138l-54 186h-209l-54 -186h-138l213 682h168zM246 308h140l-67 234h-5zM223 895l82 -81l-82 -81l-81 81zM430 895l82 -81l-82 -81l-81 81z" />
    <glyph glyph-name="Aring" unicode="&#xc5;" horiz-adv-x="633" 
d="M401 682l212 -682h-138l-54 186h-209l-54 -186h-138l213 682h168zM246 308h140l-67 234h-5zM287 836q-15 -12 -12.5 -26.5t13.5 -25t27.5 -12.5t29.5 12q15 12 12.5 26.5t-14 25t-27.5 12t-29 -11.5zM243 745q-29 27 -29 65t29 65q30 27 73 27t72 -27q30 -27 30 -65
t-30 -65q-29 -27 -72 -27t-73 27z" />
    <glyph glyph-name="AE" unicode="&#xc6;" horiz-adv-x="901" 
d="M431 0v187h-202l-78 -187h-136l291 682h532v-121h-281v-156h261v-120h-260v-164h288v-121h-415zM278 310h153v251h-48z" />
    <glyph glyph-name="Ccedilla" unicode="&#xc7;" horiz-adv-x="638" 
d="M593 157v-131q-61 -26 -146 -34l-7 -23q6 -3 15 -8t23 -24q15 -20 15 -44q0 -48 -33.5 -72t-82.5 -24q-18 0 -35.5 3.5t-26.5 7.5l-9 4v75q27 -11 45 -11q14 0 24.5 8t10.5 20q0 16 -13 28.5t-25 17.5l-13 4l17 40q-137 18 -222 114q-85 97 -85 224q0 157 102 258
q102 102 262 102q22 0 44.5 -2t42 -5.5t36 -8t26.5 -8.5l21 -9v-129q-80 40 -168 40q-101 0 -168 -65q-65 -65 -65 -164q0 -100 66 -164q68 -65 170 -65q39 0 86 11q43 10 69 23z" />
    <glyph glyph-name="Egrave" unicode="&#xc8;" horiz-adv-x="584" 
d="M75 0v682h446v-121h-320v-155h300v-121h-300v-164h328v-121h-454zM312 874l76 -130h-105l-111 130h140z" />
    <glyph glyph-name="Eacute" unicode="&#xc9;" horiz-adv-x="584" 
d="M75 0v682h446v-121h-320v-155h300v-121h-300v-164h328v-121h-454zM253 744l76 130h140l-111 -130h-105z" />
    <glyph glyph-name="Ecircumflex" unicode="&#xca;" horiz-adv-x="584" 
d="M75 0v682h446v-121h-320v-155h300v-121h-300v-164h328v-121h-454zM133 744l92 130h132l93 -130h-106l-53 63l-53 -63h-105z" />
    <glyph glyph-name="Edieresis" unicode="&#xcb;" horiz-adv-x="584" 
d="M75 0v682h446v-121h-320v-155h300v-121h-300v-164h328v-121h-454zM188 895l82 -81l-82 -81l-81 81zM395 895l82 -81l-82 -81l-81 81z" />
    <glyph glyph-name="Igrave" unicode="&#xcc;" horiz-adv-x="281" 
d="M206 0h-131v682h131v-682zM133 874l76 -130h-105l-111 130h140z" />
    <glyph glyph-name="Iacute" unicode="&#xcd;" horiz-adv-x="281" 
d="M207 0h-131v682h131v-682zM75 744l76 130h140l-111 -130h-105z" />
    <glyph glyph-name="Icircumflex" unicode="&#xce;" horiz-adv-x="281" 
d="M-18 744l92 130h132l93 -130h-106l-53 63l-53 -63h-105zM206 0h-131v682h131v-682z" />
    <glyph glyph-name="Idieresis" unicode="&#xcf;" horiz-adv-x="281" 
d="M206 0h-131v682h131v-682zM37 895l82 -81l-82 -81l-81 81zM244 895l82 -81l-82 -81l-81 81z" />
    <glyph glyph-name="Eth" unicode="&#xd0;" horiz-adv-x="692" 
d="M20 301v118h60v263h210q162 0 259 -97q98 -98 98 -253q0 -140 -100 -236q-99 -96 -257 -96h-210v301h-60zM210 560v-141h104v-118h-104v-179h75q103 0 166 60t63 159t-62 159t-164 60h-78z" />
    <glyph glyph-name="Ntilde" unicode="&#xd1;" horiz-adv-x="682" 
d="M607 682v-682h-148l-226 419l-33 79h-4l5 -79v-419h-126v682h148l226 -419l33 -79h4l-5 80v418h126zM411 867h71q0 -5 -0.5 -13.5t-5.5 -30.5q-4 -20 -12 -37q-8 -16 -26 -29.5t-42 -13.5q-29 0 -68 15q-38 16 -46 16q-9 0 -16 -7t-10 -15l-2 -7h-70q0 5 0.5 13.5
t4.5 29.5q2 11 5.5 20.5t7.5 17.5q8 16 26 29.5t42 13.5q26 0 65 -16q40 -15 49 -15t16 7t9 15z" />
    <glyph glyph-name="Ograve" unicode="&#xd2;" horiz-adv-x="790" 
d="M147 93q-102 103 -102 249t102 248q103 102 248 102t247 -102q103 -102 103 -248t-103 -249q-102 -103 -247 -103t-248 103zM172 342q0 -93 65 -163q66 -69 158 -69t157 69q66 69 66 163q0 93 -66 161q-65 68 -157 68t-158 -68q-65 -68 -65 -161zM391 874l76 -130h-105
l-111 130h140z" />
    <glyph glyph-name="Oacute" unicode="&#xd3;" horiz-adv-x="790" 
d="M147 93q-102 103 -102 249t102 248q103 102 248 102t247 -102q103 -102 103 -248t-103 -249q-102 -103 -247 -103t-248 103zM172 342q0 -93 65 -163q66 -69 158 -69t157 69q66 69 66 163q0 93 -66 161q-65 68 -157 68t-158 -68q-65 -68 -65 -161zM351 744l76 130h140
l-111 -130h-105z" />
    <glyph glyph-name="Ocircumflex" unicode="&#xd4;" horiz-adv-x="790" 
d="M147 93q-102 103 -102 249t102 248q103 102 248 102t247 -102q103 -102 103 -248t-103 -249q-102 -103 -247 -103t-248 103zM172 342q0 -93 65 -163q66 -69 158 -69t157 69q66 69 66 163q0 93 -66 161q-65 68 -157 68t-158 -68q-65 -68 -65 -161zM236 744l92 130h132
l93 -130h-106l-53 63l-53 -63h-105z" />
    <glyph glyph-name="Otilde" unicode="&#xd5;" horiz-adv-x="790" 
d="M147 93q-102 103 -102 249t102 248q103 102 248 102t247 -102q103 -102 103 -248t-103 -249q-102 -103 -247 -103t-248 103zM172 342q0 -93 65 -163q66 -69 158 -69t157 69q66 69 66 163q0 93 -66 161q-65 68 -157 68t-158 -68q-65 -68 -65 -161zM465 867h71
q0 -5 -0.5 -13.5t-5.5 -30.5q-4 -20 -12 -37q-8 -16 -26 -29.5t-42 -13.5q-29 0 -68 15q-38 16 -46 16q-9 0 -16 -7t-10 -15l-2 -7h-70q0 5 0.5 13.5t4.5 29.5q2 11 5.5 20.5t7.5 17.5q8 16 26 29.5t42 13.5q26 0 65 -16q40 -15 49 -15t16 7t9 15z" />
    <glyph glyph-name="Odieresis" unicode="&#xd6;" horiz-adv-x="790" 
d="M147 93q-102 103 -102 249t102 248q103 102 248 102t247 -102q103 -102 103 -248t-103 -249q-102 -103 -247 -103t-248 103zM172 342q0 -93 65 -163q66 -69 158 -69t157 69q66 69 66 163q0 93 -66 161q-65 68 -157 68t-158 -68q-65 -68 -65 -161zM291 895l82 -81l-82 -81
l-81 81zM498 895l82 -81l-82 -81l-81 81z" />
    <glyph glyph-name="multiply" unicode="&#xd7;" horiz-adv-x="513" 
d="M150 87l-81 81l106 106l-110 110l81 82l110 -111l110 111l82 -82l-111 -110l107 -107l-81 -81l-107 107z" />
    <glyph glyph-name="Oslash" unicode="&#xd8;" horiz-adv-x="791" 
d="M118 39l35 50q-108 102 -108 253q0 145 102 247q103 103 248 103q85 0 156 -36l32 46l82 -56l-32 -48q113 -105 113 -256q0 -146 -103 -249q-104 -102 -248 -102q-85 0 -160 39l-34 -48zM618 342q0 87 -58 151l-255 -363q48 -19 89 -19q92 0 158 69t66 162zM172 342
q0 -85 56 -147l253 358q-47 18 -85 18q-92 0 -158 -68t-66 -161z" />
    <glyph glyph-name="Ugrave" unicode="&#xd9;" horiz-adv-x="671" 
d="M601 682v-437q0 -105 -80 -180t-185 -75q-106 0 -186 74t-80 180v438h126v-418q0 -66 41 -110q40 -43 100 -43q55 0 96 42q41 44 41 111v418h127zM333 874l76 -130h-105l-111 130h140z" />
    <glyph glyph-name="Uacute" unicode="&#xda;" horiz-adv-x="671" 
d="M601 682v-437q0 -105 -80 -180t-185 -75q-106 0 -186 74t-80 180v438h126v-418q0 -66 41 -110q40 -43 100 -43q55 0 96 42q41 44 41 111v418h127zM282 744l76 130h140l-111 -130h-105z" />
    <glyph glyph-name="Ucircumflex" unicode="&#xdb;" horiz-adv-x="671" 
d="M601 682v-437q0 -105 -80 -180t-185 -75q-106 0 -186 74t-80 180v438h126v-418q0 -66 41 -110q40 -43 100 -43q55 0 96 42q41 44 41 111v418h127zM177 744l92 130h132l93 -130h-106l-53 63l-53 -63h-105z" />
    <glyph glyph-name="Udieresis" unicode="&#xdc;" horiz-adv-x="671" 
d="M601 682v-437q0 -105 -80 -180t-185 -75q-106 0 -186 74t-80 180v438h126v-418q0 -66 41 -110q40 -43 100 -43q55 0 96 42q41 44 41 111v418h127zM231 895l82 -81l-82 -81l-81 81zM438 895l82 -81l-82 -81l-81 81z" />
    <glyph glyph-name="Yacute" unicode="&#xdd;" horiz-adv-x="593" 
d="M231 277l-226 405h144l146 -284h4l146 284h143l-226 -405v-277h-131v277zM247 744l76 130h140l-111 -130h-105z" />
    <glyph glyph-name="Thorn" unicode="&#xde;" horiz-adv-x="578" 
d="M203 119v-119h-128v682h128v-128h127q97 0 160 -60t63 -157t-63 -158q-63 -60 -161 -60h-126zM203 433v-194h120q48 0 75 28t27 70t-27 69t-75 27h-120z" />
    <glyph glyph-name="germandbls" unicode="&#xdf;" horiz-adv-x="642" 
d="M35 382v108h51v152l99 104q60 63 154 63q78 0 133 -55q56 -54 56 -126q0 -42 -19 -75.5t-41 -51.5t-41 -39t-19 -40q0 -15 11.5 -30t29.5 -30t39.5 -31t41.5 -33q28 -24 47.5 -61.5t19.5 -82.5q0 -71 -52 -117q-53 -45 -139 -45q-42 0 -75.5 7t-46.5 15l-14 7v123
q63 -36 127 -36q30 0 52 15.5t22 43.5q0 25 -31 53q-31 31 -67 54q-36 25 -67 64q-30 39 -30 81q0 40 20.5 73t44.5 52t44.5 44t20.5 51q0 27 -22 44.5t-52 17.5q-39 0 -70 -34l-54 -58v-609h-122v382h-51z" />
    <glyph glyph-name="agrave" unicode="&#xe0;" horiz-adv-x="543" 
d="M517 65l-80 -85l-67 55q-7 -5 -20 -12.5t-52 -20.5q-39 -12 -76 -12q-41 0 -74.5 12t-57.5 33.5t-37 51.5t-13 66q0 72 52 118t149 46q26 0 51.5 -5.5t37.5 -11.5l13 -5q0 48 -26.5 72.5t-72.5 24.5q-31 0 -68 -9.5t-59 -18.5l-22 -10v114q75 32 159 32q210 0 210 -195
v-191zM343 130v70q-43 23 -97 23q-38 0 -58 -18t-20 -45t21.5 -43.5t55.5 -16.5q28 0 52.5 7.5t34.5 14.5zM262 682l76 -130h-105l-111 130h140z" />
    <glyph glyph-name="aacute" unicode="&#xe1;" horiz-adv-x="543" 
d="M517 65l-80 -85l-67 55q-7 -5 -20 -12.5t-52 -20.5q-39 -12 -76 -12q-41 0 -74.5 12t-57.5 33.5t-37 51.5t-13 66q0 72 52 118t149 46q26 0 51.5 -5.5t37.5 -11.5l13 -5q0 48 -26.5 72.5t-72.5 24.5q-31 0 -68 -9.5t-59 -18.5l-22 -10v114q75 32 159 32q210 0 210 -195
v-191zM343 130v70q-43 23 -97 23q-38 0 -58 -18t-20 -45t21.5 -43.5t55.5 -16.5q28 0 52.5 7.5t34.5 14.5zM213 552l76 130h140l-111 -130h-105z" />
    <glyph glyph-name="acircumflex" unicode="&#xe2;" horiz-adv-x="543" 
d="M517 65l-80 -85l-67 55q-7 -5 -20 -12.5t-52 -20.5q-39 -12 -76 -12q-41 0 -74.5 12t-57.5 33.5t-37 51.5t-13 66q0 72 52 118t149 46q26 0 51.5 -5.5t37.5 -11.5l13 -5q0 48 -26.5 72.5t-72.5 24.5q-31 0 -68 -9.5t-59 -18.5l-22 -10v114q75 32 159 32q210 0 210 -195
v-191zM343 130v70q-43 23 -97 23q-38 0 -58 -18t-20 -45t21.5 -43.5t55.5 -16.5q28 0 52.5 7.5t34.5 14.5zM107 552l92 130h132l93 -130h-106l-53 63l-53 -63h-105z" />
    <glyph glyph-name="atilde" unicode="&#xe3;" horiz-adv-x="543" 
d="M517 65l-80 -85l-67 55q-7 -5 -20 -12.5t-52 -20.5q-39 -12 -76 -12q-41 0 -74.5 12t-57.5 33.5t-37 51.5t-13 66q0 72 52 118t149 46q26 0 51.5 -5.5t37.5 -11.5l13 -5q0 48 -26.5 72.5t-72.5 24.5q-31 0 -68 -9.5t-59 -18.5l-22 -10v114q75 32 159 32q210 0 210 -195
v-191zM343 130v70q-43 23 -97 23q-38 0 -58 -18t-20 -45t21.5 -43.5t55.5 -16.5q28 0 52.5 7.5t34.5 14.5zM343 675h71q0 -5 -0.5 -13.5t-5.5 -30.5q-4 -20 -12 -37q-8 -16 -26 -29.5t-42 -13.5q-29 0 -68 15q-38 16 -46 16q-9 0 -16 -7t-10 -15l-2 -7h-70q0 5 0.5 13.5
t4.5 29.5q2 11 5.5 20.5t7.5 17.5q8 16 26 29.5t42 13.5q26 0 65 -16q40 -15 49 -15t16 7t9 15z" />
    <glyph glyph-name="adieresis" unicode="&#xe4;" horiz-adv-x="543" 
d="M517 65l-80 -85l-67 55q-7 -5 -20 -12.5t-52 -20.5q-39 -12 -76 -12q-41 0 -74.5 12t-57.5 33.5t-37 51.5t-13 66q0 72 52 118t149 46q26 0 51.5 -5.5t37.5 -11.5l13 -5q0 48 -26.5 72.5t-72.5 24.5q-31 0 -68 -9.5t-59 -18.5l-22 -10v114q75 32 159 32q210 0 210 -195
v-191zM343 130v70q-43 23 -97 23q-38 0 -58 -18t-20 -45t21.5 -43.5t55.5 -16.5q28 0 52.5 7.5t34.5 14.5zM158 703l82 -81l-82 -81l-81 81zM365 703l82 -81l-82 -81l-81 81z" />
    <glyph glyph-name="aring" unicode="&#xe5;" horiz-adv-x="543" 
d="M517 65l-80 -85l-67 55q-7 -5 -20 -12.5t-52 -20.5q-39 -12 -76 -12q-41 0 -74.5 12t-57.5 33.5t-37 51.5t-13 66q0 72 52 118t149 46q26 0 51.5 -5.5t37.5 -11.5l13 -5q0 48 -26.5 72.5t-72.5 24.5q-31 0 -68 -9.5t-59 -18.5l-22 -10v114q75 32 159 32q210 0 210 -195
v-191zM343 130v70q-43 23 -97 23q-38 0 -58 -18t-20 -45t21.5 -43.5t55.5 -16.5q28 0 52.5 7.5t34.5 14.5zM221 644q-15 -12 -12.5 -26.5t13.5 -25t27.5 -12.5t29.5 12q15 12 12.5 26.5t-14 25t-27.5 12t-29 -11.5zM177 553q-29 27 -29 65t29 65q30 27 73 27t72 -27
q30 -27 30 -65t-30 -65q-29 -27 -72 -27t-73 27z" />
    <glyph glyph-name="ae" unicode="&#xe6;" horiz-adv-x="839" 
d="M796 197h-331q15 -45 49 -72.5t85 -27.5q18 0 37 3t36 7.5t31 9.5t23 10l18 10v-113q-55 -34 -146 -34q-107 0 -181 71q-89 -71 -195 -71q-41 0 -74.5 12t-57.5 33.5t-37 51.5t-13 66t13 66t38.5 51.5t61.5 34t83 12.5q28 0 55 -5.5t39 -11.5l13 -5q0 48 -26.5 72.5
t-72.5 24.5q-31 0 -68 -9.5t-59 -18.5l-22 -10v114q75 32 159 32q120 0 170 -62q68 62 157 62q96 0 159 -63q64 -63 64 -161q0 -17 -2 -37t-4 -31zM586 396q-49 0 -81.5 -28.5t-39.5 -76.5h228q0 25 -8.5 44.5t-23.5 33t-34.5 20.5t-40.5 7zM245 100q60 0 116 42
q-8 19 -18 58q-43 23 -97 23q-38 0 -58 -18t-20 -45t21.5 -43.5t55.5 -16.5z" />
    <glyph glyph-name="ccedilla" unicode="&#xe7;" horiz-adv-x="478" 
d="M438 138v-112q-41 -24 -100 -32l-8 -25q6 -3 15 -8t23 -24q15 -20 15 -44q0 -48 -33.5 -72t-82.5 -24q-18 0 -35.5 3.5t-26.5 7.5l-9 4v75q27 -11 45 -11q14 0 24.5 8t10.5 20q0 16 -13 28.5t-25 17.5l-13 4l17 41q-91 16 -149 86t-58 164q0 107 74 181t184 74
q37 0 71 -9t50 -18l16 -9v-111q-59 36 -130 36q-63 0 -103 -42q-41 -43 -41 -102t41 -103q40 -42 104 -42q31 0 65.5 9.5t53.5 18.5z" />
    <glyph glyph-name="egrave" unicode="&#xe8;" horiz-adv-x="544" 
d="M501 197h-341q15 -45 51.5 -72.5t87.5 -27.5q37 0 74.5 10t56.5 20l19 10v-113q-61 -34 -151 -34q-117 0 -190 75q-73 74 -73 179q0 108 72 182t174 74q98 0 162 -64q66 -63 66 -160q0 -17 -2 -37t-4 -31zM286 396q-49 0 -83.5 -28.5t-45.5 -76.5h241q0 49 -34 77t-78 28
zM272 682l76 -130h-105l-111 130h140z" />
    <glyph glyph-name="eacute" unicode="&#xe9;" horiz-adv-x="544" 
d="M501 197h-341q15 -45 51.5 -72.5t87.5 -27.5q37 0 74.5 10t56.5 20l19 10v-113q-61 -34 -151 -34q-117 0 -190 75q-73 74 -73 179q0 108 72 182t174 74q98 0 162 -64q66 -63 66 -160q0 -17 -2 -37t-4 -31zM286 396q-49 0 -83.5 -28.5t-45.5 -76.5h241q0 49 -34 77t-78 28
zM224 552l76 130h140l-111 -130h-105z" />
    <glyph glyph-name="ecircumflex" unicode="&#xea;" horiz-adv-x="544" 
d="M501 197h-341q15 -45 51.5 -72.5t87.5 -27.5q37 0 74.5 10t56.5 20l19 10v-113q-61 -34 -151 -34q-117 0 -190 75q-73 74 -73 179q0 108 72 182t174 74q98 0 162 -64q66 -63 66 -160q0 -17 -2 -37t-4 -31zM286 396q-49 0 -83.5 -28.5t-45.5 -76.5h241q0 49 -34 77t-78 28
zM125 552l92 130h132l93 -130h-106l-53 63l-53 -63h-105z" />
    <glyph glyph-name="edieresis" unicode="&#xeb;" horiz-adv-x="544" 
d="M501 197h-341q15 -45 51.5 -72.5t87.5 -27.5q37 0 74.5 10t56.5 20l19 10v-113q-61 -34 -151 -34q-117 0 -190 75q-73 74 -73 179q0 108 72 182t174 74q98 0 162 -64q66 -63 66 -160q0 -17 -2 -37t-4 -31zM286 396q-49 0 -83.5 -28.5t-45.5 -76.5h241q0 49 -34 77t-78 28
zM177 703l82 -81l-82 -81l-81 81zM384 703l82 -81l-82 -81l-81 81z" />
    <glyph glyph-name="igrave" unicode="&#xec;" horiz-adv-x="271" 
d="M75 58v432h121v-377l49 -45l-69 -87zM120 682l76 -130h-105l-111 130h140z" />
    <glyph glyph-name="iacute" unicode="&#xed;" horiz-adv-x="271" 
d="M70 58v432h121v-377l49 -45l-69 -87zM71 552l76 130h140l-111 -130h-105z" />
    <glyph glyph-name="icircumflex" unicode="&#xee;" horiz-adv-x="271" 
d="M-20 552l92 130h132l93 -130h-106l-53 63l-53 -63h-105zM75 58v432h121v-377l49 -45l-69 -87z" />
    <glyph glyph-name="idieresis" unicode="&#xef;" horiz-adv-x="271" 
d="M75 58v432h121v-377l49 -45l-69 -87zM34 703l82 -81l-82 -81l-81 81zM241 703l82 -81l-82 -81l-81 81z" />
    <glyph glyph-name="eth" unicode="&#xf0;" horiz-adv-x="597" 
d="M243 822q36 -16 71 -42q36 -26 54 -45l19 -19l105 52l44 -90l-85 -41q101 -175 101 -353q0 -138 -74 -215t-187 -77q-108 0 -182 73q-74 74 -74 180q0 104 72 178q74 74 172 74q34 0 62.5 -7.5t40.5 -15.5l11 -7q-4 19 -23 58q-17 37 -32 57l-107 -51l-44 89l85 40
q-27 36 -94 67zM430 245q0 59 -41 100t-98 41q-58 0 -98 -42q-41 -41 -41 -99q0 -57 41 -100q40 -42 98 -42q57 0 98 42q41 43 41 100z" />
    <glyph glyph-name="ntilde" unicode="&#xf1;" horiz-adv-x="572" 
d="M98 510l78 -58q58 45 122 45q88 0 139.5 -49t55.5 -130l14 -318h-118l-11 297q-1 45 -25.5 69t-61.5 24q-21 0 -44.5 -8t-36.5 -16l-12 -8v-358h-121v380l-47 45zM356 675h71q0 -5 -0.5 -13.5t-5.5 -30.5q-4 -20 -12 -37q-8 -16 -26 -29.5t-42 -13.5q-29 0 -68 15
q-38 16 -46 16q-9 0 -16 -7t-9 -15l-3 -7h-70q0 5 0.5 13.5t4.5 29.5q2 11 5.5 20.5t7.5 17.5q8 16 26 29.5t42 13.5q26 0 65 -16q40 -15 49 -15t16 7t9 15z" />
    <glyph glyph-name="ograve" unicode="&#xf2;" horiz-adv-x="581" 
d="M546 246q0 -107 -75 -182q-74 -74 -181 -74q-105 0 -181 74q-74 76 -74 182t74 180q76 74 181 74q107 0 181 -74q75 -74 75 -180zM290 390q-57 0 -97 -42q-39 -42 -39 -102t39 -103q39 -42 97 -42t97 42q39 43 39 103t-39 102t-97 42zM289 682l76 -130h-105l-111 130h140
z" />
    <glyph glyph-name="oacute" unicode="&#xf3;" horiz-adv-x="581" 
d="M546 246q0 -107 -75 -182q-74 -74 -181 -74q-105 0 -181 74q-74 76 -74 182t74 180q76 74 181 74q107 0 181 -74q75 -74 75 -180zM290 390q-57 0 -97 -42q-39 -42 -39 -102t39 -103q39 -42 97 -42t97 42q39 43 39 103t-39 102t-97 42zM242 552l76 130h140l-111 -130h-105
z" />
    <glyph glyph-name="ocircumflex" unicode="&#xf4;" horiz-adv-x="581" 
d="M546 246q0 -107 -75 -182q-74 -74 -181 -74q-105 0 -181 74q-74 76 -74 182t74 180q76 74 181 74q107 0 181 -74q75 -74 75 -180zM290 390q-57 0 -97 -42q-39 -42 -39 -102t39 -103q39 -42 97 -42t97 42q39 43 39 103t-39 102t-97 42zM132 552l92 130h132l93 -130h-106
l-53 63l-53 -63h-105z" />
    <glyph glyph-name="otilde" unicode="&#xf5;" horiz-adv-x="581" 
d="M546 246q0 -107 -75 -182q-74 -74 -181 -74q-105 0 -181 74q-74 76 -74 182t74 180q76 74 181 74q107 0 181 -74q75 -74 75 -180zM290 390q-57 0 -97 -42q-39 -42 -39 -102t39 -103q39 -42 97 -42t97 42q39 43 39 103t-39 102t-97 42zM360 675h71q0 -5 -0.5 -13.5
t-5.5 -30.5q-4 -20 -12 -37q-8 -16 -26 -29.5t-42 -13.5q-29 0 -68 15q-38 16 -46 16q-9 0 -16 -7t-9 -15l-3 -7h-70q0 5 0.5 13.5t4.5 29.5q2 11 5.5 20.5t7.5 17.5q8 16 26 29.5t42 13.5q26 0 65 -16q40 -15 49 -15t16 7t9 15z" />
    <glyph glyph-name="odieresis" unicode="&#xf6;" horiz-adv-x="581" 
d="M546 246q0 -107 -75 -182q-74 -74 -181 -74q-105 0 -181 74q-74 76 -74 182t74 180q76 74 181 74q107 0 181 -74q75 -74 75 -180zM290 390q-57 0 -97 -42q-39 -42 -39 -102t39 -103q39 -42 97 -42t97 42q39 43 39 103t-39 102t-97 42zM186 703l82 -81l-82 -81l-81 81z
M393 703l82 -81l-82 -81l-81 81z" />
    <glyph glyph-name="divide" unicode="&#xf7;" horiz-adv-x="551" 
d="M336 504v-123h-128v123h128zM486 328v-106h-421v106h421zM336 175v-123h-128v123h128z" />
    <glyph glyph-name="oslash" unicode="&#xf8;" horiz-adv-x="582" 
d="M78 14l33 47q-76 73 -76 184q0 107 74 181q76 74 181 74q60 0 110 -26l31 45l71 -50l-30 -44q75 -75 75 -180q0 -106 -75 -181q-76 -74 -182 -74q-57 0 -109 23l-33 -49zM154 245q0 -45 26 -86l156 222q-26 9 -46 9q-57 0 -97 -43q-39 -42 -39 -102zM426 245q0 48 -24 83
l-155 -221q16 -6 43 -6q58 0 97 42q39 43 39 102z" />
    <glyph glyph-name="ugrave" unicode="&#xf9;" horiz-adv-x="571" 
d="M473 -20l-78 58q-59 -45 -127 -45q-89 0 -147 50q-56 50 -56 129v318h120v-297q0 -45 25 -69t62 -24q24 0 49.5 8t38.5 16l13 9v357h121v-380l47 -45zM258 682l76 -130h-105l-111 130h140z" />
    <glyph glyph-name="uacute" unicode="&#xfa;" horiz-adv-x="571" 
d="M473 -20l-78 58q-59 -45 -127 -45q-89 0 -147 50q-56 50 -56 129v318h120v-297q0 -45 25 -69t62 -24q24 0 49.5 8t38.5 16l13 9v357h121v-380l47 -45zM213 552l76 130h140l-111 -130h-105z" />
    <glyph glyph-name="ucircumflex" unicode="&#xfb;" horiz-adv-x="571" 
d="M473 -20l-78 58q-59 -45 -127 -45q-89 0 -147 50q-56 50 -56 129v318h120v-297q0 -45 25 -69t62 -24q24 0 49.5 8t38.5 16l13 9v357h121v-380l47 -45zM123 552l92 130h132l93 -130h-106l-53 63l-53 -63h-105z" />
    <glyph glyph-name="udieresis" unicode="&#xfc;" horiz-adv-x="571" 
d="M473 -20l-78 58q-59 -45 -127 -45q-89 0 -147 50q-56 50 -56 129v318h120v-297q0 -45 25 -69t62 -24q24 0 49.5 8t38.5 16l13 9v357h121v-380l47 -45zM178 703l82 -81l-82 -81l-81 81zM385 703l82 -81l-82 -81l-81 81z" />
    <glyph glyph-name="yacute" unicode="&#xfd;" horiz-adv-x="533" 
d="M398 490h130l-197 -593l-116 -159l-86 65l89 133l23 64h-50l-135 371l-56 54l66 82l88 -66l118 -331h4zM217 552l76 130h140l-111 -130h-105z" />
    <glyph glyph-name="thorn" unicode="&#xfe;" horiz-adv-x="561" 
d="M195 805l1 -337q37 27 94 27q106 0 170 -73q66 -72 66 -179q0 -106 -68 -180q-67 -73 -170 -73q-24 0 -47 6.5t-34 13.5l-11 6v-266h-121v1055h120zM270 387q-43 0 -74 -19v-248q31 -21 74 -21q57 0 98 42q41 43 41 102q0 61 -40 102q-41 42 -99 42z" />
    <glyph glyph-name="ydieresis" unicode="&#xff;" horiz-adv-x="533" 
d="M398 490h130l-197 -593l-116 -159l-86 65l89 133l23 64h-50l-135 371l-56 54l66 82l88 -66l118 -331h4zM162 703l82 -81l-82 -81l-81 81zM369 703l82 -81l-82 -81l-81 81z" />
    <glyph glyph-name="Amacron" unicode="&#x100;" horiz-adv-x="633" 
d="M401 682l212 -682h-138l-54 186h-209l-54 -186h-138l213 682h168zM246 308h140l-67 234h-5zM447 856v-95h-262v95h262z" />
    <glyph glyph-name="amacron" unicode="&#x101;" horiz-adv-x="543" 
d="M517 65l-80 -85l-67 55q-7 -5 -20 -12.5t-52 -20.5q-39 -12 -76 -12q-41 0 -74.5 12t-57.5 33.5t-37 51.5t-13 66q0 72 52 118t149 46q26 0 51.5 -5.5t37.5 -11.5l13 -5q0 48 -26.5 72.5t-72.5 24.5q-31 0 -68 -9.5t-59 -18.5l-22 -10v114q75 32 159 32q210 0 210 -195
v-191zM343 130v70q-43 23 -97 23q-38 0 -58 -18t-20 -45t21.5 -43.5t55.5 -16.5q28 0 52.5 7.5t34.5 14.5zM391 664v-95h-262v95h262z" />
    <glyph glyph-name="Abreve" unicode="&#x102;" horiz-adv-x="633" 
d="M401 682l212 -682h-138l-54 186h-209l-54 -186h-138l213 682h168zM246 308h140l-67 234h-5zM371 874h95q0 -5 -1.5 -14t-10.5 -32q-9 -21 -23 -39q-14 -17 -44 -31t-69 -14q-43 0 -71 13.5t-45 32t-24.5 38.5t-9.5 32l-1 14h94q4 -14 11 -25q6 -10 17 -17.5t30 -7.5
t32 12.5t17 25.5z" />
    <glyph glyph-name="abreve" unicode="&#x103;" horiz-adv-x="543" 
d="M517 65l-80 -85l-67 55q-7 -5 -20 -12.5t-52 -20.5q-39 -12 -76 -12q-41 0 -74.5 12t-57.5 33.5t-37 51.5t-13 66q0 72 52 118t149 46q26 0 51.5 -5.5t37.5 -11.5l13 -5q0 48 -26.5 72.5t-72.5 24.5q-31 0 -68 -9.5t-59 -18.5l-22 -10v114q75 32 159 32q210 0 210 -195
v-191zM343 130v70q-43 23 -97 23q-38 0 -58 -18t-20 -45t21.5 -43.5t55.5 -16.5q28 0 52.5 7.5t34.5 14.5zM315 682h95q0 -5 -1.5 -14t-10.5 -32q-9 -21 -23 -39q-14 -17 -44 -31t-69 -14q-43 0 -71 13.5t-45 32t-24.5 38.5t-9.5 32l-1 14h94q4 -14 11 -25q6 -10 17 -17.5
t30 -7.5t32 12.5t17 25.5z" />
    <glyph glyph-name="Aogonek" unicode="&#x104;" horiz-adv-x="633" 
d="M246 308h140l-67 234h-5zM518 0h-43l-54 186h-209l-54 -186h-138l213 682h168l211 -682q-61 -42 -61 -70q0 -15 9.5 -24t23.5 -9q9 0 24.5 3.5t26.5 7.5l11 4v-92q-45 -19 -86 -19q-51 0 -80 25.5t-29 67.5q0 12 4.5 25.5t12 26t16 23t17.5 17.5z" />
    <glyph glyph-name="aogonek" unicode="&#x105;" horiz-adv-x="543" 
d="M517 65l-64 -68q-45 -50 -45 -74q0 -11 9.5 -18.5t23.5 -7.5q9 0 24.5 3.5t26.5 7.5l11 4v-92q-45 -19 -86 -19q-51 0 -80 25.5t-29 67.5q0 25 21 57q22 31 43 49l22 18l-24 17q-7 -5 -20 -12.5t-52 -20.5q-39 -12 -76 -12q-41 0 -74.5 12t-57.5 33.5t-37 51.5t-13 66
q0 72 52 118t149 46q26 0 51.5 -5.5t37.5 -11.5l13 -5q0 48 -26.5 72.5t-72.5 24.5q-31 0 -68 -9.5t-59 -18.5l-22 -10v114q75 32 159 32q210 0 210 -195v-191zM343 130v70q-43 23 -97 23q-38 0 -58 -18t-20 -45t21.5 -43.5t55.5 -16.5q28 0 52.5 7.5t34.5 14.5z" />
    <glyph glyph-name="Cacute" unicode="&#x106;" horiz-adv-x="638" 
d="M593 157v-131q-83 -36 -184 -36q-157 0 -261 101q-103 100 -103 241q0 157 102 258q102 102 262 102q22 0 44.5 -2t42 -5.5t36 -8t26.5 -8.5l21 -9v-129q-80 40 -168 40q-101 0 -168 -65q-65 -65 -65 -164q0 -100 66 -164q68 -65 170 -65q39 0 86 11q43 10 69 23z
M339 744l76 130h140l-111 -130h-105z" />
    <glyph glyph-name="cacute" unicode="&#x107;" horiz-adv-x="478" 
d="M438 138v-112q-62 -36 -146 -36q-110 0 -184 74q-73 73 -73 181q0 107 74 181t184 74q37 0 71 -9t50 -18l16 -9v-111q-59 36 -130 36q-63 0 -103 -42q-41 -43 -41 -102t41 -103q40 -42 104 -42q31 0 65.5 9.5t53.5 18.5zM234 552l76 130h140l-111 -130h-105z" />
    <glyph glyph-name="Ccircumflex" unicode="&#x108;" horiz-adv-x="638" 
d="M593 157v-131q-83 -36 -184 -36q-157 0 -261 101q-103 100 -103 241q0 157 102 258q102 102 262 102q22 0 44.5 -2t42 -5.5t36 -8t26.5 -8.5l21 -9v-129q-80 40 -168 40q-101 0 -168 -65q-65 -65 -65 -164q0 -100 66 -164q68 -65 170 -65q39 0 86 11q43 10 69 23z
M251 744l92 130h132l93 -130h-106l-53 63l-53 -63h-105z" />
    <glyph glyph-name="ccircumflex" unicode="&#x109;" horiz-adv-x="478" 
d="M438 138v-112q-62 -36 -146 -36q-110 0 -184 74q-73 73 -73 181q0 107 74 181t184 74q37 0 71 -9t50 -18l16 -9v-111q-59 36 -130 36q-63 0 -103 -42q-41 -43 -41 -102t41 -103q40 -42 104 -42q31 0 65.5 9.5t53.5 18.5zM135 552l92 130h132l93 -130h-106l-53 63l-53 -63
h-105z" />
    <glyph glyph-name="Cdotaccent" unicode="&#x10a;" horiz-adv-x="638" 
d="M593 157v-131q-83 -36 -184 -36q-157 0 -261 101q-103 100 -103 241q0 157 102 258q102 102 262 102q22 0 44.5 -2t42 -5.5t36 -8t26.5 -8.5l21 -9v-129q-80 40 -168 40q-101 0 -168 -65q-65 -65 -65 -164q0 -100 66 -164q68 -65 170 -65q39 0 86 11q43 10 69 23z
M408 895l82 -81l-82 -81l-81 81z" />
    <glyph glyph-name="cdotaccent" unicode="&#x10b;" horiz-adv-x="478" 
d="M438 138v-112q-62 -36 -146 -36q-110 0 -184 74q-73 73 -73 181q0 107 74 181t184 74q37 0 71 -9t50 -18l16 -9v-111q-59 36 -130 36q-63 0 -103 -42q-41 -43 -41 -102t41 -103q40 -42 104 -42q31 0 65.5 9.5t53.5 18.5zM292 703l82 -81l-82 -81l-81 81z" />
    <glyph glyph-name="Ccaron" unicode="&#x10c;" horiz-adv-x="638" 
d="M593 157v-131q-83 -36 -184 -36q-157 0 -261 101q-103 100 -103 241q0 157 102 258q102 102 262 102q22 0 44.5 -2t42 -5.5t36 -8t26.5 -8.5l21 -9v-129q-80 40 -168 40q-101 0 -168 -65q-65 -65 -65 -164q0 -100 66 -164q68 -65 170 -65q39 0 86 11q43 10 69 23z
M339 744l-92 130h105l53 -63l53 63h106l-93 -130h-132z" />
    <glyph glyph-name="ccaron" unicode="&#x10d;" horiz-adv-x="478" 
d="M438 138v-112q-62 -36 -146 -36q-110 0 -184 74q-73 73 -73 181q0 107 74 181t184 74q37 0 71 -9t50 -18l16 -9v-111q-59 36 -130 36q-63 0 -103 -42q-41 -43 -41 -102t41 -103q40 -42 104 -42q31 0 65.5 9.5t53.5 18.5zM222 552l-92 130h105l53 -63l53 63h106l-93 -130
h-132z" />
    <glyph glyph-name="Dcaron" unicode="&#x10e;" horiz-adv-x="687" 
d="M75 0v682h210q162 0 259 -97q98 -98 98 -253q0 -140 -100 -236q-99 -96 -257 -96h-210zM205 560v-438h75q103 0 166 60t63 159t-62 159t-164 60h-78zM241 744l-92 130h105l53 -63l53 63h106l-93 -130h-132z" />
    <glyph glyph-name="dcaron" unicode="&#x10f;" horiz-adv-x="714" 
d="M465 -18l-67 50q-61 -40 -125 -40q-107 0 -173 72q-65 74 -65 180t68 180q67 73 170 73q24 0 47 -6.5t34 -12.5l11 -7v334h121v-691l49 -44zM291 100q43 0 74 19v248q-32 21 -74 21q-59 0 -99 -42q-40 -41 -40 -102t40 -102q40 -42 99 -42zM744 805l-71 -189h-102l32 189
h141z" />
    <glyph glyph-name="Dcroat" unicode="&#x110;" horiz-adv-x="692" 
d="M15 287v118h65v277h210q162 0 259 -97q98 -98 98 -253q0 -140 -100 -236q-99 -96 -257 -96h-210v287h-65zM210 560v-155h120v-118h-120v-165h75q103 0 166 60t63 159t-62 159t-164 60h-78z" />
    <glyph glyph-name="dcroat" unicode="&#x111;" 
d="M249 587v94h116v124h121v-124h53v-94h-53v-473l49 -44l-70 -88l-67 50q-61 -40 -125 -40q-107 0 -173 72q-65 74 -65 180t68 180q67 73 170 73q24 0 47 -6.5t34 -12.5l11 -7v116h-116zM291 100q43 0 74 19v248q-32 21 -74 21q-59 0 -99 -42q-40 -41 -40 -102t40 -102
q40 -42 99 -42z" />
    <glyph glyph-name="Emacron" unicode="&#x112;" horiz-adv-x="584" 
d="M75 0v682h446v-121h-320v-155h300v-121h-300v-164h328v-121h-454zM423 856v-95h-262v95h262z" />
    <glyph glyph-name="emacron" unicode="&#x113;" horiz-adv-x="544" 
d="M501 197h-341q15 -45 51.5 -72.5t87.5 -27.5q37 0 74.5 10t56.5 20l19 10v-113q-61 -34 -151 -34q-117 0 -190 75q-73 74 -73 179q0 108 72 182t174 74q98 0 162 -64q66 -63 66 -160q0 -17 -2 -37t-4 -31zM286 396q-49 0 -83.5 -28.5t-45.5 -76.5h241q0 49 -34 77t-78 28
zM416 664v-95h-262v95h262z" />
    <glyph glyph-name="Ebreve" unicode="&#x114;" horiz-adv-x="584" 
d="M356 874h95q0 -5 -1.5 -14t-10.5 -32q-9 -21 -23 -39q-14 -17 -44 -31t-69 -14q-43 0 -71 13.5t-45 32t-24.5 38.5t-8.5 32l-2 14h94q4 -14 11 -25q6 -10 17 -17.5t30 -7.5t32 12.5t16 25.5zM75 0v682h446v-121h-320v-155h300v-121h-300v-164h328v-121h-454z" />
    <glyph glyph-name="ebreve" unicode="&#x115;" horiz-adv-x="544" 
d="M501 197h-341q15 -45 51.5 -72.5t87.5 -27.5q37 0 74.5 10t56.5 20l19 10v-113q-61 -34 -151 -34q-117 0 -190 75q-73 74 -73 179q0 108 72 182t174 74q98 0 162 -64q66 -63 66 -160q0 -17 -2 -37t-4 -31zM286 396q-49 0 -83.5 -28.5t-45.5 -76.5h241q0 49 -34 77t-78 28
zM338 682h95q0 -5 -1.5 -14t-10.5 -32q-9 -21 -23 -39q-14 -17 -44 -31t-69 -14q-43 0 -71 13.5t-45 32t-24.5 38.5t-8.5 32l-2 14h94q4 -14 11 -25q6 -10 17 -17.5t30 -7.5t32 12.5t16 25.5z" />
    <glyph glyph-name="Edotaccent" unicode="&#x116;" horiz-adv-x="584" 
d="M75 0v682h446v-121h-320v-155h300v-121h-300v-164h328v-121h-454zM303 895l82 -81l-82 -81l-81 81z" />
    <glyph glyph-name="edotaccent" unicode="&#x117;" horiz-adv-x="544" 
d="M501 197h-341q15 -45 51.5 -72.5t87.5 -27.5q37 0 74.5 10t56.5 20l19 10v-113q-61 -34 -151 -34q-117 0 -190 75q-73 74 -73 179q0 108 72 182t174 74q98 0 162 -64q66 -63 66 -160q0 -17 -2 -37t-4 -31zM286 396q-49 0 -83.5 -28.5t-45.5 -76.5h241q0 49 -34 77t-78 28
zM283 703l82 -81l-82 -81l-81 81z" />
    <glyph glyph-name="Eogonek" unicode="&#x118;" horiz-adv-x="584" 
d="M435 0h-360v682h446v-121h-320v-155h300v-121h-300v-164h328v-121q-61 -42 -61 -70q0 -15 9.5 -24t23.5 -9q9 0 24.5 3.5t26.5 7.5l11 4v-92q-45 -19 -86 -19q-51 0 -80 25.5t-29 67.5q0 12 5 25.5t12.5 26t16 23t16.5 17.5z" />
    <glyph glyph-name="eogonek" unicode="&#x119;" horiz-adv-x="544" 
d="M501 197h-341q15 -45 51.5 -72.5t87.5 -27.5q37 0 74.5 10t56.5 20l19 10v-113q-24 -13 -64 -24q-61 -42 -61 -70q0 -15 9.5 -24t23.5 -9q9 0 24.5 3.5t26.5 7.5l11 4v-92q-45 -19 -86 -19q-51 0 -80 25.5t-29 67.5q0 48 55 97q-110 8 -177 80q-67 73 -67 173
q0 108 72 182t174 74q98 0 162 -64q66 -63 66 -160q0 -17 -2 -37t-4 -31zM286 396q-49 0 -83.5 -28.5t-45.5 -76.5h241q0 49 -34 77t-78 28z" />
    <glyph glyph-name="Ecaron" unicode="&#x11a;" horiz-adv-x="584" 
d="M75 0v682h446v-121h-320v-155h300v-121h-300v-164h328v-121h-454zM237 744l-92 130h105l53 -63l53 63h106l-93 -130h-132z" />
    <glyph glyph-name="ecaron" unicode="&#x11b;" horiz-adv-x="544" 
d="M501 197h-341q15 -45 51.5 -72.5t87.5 -27.5q37 0 74.5 10t56.5 20l19 10v-113q-61 -34 -151 -34q-117 0 -190 75q-73 74 -73 179q0 108 72 182t174 74q98 0 162 -64q66 -63 66 -160q0 -17 -2 -37t-4 -31zM286 396q-49 0 -83.5 -28.5t-45.5 -76.5h241q0 49 -34 77t-78 28
zM217 552l-92 130h105l53 -63l53 63h106l-93 -130h-132z" />
    <glyph glyph-name="Gcircumflex" unicode="&#x11c;" horiz-adv-x="706" 
d="M513 272h-158v119h286v-338q-11 -8 -30 -18t-83 -28q-66 -17 -132 -17q-154 0 -253 100q-98 101 -98 242q0 156 105 258q106 102 263 102q24 0 48.5 -3t47 -7.5t40.5 -9.5t30 -10l23 -9v-128q-87 45 -186 45q-102 0 -170 -65t-68 -164q0 -102 63 -166q63 -65 163 -65
q28 0 55 4t41 8l13 5v145zM257 744l92 130h132l93 -130h-106l-53 63l-53 -63h-105z" />
    <glyph glyph-name="gcircumflex" unicode="&#x11d;" 
d="M398 460l67 50l70 -88l-49 -44v-468l-124 -172l-87 65l90 132v86q-38 -26 -92 -26q-103 0 -170 73q-68 74 -68 180t65 179q66 73 173 73q14 0 29.5 -3t30 -7.5t27 -9.5t21.5 -10zM291 104q42 0 74 21v248q-31 19 -74 19q-59 0 -99 -42q-40 -41 -40 -102t40 -102
q40 -42 99 -42zM124 552l92 130h132l93 -130h-106l-53 63l-53 -63h-105z" />
    <glyph glyph-name="Gbreve" unicode="&#x11e;" horiz-adv-x="706" 
d="M513 272h-158v119h286v-338q-11 -8 -30 -18t-83 -28q-66 -17 -132 -17q-154 0 -253 100q-98 101 -98 242q0 156 105 258q106 102 263 102q24 0 48.5 -3t47 -7.5t40.5 -9.5t30 -10l23 -9v-128q-87 45 -186 45q-102 0 -170 -65t-68 -164q0 -102 63 -166q63 -65 163 -65
q28 0 55 4t41 8l13 5v145zM469 874h95q0 -5 -1.5 -14t-10.5 -32q-9 -21 -23 -39q-14 -17 -44 -31t-69 -14q-43 0 -71 13.5t-45 32t-24.5 38.5t-9.5 32l-1 14h94q4 -14 11 -25q6 -10 17 -17.5t30 -7.5t32 12.5t17 25.5z" />
    <glyph glyph-name="gbreve" unicode="&#x11f;" 
d="M398 460l67 50l70 -88l-49 -44v-468l-124 -172l-87 65l90 132v86q-38 -26 -92 -26q-103 0 -170 73q-68 74 -68 180t65 179q66 73 173 73q14 0 29.5 -3t30 -7.5t27 -9.5t21.5 -10zM291 104q42 0 74 21v248q-31 19 -74 19q-59 0 -99 -42q-40 -41 -40 -102t40 -102
q40 -42 99 -42zM337 682h95q0 -5 -1.5 -14t-10.5 -32q-9 -21 -23 -39q-14 -17 -44 -31t-69 -14q-43 0 -71 13.5t-45 32t-24.5 38.5t-9.5 32l-1 14h94q4 -14 11 -25q6 -10 17 -17.5t30 -7.5t32 12.5t17 25.5z" />
    <glyph glyph-name="Gdotaccent" unicode="&#x120;" horiz-adv-x="706" 
d="M513 272h-158v119h286v-338q-11 -8 -30 -18t-83 -28q-66 -17 -132 -17q-154 0 -253 100q-98 101 -98 242q0 156 105 258q106 102 263 102q24 0 48.5 -3t47 -7.5t40.5 -9.5t30 -10l23 -9v-128q-87 45 -186 45q-102 0 -170 -65t-68 -164q0 -102 63 -166q63 -65 163 -65
q28 0 55 4t41 8l13 5v145zM413 895l82 -81l-82 -81l-81 81z" />
    <glyph glyph-name="gdotaccent" unicode="&#x121;" 
d="M398 460l67 50l70 -88l-49 -44v-468l-124 -172l-87 65l90 132v86q-38 -26 -92 -26q-103 0 -170 73q-68 74 -68 180t65 179q66 73 173 73q14 0 29.5 -3t30 -7.5t27 -9.5t21.5 -10zM291 104q42 0 74 21v248q-31 19 -74 19q-59 0 -99 -42q-40 -41 -40 -102t40 -102
q40 -42 99 -42zM282 703l82 -81l-82 -81l-81 81z" />
    <glyph glyph-name="Gcommaaccent" unicode="&#x122;" horiz-adv-x="706" 
d="M513 272h-158v119h286v-338q-11 -8 -30 -18t-83 -28q-66 -17 -132 -17q-154 0 -253 100q-98 101 -98 242q0 156 105 258q106 102 263 102q24 0 48.5 -3t47 -7.5t40.5 -9.5t30 -10l23 -9v-128q-87 45 -186 45q-102 0 -170 -65t-68 -164q0 -102 63 -166q63 -65 163 -65
q28 0 55 4t41 8l13 5v145zM493 -71l-71 -189h-102l32 189h141z" />
    <glyph glyph-name="gcommaaccent" unicode="&#x123;" 
d="M198 552l71 189h102l-32 -189h-141zM398 460l67 50l70 -88l-49 -44v-468l-124 -172l-87 65l90 132v86q-38 -26 -92 -26q-103 0 -170 73q-68 74 -68 180t65 179q66 73 173 73q14 0 29.5 -3t30 -7.5t27 -9.5t21.5 -10zM291 104q42 0 74 21v248q-31 19 -74 19q-59 0 -99 -42
q-40 -41 -40 -102t40 -102q40 -42 99 -42z" />
    <glyph glyph-name="Hcircumflex" unicode="&#x124;" horiz-adv-x="690" 
d="M615 682v-682h-126v298h-288v-298h-126v682h126v-263h288v263h126zM186 744l92 130h132l93 -130h-106l-53 63l-53 -63h-105z" />
    <glyph glyph-name="hcircumflex" unicode="&#x125;" 
d="M191 805v-342q46 34 107 34q82 0 133 -51q52 -50 55 -128l14 -318h-118l-11 300q-1 43 -26 66.5t-61 23.5q-21 0 -44.5 -8t-35.5 -16l-13 -9v-357h-121v805h121zM-27 838l92 130h132l93 -130h-106l-53 63l-53 -63h-105z" />
    <glyph glyph-name="Hbar" unicode="&#x126;" horiz-adv-x="690" 
d="M615 682v-75h49v-95h-49v-512h-126v298h-288v-298h-126v512h-49v95h49v75h126v-75h288v75h126zM201 419h288v93h-288v-93z" />
    <glyph glyph-name="hbar" unicode="&#x127;" 
d="M191 805v-123h148v-95h-148v-124q46 34 107 34q82 0 133 -51q52 -50 55 -128l14 -318h-118l-11 300q-1 43 -26 66.5t-61 23.5q-21 0 -44.5 -8t-35.5 -16l-13 -9v-357h-121v587h-53v95h53v123h121z" />
    <glyph glyph-name="Itilde" unicode="&#x128;" horiz-adv-x="281" 
d="M219 867h71q0 -5 -0.5 -13.5t-5.5 -30.5q-4 -20 -12 -37q-8 -16 -26 -29.5t-42 -13.5q-29 0 -68 15q-38 16 -46 16q-9 0 -16 -7t-10 -15l-2 -7h-70q0 5 0.5 13.5t4.5 29.5q2 11 5.5 20.5t7.5 17.5q8 16 26 29.5t42 13.5q26 0 65 -16q40 -15 49 -15t16 7t9 15zM206 0h-131
v682h131v-682z" />
    <glyph glyph-name="itilde" unicode="&#x129;" horiz-adv-x="271" 
d="M71 58v432h121v-377l49 -45l-69 -87zM214 675h71q0 -5 -0.5 -13.5t-5.5 -30.5q-4 -20 -12 -37q-8 -16 -26 -29.5t-42 -13.5q-29 0 -68 15q-38 16 -46 16q-9 0 -16 -7t-9 -15l-3 -7h-70q0 5 0.5 13.5t5.5 29.5q4 21 12 38q8 16 26 29.5t42 13.5q26 0 65 -16q40 -15 49 -15
t16 7t9 15z" />
    <glyph glyph-name="Imacron" unicode="&#x12a;" horiz-adv-x="281" 
d="M206 0h-131v682h131v-682zM271 856v-95h-262v95h262z" />
    <glyph glyph-name="imacron" unicode="&#x12b;" horiz-adv-x="271" 
d="M71 58v432h121v-377l49 -45l-69 -87zM267 664v-95h-262v95h262z" />
    <glyph glyph-name="Ibreve" unicode="&#x12c;" horiz-adv-x="281" 
d="M206 0h-131v682h131v-682zM195 874h95q0 -5 -1.5 -14t-10.5 -32q-9 -21 -23 -39q-14 -17 -44 -31t-69 -14q-43 0 -71 13.5t-45 32t-24.5 38.5t-9.5 32l-1 14h94q4 -14 11 -25q6 -10 17 -17.5t30 -7.5t32 12.5t17 25.5z" />
    <glyph glyph-name="ibreve" unicode="&#x12d;" horiz-adv-x="271" 
d="M71 58v432h121v-377l49 -45l-69 -87zM191 682h95q0 -5 -1.5 -14t-10.5 -32q-9 -21 -23 -39q-14 -17 -44 -31t-69 -14q-43 0 -71 13.5t-45 32t-24.5 38.5t-9.5 32l-1 14h94q4 -14 11 -25q6 -10 17 -17.5t30 -7.5t32 12.5t17 25.5z" />
    <glyph glyph-name="Iogonek" unicode="&#x12e;" horiz-adv-x="281" 
d="M206 0q-61 -42 -61 -70q0 -15 9.5 -24t23.5 -9q9 0 24.5 3.5t26.5 7.5l11 4v-92q-45 -19 -86 -19q-51 0 -80 25.5t-29 67.5q0 12 4.5 25.5t12 26t16 23t17.5 17.5l17 14h-37v682h131v-682z" />
    <glyph glyph-name="iogonek" unicode="&#x12f;" horiz-adv-x="271" 
d="M71 58v432h121v-377l51 -46l-72 -84q-33 -41 -33 -53q0 -15 9.5 -24t23.5 -9q9 0 24.5 3.5t26.5 7.5l11 4v-92q-45 -19 -86 -19q-51 0 -80 25.5t-29 67.5q0 13 5.5 28.5t14.5 30t20 27.5t22 22l20 19zM131 703l82 -81l-82 -81l-81 81z" />
    <glyph glyph-name="Idotaccent" unicode="&#x130;" horiz-adv-x="281" 
d="M206 0h-131v682h131v-682zM140 895l82 -81l-82 -81l-81 81z" />
    <glyph glyph-name="dotlessi" unicode="&#x131;" horiz-adv-x="271" 
d="M71 58v432h121v-377l49 -45l-69 -87z" />
    <glyph glyph-name="IJ" unicode="&#x132;" horiz-adv-x="544" 
d="M469 682v-659l-130 -177l-88 68l87 141v627h131zM206 0h-131v682h131v-682z" />
    <glyph glyph-name="ij" unicode="&#x133;" horiz-adv-x="513" 
d="M442 490l1 -582l-123 -170l-86 65l89 135v552h119zM381 703l82 -81l-82 -81l-81 81zM71 58v432h121v-377l49 -45l-69 -87zM131 703l82 -81l-82 -81l-81 81z" />
    <glyph glyph-name="Jcircumflex" unicode="&#x134;" horiz-adv-x="291" 
d="M-13 744l92 130h132l93 -130h-106l-53 63l-53 -63h-105zM215 682v-659l-130 -177l-88 68l87 141v627h131z" />
    <glyph glyph-name="jcircumflex" unicode="&#x135;" horiz-adv-x="269" 
d="M198 490l1 -582l-123 -170l-86 65l89 135v552h119zM-24 552l92 130h132l93 -130h-106l-53 63l-53 -63h-105z" />
    <glyph glyph-name="Kcommaaccent" unicode="&#x136;" horiz-adv-x="614" 
d="M312 357l297 -357h-174l-230 284v-284h-130v682h130v-265l228 265h165zM380 -71l-71 -189h-102l32 189h141z" />
    <glyph glyph-name="kcommaaccent" unicode="&#x137;" horiz-adv-x="523" 
d="M191 805v-487l146 172h159l-200 -221l217 -269h-155l-167 217v-217h-121v805h121zM336 -71l-71 -189h-102l32 189h141z" />
    <glyph glyph-name="kgreenlandic" unicode="&#x138;" horiz-adv-x="523" 
d="M191 490v-184l150 184h155l-200 -230l217 -260h-155l-167 205v-205h-121v490h121z" />
    <glyph glyph-name="Lacute" unicode="&#x139;" horiz-adv-x="522" 
d="M507 121v-121h-432v682h130v-561h302zM84 744l76 130h140l-111 -130h-105z" />
    <glyph glyph-name="lacute" unicode="&#x13a;" horiz-adv-x="270" 
d="M70 58v747h121v-692l49 -45l-69 -87zM73 838l76 130h140l-111 -130h-105z" />
    <glyph glyph-name="Lcommaaccent" unicode="&#x13b;" horiz-adv-x="522" 
d="M507 121v-121h-432v682h130v-561h302zM347 -71l-71 -189h-102l32 189h141z" />
    <glyph glyph-name="lcommaaccent" unicode="&#x13c;" horiz-adv-x="270" 
d="M70 58v747h121v-692l49 -45l-69 -87zM219 -71l-71 -189h-102l32 189h141z" />
    <glyph glyph-name="Lcaron" unicode="&#x13d;" horiz-adv-x="522" 
d="M507 121v-121h-432v682h130v-561h302zM472 681l-71 -189h-102l32 189h141z" />
    <glyph glyph-name="lcaron" unicode="&#x13e;" horiz-adv-x="404" 
d="M70 58v747h121v-692l49 -45l-69 -87zM439 805l-71 -189h-102l32 189h141z" />
    <glyph glyph-name="Ldot" unicode="&#x13f;" horiz-adv-x="522" 
d="M507 121v-121h-432v682h130v-561h302zM319 412h137v-138h-137v138z" />
    <glyph glyph-name="ldot" unicode="&#x140;" horiz-adv-x="454" 
d="M70 58v747h121v-692l49 -45l-69 -87zM292 407h137v-138h-137v138z" />
    <glyph glyph-name="Lslash" unicode="&#x141;" horiz-adv-x="522" 
d="M43 252l-57 107l89 47v276h130v-207l78 42l56 -106l-134 -71v-219h302v-121h-432v270z" />
    <glyph glyph-name="lslash" unicode="&#x142;" horiz-adv-x="301" 
d="M195 350v-237l50 -45l-69 -87l-101 78v228l-31 -18l-56 105l87 46v384h120v-322l76 41l55 -103z" />
    <glyph glyph-name="Nacute" unicode="&#x143;" horiz-adv-x="682" 
d="M607 682v-682h-148l-226 419l-33 79h-4l5 -79v-419h-126v682h148l226 -419l33 -79h4l-5 80v418h126zM283 744l76 130h140l-111 -130h-105z" />
    <glyph glyph-name="nacute" unicode="&#x144;" horiz-adv-x="572" 
d="M98 510l78 -58q58 45 122 45q88 0 139.5 -49t55.5 -130l14 -318h-118l-11 297q-1 45 -25.5 69t-61.5 24q-21 0 -44.5 -8t-36.5 -16l-12 -8v-358h-121v380l-47 45zM229 552l76 130h140l-111 -130h-105z" />
    <glyph glyph-name="Ncommaaccent" unicode="&#x145;" horiz-adv-x="682" 
d="M607 682v-682h-148l-226 419l-33 79h-4l5 -79v-419h-126v682h148l226 -419l33 -79h4l-5 80v418h126zM410 -71l-71 -189h-102l32 189h141z" />
    <glyph glyph-name="ncommaaccent" unicode="&#x146;" horiz-adv-x="572" 
d="M98 510l78 -58q58 45 122 45q88 0 139.5 -49t55.5 -130l14 -318h-118l-11 297q-1 45 -25.5 69t-61.5 24q-21 0 -44.5 -8t-36.5 -16l-12 -8v-358h-121v380l-47 45zM372 -71l-71 -189h-102l32 189h141z" />
    <glyph glyph-name="Ncaron" unicode="&#x147;" horiz-adv-x="682" 
d="M607 682v-682h-148l-226 419l-33 79h-4l5 -79v-419h-126v682h148l226 -419l33 -79h4l-5 80v418h126zM274 744l-92 130h105l53 -63l53 63h106l-93 -130h-132z" />
    <glyph glyph-name="ncaron" unicode="&#x148;" horiz-adv-x="572" 
d="M98 510l78 -58q58 45 122 45q88 0 139.5 -49t55.5 -130l14 -318h-118l-11 297q-1 45 -25.5 69t-61.5 24q-21 0 -44.5 -8t-36.5 -16l-12 -8v-358h-121v380l-47 45zM219 552l-92 130h105l53 -63l53 63h106l-93 -130h-132z" />
    <glyph glyph-name="napostrophe" unicode="&#x149;" horiz-adv-x="605" 
d="M131 510l78 -58q58 45 122 45q88 0 139.5 -49t55.5 -130l14 -318h-118l-11 297q-1 45 -25.5 69t-61.5 24q-21 0 -44.5 -8t-35.5 -16l-13 -8v-358h-121v380l-47 45zM103 681l-71 -189h-102l32 189h141z" />
    <glyph glyph-name="Eng" unicode="&#x14a;" horiz-adv-x="682" 
d="M607 682v-769l-125 -177l-88 68l87 141v30l-248 444l-33 79h-4l5 -79v-419h-126v682h148l226 -419l33 -79h4l-5 80v418h126z" />
    <glyph glyph-name="eng" unicode="&#x14b;" horiz-adv-x="571" 
d="M98 510l78 -58q58 45 127 45q90 0 146 -50q57 -50 57 -129v-410l-123 -170l-86 65l89 135v359q0 45 -25 69t-62 24q-24 0 -49.5 -8t-38.5 -16l-13 -9v-357h-121v380l-47 45z" />
    <glyph glyph-name="Omacron" unicode="&#x14c;" horiz-adv-x="790" 
d="M147 93q-102 103 -102 249t102 248q103 102 248 102t247 -102q103 -102 103 -248t-103 -249q-102 -103 -247 -103t-248 103zM172 342q0 -93 65 -163q66 -69 158 -69t157 69q66 69 66 163q0 93 -66 161q-65 68 -157 68t-158 -68q-65 -68 -65 -161zM526 856v-95h-262v95
h262z" />
    <glyph glyph-name="omacron" unicode="&#x14d;" horiz-adv-x="581" 
d="M546 246q0 -107 -75 -182q-74 -74 -181 -74q-105 0 -181 74q-74 76 -74 182t74 180q76 74 181 74q107 0 181 -74q75 -74 75 -180zM290 390q-57 0 -97 -42q-39 -42 -39 -102t39 -103q39 -42 97 -42t97 42q39 43 39 103t-39 102t-97 42zM421 664v-95h-262v95h262z" />
    <glyph glyph-name="Obreve" unicode="&#x14e;" horiz-adv-x="790" 
d="M147 93q-102 103 -102 249t102 248q103 102 248 102t247 -102q103 -102 103 -248t-103 -249q-102 -103 -247 -103t-248 103zM172 342q0 -93 65 -163q66 -69 158 -69t157 69q66 69 66 163q0 93 -66 161q-65 68 -157 68t-158 -68q-65 -68 -65 -161zM449 874h95
q0 -5 -1.5 -14t-10.5 -32q-9 -21 -23 -39q-14 -17 -44 -31t-69 -14q-43 0 -71 13.5t-45 32t-24.5 38.5t-9.5 32l-1 14h94q4 -14 11 -25q6 -10 17 -17.5t30 -7.5t32 12.5t17 25.5z" />
    <glyph glyph-name="obreve" unicode="&#x14f;" horiz-adv-x="581" 
d="M546 246q0 -107 -75 -182q-74 -74 -181 -74q-105 0 -181 74q-74 76 -74 182t74 180q76 74 181 74q107 0 181 -74q75 -74 75 -180zM290 390q-57 0 -97 -42q-39 -42 -39 -102t39 -103q39 -42 97 -42t97 42q39 43 39 103t-39 102t-97 42zM345 682h95q0 -5 -1.5 -14
t-10.5 -32q-9 -21 -23 -39q-14 -17 -44 -31t-69 -14q-43 0 -71 13.5t-45 32t-24.5 38.5t-9.5 32l-1 14h94q4 -14 11 -25q6 -10 17 -17.5t30 -7.5t32 12.5t17 25.5z" />
    <glyph glyph-name="Ohungarumlaut" unicode="&#x150;" horiz-adv-x="790" 
d="M147 93q-102 103 -102 249t102 248q103 102 248 102t247 -102q103 -102 103 -248t-103 -249q-102 -103 -247 -103t-248 103zM172 342q0 -93 65 -163q66 -69 158 -69t157 69q66 69 66 163q0 93 -66 161q-65 68 -157 68t-158 -68q-65 -68 -65 -161zM224 744l76 130h140
l-111 -130h-105zM441 744l76 130h140l-111 -130h-105z" />
    <glyph glyph-name="ohungarumlaut" unicode="&#x151;" horiz-adv-x="581" 
d="M546 246q0 -107 -75 -182q-74 -74 -181 -74q-105 0 -181 74q-74 76 -74 182t74 180q76 74 181 74q107 0 181 -74q75 -74 75 -180zM290 390q-57 0 -97 -42q-39 -42 -39 -102t39 -103q39 -42 97 -42t97 42q39 43 39 103t-39 102t-97 42zM120 552l76 130h140l-111 -130h-105
zM337 552l76 130h140l-111 -130h-105z" />
    <glyph glyph-name="OE" unicode="&#x152;" horiz-adv-x="911" 
d="M396 0q-145 0 -249 98q-102 99 -102 244q0 144 102 242q103 98 249 98h452v-121h-291v-156h272v-120h-271v-164h298v-121h-460zM173 342q0 -92 65 -157q64 -64 158 -64h35v440h-35q-94 0 -158 -64q-65 -63 -65 -155z" />
    <glyph glyph-name="oe" unicode="&#x153;" horiz-adv-x="910" 
d="M867 197h-341q15 -45 51.5 -72.5t87.5 -27.5q37 0 74.5 10t56.5 20l19 10v-113q-61 -34 -151 -34q-124 0 -197 87q-72 -87 -187 -87q-104 0 -175 74q-70 73 -70 182q0 108 70 181t175 73q116 0 187 -86q71 86 180 86q98 0 162 -64q66 -63 66 -160q0 -17 -2 -37t-4 -31z
M280 390q-57 0 -91 -42q-35 -41 -35 -102q0 -30 9 -56.5t25.5 -46t39.5 -31t52 -11.5q28 0 51.5 11.5t40 31t25.5 46t9 56.5t-9 56.5t-25.5 46t-39.5 30.5t-52 11zM652 396q-48 0 -82.5 -30.5t-46.5 -81.5h241q0 49 -35 81q-34 31 -77 31z" />
    <glyph glyph-name="Racute" unicode="&#x154;" horiz-adv-x="629" 
d="M310 380q53 0 85.5 27.5t32.5 65.5q0 39 -26.5 64t-66.5 25h-132v-562h-128v682h258q103 0 162 -58q60 -59 60 -151q0 -66 -37 -116.5t-103 -70.5l199 -286h-155l-227 331v49h78zM206 744l76 130h140l-111 -130h-105z" />
    <glyph glyph-name="racute" unicode="&#x155;" horiz-adv-x="402" 
d="M406 476v-117q-49 28 -109 28q-18 0 -33.5 -6t-27.5 -16t-20 -21.5t-11 -22.5l-7 -22v-299h-121v380l-47 45l68 85l78 -58q6 5 16 12.5t42 19.5q32 13 66 13q29 0 55.5 -5.5t38.5 -10.5zM222 552l76 130h140l-111 -130h-105z" />
    <glyph glyph-name="Rcommaaccent" unicode="&#x156;" horiz-adv-x="629" 
d="M232 331v49h78q53 0 85.5 27.5t32.5 65.5q0 39 -26.5 64t-66.5 25h-132v-562h-128v682h258q103 0 162 -58q60 -59 60 -151q0 -66 -37 -116.5t-103 -70.5l199 -286h-155zM401 -71l-71 -189h-102l32 189h141z" />
    <glyph glyph-name="rcommaaccent" unicode="&#x157;" horiz-adv-x="402" 
d="M406 476v-117q-49 28 -109 28q-18 0 -33.5 -6t-27.5 -16t-20 -21.5t-11 -22.5l-7 -22v-299h-121v380l-47 45l68 85l78 -58q6 5 16 12.5t42 19.5q32 13 66 13q29 0 55.5 -5.5t38.5 -10.5zM225 -71l-71 -189h-102l32 189h141z" />
    <glyph glyph-name="Rcaron" unicode="&#x158;" horiz-adv-x="629" 
d="M310 380q53 0 85.5 27.5t32.5 65.5q0 39 -26.5 64t-66.5 25h-132v-562h-128v682h258q103 0 162 -58q60 -59 60 -151q0 -66 -37 -116.5t-103 -70.5l199 -286h-155l-227 331v49h78zM228 744l-92 130h105l53 -63l53 63h106l-93 -130h-132z" />
    <glyph glyph-name="rcaron" unicode="&#x159;" horiz-adv-x="402" 
d="M406 476v-117q-49 28 -109 28q-18 0 -33.5 -6t-27.5 -16t-20 -21.5t-11 -22.5l-7 -22v-299h-121v380l-47 45l68 85l78 -58q6 5 16 12.5t42 19.5q32 13 66 13q29 0 55.5 -5.5t38.5 -10.5zM229 552l-92 130h105l53 -63l53 63h106l-93 -130h-132z" />
    <glyph glyph-name="Sacute" unicode="&#x15a;" horiz-adv-x="555" 
d="M470 659v-128q-86 40 -178 40q-45 0 -72 -15.5t-27 -42.5q0 -25 23 -43.5t57 -36.5t74.5 -37.5t74.5 -47.5t57 -66.5t23 -93.5q0 -33 -13 -68.5t-43.5 -64t-80.5 -47t-123 -18.5q-22 0 -45 2.5t-44.5 6t-39 8t-29.5 9.5l-24 9v131q90 -45 198 -45q38 0 73 18q35 20 35 54
q0 24 -18.5 44t-47.5 38.5t-64 36.5t-68 37q-45 26 -76.5 67t-31.5 93q0 97 67 145t172 48q21 0 43.5 -2t42.5 -5.5t36.5 -8t27.5 -8.5zM228 744l76 130h140l-111 -130h-105z" />
    <glyph glyph-name="sacute" unicode="&#x15b;" horiz-adv-x="436" 
d="M371 471v-109q-71 33 -138 33q-27 0 -44 -10.5t-17 -26.5q0 -13 16.5 -24.5t40.5 -24t52.5 -26.5t53 -33t40.5 -44.5t16 -59.5q0 -73 -52.5 -114.5t-146.5 -41.5q-37 0 -72 9.5t-52 18.5l-17 10v112q67 -43 137 -43q31 0 54.5 10t23.5 29q0 14 -16 25.5t-40 24t-52 26.5
t-52 33t-40 44.5t-16 60.5q0 33 13 61t37.5 47.5t59.5 30.5t78 11q35 0 68.5 -7t49.5 -15zM171 552l76 130h140l-111 -130h-105z" />
    <glyph glyph-name="Scircumflex" unicode="&#x15c;" horiz-adv-x="555" 
d="M470 659v-128q-86 40 -178 40q-45 0 -72 -15.5t-27 -42.5q0 -25 23 -43.5t57 -36.5t74.5 -37.5t74.5 -47.5t57 -66.5t23 -93.5q0 -33 -13 -68.5t-43.5 -64t-80.5 -47t-123 -18.5q-22 0 -45 2.5t-44.5 6t-39 8t-29.5 9.5l-24 9v131q90 -45 198 -45q38 0 73 18q35 20 35 54
q0 24 -18.5 44t-47.5 38.5t-64 36.5t-68 37q-45 26 -76.5 67t-31.5 93q0 97 67 145t172 48q21 0 43.5 -2t42.5 -5.5t36.5 -8t27.5 -8.5zM131 744l92 130h132l93 -130h-106l-53 63l-53 -63h-105z" />
    <glyph glyph-name="scircumflex" unicode="&#x15d;" horiz-adv-x="436" 
d="M371 471v-109q-71 33 -138 33q-27 0 -44 -10.5t-17 -26.5q0 -13 16.5 -24.5t40.5 -24t52.5 -26.5t53 -33t40.5 -44.5t16 -59.5q0 -73 -52.5 -114.5t-146.5 -41.5q-37 0 -72 9.5t-52 18.5l-17 10v112q67 -43 137 -43q31 0 54.5 10t23.5 29q0 14 -16 25.5t-40 24t-52 26.5
t-52 33t-40 44.5t-16 60.5q0 33 13 61t37.5 47.5t59.5 30.5t78 11q35 0 68.5 -7t49.5 -15zM79 552l92 130h132l93 -130h-106l-53 63l-53 -63h-105z" />
    <glyph glyph-name="Scedilla" unicode="&#x15e;" horiz-adv-x="555" 
d="M470 659v-128q-86 40 -178 40q-45 0 -72 -15.5t-27 -42.5q0 -25 23 -43.5t57 -36.5t74.5 -37.5t74.5 -47.5t57 -66.5t23 -93.5q0 -64 -44 -120q-44 -54 -136 -71l-9 -28q6 -3 15 -8t23 -24q15 -20 15 -44q0 -48 -33.5 -72t-82.5 -24q-18 0 -35.5 3.5t-26.5 7.5l-9 4v75
q27 -11 45 -11q14 0 24.5 8t10.5 20q0 16 -12.5 28.5t-25.5 17.5l-13 4l16 37q-20 1 -41 4t-40 6.5t-35.5 8t-26.5 8.5l-21 7v131q90 -45 198 -45q38 0 73 18q35 20 35 54q0 24 -18.5 44t-47.5 38.5t-64 36.5t-68 37q-45 26 -76.5 67t-31.5 93q0 97 67 145t172 48
q21 0 43.5 -2t42.5 -5.5t36.5 -8t27.5 -8.5z" />
    <glyph glyph-name="scedilla" unicode="&#x15f;" horiz-adv-x="436" 
d="M371 471v-109q-71 33 -138 33q-27 0 -44 -10.5t-17 -26.5q0 -13 16.5 -24.5t40.5 -24t52.5 -26.5t53 -33t40.5 -44.5t16 -59.5q0 -57 -32 -95t-92 -52l-9 -30q6 -3 15 -8t23 -24q15 -20 15 -44q0 -48 -33.5 -72t-82.5 -24q-18 0 -35.5 3.5t-26.5 7.5l-9 4v75
q27 -11 45 -11q14 0 24.5 8t10.5 20q0 16 -13 28.5t-25 17.5l-13 4l16 37q-32 3 -61.5 12t-43.5 17l-13 8v112q67 -43 137 -43q31 0 54.5 10t23.5 29q0 14 -16 25.5t-40 24t-52 26.5t-52 33t-40 44.5t-16 60.5q0 33 13 61t37.5 47.5t59.5 30.5t78 11q35 0 68.5 -7t49.5 -15z
" />
    <glyph glyph-name="Scaron" unicode="&#x160;" horiz-adv-x="555" 
d="M470 659v-128q-86 40 -178 40q-45 0 -72 -15.5t-27 -42.5q0 -25 23 -43.5t57 -36.5t74.5 -37.5t74.5 -47.5t57 -66.5t23 -93.5q0 -33 -13 -68.5t-43.5 -64t-80.5 -47t-123 -18.5q-22 0 -45 2.5t-44.5 6t-39 8t-29.5 9.5l-24 9v131q90 -45 198 -45q38 0 73 18q35 20 35 54
q0 24 -18.5 44t-47.5 38.5t-64 36.5t-68 37q-45 26 -76.5 67t-31.5 93q0 97 67 145t172 48q21 0 43.5 -2t42.5 -5.5t36.5 -8t27.5 -8.5zM211 744l-92 130h105l53 -63l53 63h106l-93 -130h-132z" />
    <glyph glyph-name="scaron" unicode="&#x161;" horiz-adv-x="436" 
d="M371 471v-109q-71 33 -138 33q-27 0 -44 -10.5t-17 -26.5q0 -13 16.5 -24.5t40.5 -24t52.5 -26.5t53 -33t40.5 -44.5t16 -59.5q0 -73 -52.5 -114.5t-146.5 -41.5q-37 0 -72 9.5t-52 18.5l-17 10v112q67 -43 137 -43q31 0 54.5 10t23.5 29q0 14 -16 25.5t-40 24t-52 26.5
t-52 33t-40 44.5t-16 60.5q0 33 13 61t37.5 47.5t59.5 30.5t78 11q35 0 68.5 -7t49.5 -15zM151 552l-92 130h105l53 -63l53 63h106l-93 -130h-132z" />
    <glyph glyph-name="Tcommaaccent" unicode="&#x162;" horiz-adv-x="527" 
d="M512 562h-184v-562h-130v562h-183v120h497v-120zM340 -71l-71 -189h-102l32 189h141z" />
    <glyph glyph-name="tcommaaccent" unicode="&#x163;" horiz-adv-x="326" 
d="M205 582v-92h111v-108h-111v-269l50 -44l-70 -88l-101 76v325h-49v78l109 122h61zM233 -71l-71 -189h-102l32 189h141z" />
    <glyph glyph-name="Tcaron" unicode="&#x164;" horiz-adv-x="527" 
d="M512 562h-184v-562h-130v562h-183v120h497v-120zM197 744l-92 130h105l53 -63l53 63h106l-93 -130h-132z" />
    <glyph glyph-name="tcaron" unicode="&#x165;" horiz-adv-x="416" 
d="M205 582v-92h111v-108h-111v-269l50 -44l-70 -88l-101 76v325h-49v78l109 122h61zM451 805l-71 -189h-102l32 189h141z" />
    <glyph glyph-name="Tbar" unicode="&#x166;" horiz-adv-x="527" 
d="M512 562h-184v-117h124v-95h-124v-350h-130v350h-123v95h123v117h-183v120h497v-120z" />
    <glyph glyph-name="tbar" unicode="&#x167;" horiz-adv-x="326" 
d="M297 320v-95h-92v-112l50 -44l-70 -88l-101 76v168h-49v95h49v62h-49v78l109 122h61v-92h111v-108h-111v-62h92z" />
    <glyph glyph-name="Utilde" unicode="&#x168;" horiz-adv-x="671" 
d="M413 867h71q0 -5 -0.5 -13.5t-5.5 -30.5q-4 -20 -12 -37q-8 -16 -26 -29.5t-42 -13.5q-29 0 -68 15q-38 16 -46 16q-9 0 -16 -7t-10 -15l-2 -7h-70q0 5 0.5 13.5t4.5 29.5q2 11 5.5 20.5t7.5 17.5q8 16 26 29.5t42 13.5q26 0 65 -16q40 -15 49 -15t16 7t9 15zM601 682
v-437q0 -105 -80 -180t-185 -75q-106 0 -186 74t-80 180v438h126v-418q0 -66 41 -110q40 -43 100 -43q55 0 96 42q41 44 41 111v418h127z" />
    <glyph glyph-name="utilde" unicode="&#x169;" horiz-adv-x="571" 
d="M473 -20l-78 58q-59 -45 -127 -45q-89 0 -147 50q-56 50 -56 129v318h120v-297q0 -45 25 -69t62 -24q24 0 49.5 8t38.5 16l13 9v357h121v-380l47 -45zM363 675h71q0 -5 -0.5 -13.5t-5.5 -30.5q-4 -20 -12 -37q-8 -16 -26 -29.5t-42 -13.5q-29 0 -68 15q-38 16 -46 16
q-9 0 -16 -7t-10 -15l-2 -7h-70q0 5 0.5 13.5t4.5 29.5q2 11 5.5 20.5t7.5 17.5q8 16 26 29.5t42 13.5q26 0 65 -16q40 -15 49 -15t16 7t9 15z" />
    <glyph glyph-name="Umacron" unicode="&#x16a;" horiz-adv-x="671" 
d="M601 682v-437q0 -105 -80 -180t-185 -75q-106 0 -186 74t-80 180v438h126v-418q0 -66 41 -110q40 -43 100 -43q55 0 96 42q41 44 41 111v418h127zM466 856v-95h-262v95h262z" />
    <glyph glyph-name="umacron" unicode="&#x16b;" horiz-adv-x="571" 
d="M473 -20l-78 58q-59 -45 -127 -45q-89 0 -147 50q-56 50 -56 129v318h120v-297q0 -45 25 -69t62 -24q24 0 49.5 8t38.5 16l13 9v357h121v-380l47 -45zM416 664v-95h-262v95h262z" />
    <glyph glyph-name="Ubreve" unicode="&#x16c;" horiz-adv-x="671" 
d="M390 874h95q0 -5 -1.5 -14t-10.5 -32q-9 -21 -23 -39q-14 -17 -44 -31t-69 -14q-43 0 -71 13.5t-45 32t-24.5 38.5t-8.5 32l-2 14h94q4 -14 11 -25q6 -10 17 -17.5t30 -7.5t32 12.5t16 25.5zM601 682v-437q0 -105 -80 -180t-185 -75q-106 0 -186 74t-80 180v438h126v-418
q0 -66 41 -110q40 -43 100 -43q55 0 96 42q41 44 41 111v418h127z" />
    <glyph glyph-name="ubreve" unicode="&#x16d;" horiz-adv-x="571" 
d="M473 -20l-78 58q-59 -45 -127 -45q-89 0 -147 50q-56 50 -56 129v318h120v-297q0 -45 25 -69t62 -24q24 0 49.5 8t38.5 16l13 9v357h121v-380l47 -45zM340 682h95q0 -5 -1.5 -14t-10.5 -32q-9 -21 -23 -39q-14 -17 -44 -31t-69 -14q-43 0 -71 13.5t-45 32t-24.5 38.5
t-8.5 32l-2 14h94q4 -14 11 -25q6 -10 17 -17.5t30 -7.5t32 12.5t16 25.5z" />
    <glyph glyph-name="Uring" unicode="&#x16e;" horiz-adv-x="671" 
d="M306 836q-15 -12 -12.5 -26.5t13.5 -25t27.5 -12.5t29.5 12q15 12 12.5 26.5t-14 25t-27.5 12t-29 -11.5zM262 745q-29 27 -29 65t29 65q30 27 73 27t72 -27q30 -27 30 -65t-30 -65q-29 -27 -72 -27t-73 27zM601 682v-437q0 -105 -80 -180t-185 -75q-106 0 -186 74
t-80 180v438h126v-418q0 -66 41 -110q40 -43 100 -43q55 0 96 42q41 44 41 111v418h127z" />
    <glyph glyph-name="uring" unicode="&#x16f;" horiz-adv-x="571" 
d="M473 -20l-78 58q-59 -45 -127 -45q-89 0 -147 50q-56 50 -56 129v318h120v-297q0 -45 25 -69t62 -24q24 0 49.5 8t38.5 16l13 9v357h121v-380l47 -45zM250 644q-15 -12 -12.5 -26.5t13.5 -25t27.5 -12.5t29.5 12q15 12 12.5 26.5t-14 25t-27.5 12t-29 -11.5zM206 553
q-29 27 -29 65t29 65q30 27 73 27t72 -27q30 -27 30 -65t-30 -65q-29 -27 -72 -27t-73 27z" />
    <glyph glyph-name="Uhungarumlaut" unicode="&#x170;" horiz-adv-x="671" 
d="M601 682v-437q0 -105 -80 -180t-185 -75q-106 0 -186 74t-80 180v438h126v-418q0 -66 41 -110q40 -43 100 -43q55 0 96 42q41 44 41 111v418h127zM175 744l76 130h140l-111 -130h-105zM392 744l76 130h140l-111 -130h-105z" />
    <glyph glyph-name="uhungarumlaut" unicode="&#x171;" horiz-adv-x="571" 
d="M473 -20l-78 58q-59 -45 -127 -45q-89 0 -147 50q-56 50 -56 129v318h120v-297q0 -45 25 -69t62 -24q24 0 49.5 8t38.5 16l13 9v357h121v-380l47 -45zM119 552l76 130h140l-111 -130h-105zM336 552l76 130h140l-111 -130h-105z" />
    <glyph glyph-name="Uogonek" unicode="&#x172;" horiz-adv-x="671" 
d="M601 682v-437q0 -87 -55 -154q-57 -69 -138 -91q-61 -42 -61 -70q0 -15 9.5 -24t23.5 -9q9 0 24.5 3.5t26.5 7.5l11 4v-92q-45 -19 -86 -19q-51 0 -80 25.5t-29 67.5q0 50 57 98q-96 10 -166 83q-68 73 -68 169v438h126v-418q0 -66 41 -110q40 -43 100 -43q55 0 96 42
q41 44 41 111v418h127z" />
    <glyph glyph-name="uogonek" unicode="&#x173;" horiz-adv-x="571" 
d="M423 18l-28 20q-59 -45 -127 -45q-89 0 -147 50q-56 50 -56 129v318h120v-297q0 -45 25 -69t62 -24q24 0 49.5 8t38.5 16l13 9v357h121v-378l50 -47l-58 -65l-23 -26q-22 -28 -22 -44q0 -15 9.5 -24t23.5 -9q9 0 24.5 3.5t26.5 7.5l11 4v-92q-45 -19 -86 -19
q-51 0 -80 25.5t-29 67.5q0 26 20 58q20 31 41 48z" />
    <glyph glyph-name="Wcircumflex" unicode="&#x174;" horiz-adv-x="787" 
d="M75 0v682h127v-419l-5 -81h4l49 81l98 140h91l98 -140l49 -81h4l-5 80v420h127v-682h-135l-181 269h-4l-182 -269h-135zM235 744l92 130h132l93 -130h-106l-53 63l-53 -63h-105z" />
    <glyph glyph-name="wcircumflex" unicode="&#x175;" horiz-adv-x="794" 
d="M779 490l-142 -490h-143l-95 331h-4l-95 -331h-143l-142 490h129l86 -345h4l99 345h129l98 -345h4l86 345h129zM238 552l92 130h132l93 -130h-106l-53 63l-53 -63h-105z" />
    <glyph glyph-name="Ycircumflex" unicode="&#x176;" horiz-adv-x="593" 
d="M231 277l-226 405h144l146 -284h4l146 284h143l-226 -405v-277h-131v277zM138 744l92 130h132l93 -130h-106l-53 63l-53 -63h-105z" />
    <glyph glyph-name="ycircumflex" unicode="&#x177;" horiz-adv-x="533" 
d="M398 490h130l-197 -593l-116 -159l-86 65l89 133l23 64h-50l-135 371l-56 54l66 82l88 -66l118 -331h4zM126 552l92 130h132l93 -130h-106l-53 63l-53 -63h-105z" />
    <glyph glyph-name="Ydieresis" unicode="&#x178;" horiz-adv-x="593" 
d="M231 277l-226 405h144l146 -284h4l146 284h143l-226 -405v-277h-131v277zM192 895l82 -81l-82 -81l-81 81zM399 895l82 -81l-82 -81l-81 81z" />
    <glyph glyph-name="Zacute" unicode="&#x179;" horiz-adv-x="583" 
d="M528 121v-121h-483v133l321 424v4h-293v121h454v-127l-330 -430v-4h331zM230 744l76 130h140l-111 -130h-105z" />
    <glyph glyph-name="zacute" unicode="&#x17a;" horiz-adv-x="511" 
d="M456 0h-401v115l248 261v4h-237v110h384v-118l-243 -257v-4h249v-111zM192 552l76 130h140l-111 -130h-105z" />
    <glyph glyph-name="Zdotaccent" unicode="&#x17b;" horiz-adv-x="583" 
d="M528 121v-121h-483v133l321 424v4h-293v121h454v-127l-330 -430v-4h331zM310 895l82 -81l-82 -81l-81 81z" />
    <glyph glyph-name="zdotaccent" unicode="&#x17c;" horiz-adv-x="511" 
d="M456 0h-401v115l248 261v4h-237v110h384v-118l-243 -257v-4h249v-111zM266 703l82 -81l-82 -81l-81 81z" />
    <glyph glyph-name="Zcaron" unicode="&#x17d;" horiz-adv-x="583" 
d="M528 121v-121h-483v133l321 424v4h-293v121h454v-127l-330 -430v-4h331zM225 744l-92 130h105l53 -63l53 63h106l-93 -130h-132z" />
    <glyph glyph-name="zcaron" unicode="&#x17e;" horiz-adv-x="511" 
d="M456 0h-401v115l248 261v4h-237v110h384v-118l-243 -257v-4h249v-111zM189 552l-92 130h105l53 -63l53 63h106l-93 -130h-132z" />
    <glyph glyph-name="longs" unicode="&#x17f;" horiz-adv-x="284" 
d="M35 383v107h50v152l115 121q46 48 134 48v-112q-41 0 -62 -23l-65 -68v-608h-122v383h-50z" />
    <glyph glyph-name="florin" unicode="&#x192;" horiz-adv-x="455" 
d="M470 673v-106q-50 18 -85 18q-33 0 -50.5 -16.5t-22.5 -54.5l-7 -50h115l-14 -108h-116l-60 -422q-14 -97 -64.5 -146.5t-128.5 -49.5q-27 0 -52.5 4.5t-37.5 9.5l-12 4v109q57 -20 84 -20q73 0 86 97l59 414h-110l15 108h110l8 54q13 85 58 130.5t120 45.5q28 0 54 -5
t39 -11z" />
    <glyph glyph-name="AEacute" unicode="&#x1fc;" horiz-adv-x="901" 
d="M431 0v187h-202l-78 -187h-136l291 682h532v-121h-281v-156h261v-120h-260v-164h288v-121h-415zM278 310h153v251h-48zM438 744l76 130h140l-111 -130h-105z" />
    <glyph glyph-name="aeacute" unicode="&#x1fd;" horiz-adv-x="839" 
d="M796 197h-331q15 -45 49 -72.5t85 -27.5q18 0 37 3t36 7.5t31 9.5t23 10l18 10v-113q-55 -34 -146 -34q-107 0 -181 71q-89 -71 -195 -71q-41 0 -74.5 12t-57.5 33.5t-37 51.5t-13 66t13 66t38.5 51.5t61.5 34t83 12.5q28 0 55 -5.5t39 -11.5l13 -5q0 48 -26.5 72.5
t-72.5 24.5q-31 0 -68 -9.5t-59 -18.5l-22 -10v114q75 32 159 32q120 0 170 -62q68 62 157 62q96 0 159 -63q64 -63 64 -161q0 -17 -2 -37t-4 -31zM586 396q-49 0 -81.5 -28.5t-39.5 -76.5h228q0 25 -8.5 44.5t-23.5 33t-34.5 20.5t-40.5 7zM245 100q60 0 116 42
q-8 19 -18 58q-43 23 -97 23q-38 0 -58 -18t-20 -45t21.5 -43.5t55.5 -16.5zM370 552l76 130h140l-111 -130h-105z" />
    <glyph glyph-name="Oslashacute" unicode="&#x1fe;" horiz-adv-x="790" 
d="M118 39l35 50q-108 102 -108 253q0 145 102 247q103 103 248 103q85 0 156 -36l32 46l82 -56l-32 -48q113 -105 113 -256q0 -146 -103 -249q-104 -102 -248 -102q-85 0 -160 39l-34 -48zM618 342q0 87 -58 151l-255 -363q48 -19 89 -19q92 0 158 69t66 162zM172 342
q0 -85 56 -147l253 358q-47 18 -85 18q-92 0 -158 -68t-66 -161zM337 744l76 130h140l-111 -130h-105z" />
    <glyph glyph-name="oslashacute" unicode="&#x1ff;" horiz-adv-x="582" 
d="M78 14l33 47q-76 73 -76 184q0 107 74 181q76 74 181 74q60 0 110 -26l31 45l71 -50l-30 -44q75 -75 75 -180q0 -106 -75 -181q-76 -74 -182 -74q-57 0 -109 23l-33 -49zM154 245q0 -45 26 -86l156 222q-26 9 -46 9q-57 0 -97 -43q-39 -42 -39 -102zM426 245q0 48 -24 83
l-155 -221q16 -6 43 -6q58 0 97 42q39 43 39 102zM236 552l76 130h140l-111 -130h-105z" />
    <glyph glyph-name="Scommaaccent" unicode="&#x218;" horiz-adv-x="555" 
d="M470 659v-128q-86 40 -178 40q-45 0 -72 -15.5t-27 -42.5q0 -25 23 -43.5t57 -36.5t74.5 -37.5t74.5 -47.5t57 -66.5t23 -93.5q0 -33 -13 -68.5t-43.5 -64t-80.5 -47t-123 -18.5q-22 0 -45 2.5t-44.5 6t-39 8t-29.5 9.5l-24 9v131q90 -45 198 -45q38 0 73 18q35 20 35 54
q0 24 -18.5 44t-47.5 38.5t-64 36.5t-68 37q-45 26 -76.5 67t-31.5 93q0 97 67 145t172 48q21 0 43.5 -2t42.5 -5.5t36.5 -8t27.5 -8.5zM328 -71l-71 -189h-102l32 189h141z" />
    <glyph glyph-name="scommaaccent" unicode="&#x219;" horiz-adv-x="436" 
d="M371 471v-109q-71 33 -138 33q-27 0 -44 -10.5t-17 -26.5q0 -13 16.5 -24.5t40.5 -24t52.5 -26.5t53 -33t40.5 -44.5t16 -59.5q0 -73 -52.5 -114.5t-146.5 -41.5q-37 0 -72 9.5t-52 18.5l-17 10v112q67 -43 137 -43q31 0 54.5 10t23.5 29q0 14 -16 25.5t-40 24t-52 26.5
t-52 33t-40 44.5t-16 60.5q0 33 13 61t37.5 47.5t59.5 30.5t78 11q35 0 68.5 -7t49.5 -15zM288 -71l-71 -189h-102l32 189h141z" />
    <glyph glyph-name="circumflex" unicode="&#x2c6;" horiz-adv-x="317" 
d="M0 552l92 130h132l93 -130h-106l-53 63l-53 -63h-105z" />
    <glyph glyph-name="caron" unicode="&#x2c7;" horiz-adv-x="317" 
d="M92 552l-92 130h105l53 -63l53 63h106l-93 -130h-132z" />
    <glyph glyph-name="breve" unicode="&#x2d8;" horiz-adv-x="299" 
d="M204 682h95q0 -5 -1.5 -14t-10.5 -32q-9 -21 -23 -39q-14 -17 -44 -31t-69 -14q-43 0 -71 13.5t-45 32t-24.5 38.5t-8.5 32l-2 14h94q4 -14 11 -25q6 -10 17 -17.5t30 -7.5t32 12.5t16 25.5z" />
    <glyph glyph-name="dotaccent" unicode="&#x2d9;" horiz-adv-x="163" 
d="M81 703l82 -81l-82 -81l-81 81z" />
    <glyph glyph-name="ring" unicode="&#x2da;" horiz-adv-x="204" 
d="M73 644q-15 -12 -12.5 -26.5t13.5 -25t27.5 -12.5t29.5 12q15 12 12.5 26.5t-14 25t-27.5 12t-29 -11.5zM29 553q-29 27 -29 65t29 65q30 27 73 27t72 -27q30 -27 30 -65t-30 -65q-29 -27 -72 -27t-73 27z" />
    <glyph glyph-name="ogonek" unicode="&#x2db;" horiz-adv-x="194" 
d="M194 -88v-92q-45 -19 -86 -19q-51 0 -80 25.5t-29 67.5q0 12 4.5 25.5t12 26t16 23t17.5 17.5l17 14h94q-61 -42 -61 -70q0 -15 9.5 -24t23.5 -9q9 0 24.5 3.5t26.5 7.5z" />
    <glyph glyph-name="tilde" unicode="&#x2dc;" horiz-adv-x="298" 
d="M227 675h71q0 -5 -0.5 -13.5t-5.5 -30.5q-4 -20 -12 -37q-8 -16 -26 -29.5t-42 -13.5q-29 0 -68 15q-38 16 -46 16q-9 0 -16 -7t-10 -15l-2 -7h-70q0 5 0.5 13.5t4.5 29.5q2 11 5.5 20.5t7.5 17.5q8 16 26 29.5t42 13.5q26 0 65 -16q40 -15 49 -15t16 7t9 15z" />
    <glyph glyph-name="hungarumlaut" unicode="&#x2dd;" horiz-adv-x="433" 
d="M0 552l76 130h140l-111 -130h-105zM217 552l76 130h140l-111 -130h-105z" />
    <glyph glyph-name="afii10023" unicode="&#x401;" horiz-adv-x="584" 
d="M75 0v682h446v-121h-320v-155h300v-121h-300v-164h328v-121h-454zM201 895l82 -81l-82 -81l-81 81zM408 895l82 -81l-82 -81l-81 81z" />
    <glyph glyph-name="afii10051" unicode="&#x402;" horiz-adv-x="661" 
d="M469 562h-185v-153q66 17 123 17q94 0 149 -55.5t55 -155.5v-162l-124 -178l-91 68l87 141v131q0 42 -24 66t-64 24q-20 0 -48 -4.5t-45 -8.5l-18 -4v-288h-130v562h-144v120h459v-120z" />
    <glyph glyph-name="afii10052" unicode="&#x403;" horiz-adv-x="523" 
d="M508 682v-120h-303v-562h-130v682h433zM224 744l76 130h140l-111 -130h-105z" />
    <glyph glyph-name="afii10053" unicode="&#x404;" horiz-adv-x="638" 
d="M469 407v-121h-285q9 -39 29.5 -71t50.5 -55t68 -35.5t82 -12.5q39 0 86 11q43 10 69 23l24 11v-131q-83 -36 -184 -36q-157 0 -261 101q-103 100 -103 241q0 157 102 258q102 102 262 102q22 0 44.5 -2t42 -5.5t36 -8t26.5 -8.5l21 -9v-129q-80 40 -168 40
q-42 0 -78 -12t-65.5 -33.5t-50 -51.5t-30.5 -66h282z" />
    <glyph glyph-name="afii10054" unicode="&#x405;" horiz-adv-x="555" 
d="M470 659v-128q-86 40 -178 40q-45 0 -72 -15.5t-27 -42.5q0 -25 23 -43.5t57 -36.5t74.5 -37.5t74.5 -47.5t57 -66.5t23 -93.5q0 -33 -13 -68.5t-43.5 -64t-80.5 -47t-123 -18.5q-22 0 -45 2.5t-44.5 6t-39 8t-29.5 9.5l-24 9v131q90 -45 198 -45q38 0 73 18q35 20 35 54
q0 24 -18.5 44t-47.5 38.5t-64 36.5t-68 37q-45 26 -76.5 67t-31.5 93q0 97 67 145t172 48q21 0 43.5 -2t42.5 -5.5t36.5 -8t27.5 -8.5z" />
    <glyph glyph-name="afii10055" unicode="&#x406;" horiz-adv-x="281" 
d="M206 0h-131v682h131v-682z" />
    <glyph glyph-name="afii10056" unicode="&#x407;" horiz-adv-x="281" 
d="M206 0h-131v682h131v-682zM37 895l82 -81l-82 -81l-81 81zM244 895l82 -81l-82 -81l-81 81z" />
    <glyph glyph-name="afii10057" unicode="&#x408;" horiz-adv-x="290" 
d="M215 682v-659l-130 -177l-88 68l87 141v627h131z" />
    <glyph glyph-name="afii10058" unicode="&#x409;" horiz-adv-x="959" 
d="M443 0v562h-173l-36 -428l-126 -177l-88 69l87 140l44 516h419v-256h133q97 0 162 -60q64 -58 64 -152q0 -92 -63 -153q-61 -61 -162 -61h-261zM570 308v-188h136q42 0 69 27t27 67q0 19 -7.5 36t-20.5 30t-30.5 20.5t-37.5 7.5h-136z" />
    <glyph glyph-name="afii10059" unicode="&#x40a;" horiz-adv-x="988" 
d="M471 0v300h-270v-300h-126v682h126v-261h270v261h126v-260h135q100 0 162 -58q64 -58 64 -150t-63 -153q-61 -61 -162 -61h-262zM597 304v-184h138q42 0 69 27t27 67q0 19 -7.5 35.5t-20.5 28.5t-30.5 19t-37.5 7h-138z" />
    <glyph glyph-name="afii10060" unicode="&#x40b;" horiz-adv-x="661" 
d="M469 562h-185v-153q66 17 123 17q94 0 149 -55.5t55 -155.5v-215h-128v215q0 42 -24 66t-64 24q-20 0 -48 -4.5t-45 -8.5l-18 -4v-288h-130v562h-144v120h459v-120z" />
    <glyph glyph-name="afii10061" unicode="&#x40c;" horiz-adv-x="614" 
d="M312 357l297 -357h-174l-230 284v-284h-130v682h130v-265l228 265h165zM260 744l76 130h140l-111 -130h-105z" />
    <glyph glyph-name="afii10062" unicode="&#x40e;" horiz-adv-x="620" 
d="M600 682l-282 -631l-116 -95l-68 89l88 80l37 84l-219 473h143l141 -329l142 329h134zM379 874h95q0 -5 -1.5 -14t-10.5 -32q-9 -21 -23 -39q-14 -17 -44 -31t-69 -14q-43 0 -71 13.5t-45 32t-24.5 38.5t-9.5 32l-1 14h94q4 -14 11 -25q6 -10 17 -17.5t30 -7.5t32 12.5
t17 25.5z" />
    <glyph glyph-name="afii10145" unicode="&#x40f;" horiz-adv-x="686" 
d="M282 -141l-5 141h-202v682h126v-562h283v562h127v-682h-204l-5 -141h-120z" />
    <glyph glyph-name="afii10017" unicode="&#x410;" horiz-adv-x="633" 
d="M401 682l212 -682h-138l-54 186h-209l-54 -186h-138l213 682h168zM246 308h140l-67 234h-5z" />
    <glyph glyph-name="afii10018" unicode="&#x411;" horiz-adv-x="614" 
d="M564 214q0 -91 -62 -153q-61 -61 -162 -61h-265v682h423v-120h-295v-133h136q99 0 161 -61q64 -61 64 -154zM203 308v-188h138q42 0 69.5 27t27.5 67q0 19 -7.5 36t-21 30t-31 20.5t-37.5 7.5h-138z" />
    <glyph glyph-name="afii10019" unicode="&#x412;" horiz-adv-x="623" 
d="M549 494q0 -27 -7 -49t-17 -37.5t-21 -26t-18 -15.5l-7 -4v-4l10 -5t22 -17q18 -15 29 -30q13 -17 23 -47.5t10 -65.5q0 -87 -62 -140t-157 -53h-279v682h242q109 0 170.5 -47.5t61.5 -140.5zM446 200q0 87 -123 87h-123v-166h137q49 0 79 21.5t30 57.5zM201 405h118
q49 0 77.5 23t28.5 58q0 36 -26.5 56t-72.5 20h-125v-157z" />
    <glyph glyph-name="afii10020" unicode="&#x413;" horiz-adv-x="523" 
d="M508 682v-120h-303v-562h-130v682h433z" />
    <glyph glyph-name="afii10021" unicode="&#x414;" horiz-adv-x="649" 
d="M505 -141l-16 141h-340l-15 -141h-114v261h49l46 113l39 449h408v-562h57v-261h-114zM241 223l-40 -103h232v442h-164z" />
    <glyph glyph-name="afii10022" unicode="&#x415;" horiz-adv-x="584" 
d="M75 0v682h446v-121h-320v-155h300v-121h-300v-164h328v-121h-454z" />
    <glyph glyph-name="afii10024" unicode="&#x416;" horiz-adv-x="837" 
d="M483 0h-129v279l-185 -279h-159l244 353l-231 329h154l177 -269v269h129v-270l178 270h154l-233 -329l245 -353h-158l-186 279v-279z" />
    <glyph glyph-name="afii10025" unicode="&#x417;" horiz-adv-x="540" 
d="M500 209q0 -94 -74 -156t-185 -62q-53 0 -102 12q-49 13 -71 25l-23 13v137q5 -4 12.5 -9t16.5 -10q19 -11 67 -30q49 -18 92 -18q63 0 98 26.5t35 71.5q0 48 -34.5 74.5t-98.5 26.5h-60v115h76q38 0 68 24q30 25 30 58q0 30 -29.5 46.5t-84.5 16.5q-33 0 -75 -13
q-22 -7 -39 -13t-31 -13l-27 -13v127q5 2 11 5.5t14 7.5q16 7 69 21q51 13 104 13q92 0 155 -51q64 -51 64 -130q0 -83 -69 -135q91 -52 91 -167z" />
    <glyph glyph-name="afii10026" unicode="&#x418;" horiz-adv-x="682" 
d="M607 682v-682h-126v418l5 80h-4l-33 -79l-226 -419h-148v682h126v-419l-5 -79h4l33 79l226 419h148z" />
    <glyph glyph-name="afii10027" unicode="&#x419;" horiz-adv-x="682" 
d="M607 682v-682h-126v418l5 80h-4l-33 -79l-226 -419h-148v682h126v-419l-5 -79h4l33 79l226 419h148zM487 875q0 -72 -36 -100.5t-111 -28.5t-111 28.5t-36 100.5h83q0 -14 1.5 -23t6.5 -22q12 -25 56 -25t55 25q6 13 7.5 22t1.5 23h83z" />
    <glyph glyph-name="afii10028" unicode="&#x41a;" horiz-adv-x="614" 
d="M312 357l297 -357h-174l-230 284v-284h-130v682h130v-265l228 265h165z" />
    <glyph glyph-name="afii10029" unicode="&#x41b;" horiz-adv-x="663" 
d="M107 166l44 516h437v-682h-130v562h-188q-8 -93 -17 -199t-19 -229l-126 -177l-88 69z" />
    <glyph glyph-name="afii10030" unicode="&#x41c;" horiz-adv-x="787" 
d="M712 682v-682h-127v419l5 81h-4l-49 -81l-98 -140h-91l-98 140l-49 81h-4l5 -80v-420h-127v682h135l181 -269h4l182 269h135z" />
    <glyph glyph-name="afii10031" unicode="&#x41d;" horiz-adv-x="690" 
d="M615 682v-682h-126v298h-288v-298h-126v682h126v-263h288v263h126z" />
    <glyph glyph-name="afii10032" unicode="&#x41e;" horiz-adv-x="790" 
d="M147 93q-102 103 -102 249t102 248q103 102 248 102t247 -102q103 -102 103 -248t-103 -249q-102 -103 -247 -103t-248 103zM172 342q0 -93 65 -163q66 -69 158 -69t157 69q66 69 66 163q0 93 -66 161q-65 68 -157 68t-158 -68q-65 -68 -65 -161z" />
    <glyph glyph-name="afii10033" unicode="&#x41f;" horiz-adv-x="686" 
d="M611 682v-682h-127v562h-283v-562h-126v682h536z" />
    <glyph glyph-name="afii10034" unicode="&#x420;" horiz-adv-x="578" 
d="M203 247v-247h-128v682h255q97 0 160 -60t63 -157t-63 -158q-63 -60 -161 -60h-126zM203 561v-194h120q48 0 75 28t27 70t-27 69t-75 27h-120z" />
    <glyph glyph-name="afii10035" unicode="&#x421;" horiz-adv-x="638" 
d="M593 157v-131q-83 -36 -184 -36q-157 0 -261 101q-103 100 -103 241q0 157 102 258q102 102 262 102q22 0 44.5 -2t42 -5.5t36 -8t26.5 -8.5l21 -9v-129q-80 40 -168 40q-101 0 -168 -65q-65 -65 -65 -164q0 -100 66 -164q68 -65 170 -65q39 0 86 11q43 10 69 23z" />
    <glyph glyph-name="afii10036" unicode="&#x422;" horiz-adv-x="527" 
d="M512 562h-184v-562h-130v562h-183v120h497v-120z" />
    <glyph glyph-name="afii10037" unicode="&#x423;" horiz-adv-x="620" 
d="M600 682l-282 -631l-116 -95l-68 89l88 80l37 84l-219 473h143l141 -329l142 329h134z" />
    <glyph glyph-name="afii10038" unicode="&#x424;" horiz-adv-x="733" 
d="M432 0h-131v81q-110 10 -183 87q-73 76 -73 186q0 111 73 185q73 76 183 87v56h131v-56q109 -11 183 -87q73 -74 73 -185q0 -110 -73 -186q-74 -77 -183 -87v-81zM173 354q0 -29 9.5 -54t27 -45t41 -33.5t50.5 -18.5v302q-57 -9 -92.5 -50t-35.5 -101zM560 354
q0 29 -9.5 54.5t-27 45.5t-41 33t-50.5 18v-302q55 10 91 52q37 43 37 99z" />
    <glyph glyph-name="afii10039" unicode="&#x425;" horiz-adv-x="673" 
d="M255 354l-220 328h152l149 -225l149 225h153l-220 -328l240 -354h-153l-169 251l-169 -251h-152z" />
    <glyph glyph-name="afii10040" unicode="&#x426;" horiz-adv-x="698" 
d="M538 0h-463v682h128v-562h279v562h129v-562h57v-261h-114z" />
    <glyph glyph-name="afii10041" unicode="&#x427;" horiz-adv-x="612" 
d="M407 0v251q-89 -21 -149 -21q-100 0 -154 55t-54 155v241h127v-241q0 -90 88 -90q15 0 32.5 2t34 5t31 6.5t24.5 6.5l20 7v305h130v-682h-130z" />
    <glyph glyph-name="afii10042" unicode="&#x428;" horiz-adv-x="850" 
d="M775 0h-700v682h127v-562h159v562h127v-562h158v562h129v-682z" />
    <glyph glyph-name="afii10043" unicode="&#x429;" horiz-adv-x="862" 
d="M702 0h-627v682h127v-562h159v562h127v-562h158v562h129v-562h57v-261h-114z" />
    <glyph glyph-name="afii10044" unicode="&#x42a;" horiz-adv-x="600" 
d="M-20 568v114h231v-256h133q97 0 162 -60q64 -58 64 -152q0 -92 -63 -153q-61 -61 -162 -61h-261v562zM211 308v-188h136q42 0 69 27t27 67q0 19 -7.5 36t-20.5 30t-30.5 20.5t-37.5 7.5h-136z" />
    <glyph glyph-name="afii10045" unicode="&#x42b;" horiz-adv-x="829" 
d="M75 0v682h127v-256h133q97 0 162 -60q64 -58 64 -152q0 -92 -63 -153q-61 -61 -162 -61h-261zM626 0v682h128v-682h-128zM202 308v-188h136q42 0 69 27t27 67q0 19 -7.5 36t-20.5 30t-30.5 20.5t-37.5 7.5h-136z" />
    <glyph glyph-name="afii10046" unicode="&#x42c;" horiz-adv-x="591" 
d="M75 0v682h127v-256h133q97 0 162 -60q64 -58 64 -152q0 -92 -63 -153q-61 -61 -162 -61h-261zM202 308v-188h136q42 0 69 27t27 67q0 19 -7.5 36t-20.5 30t-30.5 20.5t-37.5 7.5h-136z" />
    <glyph glyph-name="afii10047" unicode="&#x42d;" horiz-adv-x="638" 
d="M169 286v121h282q-10 36 -30.5 66t-50 51.5t-65.5 33.5t-78 12q-20 0 -41 -3t-40.5 -7.5t-36 -9.5t-27.5 -10l-23 -10v129q70 33 170 33q160 0 262 -102q102 -101 102 -258q0 -141 -103 -241q-104 -101 -261 -101q-23 0 -46 2.5t-45 6.5t-40 8.5t-30 9.5l-23 9v131
q85 -45 179 -45q43 0 81 12.5t68 35.5t51 55t30 71h-285z" />
    <glyph glyph-name="afii10048" unicode="&#x42e;" horiz-adv-x="1016" 
d="M204 682v-277h72q22 123 119 204q97 82 225 82q146 0 248 -103q103 -102 103 -247t-103 -248q-102 -102 -248 -102q-131 0 -228 84q-98 86 -117 209h-71v-284h-129v682h129zM462 502q-65 -68 -65 -161t65 -161q66 -68 158 -68t157 68q66 67 66 161q0 93 -66 161
q-65 68 -157 68t-158 -68z" />
    <glyph glyph-name="afii10049" unicode="&#x42f;" horiz-adv-x="624" 
d="M392 380v-49l-227 -331h-155l199 286q-66 20 -103 70.5t-37 116.5q0 92 60 151q59 58 162 58h258v-682h-128v562h-132q-40 0 -66.5 -25t-26.5 -64q0 -38 32.5 -65.5t85.5 -27.5h78z" />
    <glyph glyph-name="afii10065" unicode="&#x430;" horiz-adv-x="543" 
d="M517 65l-80 -85l-67 55q-7 -5 -20 -12.5t-52 -20.5q-39 -12 -76 -12q-41 0 -74.5 12t-57.5 33.5t-37 51.5t-13 66q0 72 52 118t149 46q26 0 51.5 -5.5t37.5 -11.5l13 -5q0 48 -26.5 72.5t-72.5 24.5q-31 0 -68 -9.5t-59 -18.5l-22 -10v114q75 32 159 32q210 0 210 -195
v-191zM343 130v70q-43 23 -97 23q-38 0 -58 -18t-20 -45t21.5 -43.5t55.5 -16.5q28 0 52.5 7.5t34.5 14.5z" />
    <glyph glyph-name="afii10066" unicode="&#x431;" horiz-adv-x="586" 
d="M471 711l28 -97q-44 -29 -102 -33q-178 -16 -214 -135q6 5 17 12.5t45 19.5t68 12q97 0 167 -70q71 -71 71 -175q0 -108 -73 -181t-179 -73q-111 0 -183 76q-71 77 -71 214q0 194 79 291q80 98 266 116q18 2 38 7.5t32 10.5zM162 245q0 -59 39 -102q40 -42 98 -42t97 42
q39 43 39 102t-40 96q-39 39 -96 39q-59 0 -98 -39q-39 -38 -39 -96z" />
    <glyph glyph-name="afii10067" unicode="&#x432;" horiz-adv-x="533" 
d="M475 349q0 -25 -10.5 -47t-21.5 -32l-11 -10q7 -4 17 -12t27 -37t17 -65q0 -65 -50 -106q-49 -40 -127 -40h-246v490h217q88 0 138 -36t50 -105zM370 152q0 45 -77 45h-105v-87h115q31 0 49 11.5t18 30.5zM188 301h101q31 0 48.5 11.5t17.5 29.5q0 19 -16 29.5t-43 10.5
h-108v-81z" />
    <glyph glyph-name="afii10068" unicode="&#x433;" horiz-adv-x="410" 
d="M400 490v-108h-211v-382h-119v490h330z" />
    <glyph glyph-name="afii10069" unicode="&#x434;" 
d="M430 -110l-6 110h-293l-6 -110h-110v218h59l32 98l28 284h344v-382h62v-218h-110zM222 187l-26 -79h166v274h-122z" />
    <glyph glyph-name="afii10070" unicode="&#x435;" horiz-adv-x="544" 
d="M501 197h-341q15 -45 51.5 -72.5t87.5 -27.5q37 0 74.5 10t56.5 20l19 10v-113q-61 -34 -151 -34q-117 0 -190 75q-73 74 -73 179q0 108 72 182t174 74q98 0 162 -64q66 -63 66 -160q0 -17 -2 -37t-4 -31zM286 396q-48 0 -82.5 -31.5t-46.5 -80.5h241q0 49 -35 81
q-34 31 -77 31z" />
    <glyph glyph-name="afii10072" unicode="&#x436;" horiz-adv-x="686" 
d="M402 490v-176l116 176h146l-165 -230l177 -260h-143l-131 201v-201h-118v201l-131 -201h-143l178 260l-165 230h145l116 -177v177h118z" />
    <glyph glyph-name="afii10073" unicode="&#x437;" horiz-adv-x="450" 
d="M410 154q0 -71 -60 -117q-58 -46 -153 -46q-42 0 -80.5 10t-57.5 20l-19 10v119q77 -50 151 -50q42 0 69.5 15t27.5 39q0 26 -27 41.5t-70 15.5h-53v105h66q26 0 47.5 10.5t21.5 28.5q0 37 -69 37q-34 0 -70 -10q-19 -5 -34 -10t-26 -10l-21 -9v109q68 38 158 38
q79 0 131 -38q51 -38 51 -99q0 -18 -4.5 -32.5t-11.5 -25.5t-14 -18.5t-12 -10.5l-5 -4q18 -9 32 -26q12 -14 22 -37t10 -55z" />
    <glyph glyph-name="afii10074" unicode="&#x438;" horiz-adv-x="574" 
d="M70 0v490h120v-301l16 38l172 263h126v-490h-120v302l-16 -39l-172 -263h-126z" />
    <glyph glyph-name="afii10075" unicode="&#x439;" horiz-adv-x="574" 
d="M433 681q0 -72 -36 -100.5t-111 -28.5t-111 28.5t-36 100.5h83q0 -14 1.5 -23t6.5 -22q12 -25 56 -25t55 25q6 13 7.5 22t1.5 23h83zM70 0v490h120v-301l16 38l172 263h126v-490h-120v302l-16 -39l-172 -263h-126z" />
    <glyph glyph-name="afii10076" unicode="&#x43a;" horiz-adv-x="523" 
d="M191 490v-184l150 184h155l-200 -230l217 -260h-155l-167 205v-205h-121v490h121z" />
    <glyph glyph-name="afii10077" unicode="&#x43b;" horiz-adv-x="549" 
d="M97 133l35 357h347v-490h-119v382h-124l-28 -282l-97 -132l-91 60z" />
    <glyph glyph-name="afii10078" unicode="&#x43c;" horiz-adv-x="651" 
d="M581 490v-490h-119v321l-97 -129h-79l-97 129v-321h-119v490h123l132 -179l133 179h123z" />
    <glyph glyph-name="afii10079" unicode="&#x43d;" horiz-adv-x="574" 
d="M504 490v-490h-120v198h-194v-198h-120v490h120v-185h194v185h120z" />
    <glyph glyph-name="afii10080" unicode="&#x43e;" horiz-adv-x="581" 
d="M546 246q0 -107 -75 -182q-74 -74 -181 -74q-105 0 -181 74q-74 76 -74 182t74 180q76 74 181 74q107 0 181 -74q75 -74 75 -180zM290 390q-57 0 -97 -42q-39 -42 -39 -102t39 -103q39 -42 97 -42t97 42q39 43 39 103t-39 102t-97 42z" />
    <glyph glyph-name="afii10081" unicode="&#x43f;" horiz-adv-x="574" 
d="M504 490v-490h-120v383h-194v-383h-120v490h434z" />
    <glyph glyph-name="afii10082" unicode="&#x440;" 
d="M100 505l67 -50q61 40 125 40q108 0 172 -73q66 -72 66 -179q0 -106 -68 -180q-67 -73 -170 -73q-24 0 -47 6.5t-34 13.5l-11 6v-266h-121v623l-49 44zM274 387q-43 0 -74 -19v-248q31 -21 74 -21q57 0 98 42q41 43 41 102q0 61 -40 102q-41 42 -99 42z" />
    <glyph glyph-name="afii10083" unicode="&#x441;" horiz-adv-x="478" 
d="M438 138v-112q-62 -36 -146 -36q-110 0 -184 74q-73 73 -73 181q0 107 74 181t184 74q37 0 71 -9t50 -18l16 -9v-111q-59 36 -130 36q-63 0 -103 -42q-41 -43 -41 -102t41 -103q40 -42 104 -42q31 0 65.5 9.5t53.5 18.5z" />
    <glyph glyph-name="afii10084" unicode="&#x442;" horiz-adv-x="446" 
d="M426 382h-144v-382h-119v382h-143v108h406v-108z" />
    <glyph glyph-name="afii10085" unicode="&#x443;" horiz-adv-x="533" 
d="M398 490h130l-197 -593l-116 -159l-86 65l89 133l23 64h-50l-135 371l-56 54l66 82l88 -66l118 -331h4z" />
    <glyph glyph-name="afii10086" unicode="&#x444;" horiz-adv-x="813" 
d="M466 10v-260h-119v260q-43 -17 -84 -17q-100 0 -164 73t-64 178t65 179t163 74q19 0 40 -4.5t33 -8.5l11 -4v202h119v-202q43 17 84 17q98 0 163 -74t65 -179t-64 -178t-164 -73q-19 0 -40 4t-32 9zM663 244q0 61 -34 102q-35 42 -89 42q-18 0 -36.5 -5.5t-27.5 -10.5
l-10 -6v-244q34 -21 74 -21q54 0 89 42q34 41 34 101zM150 244q0 -60 34 -101q34 -42 89 -42q18 0 36.5 5.5t28.5 10.5l9 5v244q-31 22 -74 22q-55 0 -89 -42q-34 -41 -34 -102z" />
    <glyph glyph-name="afii10087" unicode="&#x445;" horiz-adv-x="540" 
d="M374 0l-105 156l-103 -156h-151l183 250l-174 240h146l99 -147l100 147h146l-174 -240l184 -250h-151z" />
    <glyph glyph-name="afii10088" unicode="&#x446;" horiz-adv-x="590" 
d="M449 0h-379v490h120v-383h194v383h120v-383h61v-217h-110z" />
    <glyph glyph-name="afii10089" unicode="&#x447;" horiz-adv-x="507" 
d="M317 0v168q-35 -7 -61 -10t-43 -3q-82 0 -127.5 41.5t-45.5 116.5v177h118v-173q0 -23 15 -37.5t46 -14.5q17 0 41.5 3.5t40.5 7.5l16 3v211h120v-490h-120z" />
    <glyph glyph-name="afii10090" unicode="&#x448;" horiz-adv-x="711" 
d="M641 490v-490h-571v490h120v-383h106v383h118v-383h107v383h120z" />
    <glyph glyph-name="afii10091" unicode="&#x449;" horiz-adv-x="732" 
d="M586 0h-516v490h120v-383h106v383h118v-383h107v383h120v-383h61v-217h-110z" />
    <glyph glyph-name="afii10092" unicode="&#x44a;" horiz-adv-x="498" 
d="M0 386v104h199v-173h91q78 0 131 -44q52 -43 52 -112q0 -35 -13 -64.5t-37 -51t-57.5 -33.5t-74.5 -12h-211v382zM199 210v-101h93q26 0 43.5 15t17.5 37q0 19 -18 34t-43 15h-93z" />
    <glyph glyph-name="afii10093" unicode="&#x44b;" horiz-adv-x="710" 
d="M70 0v490h119v-173h91q78 0 131 -44q52 -43 52 -112q0 -35 -13 -64.5t-37 -51t-57.5 -33.5t-74.5 -12h-211zM189 210v-101h93q26 0 43.5 15t17.5 37q0 19 -18 34t-43 15h-93zM520 0v490h120v-490h-120z" />
    <glyph glyph-name="afii10094" unicode="&#x44c;" horiz-adv-x="488" 
d="M70 0v490h119v-173h91q78 0 131 -44q52 -43 52 -112q0 -35 -13 -64.5t-37 -51t-57.5 -33.5t-74.5 -12h-211zM189 210v-101h93q26 0 43.5 15t17.5 37q0 19 -18 34t-43 15h-93z" />
    <glyph glyph-name="afii10095" unicode="&#x44d;" horiz-adv-x="473" 
d="M107 200v104h198q-17 38 -52 61.5t-80 23.5q-16 0 -33 -2.5t-32 -6.5t-27.5 -9t-20.5 -9l-17 -9v111q54 36 137 36q110 0 184 -74t74 -181t-74 -181t-183 -74q-37 0 -73.5 9t-54.5 18l-18 9v112q68 -38 137 -38q51 0 87.5 27.5t50.5 72.5h-203z" />
    <glyph glyph-name="afii10096" unicode="&#x44e;" horiz-adv-x="800" 
d="M512 -8q-93 0 -160 55t-87 143h-75v-190h-120v490h120v-190h75q19 85 87 141q70 56 160 56q106 0 179 -73q74 -74 74 -179q0 -106 -74 -180q-73 -73 -179 -73zM648 245q0 60 -39 101q-39 42 -97 42q-57 0 -97 -42q-40 -41 -40 -101q0 -59 39 -102q40 -42 98 -42t97 42
q39 43 39 102z" />
    <glyph glyph-name="afii10097" unicode="&#x44f;" horiz-adv-x="505" 
d="M435 0h-119v173h-35l-125 -173h-146l140 184q-21 7 -40.5 20.5t-34.5 32.5t-24 42.5t-9 50.5q0 35 13 64.5t36.5 50.5t56.5 33t74 12h213v-490zM316 280v101h-96q-24 0 -41 -15t-17 -35t17.5 -35.5t42.5 -15.5h94z" />
    <glyph glyph-name="afii10071" unicode="&#x451;" horiz-adv-x="544" 
d="M501 197h-341q15 -45 51.5 -72.5t87.5 -27.5q37 0 74.5 10t56.5 20l19 10v-113q-61 -34 -151 -34q-117 0 -190 75q-73 74 -73 179q0 108 72 182t174 74q98 0 162 -64q66 -63 66 -160q0 -17 -2 -37t-4 -31zM286 396q-48 0 -82.5 -31.5t-46.5 -80.5h241q0 49 -35 81
q-34 31 -77 31zM177 703l82 -81l-82 -81l-81 81zM384 703l82 -81l-82 -81l-81 81z" />
    <glyph glyph-name="afii10099" unicode="&#x452;" horiz-adv-x="543" 
d="M349 589v-108h-160v-90q52 32 118 32q80 0 133 -50t53 -132v-339l-122 -170l-86 64l90 135v291q0 46 -25 69.5t-61 23.5q-24 0 -49 -10t-38 -20l-13 -10v-275h-120v481h-49v108h49v92h120v-92h160z" />
    <glyph glyph-name="afii10100" unicode="&#x453;" horiz-adv-x="410" 
d="M400 490v-108h-211v-382h-119v490h330zM166 552l76 130h140l-111 -130h-105z" />
    <glyph glyph-name="afii10101" unicode="&#x454;" horiz-adv-x="473" 
d="M366 304v-104h-203q14 -45 50.5 -72.5t87.5 -27.5q31 0 65.5 9.5t53.5 18.5l18 10v-112q-62 -36 -146 -36q-110 0 -184 74q-73 73 -73 181q0 107 74 181t184 74q37 0 71 -9t50 -18l16 -9v-111q-59 36 -130 36q-45 0 -80 -23.5t-52 -61.5h198z" />
    <glyph glyph-name="afii10102" unicode="&#x455;" horiz-adv-x="436" 
d="M371 471v-109q-71 33 -138 33q-27 0 -44 -10.5t-17 -26.5q0 -13 16.5 -24.5t40.5 -24t52.5 -26.5t53 -33t40.5 -44.5t16 -59.5q0 -73 -52.5 -114.5t-146.5 -41.5q-37 0 -72 9.5t-52 18.5l-17 10v112q67 -43 137 -43q31 0 54.5 10t23.5 29q0 14 -16 25.5t-40 24t-52 26.5
t-52 33t-40 44.5t-16 60.5q0 33 13 61t37.5 47.5t59.5 30.5t78 11q35 0 68.5 -7t49.5 -15z" />
    <glyph glyph-name="afii10103" unicode="&#x456;" horiz-adv-x="271" 
d="M71 58v432h121v-377l49 -45l-69 -87zM131 703l82 -81l-82 -81l-81 81z" />
    <glyph glyph-name="afii10104" unicode="&#x457;" horiz-adv-x="271" 
d="M71 58v432h121v-377l49 -45l-69 -87zM32 703l82 -81l-82 -81l-81 81zM239 703l82 -81l-82 -81l-81 81z" />
    <glyph glyph-name="afii10105" unicode="&#x458;" horiz-adv-x="269" 
d="M199 490v-582l-123 -170l-86 65l89 135v552h120zM137 703l82 -81l-82 -81l-81 81z" />
    <glyph glyph-name="afii10106" unicode="&#x459;" horiz-adv-x="771" 
d="M97 133l35 357h340v-173h91q78 0 131 -44q52 -43 52 -112q0 -35 -13 -64.5t-37 -51t-57.5 -33.5t-74.5 -12h-211v382h-117l-28 -282l-97 -132l-91 60zM472 210v-101h93q26 0 43.5 15t17.5 37q0 19 -18 34t-43 15h-93z" />
    <glyph glyph-name="afii10107" unicode="&#x45a;" horiz-adv-x="796" 
d="M377 0v209h-187v-209h-120v490h120v-174h187v174h120v-173h91q78 0 131 -44q52 -43 52 -112q0 -35 -13 -64.5t-37 -51t-57.5 -33.5t-74.5 -12h-212zM497 210v-101h93q26 0 43.5 15t17.5 37q0 19 -18 34t-43 15h-93z" />
    <glyph glyph-name="afii10108" unicode="&#x45b;" horiz-adv-x="543" 
d="M349 589v-108h-160v-90q52 32 118 32q80 0 133 -50t53 -132v-241h-118v222q0 46 -25 69.5t-61 23.5q-24 0 -49 -10t-38 -20l-13 -10v-275h-120v481h-49v108h49v92h120v-92h160z" />
    <glyph glyph-name="afii10109" unicode="&#x45c;" horiz-adv-x="507" 
d="M191 490v-184l150 184h155l-200 -230l217 -260h-155l-167 205v-205h-121v490h121zM203 552l76 130h140l-111 -130h-105z" />
    <glyph glyph-name="afii10110" unicode="&#x45e;" horiz-adv-x="533" 
d="M398 490h130l-197 -593l-116 -159l-86 65l89 133l23 64h-50l-135 371l-56 54l66 82l88 -66l118 -331h4zM321 682h95q0 -5 -1.5 -14t-10.5 -32q-9 -21 -23 -39q-14 -17 -44 -31t-69 -14q-43 0 -71 13.5t-45 32t-24.5 38.5t-9.5 32l-1 14h94q4 -14 11 -25q6 -10 17 -17.5
t30 -7.5t32 12.5t17 25.5z" />
    <glyph glyph-name="afii10193" unicode="&#x45f;" horiz-adv-x="574" 
d="M230 -102l-4 102h-156v490h120v-383h194v383h120v-490h-155l-5 -102h-114z" />
    <glyph glyph-name="afii10146" unicode="&#x462;" horiz-adv-x="620" 
d="M0 567v115h418v-119h-186v-443h134q42 0 70 26t28 68q0 18 -8 35.5t-21.5 30.5t-31 21t-37.5 8h-114v55l65 61h46q97 0 162 -60q65 -59 65 -151q0 -93 -63 -154q-62 -60 -163 -60h-259v563z" />
    <glyph glyph-name="afii10194" unicode="&#x463;" horiz-adv-x="487" 
d="M338 481h-149v-164h89q79 0 132 -44q52 -43 52 -112q0 -70 -51 -116q-50 -45 -132 -45h-210v481h-49v107h49v93h120v-93h149v-107zM189 210v-101h92q25 0 42.5 15t17.5 37q0 19 -18 34t-42 15h-92z" />
    <glyph glyph-name="afii10147" unicode="&#x472;" horiz-adv-x="791" 
d="M147 93q-102 102 -102 248t102 248q103 102 249 102t248 -103q102 -102 102 -247t-102 -248q-102 -102 -248 -102t-249 102zM396 571q-76 0 -136 -48q-60 -47 -79 -119q45 21 115 21q40 0 105 -27q66 -26 102 -26q60 0 109 28q-18 75 -79 123q-60 48 -137 48zM396 111
q75 0 133 46q59 46 82 119q-49 -20 -113 -20q-37 0 -107 26q-68 27 -102 27q-66 0 -110 -28q16 -75 77 -123q61 -47 140 -47z" />
    <glyph glyph-name="afii10195" unicode="&#x473;" horiz-adv-x="581" 
d="M546 246q0 -107 -75 -182q-74 -74 -181 -74q-105 0 -181 74q-74 76 -74 182t74 180q76 74 181 74q107 0 181 -74q75 -74 75 -180zM290 101q45 0 79.5 27t48.5 70q-32 -18 -65 -18q-24 0 -64 22t-61 22q-31 0 -68 -24q13 -45 48.5 -72t81.5 -27zM290 390q-45 0 -80 -27
t-49 -70q34 22 71 22q23 0 64 -23q40 -22 61 -22q30 0 62 21q-13 45 -48 72t-81 27z" />
    <glyph glyph-name="afii10148" unicode="&#x474;" horiz-adv-x="614" 
d="M545 531l-160 -531h-145l-225 682h138l158 -516h4l116 427l122 121l85 -81z" />
    <glyph glyph-name="afii10196" unicode="&#x475;" horiz-adv-x="492" 
d="M449 370l-129 -370h-140l-175 490h129l114 -346h4l98 301l84 68l74 -94z" />
    <glyph glyph-name="afii10050" unicode="&#x490;" horiz-adv-x="528" 
d="M508 805v-243h-303v-562h-130v682h315l4 123h114z" />
    <glyph glyph-name="afii10098" unicode="&#x491;" horiz-adv-x="418" 
d="M408 576v-194h-219v-382h-119v490h226l3 86h109z" />
    <glyph glyph-name="afii10846" unicode="&#x4d9;" horiz-adv-x="544" 
d="M43 293h341q-33 100 -149 100q-33 0 -68 -6.5t-53 -12.5l-19 -7v108q60 25 151 25q115 0 189 -75q74 -76 74 -179q0 -109 -72 -182q-72 -74 -174 -74q-97 0 -163 63q-65 65 -65 161q0 17 2 37t4 31zM258 94q48 0 82.5 31.5t46.5 80.5h-241q0 -50 34 -81t78 -31z" />
    <glyph glyph-name="uni1E02" unicode="&#x1e02;" horiz-adv-x="623" 
d="M549 494q0 -27 -7 -49t-17 -37.5t-21 -26t-18 -15.5l-7 -4v-4l10 -5t22 -17q18 -15 29 -30q13 -17 23 -47.5t10 -65.5q0 -87 -62 -140t-157 -53h-279v682h242q109 0 170.5 -47.5t61.5 -140.5zM446 200q0 87 -123 87h-123v-166h137q49 0 79 21.5t30 57.5zM201 405h118
q49 0 77.5 23t28.5 58q0 36 -26.5 56t-72.5 20h-125v-157zM277 895l82 -81l-82 -81l-81 81z" />
    <glyph glyph-name="uni1E03" unicode="&#x1e03;" 
d="M167 32l-67 -50l-70 88l49 44v691h121v-334q38 26 92 26q103 0 170 -73q68 -74 68 -180q0 -107 -66 -180q-65 -72 -172 -72q-14 0 -29.5 3t-30 7.5t-27 9.5t-21.5 10zM274 388q-43 0 -74 -21v-248q31 -19 74 -19q58 0 99 42q40 41 40 102q0 59 -41 102q-41 42 -98 42z
M326 895l82 -81l-82 -81l-81 81z" />
    <glyph glyph-name="uni1E0A" unicode="&#x1e0a;" horiz-adv-x="689" 
d="M80 0v682h210q162 0 259 -97q98 -98 98 -253q0 -140 -100 -236q-99 -96 -257 -96h-210zM210 560v-438h75q103 0 166 60t63 159t-62 159t-164 60h-78zM282 895l82 -81l-82 -81l-81 81z" />
    <glyph glyph-name="uni1E0B" unicode="&#x1e0b;" 
d="M465 -18l-67 50q-61 -40 -125 -40q-107 0 -173 72q-65 74 -65 180t68 180q67 73 170 73q24 0 47 -6.5t34 -12.5l11 -7v334h121v-691l49 -44zM291 100q43 0 74 19v248q-32 21 -74 21q-59 0 -99 -42q-40 -41 -40 -102t40 -102q40 -42 99 -42zM245 896l82 -81l-82 -81
l-81 81z" />
    <glyph glyph-name="uni1E1E" unicode="&#x1e1e;" horiz-adv-x="556" 
d="M521 561h-320v-153h288v-121h-288v-287h-126v682h446v-121zM302 895l82 -81l-82 -81l-81 81z" />
    <glyph glyph-name="uni1E1F" unicode="&#x1e1f;" horiz-adv-x="317" 
d="M307 490v-106h-111v-384h-119v384h-42v106h42v123l146 202l83 -59l-110 -167v-99h111zM72 895l82 -81l-82 -81l-81 81z" />
    <glyph glyph-name="uni1E40" unicode="&#x1e40;" horiz-adv-x="787" 
d="M712 682v-682h-127v419l5 81h-4l-49 -81l-98 -140h-91l-98 140l-49 81h-4l5 -80v-420h-127v682h135l181 -269h4l182 269h135zM393 895l82 -81l-82 -81l-81 81z" />
    <glyph glyph-name="uni1E41" unicode="&#x1e41;" horiz-adv-x="828" 
d="M99 510l78 -58q58 45 125 45q18 0 36 -3.5t33.5 -9.5t28 -13.5t19.5 -14.5l14 -14q7 6 20 15t50 24q36 16 71 16q75 0 123 -50q49 -49 52 -126l14 -321h-119l-12 300q-1 43 -22.5 66t-52.5 23q-22 0 -43.5 -10t-31.5 -20l-11 -10l6 -349h-117l-5 300q-1 43 -21.5 66
t-52.5 23q-20 0 -40.5 -9.5t-31.5 -18.5l-11 -9v-352h-120v379l-48 46zM413 703l82 -81l-82 -81l-81 81z" />
    <glyph glyph-name="uni1E56" unicode="&#x1e56;" horiz-adv-x="578" 
d="M203 247v-247h-128v682h255q97 0 160 -60t63 -157t-63 -158q-63 -60 -161 -60h-126zM203 561v-194h120q48 0 75 28t27 70t-27 69t-75 27h-120zM259 895l82 -81l-82 -81l-81 81z" />
    <glyph glyph-name="uni1E57" unicode="&#x1e57;" 
d="M100 505l67 -50q61 40 125 40q108 0 172 -73q66 -72 66 -179q0 -106 -68 -180q-67 -73 -170 -73q-24 0 -47 6.5t-34 13.5l-11 6v-266h-121v623l-49 44zM274 387q-43 0 -74 -19v-248q31 -21 74 -21q57 0 98 42q41 43 41 102q0 61 -40 102q-41 42 -99 42zM290 703l82 -81
l-82 -81l-81 81z" />
    <glyph glyph-name="uni1E60" unicode="&#x1e60;" horiz-adv-x="555" 
d="M470 659v-128q-86 40 -178 40q-45 0 -72 -15.5t-27 -42.5q0 -25 23 -43.5t57 -36.5t74.5 -37.5t74.5 -47.5t57 -66.5t23 -93.5q0 -33 -13 -68.5t-43.5 -64t-80.5 -47t-123 -18.5q-22 0 -45 2.5t-44.5 6t-39 8t-29.5 9.5l-24 9v131q90 -45 198 -45q38 0 73 18q35 20 35 54
q0 24 -18.5 44t-47.5 38.5t-64 36.5t-68 37q-45 26 -76.5 67t-31.5 93q0 97 67 145t172 48q21 0 43.5 -2t42.5 -5.5t36.5 -8t27.5 -8.5zM285 895l82 -81l-82 -81l-81 81z" />
    <glyph glyph-name="uni1E61" unicode="&#x1e61;" horiz-adv-x="436" 
d="M371 471v-109q-71 33 -138 33q-27 0 -44 -10.5t-17 -26.5q0 -13 16.5 -24.5t40.5 -24t52.5 -26.5t53 -33t40.5 -44.5t16 -59.5q0 -73 -52.5 -114.5t-146.5 -41.5q-37 0 -72 9.5t-52 18.5l-17 10v112q67 -43 137 -43q31 0 54.5 10t23.5 29q0 14 -16 25.5t-40 24t-52 26.5
t-52 33t-40 44.5t-16 60.5q0 33 13 61t37.5 47.5t59.5 30.5t78 11q35 0 68.5 -7t49.5 -15zM230 703l82 -81l-82 -81l-81 81z" />
    <glyph glyph-name="uni1E6A" unicode="&#x1e6a;" horiz-adv-x="527" 
d="M512 562h-184v-562h-130v562h-183v120h497v-120zM263 895l82 -81l-82 -81l-81 81z" />
    <glyph glyph-name="uni1E6B" unicode="&#x1e6b;" horiz-adv-x="326" 
d="M205 582v-92h111v-108h-111v-269l50 -44l-70 -88l-101 76v325h-49v78l109 122h61zM143 896l82 -81l-82 -81l-81 81z" />
    <glyph glyph-name="Wgrave" unicode="&#x1e80;" horiz-adv-x="787" 
d="M75 0v682h127v-419l-5 -81h4l49 81l98 140h91l98 -140l49 -81h4l-5 80v420h127v-682h-135l-181 269h-4l-182 -269h-135zM379 874l76 -130h-105l-111 130h140z" />
    <glyph glyph-name="wgrave" unicode="&#x1e81;" horiz-adv-x="794" 
d="M779 490l-142 -490h-143l-95 331h-4l-95 -331h-143l-142 490h129l86 -345h4l99 345h129l98 -345h4l86 345h129zM372 682l76 -130h-105l-111 130h140z" />
    <glyph glyph-name="Wacute" unicode="&#x1e82;" horiz-adv-x="787" 
d="M75 0v682h127v-419l-5 -81h4l49 81l98 140h91l98 -140l49 -81h4l-5 80v420h127v-682h-135l-181 269h-4l-182 -269h-135zM331 744l76 130h140l-111 -130h-105z" />
    <glyph glyph-name="wacute" unicode="&#x1e83;" horiz-adv-x="794" 
d="M779 490l-142 -490h-143l-95 331h-4l-95 -331h-143l-142 490h129l86 -345h4l99 345h129l98 -345h4l86 345h129zM335 552l76 130h140l-111 -130h-105z" />
    <glyph glyph-name="Wdieresis" unicode="&#x1e84;" horiz-adv-x="787" 
d="M75 0v682h127v-419l-5 -81h4l49 81l98 140h91l98 -140l49 -81h4l-5 80v420h127v-682h-135l-181 269h-4l-182 -269h-135zM290 895l82 -81l-82 -81l-81 81zM497 895l82 -81l-82 -81l-81 81z" />
    <glyph glyph-name="wdieresis" unicode="&#x1e85;" horiz-adv-x="794" 
d="M779 490l-142 -490h-143l-95 331h-4l-95 -331h-143l-142 490h129l86 -345h4l99 345h129l98 -345h4l86 345h129zM293 703l82 -81l-82 -81l-81 81zM500 703l82 -81l-82 -81l-81 81z" />
    <glyph glyph-name="Ygrave" unicode="&#x1ef2;" horiz-adv-x="593" 
d="M231 277l-226 405h144l146 -284h4l146 284h143l-226 -405v-277h-131v277zM290 874l76 -130h-105l-111 130h140z" />
    <glyph glyph-name="ygrave" unicode="&#x1ef3;" horiz-adv-x="533" 
d="M398 490h130l-197 -593l-116 -159l-86 65l89 133l23 64h-50l-135 371l-56 54l66 82l88 -66l118 -331h4zM266 682l76 -130h-105l-111 130h140z" />
    <glyph glyph-name="endash" unicode="&#x2013;" horiz-adv-x="516" 
d="M516 318v-108h-515v108h515z" />
    <glyph glyph-name="emdash" unicode="&#x2014;" horiz-adv-x="1003" 
d="M1003 318v-108h-1003v108h1003z" />
    <glyph glyph-name="quoteleft" unicode="&#x2018;" horiz-adv-x="228" 
d="M10 404l76 278h102l-37 -278h-141z" />
    <glyph glyph-name="quoteright" unicode="&#x2019;" horiz-adv-x="228" 
d="M218 682l-76 -278h-102l37 278h141z" />
    <glyph glyph-name="quotesinglbase" unicode="&#x201a;" horiz-adv-x="238" 
d="M218 138l-76 -278h-102l37 278h141z" />
    <glyph glyph-name="quotedblleft" unicode="&#x201c;" horiz-adv-x="440" 
d="M222 404l76 278h102l-37 -278h-141zM10 404l76 278h102l-37 -278h-141z" />
    <glyph glyph-name="quotedblright" unicode="&#x201d;" horiz-adv-x="440" 
d="M218 682l-76 -278h-102l37 278h141zM430 682l-76 -278h-102l37 278h141z" />
    <glyph glyph-name="quotedblbase" unicode="&#x201e;" horiz-adv-x="450" 
d="M218 138l-76 -278h-102l37 278h141zM430 138l-76 -278h-102l37 278h141z" />
    <glyph glyph-name="dagger" unicode="&#x2020;" horiz-adv-x="477" 
d="M412 377h-114v-571h-119v571h-114v113h114v191h119v-191h114v-113z" />
    <glyph glyph-name="daggerdbl" unicode="&#x2021;" horiz-adv-x="477" 
d="M65 0v113h114v264h-114v113h114v191h119v-191h114v-113h-114v-264h114v-113h-114v-193h-119v193h-114z" />
    <glyph glyph-name="bullet" unicode="&#x2022;" horiz-adv-x="424" 
d="M369 344q0 -65 -46 -111t-111 -46q-66 0 -112 45q-45 46 -45 112q0 65 45 110q46 46 112 46q64 0 110 -46q47 -47 47 -110z" />
    <glyph glyph-name="ellipsis" unicode="&#x2026;" horiz-adv-x="851" 
d="M70 138h137v-138h-137v138zM357 138h137v-138h-137v138zM644 138h137v-138h-137v138z" />
    <glyph glyph-name="perthousand" unicode="&#x2030;" horiz-adv-x="1365" 
d="M717 -10q-74 0 -126 51q-51 51 -51 125t52 125q52 52 125 52t125 -52q52 -51 52 -125q0 -73 -51 -125q-51 -51 -126 -51zM727 682l-400 -682h-107l400 682h107zM357 388q-51 -51 -125 -51t-126 51q-51 52 -51 126t52 125t125 51q72 0 125 -51q52 -51 52 -125t-52 -126z
M717 246q-33 0 -55 -23t-22 -57t22 -56.5t55 -22.5t55.5 23t22.5 56t-23 56.5t-55 23.5zM309 514q0 33 -22 56.5t-55 23.5t-55.5 -23.5t-22.5 -56.5t22.5 -57t55.5 -24t55 23.5t22 57.5zM1133 -10q-74 0 -126 51q-51 51 -51 125t52 125q52 52 125 52t125 -52q52 -51 52 -125
q0 -73 -51 -125q-51 -51 -126 -51zM1133 246q-33 0 -55 -23t-22 -57t22 -56.5t55 -22.5t55.5 23t22.5 56t-23 56.5t-55 23.5z" />
    <glyph glyph-name="guilsinglleft" unicode="&#x2039;" horiz-adv-x="385" 
d="M179 246l161 -246h-135l-160 246l160 244h135z" />
    <glyph glyph-name="guilsinglright" unicode="&#x203a;" horiz-adv-x="385" 
d="M45 0l161 246l-161 244h135l160 -244l-160 -246h-135z" />
    <glyph glyph-name="fraction" unicode="&#x2044;" horiz-adv-x="271" 
d="M390 682l-400 -682h-107l400 682h107z" />
    <glyph glyph-name="Euro" unicode="&#x20ac;" horiz-adv-x="649" 
d="M-8 365l40 101h82q37 101 125 163t197 62q19 0 39.5 -2.5t38.5 -6t33.5 -8t24.5 -8.5l19 -8v-125q-77 36 -150 36q-126 0 -189 -103h179v-101h-211q-3 -33 1 -57h210v-103h-175q60 -93 189 -93q18 0 37.5 3t38 7.5t34.5 9.5t27 10l22 11v-129q-72 -34 -167 -34
q-109 0 -197 60q-86 59 -124 155h-124l40 103h59q-2 27 0 57h-99z" />
    <glyph glyph-name="litre" unicode="&#x2113;" horiz-adv-x="443" 
d="M99 147l-49 72l63 54v280q0 57 39 98q41 41 101 41q64 0 102 -43t38 -119q0 -81 -55 -160q-53 -78 -127 -140v-123q0 -23 30 -23q13 0 21.5 8t8.5 21v38h95v-37q0 -51 -37 -87q-36 -36 -89 -36t-90 36t-37 87v45zM211 360q83 89 83 168q0 67 -42 67q-18 0 -29.5 -12.5
t-11.5 -28.5v-194z" />
    <glyph glyph-name="trademark" unicode="&#x2122;" horiz-adv-x="832" 
d="M762 681v-379h-90v224h-4l-59 -86h-44l-59 86h-4v-224h-90v379h85l87 -140h4l88 140h86zM348 681v-94h-101v-284h-94v284h-98v94h293z" />
    <glyph glyph-name="estimated" unicode="&#x212e;" horiz-adv-x="796" 
d="M185 318v-200q94 -86 213 -86q115 0 208 81l31 -29q-101 -93 -239 -93q-144 0 -247 101q-101 103 -101 247q0 145 101 246q102 102 247 102t246 -102q102 -101 102 -246q0 -16 -1 -21h-560zM398 646q-119 0 -213 -86v-1v-1v-1v-1v-1v-1v-1v-1v-1v-1v-1v-1v-1v-1v-1v-1v-1
v-1v-1v-1v-1v-1v-1v-1v-1v-1v-1v-1v-1v-1v-1v-1v-1v-1v-1v-1v-1v-1v-1v-1v-1v-1v-2v-1v-1v-1v-1v-1v-1v-2v-1v-1v-1v-2v-1v-1v-1v-2v-1v-1v-1v-2v-1v-1v-2v-1v-1v-2v-1v-2v-1v-1v-2v-1v-2v-1v-1v-2v-1v-2v-1v-2v-1v-2v-1v-2v-1v-2v-1v-2v-1v-2v-1v-2v-1v-2v-2v-1v-2v-1v-2
v-2v-1v-2v-1v-2v-2v-1v-2v-2v-1v-2v-2v-1v-2v-2v-1v-2v-2v-2v-1v-2v-2v-2v-1v-2v-2v-2v-2v-1v-2v-2v-2v-2v-1v-2v-2v-2v-2v-9h427v198q-92 87 -214 87z" />
    <glyph glyph-name="minus" unicode="&#x2212;" horiz-adv-x="551" 
d="M65 218v115h421v-115h-421z" />
    <glyph glyph-name="approxequal" unicode="&#x2248;" horiz-adv-x="551" 
d="M65 97v110q6 5 16 12.5t43 20.5q32 13 67 13q33 0 89 -27q55 -27 85 -27q28 0 58.5 11.5t46.5 23.5l16 12v-111q-6 -5 -16 -12.5t-43 -20.5q-33 -12 -67 -12q-32 0 -89 27q-56 27 -85 27q-28 0 -58.5 -12t-46.5 -24zM65 306v110q6 5 16 12.5t43 20.5q32 13 67 13
q33 0 89 -27q55 -27 85 -27q28 0 58.5 12t46.5 24l16 11v-111q-6 -5 -16 -12.5t-43 -20.5q-33 -12 -67 -12q-32 0 -89 27q-56 27 -85 27q-28 0 -58.5 -11.5t-46.5 -23.5z" />
    <glyph glyph-name="notequal" unicode="&#x2260;" horiz-adv-x="551" 
d="M65 316v114h220l24 70h83l-24 -70h118v-114h-156l-27 -80h183v-114h-221l-23 -70h-83l23 70h-117v114h155l27 80h-182z" />
    <glyph glyph-name="lessequal" unicode="&#x2264;" horiz-adv-x="551" 
d="M486 442l-273 -93v-4l273 -94v-116l-421 167v89l421 169v-118zM65 0v110h421v-110h-421z" />
    <glyph glyph-name="greaterequal" unicode="&#x2265;" horiz-adv-x="551" 
d="M338 349l-273 93v118l421 -169v-89l-421 -167v116l273 94v4zM486 110v-110h-421v110h421z" />
    <glyph glyph-name="commaaccent" unicode="&#xf6c3;" horiz-adv-x="173" 
d="M173 -71l-71 -189h-102l32 189h141z" />
    <glyph glyph-name="dblgrave" unicode="&#xf6d3;" horiz-adv-x="433" 
d="M357 682l76 -130h-105l-111 130h140zM140 682l76 -130h-105l-111 130h140z" />
    <glyph glyph-name="cyrbreve" unicode="&#xf6d4;" horiz-adv-x="294" 
d="M294 681q0 -72 -36 -100.5t-111 -28.5t-111 28.5t-36 100.5h83q0 -14 1.5 -23t6.5 -22q12 -25 56 -25t55 25q6 13 7.5 22t1.5 23h83z" />
    <glyph glyph-name="f_f" unicode="&#xfb00;" horiz-adv-x="624" 
d="M614 490v-106h-111v-384h-119v384h-188v-384h-119v384h-42v106h42v123l146 202l83 -59l-110 -167v-99h188v123l146 202l83 -59l-110 -167v-99h111z" />
    <glyph glyph-name="f_f_i" unicode="&#xfb03;" horiz-adv-x="885" 
d="M685 58v326h-182v-384h-119v384h-188v-384h-119v384h-42v106h42v123l146 202l83 -59l-110 -167v-99h188v123l146 202l83 -59l-110 -167v-99h303v-377l49 -45l-69 -87zM745 703l82 -81l-82 -81l-81 81z" />
    <glyph glyph-name="f_f_l" unicode="&#xfb04;" horiz-adv-x="888" 
d="M687 58v644h-108l-75 -113v-99h110v-106h-110v-384h-120v384h-188v-384h-119v384h-42v106h42v123l146 202l83 -59l-110 -167v-99h188v119l140 196h283v-695l51 -41l-69 -87z" />
    <glyph glyph-name="longs_t" unicode="&#xfb05;" horiz-adv-x="610" 
d="M368 692h-34q-43 0 -62 -21l-65 -68v-603h-122v383h-50v107h50v147l115 121q45 47 134 47h155v-315h111v-108h-111v-269l50 -44l-70 -88l-101 76v635z" />
    <glyph glyph-name="s_t" unicode="&#xfb06;" horiz-adv-x="739" 
d="M618 490h111v-108h-111v-269l50 -44l-70 -88l-101 76v538q0 24 -8.5 44.5t-23 35.5t-35 23.5t-44.5 8.5t-44 -8.5t-35 -23.5t-23 -35.5t-8 -44.5q0 -20 6.5 -36.5t17 -29t23.5 -20.5t25 -11l23 -5v-97q-35 -1 -69.5 -1h-68.5q-27 0 -44 -10.5t-17 -26.5q0 -13 16.5 -24.5
t40.5 -24t52.5 -26.5t53 -33t40.5 -44.5t16 -59.5q0 -73 -52.5 -114.5t-146.5 -41.5q-37 0 -72 9.5t-52 18.5l-17 10v112q67 -43 137 -43q31 0 54.5 10t23.5 29q0 14 -16 25.5t-40 24t-52 26.5t-52 33t-40 44.5t-16 60.5q0 40 16 67t37.5 43.5t45 24t38.5 9.5l16 2
q-4 4 -10.5 12t-17.5 36q-10 27 -10 62q0 84 68 146q67 63 161 63t159 -66q65 -65 65 -158v-101z" />
    <glyph glyph-name="s_p" unicode="&#xfb07;" horiz-adv-x="983" 
d="M371 493v-97q-35 -1 -69.5 -1h-68.5q-27 0 -44 -10.5t-17 -26.5q0 -13 16.5 -24.5t40.5 -24t52.5 -26.5t53 -33t40.5 -44.5t16 -59.5q0 -73 -52.5 -114.5t-146.5 -41.5q-37 0 -72 9.5t-52 18.5l-17 10v112q67 -43 137 -43q31 0 54.5 10t23.5 29q0 14 -16 25.5t-40 24
t-52 26.5t-52 33t-40 44.5t-16 60.5q0 40 16 67t37.5 43.5t45 24t38.5 9.5l16 2q-4 4 -10.5 12t-17.5 36q-10 27 -10 62q0 84 68 146q67 63 161 63t159 -66q65 -65 65 -158v-118q37 22 94 22q106 0 170 -73q66 -72 66 -179q0 -106 -68 -180q-67 -73 -170 -73q-24 0 -47 6.5
t-34 13.5l-11 6v-266h-121v845q0 24 -8.5 44.5t-23 35.5t-35 23.5t-44.5 8.5t-44 -8.5t-35 -23.5t-23 -35.5t-8 -44.5q0 -20 6.5 -36.5t17 -29t23.5 -20.5t25 -11zM692 387q-43 0 -74 -19v-248q31 -21 74 -21q57 0 98 42q41 43 41 102q0 61 -40 102q-41 42 -99 42z" />
    <glyph glyph-name="c_t" unicode="&#xfb0a;" horiz-adv-x="751" 
d="M424 130v-113q-69 -27 -127 -27q-115 0 -189 74q-73 73 -73 181q0 79 48 147q49 67 125 94q-32 53 -32 107q0 93 67 157q68 65 162 65t159 -66q65 -65 65 -158v-101h112v-108h-112v-269l55 -42l-73 -95l-103 79v540q0 23 -9 43.5t-24 35.5t-35 24t-43 9q-24 0 -44 -8.5
t-35 -23.5t-23 -35.5t-8 -44.5q0 -31 10 -51t24.5 -32t29 -17t23.5 -5l10 -1v-103h-87q-32 0 -57.5 -11t-44.5 -29.5t-29 -44.5t-10 -56q0 -59 41 -103q40 -43 104 -43q28 0 58.5 7.5t47.5 15.5z" />
    <glyph glyph-name="t_y" unicode="&#xfb12;" horiz-adv-x="798" 
d="M205 582v-92h195l137 -380h4l122 380h130l-197 -593l-116 -159l-86 65l89 133l23 64h-50l-141 382h-110v-269l50 -44l-70 -88l-101 76v325h-49v78l109 122h61z" />
    </font>
</defs>
</svg>
